G04 ================== begin FILE IDENTIFICATION RECORD ==================*
G04 Layout Name:  E:/workspace/flyer/pcb/pcb/flyer.brd*
G04 Film Name:    bottom*
G04 File Format:  Gerber RS274X*
G04 File Origin:  Cadence Allegro 16.5-P002*
G04 Origin Date:  Sat Apr 09 10:41:48 2016*
G04 *
G04 Layer:  VIA CLASS/BOTTOM*
G04 Layer:  PIN/BOTTOM*
G04 Layer:  ETCH/BOTTOM*
G04 Layer:  BOARD GEOMETRY/OUTLINE*
G04 *
G04 Offset:    (0.000 0.000)*
G04 Mirror:    No*
G04 Mode:      Positive*
G04 Rotation:  0*
G04 FullContactRelief:  No*
G04 UndefLineWidth:     10.000*
G04 ================== end FILE IDENTIFICATION RECORD ====================*
%FSLAX35Y35*MOIN*%
%IR0*IPPOS*OFA0.00000B0.00000*MIA0B0*SFA1.00000B1.00000*%
%ADD15R,.047X.118*%
%ADD10C,.354331*%
%ADD20R,.012X.036*%
%ADD21R,.036X.012*%
%AMMACRO19*
21,1,.032,.063,0.0,0.0,90.01*%
%ADD19MACRO19*%
%ADD16R,.032X.063*%
%ADD11C,.024*%
%ADD18R,.0315X.029921*%
%ADD17R,.029921X.0315*%
%ADD14C,.055118*%
%ADD22C,.047244*%
%ADD13R,.072835X.015748*%
%ADD12R,.072835X.070866*%
%ADD23C,.008*%
%ADD24C,.01*%
%ADD25C,.02*%
%ADD26C,.03*%
%ADD27C,.04*%
%ADD28C,.05*%
%ADD29C,.015*%
%ADD30C,.025*%
%ADD33R,.077004X.148004*%
%ADD31C,.085122*%
%ADD32C,.077248*%
G75*
%LPD*%
G75*
G36*
G01X-243410Y-269709D02*
G02X-244930Y-269834I-813J582D01*
G01X-269834Y-244930D01*
G02X-269709Y-243410I707J707D01*
G03Y243410I-174434J243410D01*
G02X-269834Y244930I582J813D01*
G01X-244930Y269834D01*
G02X-243410Y269709I707J-707D01*
G03X243410I243410J174434D01*
G02X244930Y269834I813J-582D01*
G01X269834Y244930D01*
G02X269709Y243410I-707J-707D01*
G03Y-243410I174434J-243410D01*
G02X269834Y-244930I-582J-813D01*
G01X244930Y-269834D01*
G02X243410Y-269709I-707J707D01*
G03X-243410I-243410J-174434D01*
G37*
%LPC*%
G75*
G36*
G01X-141491Y-3930D02*
Y4631D01*
X-138442Y7680D01*
Y7804D01*
X-137049Y9197D01*
G03X-137756Y10904I-707J707D01*
G01X-143458D01*
Y20992D01*
X-133174D01*
Y15363D01*
G03X-131467Y14656I1000J0D01*
G01X-122016Y24107D01*
G02X-117773Y19864I2121J-2121D01*
G01X-128324Y9313D01*
G03X-127617Y7606I707J-707D01*
G01X-121658D01*
Y1700D01*
X-109741D01*
X-103156Y-4885D01*
X-102963Y-4894D01*
G02X-105268Y-7199I-107J-2198D01*
G01X-105277Y-7007D01*
X-106466Y-5818D01*
G03X-108009Y-5976I-707J-707D01*
G02X-112045Y-4875I-1839J1208D01*
G01X-112054Y-4682D01*
X-112877Y-3859D01*
X-121658D01*
Y-6732D01*
X-120109D01*
X-116079Y-10762D01*
G02X-120321Y-15005I-2121J-2122D01*
G01X-122595Y-12732D01*
X-124998D01*
X-128043Y-9687D01*
X-133174D01*
Y-20592D01*
X-143458D01*
Y-10504D01*
X-137331D01*
G03X-136624Y-8797I0J1000D01*
G01X-141491Y-3930D01*
G37*
G36*
G01X-34915Y-52667D02*
G02X-39015Y-53786I-2200J-11D01*
G03X-40554Y-53552I-864J-504D01*
G02X-42230Y-49737I-1485J1623D01*
G01X-42049Y-49721D01*
X-33168Y-40840D01*
X-33169Y-40632D01*
G02X-28810Y-40193I2200J11D01*
G03X-27122Y-40705I981J195D01*
G01X-24607Y-38190D01*
Y-31570D01*
G03X-26063Y-30680I-1000J0D01*
G02Y-26765I-1005J1958D01*
G03X-24612Y-25981I457J890D01*
G01X-24421Y-25790D01*
X-24422Y-25581D01*
G02X-21476Y-27641I2200J10D01*
G01X-21806Y-27760D01*
Y-39350D01*
X-34916Y-52459D01*
X-34915Y-52667D01*
G37*
G36*
G01X135569Y109306D02*
G02X133380Y111496I-2200J-11D01*
G01X133588Y111495D01*
X134841Y112748D01*
X134225Y113364D01*
X133897Y113188D01*
G02X132867Y117327I-1040J1939D01*
G01X133076Y117326D01*
X144283Y128533D01*
X144291Y128728D01*
G02X146385Y126443I2198J-87D01*
G01X146164Y126454D01*
X144822Y125112D01*
X145401Y124533D01*
X145699Y124642D01*
G02X146605Y120379I750J-2068D01*
G01X146419Y120365D01*
X135568Y109515D01*
X135569Y109306D01*
G37*
G36*
G01X-135389Y132181D02*
G02X-137579Y129991I10J-2200D01*
G01X-137578Y130200D01*
X-137889Y130511D01*
G03X-139573Y130020I-707J-707D01*
G02X-143922Y130503I-2149J473D01*
G01X-143921Y130712D01*
X-155923Y142714D01*
X-156132Y142713D01*
G02X-153942Y144903I-11J2200D01*
G01X-153943Y144694D01*
X-151818Y142569D01*
G03X-150184Y142901I707J707D01*
G02X-146035Y142703I2040J-825D01*
G01X-145999Y142581D01*
X-135597Y132180D01*
X-135389Y132181D01*
G37*
G36*
G01X-43673Y-20682D02*
G02X-46474I-1400J-1697D01*
G01Y-2012D01*
G02X-43929Y1564I1400J1697D01*
G03X-42476Y2056I520J854D01*
G02X-39024Y-436I2051J-795D01*
G01Y-17294D01*
G02X-41825I-1400J-1697D01*
G01Y-436D01*
G02X-42024Y-250I1400J1697D01*
G03X-42885Y-542I-364J-343D01*
G02X-43673Y-2012I-2189J226D01*
G01Y-20682D01*
G37*
G36*
G01X119675Y-129967D02*
X129561Y-139853D01*
X129652Y-139891D01*
G02X126770Y-142772I-853J-2028D01*
G01X126732Y-142681D01*
X116846Y-132795D01*
X116756Y-132757D01*
G02X119637Y-129876I853J2028D01*
G01X119675Y-129967D01*
G37*
G36*
G01X131564Y-138745D02*
X116922Y-124103D01*
X116713Y-124104D01*
G02X118903Y-121914I-11J2200D01*
G01X118902Y-122123D01*
X133206Y-136427D01*
X133453Y-136392D01*
G02X131589Y-138906I310J-2178D01*
G01X131564Y-138745D01*
G37*
G36*
G01X123116Y-117502D02*
X123126Y-117694D01*
X137105Y-131674D01*
X137298Y-131684D01*
G02X134993Y-133988I-107J-2198D01*
G01X134984Y-133796D01*
X121004Y-119816D01*
X120811Y-119807D01*
G02X123116Y-117502I107J2198D01*
G37*
G36*
G01X3366Y-73194D02*
Y-126278D01*
G02X-1634I-2500J0D01*
G01Y-73194D01*
X-15226D01*
Y-63893D01*
X-13526D01*
Y-54173D01*
X-14083Y-53616D01*
X-14292Y-53617D01*
G02X-12102Y-51428I-10J2200D01*
G01X-12103Y-51636D01*
X-11744Y-51995D01*
G03X-10051Y-51451I707J707D01*
G02X-6494Y-50102I2171J-360D01*
G03X-4865Y-49325I630J777D01*
G01Y-44863D01*
X-5458Y-44269D01*
Y-38103D01*
G02X-2658I1400J1697D01*
G01Y-43109D01*
X-2064Y-43703D01*
Y-63893D01*
X3797D01*
Y-54489D01*
G02X6597I1400J1697D01*
G01Y-63893D01*
X11300D01*
X11315Y-63408D01*
G02X15713I2199J-65D01*
G01X15728Y-63893D01*
X16789D01*
Y-61256D01*
G02X19589I1400J1697D01*
G01Y-63893D01*
X25620D01*
Y-73194D01*
X3366D01*
G37*
G36*
G01X-96210Y-106570D02*
X-96426Y-106562D01*
X-100970Y-111106D01*
X-100969Y-111314D01*
G02X-103158Y-109124I-2200J-11D01*
G01X-102950Y-109126D01*
X-98340Y-104516D01*
X-98336Y-104316D01*
G02X-96210Y-106570I2200J-54D01*
G37*
G36*
G01X-107257Y-95145D02*
X-107466Y-95144D01*
X-113331Y-101009D01*
X-113360Y-101160D01*
G02X-115156Y-98576I-2161J414D01*
G01X-114901Y-98619D01*
X-109446Y-93164D01*
X-109447Y-92955D01*
G02X-107257Y-95145I2200J11D01*
G37*
G36*
G01X-83928Y-18003D02*
X-83929Y-18211D01*
X-76913Y-25227D01*
Y-27144D01*
G02X-79714I-1400J-1697D01*
G01Y-26387D01*
X-85909Y-20191D01*
X-86118Y-20192D01*
G02X-83928Y-18003I-11J2200D01*
G37*
G36*
G01X-2997Y-30123D02*
X-11856D01*
G02Y-27322I-1697J1400D01*
G01X-2997D01*
G02Y-30123I1697J-1400D01*
G37*
G36*
G01X-49899Y-1855D02*
Y-24740D01*
G02X-52699I-1400J-1697D01*
G01Y-1855D01*
G02X-49899I1400J1697D01*
G37*
G36*
G01X57186Y-15003D02*
G03X56318Y-16413I44J-999D01*
G02X50263Y-15083I-3522J-1586D01*
G01X50435Y-14933D01*
Y-14205D01*
X49292D01*
G02Y-11405I-1697J1400D01*
G01X55393D01*
G02X57186Y-15003I1697J-1400D01*
G37*
G36*
G01X-72808Y-5411D02*
X-70056D01*
X-69925Y-5111D01*
G02Y-8511I3902J-1700D01*
G01X-70056Y-8211D01*
X-72808D01*
G02Y-5411I-1697J1400D01*
G37*
G36*
G01X61840Y16506D02*
Y8907D01*
G02X59039I-1400J-1697D01*
G01Y16506D01*
G02X61840I1400J1697D01*
G37*
G36*
G01X68538Y16427D02*
Y11232D01*
G02X65737I-1400J-1697D01*
G01Y16427D01*
G02X68538I1400J1697D01*
G37*
G36*
G01X-43106Y13375D02*
X-46568D01*
G02Y16175I-1697J1400D01*
G01X-43106D01*
G02Y13375I1697J-1400D01*
G37*
G36*
G01X27219Y41911D02*
X27218Y41703D01*
X36536Y32385D01*
X36736Y32380D01*
G02X34482Y30254I-54J-2200D01*
G01X34490Y30471D01*
X25238Y39722D01*
X25030Y39721D01*
G02X27219Y41911I-10J2200D01*
G37*
G36*
G01X40474Y35321D02*
X30439Y45357D01*
X30230Y45356D01*
G02X32420Y47545I-11J2200D01*
G01X32419Y47337D01*
X42488Y37268D01*
X42692Y37266D01*
G02X40470Y35108I-22J-2200D01*
G01X40474Y35321D01*
G37*
G36*
G01X-51937Y59253D02*
X-51930Y59055D01*
X-44489Y51615D01*
X-44296Y51605D01*
G02X-46601Y49300I-107J-2198D01*
G01X-46611Y49493D01*
X-54089Y56971D01*
X-54277Y56983D01*
G02X-51937Y59253I141J2196D01*
G37*
G36*
G01X-42506Y53201D02*
X-42505Y53409D01*
X-52684Y63588D01*
X-52917Y63567D01*
G02X-50919Y65949I-194J2192D01*
G01X-50904Y65768D01*
X-40525Y55389D01*
X-40317Y55390D01*
G02X-42506Y53201I10J-2200D01*
G37*
G36*
G01X91366Y73342D02*
X90139D01*
Y72725D01*
X90190Y72621D01*
G02X82477Y69024I-3818J-1881D01*
G01X82346Y69323D01*
X60088D01*
G02Y72123I-1697J1400D01*
G01X62328D01*
G03X63191Y73629I0J1000D01*
G02X66786Y76142I1898J1113D01*
G01X98275D01*
X103984Y81851D01*
X103983Y82060D01*
G02X106172Y79870I2200J11D01*
G01X105964Y79871D01*
X99618Y73525D01*
X99858Y73181D01*
G02X92319Y72037I-3486J-2442D01*
G03X91366Y73342I-952J305D01*
G37*
G36*
G01X106803Y87198D02*
X106594Y87199D01*
X99100Y79705D01*
X75907D01*
G02Y82505I-1697J1400D01*
G01X97940D01*
X104614Y89180D01*
X104613Y89388D01*
G02X106803Y87198I2200J11D01*
G37*
G36*
G01X-114258Y105009D02*
X-113297Y104048D01*
X-113088Y104049D01*
G02X-115278Y101860I11J-2200D01*
G01X-115277Y102068D01*
X-125516Y112306D01*
X-125759Y112275D01*
G02X-126787Y116527I-281J2182D01*
G03X-126419Y118174I-339J941D01*
G01X-128822Y120577D01*
X-128883Y120611D01*
G02X-125727Y121835I1070J1923D01*
G01X-125826Y121541D01*
X-114164Y109879D01*
X-113955Y109880D01*
G02X-113624Y105504I10J-2200D01*
G01X-113787Y105479D01*
X-114258Y105009D01*
G37*
G36*
G01X142484Y135991D02*
X127760Y121267D01*
X127732Y121114D01*
G02X123531Y122341I-2164J396D01*
G01X123568Y122431D01*
Y122732D01*
X139656Y138820D01*
X139694Y138910D01*
G02X142575Y136030I2028J-853D01*
G01X142484Y135991D01*
G37*
G36*
G01X-23462Y131374D02*
X-23500Y131464D01*
X-32388Y140352D01*
X-35405D01*
X-35496Y140315D01*
G02Y144389I-831J2037D01*
G01X-35405Y144352D01*
X-30731D01*
X-20671Y134293D01*
X-20581Y134254D01*
G02X-23462Y131374I-853J-2028D01*
G37*
G36*
G01X22988Y-104125D02*
X22987Y-97924D01*
X32288Y-97923D01*
X32288Y-104123D01*
X22988Y-104125D01*
G37*
G36*
G01X-89141Y15884D02*
X-79594Y6337D01*
Y-1806D01*
X-107147Y-29359D01*
X-121628D01*
G02Y-23358I0J3000D01*
G01X-109632D01*
X-85594Y680D01*
Y3851D01*
X-91626Y9884D01*
X-100312D01*
G02Y15884I0J3000D01*
G01X-89141D01*
G37*
G36*
G01X17984Y-12901D02*
X17983Y-13110D01*
X23217Y-18344D01*
X37800D01*
X50094Y-30637D01*
Y-37682D01*
X49624Y-38152D01*
G03X50331Y-39860I707J-707D01*
G01X57566D01*
X62141Y-35285D01*
X62140Y-35076D01*
G02X64330Y-37266I2200J10D01*
G01X64121Y-37265D01*
X61265Y-40121D01*
G03X61973Y-41828I707J-707D01*
G01X63241D01*
X69509Y-35561D01*
X69508Y-35352D01*
G02X73110Y-37037I2200J10D01*
G03X73320Y-38712I637J-771D01*
G02X72367Y-42900I-942J-1989D01*
G01X72159Y-42899D01*
X71269Y-43789D01*
G03X71425Y-45330I707J-707D01*
G02X72178Y-46179I-1214J-1835D01*
G03X73670Y-46532I894J448D01*
G02X71968Y-50211I2546J-3411D01*
G03X70733Y-49303I-998J-63D01*
G02X68514Y-48566I-522J2137D01*
G01X44481D01*
Y-49266D01*
X43420D01*
G03X42712Y-50973I0J-1000D01*
G01X48220Y-56480D01*
X48368Y-56510D01*
G02X45775Y-59103I-437J-2157D01*
G01X45745Y-58955D01*
X40355Y-53566D01*
X39286Y-54009D01*
X25695D01*
Y-49266D01*
X20952D01*
Y-42640D01*
X20925Y-42613D01*
X17103D01*
G02X15536Y-39016I-1697J1400D01*
G03X16594Y-38043I59J998D01*
G02X19590Y-36049I2199J-56D01*
G03X20946Y-35223I362J932D01*
G01X22852D01*
Y-31875D01*
X20940Y-29963D01*
G03X19582Y-29042I-1000J-13D01*
G02X20493Y-25586I-786J2055D01*
G01X22034D01*
G03X22742Y-23879I0J1000D01*
G01X22372Y-23510D01*
X22183Y-23498D01*
G02X20572Y-22770I157J2495D01*
G01X17126Y-19324D01*
X16795Y-19512D01*
G02X13795Y-19104I-1232J2176D01*
G01X12778Y-18087D01*
X1419D01*
Y-11936D01*
X6599D01*
Y-11333D01*
X6558Y-11238D01*
G02X6482Y-11048I3213J1388D01*
G02X6460Y-10983I3290J1196D01*
G02X6407Y-10818I3312J1133D01*
G01X6372Y-10693D01*
X4877Y-9199D01*
X-3008D01*
X-3949Y-10140D01*
Y-12215D01*
X-7287Y-15553D01*
Y-16390D01*
X-13437D01*
Y-15857D01*
X-14199D01*
X-14348Y-16071D01*
G02X-16590Y-12658I-1806J1257D01*
G01X-16443Y-12628D01*
X-15458Y-11644D01*
X-13437D01*
Y-6061D01*
G03X-14678Y-5090I-1000J0D01*
G02X-16906Y-4355I-530J2135D01*
G01X-27185D01*
X-28820Y-5990D01*
Y-6682D01*
X-28672Y-6829D01*
G02X-28599Y-9880I-1548J-1563D01*
G03X-28427Y-11382I737J-676D01*
G02X-29179Y-15344I-1241J-1817D01*
G01X-29568Y-15433D01*
Y-18436D01*
G02X-32855Y-21265I-1400J-1697D01*
G01X-33001Y-21022D01*
X-33784D01*
Y-22140D01*
G02X-36584I-1400J-1697D01*
G01Y-1934D01*
G02X-33784I1400J1697D01*
G01Y-19244D01*
X-33001D01*
X-32855Y-19002D01*
G02X-32369Y-18436I1887J-1132D01*
G01Y-13919D01*
X-31867Y-13418D01*
X-31868Y-13209D01*
G02X-31289Y-11711I2200J11D01*
G03X-31461Y-10209I-737J676D01*
G02X-31620Y-6695I1241J1817D01*
G01Y-4830D01*
X-28345Y-1555D01*
X-16906D01*
G02X-13031Y-3270I1697J-1400D01*
G03X-12041Y-4413I990J-143D01*
G01X-7287D01*
Y-6613D01*
G03X-6433Y-6967I500J0D01*
G01X-5837Y-6370D01*
Y2404D01*
X-17850D01*
Y14381D01*
X-16275D01*
Y15085D01*
X-16405Y15228D01*
G02X-13145I1630J1478D01*
G01X-13275Y15085D01*
Y14381D01*
X-11588D01*
G03X-10653Y15733I0J1000D01*
G02X-6535I2059J776D01*
G03X-5599Y14381I936J-352D01*
G01X-5199D01*
Y13614D01*
X-4555D01*
X-4433Y13691D01*
G02X-2138Y14068I1596J-2541D01*
G03X-906Y15041I233J973D01*
G01Y19032D01*
X11071D01*
Y18725D01*
G02X11537Y14353I316J-2177D01*
G03X11071Y13854I34J-499D01*
G01Y12882D01*
X1096D01*
G03X113Y11699I0J-1000D01*
G02X163Y11150I-2950J-549D01*
G01Y7094D01*
X10093D01*
X11227Y8228D01*
X12608D01*
X13574Y9193D01*
X13603Y9341D01*
G02X16197Y6748I2156J-437D01*
G01X16049Y6718D01*
X14058Y4728D01*
X12677D01*
X12568Y4619D01*
Y354D01*
X18244D01*
Y-11720D01*
G03X17846Y-12062I429J-903D01*
G02X17984Y-12901I-2361J-822D01*
G37*
G54D33*
X28425Y-120512D03*
X-29842Y-87047D03*
Y-120512D03*
G54D31*
X96372Y60740D03*
Y40740D03*
Y50740D03*
X111571Y-14588D03*
X90358Y-35801D03*
X97429Y-28730D03*
X104500Y-21659D03*
X86372Y60740D03*
Y40740D03*
Y50740D03*
X83287Y-42872D03*
X62074Y-64085D03*
X69145Y-57014D03*
X47931Y-78228D03*
X55002Y-71156D03*
X-37201Y88059D03*
X-43858Y-70236D03*
X-47201Y88059D03*
X-57201D03*
X-66024Y13189D03*
Y-16811D03*
Y3189D03*
X-63858Y-70236D03*
X-53858D03*
X-73858D03*
G54D32*
X52796Y1214D03*
%LPD*%
G75*
G36*
G01X27552Y-47408D02*
Y-37080D01*
X37881D01*
Y-47408D01*
X27552D01*
G37*
G54D10*
X-271654Y-271654D03*
Y271654D03*
X271654Y-271654D03*
Y271654D03*
G54D11*
X-221586Y-208347D03*
X-228914Y-217724D03*
X-218040Y230332D03*
X-220980Y233392D03*
X-156142Y144913D03*
X-141722Y130493D03*
X-135378Y129981D03*
X-127814Y122534D03*
X-148144Y142076D03*
X-103169Y-111325D03*
X-115521Y-100746D03*
X-107247Y-92945D03*
X-121628Y-26359D03*
X-118200Y-12884D03*
X-109847Y-4767D03*
X-103070Y-7092D03*
X-119894Y21985D03*
X-100312Y12884D03*
X-113078Y101849D03*
X-113945Y107680D03*
X-126041Y114457D03*
X-96136Y-104371D03*
X-87931Y-48806D03*
X-78314Y-28841D03*
X-74505Y-6811D03*
X-96254Y-5319D03*
X-86128Y-17992D03*
X-80059Y112327D03*
X-51299Y-26437D03*
Y-158D03*
X-48265Y14775D03*
X-54136Y59179D03*
X-70408Y79233D03*
X-53111Y65759D03*
X-57682Y113393D03*
X-37115Y-52678D03*
X-42040Y-51929D03*
X-22222Y-25571D03*
X-45074Y-22379D03*
X-27068Y-28723D03*
X-35184Y-23837D03*
X-30968Y-20133D03*
Y-40621D03*
X-45074Y-315D03*
X-40424Y-18991D03*
Y1261D03*
X-35184Y-236D03*
X-30220Y-8392D03*
X-29668Y-13199D03*
X-41409Y14775D03*
X-44404Y49408D03*
X-40306Y53190D03*
X-29382Y107770D03*
X-25728Y111423D03*
X-21434Y132226D03*
X-36327Y142352D03*
X866Y-126278D03*
X-14302Y-51417D03*
X5197Y-52792D03*
X-7880Y-51811D03*
X-1300Y-28723D03*
X-13554D03*
X-4058Y-36406D03*
X-16154Y-14814D03*
X-15208Y-2955D03*
X-1655Y-14617D03*
X-8274Y1064D03*
X-11505Y1418D03*
X-16824Y-9535D03*
X-14775Y16706D03*
X-8594Y16509D03*
X-2837Y11150D03*
X-14105Y28723D03*
X-2246Y16706D03*
X-17649Y38964D03*
X-18991Y105868D03*
X-7919Y98933D03*
X13514Y-63473D03*
X18189Y-59559D03*
X15405Y-41212D03*
X18794Y-38100D03*
X18796Y-26987D03*
X14302Y-28053D03*
X15484Y-12884D03*
X15563Y-17336D03*
X31323Y630D03*
X15760Y8904D03*
X11387Y16548D03*
X12805Y29195D03*
X30338Y6895D03*
X30220Y47556D03*
X25019Y41922D03*
X26556Y98067D03*
X23955Y100588D03*
X21160Y117528D03*
X47931Y-58667D03*
X57090Y-12805D03*
X47595D03*
X36681Y30180D03*
X42670Y35066D03*
X58391Y70723D03*
X43500Y116429D03*
X70211Y-47165D03*
X64340Y-35066D03*
X71708Y-35342D03*
X78761Y-20882D03*
X59730Y-23679D03*
X72378Y-40700D03*
X76101Y-18971D03*
X75412Y-16548D03*
X74584Y-2837D03*
X67138Y9535D03*
Y18124D03*
X60440Y7210D03*
Y18203D03*
X65089Y74742D03*
X74210Y81105D03*
X70820Y89420D03*
X75136Y103386D03*
X66468Y87389D03*
X62602Y86448D03*
X60164Y127341D03*
X66398Y122070D03*
X106258Y17214D03*
X106183Y82070D03*
X106813Y89399D03*
X90414Y125913D03*
X98421Y116388D03*
X137191Y-133881D03*
X128799Y-141919D03*
X117609Y-130729D03*
X133763Y-138570D03*
X120919Y-117609D03*
X116703Y-121904D03*
X120643Y29708D03*
X133369Y109296D03*
X125568Y121510D03*
X134630Y137033D03*
X125292Y127656D03*
X132857Y115127D03*
X146450Y122573D03*
X141722Y138058D03*
X146489Y128641D03*
X218079Y-225762D03*
X218577Y-232131D03*
X226077Y218749D03*
X230057Y220758D03*
G54D20*
X27795Y-50709D03*
X29764D03*
X31732D03*
Y-33780D03*
X29764D03*
X27795D03*
X33701Y-50709D03*
X35669D03*
X37638D03*
Y-33780D03*
X35669D03*
X33701D03*
G54D30*
G01X-218040Y230332D02*
X-220980Y233273D01*
Y233392D01*
G54D12*
X-138316Y-15548D03*
Y15948D03*
G54D21*
X24252Y-37323D03*
Y-39291D03*
Y-41260D03*
Y-43228D03*
Y-45197D03*
Y-47165D03*
X41181D03*
Y-45197D03*
Y-43228D03*
Y-41260D03*
Y-39291D03*
Y-37323D03*
G54D13*
X-126800Y-4918D03*
Y-2359D03*
Y200D03*
Y2759D03*
Y5318D03*
G54D22*
X52796Y-17998D03*
Y1214D03*
G54D23*
G01X-156142Y144913D02*
X-141722Y130493D01*
G01X-138316Y-21092D02*
Y-15548D01*
G01D02*
Y-10004D01*
G01X-143958Y-15548D02*
X-138316D01*
G01D02*
X-132674D01*
G01X-138316Y10404D02*
Y15948D01*
G01D02*
Y21492D01*
G01X-143958Y15948D02*
X-138316D01*
G01D02*
X-132674D01*
G01X-135378Y129981D02*
X-147474Y142076D01*
X-148144D01*
G01X-103169Y-111325D02*
X-96215Y-104371D01*
X-96136D01*
G01X-107247Y-92945D02*
X-115048Y-100746D01*
X-115521D01*
G01X-126800Y5318D02*
Y8106D01*
G01Y5318D02*
X-121158D01*
G01X-113078Y101849D02*
X-125686Y114457D01*
X-126041D01*
G01X-113945Y107680D02*
X-127814Y121549D01*
Y122534D01*
G01X-78314Y-28841D02*
Y-25807D01*
X-86128Y-17992D01*
G01X-63858Y-74992D02*
Y-70236D01*
G01D02*
Y-65480D01*
G01X-68614Y-70236D02*
X-63858D01*
G01D02*
X-59102D01*
G01X-51299Y-158D02*
Y-26437D01*
G01X-66024Y-6811D02*
X-74505D01*
G01X-66024Y-21567D02*
Y-16811D01*
G01D02*
Y-12055D01*
G01X-70780Y-16811D02*
X-66024D01*
G01D02*
X-61268D01*
G01X-40306Y53190D02*
X-52875Y65759D01*
X-53111D01*
G01X-29842Y-128412D02*
Y-120512D01*
G01D02*
Y-112612D01*
G01X-34193Y-120512D02*
X-29842D01*
G01D02*
X-25492D01*
G01X-29842Y-94947D02*
Y-87047D01*
G01D02*
Y-79147D01*
G01X-34193Y-87047D02*
X-29842D01*
G01D02*
X-25492D01*
G01X-22222Y-25571D02*
X-23207Y-26556D01*
Y-38770D01*
X-37115Y-52678D01*
G01X-30968Y-40621D02*
X-42040Y-51693D01*
Y-51929D01*
G01X-45074Y-315D02*
Y-22379D01*
G01X-35184Y-23837D02*
Y-236D01*
G01X-40424Y1261D02*
Y-18991D01*
G01X-30220Y-8392D02*
Y-5410D01*
X-27765Y-2955D01*
X-15208D01*
G01X-30968Y-20133D02*
Y-14499D01*
X-29668Y-13199D01*
G01X-41409Y14775D02*
X-48265D01*
G01X-12126Y-68543D02*
Y-53593D01*
X-14302Y-51417D01*
G01X-4058Y-36406D02*
Y-43689D01*
X-3465Y-44283D01*
Y-68543D01*
G01X-7880Y-51811D02*
Y-64409D01*
X-7795Y-64493D01*
Y-68543D01*
G01X-1300Y-28723D02*
X-13554D01*
G01X4415Y-18587D02*
Y-15011D01*
G01D02*
Y-11436D01*
G01X919Y-15011D02*
X4415D01*
G01X-8274Y11384D02*
Y13780D01*
X-8594Y14100D01*
Y16509D01*
G01X2090Y12382D02*
Y15957D01*
G01D02*
Y19532D01*
G01X28425Y-128412D02*
Y-120512D01*
G01D02*
Y-112612D01*
G01X24075Y-120512D02*
X28425D01*
G01D02*
X32775D01*
G01X27638Y-101024D02*
X27638Y-104624D01*
G01X27637Y-97423D02*
X27638Y-101024D01*
G01X22488Y-101024D02*
X27638Y-101024D01*
G01D02*
X32788Y-101023D01*
G01X5197Y-68543D02*
Y-52792D01*
G01X13948Y-68454D02*
X13858Y-68543D01*
G01D02*
Y-63817D01*
X13514Y-63473D01*
G01X18189Y-68543D02*
Y-59559D01*
G01X9528Y-73694D02*
Y-68543D01*
G01D02*
Y-63393D01*
G01X27795Y-54509D02*
Y-50709D01*
G01D02*
Y-46908D01*
G01X25195Y-50709D02*
X27795D01*
G01X15405Y-41212D02*
X21505D01*
X21552Y-41260D01*
X24252D01*
G01Y-39291D02*
X19985D01*
X18794Y-38100D01*
G01X18796Y-26987D02*
X22340D01*
Y-29383D01*
X24252Y-31295D01*
Y-37323D01*
G01X20452Y-45197D02*
X24252D01*
G01D02*
X28052D01*
G01X15169Y-2642D02*
Y854D01*
G01Y-2642D02*
X18744D01*
G01X8075Y15957D02*
X10796D01*
X11387Y16548D01*
G01X30220Y47556D02*
X42670Y35105D01*
Y35066D01*
G01X25019Y41922D02*
X36681Y30259D01*
Y30180D01*
G01X55002Y-75912D02*
Y-71156D01*
G01D02*
Y-66400D01*
G01X50246Y-71156D02*
X55002D01*
G01D02*
X59758D01*
G01X41181Y-47165D02*
X70211D01*
G01X41181Y-41260D02*
X58146D01*
X64340Y-35066D01*
G01X41181Y-43228D02*
X63822D01*
X71708Y-35342D01*
G01X41181Y-45197D02*
X67881D01*
X72378Y-40700D01*
G01X47595Y-12805D02*
X57090D01*
G01X67138Y18124D02*
Y9535D01*
G01X60440Y18203D02*
Y7210D01*
G01X81616Y40740D02*
X86372D01*
G01X58391Y70723D02*
X82700D01*
X82716Y70740D01*
X86372D01*
G01X65089Y74742D02*
X98855D01*
X106183Y82070D01*
G01X74210Y81105D02*
X98520D01*
X106813Y89399D01*
G01X86372Y35983D02*
Y40740D01*
G01D02*
Y45496D01*
G01Y40740D02*
X91128D01*
G01X116703Y-121904D02*
X133369Y-138570D01*
X133763D01*
G01X133369Y109296D02*
X146450Y122376D01*
Y122573D01*
G01X134630Y137033D02*
X125292Y127695D01*
Y127656D01*
G01X132857Y115127D02*
X146371Y128641D01*
X146489D01*
G54D14*
X-73858Y-70236D03*
X-53858D03*
X-63858D03*
X-66024Y3189D03*
Y-6811D03*
Y-16811D03*
Y13189D03*
X-57201Y88059D03*
X-47201D03*
X-43858Y-70236D03*
X-37201Y88059D03*
X55002Y-71156D03*
X47931Y-78228D03*
X76216Y-49943D03*
X69145Y-57014D03*
X62074Y-64085D03*
X83287Y-42872D03*
X86372Y50740D03*
Y40740D03*
Y70740D03*
Y60740D03*
X104500Y-21659D03*
X97429Y-28730D03*
X90358Y-35801D03*
X111571Y-14588D03*
X96372Y50740D03*
Y40740D03*
Y70740D03*
Y60740D03*
G54D24*
G01X-126800Y-2359D02*
X-112256D01*
X-109847Y-4767D01*
G01X-126800Y200D02*
X-110362D01*
X-103070Y-7092D01*
G01X-44404Y49408D02*
X-54136Y59139D01*
Y59179D01*
G01X-8274Y5400D02*
Y1064D01*
G01X-14775Y5400D02*
Y2876D01*
X-13317Y1418D01*
G01D02*
X-11505D01*
G01X-14775Y16706D02*
Y11384D01*
G01X2090Y15957D02*
X-1497D01*
G01D02*
X-2246Y16706D01*
G01X137191Y-133881D02*
X120919Y-117609D01*
G01X-288346Y-254961D02*
G03X-254961Y-288346I16678J-16708D01*
G01Y288346D02*
G03X-288346Y254961I-16708J-16678D01*
G01D02*
G02Y-254961I-156466J-254961D01*
G01X254961Y-288346D02*
G03X-254961I-254961J-156466D01*
G01X254961Y288346D02*
G02X-254961I-254961J156466D01*
G01X288346Y254961D02*
G03Y-254961I156466J-254961D01*
G01D02*
G02X254961Y-288346I-16678J-16708D01*
G01Y288346D02*
G02X288346Y254961I16708J-16678D01*
G54D15*
X-29842Y-120512D03*
Y-87047D03*
X28425Y-120512D03*
G54D25*
G01X-126800Y-6687D02*
Y-4918D01*
G01X-36327Y142352D02*
X-31559D01*
X-21434Y132226D01*
G01X-2837Y-6199D02*
X-5949Y-9311D01*
Y-11387D01*
X-7956Y-13394D01*
X-10362D01*
G01X4415Y-15011D02*
X4021Y-14617D01*
X-1655D01*
G01X3588Y4019D02*
Y5479D01*
G01X-8274Y11384D02*
X-8040Y11150D01*
X-2837D01*
G01X-14775Y11384D02*
X-8274D01*
G01X3588Y5479D02*
Y7594D01*
G01X10399Y-15011D02*
Y-10638D01*
X11187Y-9850D01*
G01X28050Y-2642D02*
X31323Y630D01*
G01X117609Y-130729D02*
X128799Y-141919D01*
G01X141722Y138058D02*
X125568Y121904D01*
Y121510D01*
G54D16*
X5197Y-68543D03*
X866D03*
X-3465D03*
X-7795D03*
X-12126D03*
X22520D03*
X18189D03*
X13858D03*
X9528D03*
G54D26*
G01X866D02*
Y-126278D01*
G01X13830Y-11230D02*
Y-12493D01*
X22340Y-21002D01*
G01X15169Y-12569D02*
X15484Y-12884D01*
G01X12450Y-9850D02*
X13830Y-11230D01*
G01X11187Y-9850D02*
X12450D01*
G01X13238Y-15011D02*
X15563Y-17336D01*
G01X11187Y-9850D02*
Y-12960D01*
X13238Y-15011D01*
G01X13830Y-11230D02*
X15169Y-12569D01*
G54D17*
X4415Y-15011D03*
X3588Y4019D03*
X2090Y15957D03*
X10399Y-15011D03*
X9572Y4019D03*
X8075Y15957D03*
G54D27*
G01X-119894Y21985D02*
X-133561Y8318D01*
X-133686D01*
X-135442Y6562D01*
Y6437D01*
X-138491Y3388D01*
Y-2687D01*
X-134491Y-6687D01*
X-126800D01*
G01X-118200Y-12884D02*
X-121352Y-9732D01*
X-123755D01*
X-126800Y-6687D01*
G01X-100312Y12884D02*
X-90384D01*
X-82594Y5094D01*
Y-563D01*
X-108389Y-26359D01*
X-121628D01*
G01X-2837Y-6199D02*
Y11150D01*
G01X9771Y-9850D02*
X6120Y-6199D01*
G01D02*
X-2837D01*
G01X26556Y98067D02*
X24034Y100588D01*
X23955D01*
G54D18*
X-10362Y-7409D03*
Y-13394D03*
X-14775Y5400D03*
X-8274D03*
X-14775Y11384D03*
X-8274D03*
X15169Y-2642D03*
Y-8626D03*
G54D28*
G01X11187Y-9850D02*
X9771D01*
G54D19*
X27638Y-101024D03*
G54D29*
G01X-10362Y-13394D02*
X-14733D01*
X-16154Y-14814D01*
G01X-10362Y-7409D02*
X-14698D01*
G01D02*
X-16824Y-9535D01*
G01X3588Y4019D02*
X3507Y4100D01*
Y5477D01*
X1576Y7407D01*
G01X3588Y5479D02*
X5949Y7841D01*
G01X22340Y-21002D02*
X27795Y-26458D01*
Y-33780D01*
G01X41181Y-39291D02*
X46010D01*
X48344Y-36957D01*
Y-31362D01*
X37075Y-20094D01*
X23248D01*
X22340Y-21002D01*
G01X15169Y-8626D02*
Y-12569D01*
G01X9572Y4019D02*
Y4098D01*
X11952Y6478D01*
X13333D01*
X15760Y8904D01*
G01X6120Y-6199D02*
X9572Y-2747D01*
Y4019D01*
G01X10399Y-15011D02*
X13238D01*
G01X12450Y-9850D02*
X13945D01*
X15169Y-8626D01*
G01X37638Y-50709D02*
X39973D01*
X47931Y-58667D01*
M02*
