G04 ================== begin FILE IDENTIFICATION RECORD ==================*
G04 Layout Name:  E:/workspace/flyer/pcb/pcb/flyer.brd*
G04 Film Name:    pastemask_top*
G04 File Format:  Gerber RS274X*
G04 File Origin:  Cadence Allegro 16.5-P002*
G04 Origin Date:  Sat Apr 09 15:29:22 2016*
G04 *
G04 Layer:  PIN/PASTEMASK_TOP*
G04 Layer:  BOARD GEOMETRY/OUTLINE*
G04 *
G04 Offset:    (0.000 0.000)*
G04 Mirror:    No*
G04 Mode:      Positive*
G04 Rotation:  0*
G04 FullContactRelief:  No*
G04 UndefLineWidth:     10.000*
G04 ================== end FILE IDENTIFICATION RECORD ====================*
%FSLAX25Y25*MOIN*%
%IR0*IPPOS*OFA0.00000B0.00000*MIA0B0*SFA1.00000B1.00000*%
%ADD32R,.03937X.068898*%
%ADD16R,.009X.039*%
%ADD15R,.122X.122*%
%ADD17R,.039X.009*%
%AMMACRO12*
21,1,.029921,.0315,0.0,0.0,135.*%
%ADD12MACRO12*%
%ADD31R,.08661X.137799*%
%ADD26R,.012X.06*%
%ADD23R,.06X.012*%
%ADD28R,.043X.055*%
%AMMACRO11*
21,1,.06,.06,0.0,0.0,45.*%
%ADD11MACRO11*%
%ADD20R,.06X.06*%
%ADD14R,.0315X.029921*%
%AMMACRO13*
21,1,.029921,.0315,0.0,0.0,45.*%
%ADD13MACRO13*%
%ADD30R,.08661X.043311*%
%ADD18R,.029921X.0315*%
%ADD19R,.059X.059*%
%ADD27R,.055118X.023618*%
%ADD21R,.023618X.055118*%
%AMMACRO10*
21,1,.098425,.098425,0.0,0.0,45.*%
%ADD10MACRO10*%
%ADD25R,.098425X.098425*%
%ADD24R,.062988X.04724*%
%ADD29R,.027559X.035429*%
%ADD22R,.04724X.062988*%
%ADD33C,.01*%
G75*
%LPD*%
G75*
G54D10*
X-253551Y-244386D03*
X-243807Y-254130D03*
X-253894Y245068D03*
X-244150Y254812D03*
X245135Y-253551D03*
X245501Y252987D03*
X254879Y-243807D03*
X255245Y243244D03*
G54D20*
X-78291Y-48806D03*
Y-39358D03*
X-68055Y-44082D03*
G54D11*
X-238244Y-233954D03*
X-234347Y-223375D03*
X-236082Y240648D03*
X-232184Y230069D03*
X-227666Y-230057D03*
X-225503Y236750D03*
X235845Y-239387D03*
X225266Y-235490D03*
X231948Y-228808D03*
X240254Y235845D03*
X236356Y225266D03*
X229675Y231948D03*
G54D21*
X-74148Y88063D03*
Y98299D03*
X-70408Y88063D03*
X-66668D03*
Y98299D03*
G54D30*
X66398Y107392D03*
Y125384D03*
Y116388D03*
G54D12*
X-220904Y-215057D03*
X-216672Y-219289D03*
X-206547Y-208099D03*
X-210778Y-203868D03*
X-209202Y210266D03*
X-204971Y206034D03*
X209951Y-206680D03*
X205719Y-202449D03*
X216751Y219013D03*
X211842Y209502D03*
X207610Y213733D03*
X220983Y214781D03*
G54D22*
X-54810Y122849D03*
X-66621D03*
X77268Y96530D03*
X89079D03*
G54D13*
X-214600Y215924D03*
X-220928Y227326D03*
X-225159Y223095D03*
X-210368Y220155D03*
X-198391Y-191496D03*
X-202622Y-195727D03*
X72405Y-74084D03*
X68174Y-78315D03*
X218146Y-213914D03*
X213914Y-218146D03*
X201937Y197051D03*
X206168Y201283D03*
X223134Y-221101D03*
X227366Y-216870D03*
G54D31*
X90414Y116388D03*
G54D14*
X-113590Y-54488D03*
Y-48504D03*
X-103858D03*
Y-54488D03*
X-87192Y88101D03*
Y94085D03*
X-94718Y116863D03*
Y122847D03*
X-87153D03*
Y116863D03*
X-7919Y93888D03*
Y87904D03*
X15090Y111544D03*
Y117528D03*
X35854Y104289D03*
Y98305D03*
X44561Y104211D03*
Y98226D03*
X48935Y115957D03*
Y121941D03*
X56303D03*
Y115957D03*
X71708Y-24470D03*
Y-30454D03*
X64498Y-24430D03*
Y-30414D03*
X78761Y-24548D03*
Y-30533D03*
X66468Y92238D03*
Y98222D03*
X90029Y8316D03*
Y14300D03*
X105474Y64736D03*
Y70721D03*
X114930Y64776D03*
Y70760D03*
G54D23*
X-22650Y4925D03*
Y2955D03*
Y985D03*
Y-985D03*
Y-2955D03*
Y-4925D03*
Y-6895D03*
Y-8865D03*
Y-10835D03*
Y-12805D03*
Y-14775D03*
Y14775D03*
Y12805D03*
Y10835D03*
Y8865D03*
Y6895D03*
X22650Y-14775D03*
Y-12805D03*
Y-10835D03*
Y-8865D03*
Y-6895D03*
Y-4925D03*
Y-2955D03*
Y-985D03*
Y985D03*
Y2955D03*
Y4925D03*
Y6895D03*
Y8865D03*
Y10835D03*
Y12805D03*
Y14775D03*
G54D32*
X123834Y8424D03*
Y38935D03*
G54D33*
G01X-288346Y-254961D02*
G03X-254961Y-288346I16678J-16708D01*
G01Y288346D02*
G03X-288346Y254961I-16708J-16678D01*
G01D02*
G02Y-254961I-156466J-254961D01*
G01X254961Y-288346D02*
G03X-254961I-254961J-156466D01*
G01X254961Y288346D02*
G02X-254961I-254961J156466D01*
G01X288346Y254961D02*
G03Y-254961I156466J-254961D01*
G01D02*
G02X254961Y-288346I-16678J-16708D01*
G01Y288346D02*
G02X288346Y254961I16708J-16678D01*
G54D24*
X-18991Y99717D03*
Y87905D03*
X56106Y86448D03*
Y98260D03*
X97712Y5402D03*
Y17214D03*
G54D15*
X-103071Y-23898D03*
G54D25*
X-36248Y107770D03*
Y121549D03*
G54D16*
X-103071Y-34921D03*
X-105039D03*
X-107008D03*
X-108976D03*
Y-12874D03*
X-107008D03*
X-105039D03*
X-103071D03*
X-97165Y-34921D03*
X-99134D03*
X-101102D03*
Y-12874D03*
X-99134D03*
X-97165D03*
G54D26*
X-14775Y-22650D03*
X-12805D03*
X-10835D03*
X-8865D03*
X-6895D03*
X-4925D03*
X-2955D03*
X-985D03*
X985D03*
X2955D03*
X4925D03*
Y22650D03*
X2955D03*
X985D03*
X-985D03*
X-2955D03*
X-4925D03*
X-6895D03*
X-8865D03*
X-10835D03*
X-12805D03*
X-14775D03*
X6895Y-22650D03*
X8865D03*
X10835D03*
X12805D03*
X14775D03*
Y22650D03*
X12805D03*
X10835D03*
X8865D03*
X6895D03*
G54D17*
X-114094Y-29803D03*
Y-27835D03*
Y-25866D03*
Y-23898D03*
Y-21929D03*
Y-19961D03*
Y-17992D03*
X-92047Y-21929D03*
Y-23898D03*
Y-25866D03*
Y-27835D03*
Y-29803D03*
Y-17992D03*
Y-19961D03*
G54D27*
X4890Y104328D03*
Y96848D03*
X15126D03*
Y100588D03*
Y104328D03*
G54D18*
X-104447Y2443D03*
X-98463D03*
X-80059Y106538D03*
X-74074D03*
X3942Y-32860D03*
Y-41212D03*
X-11665Y33805D03*
X-17649D03*
X9926Y-32860D03*
Y-41212D03*
X70366Y1182D03*
X64382D03*
X70327Y-17966D03*
X64342D03*
G54D19*
X-105745Y21631D03*
X-93934D03*
X26240Y76086D03*
Y87897D03*
G54D28*
X4928Y87901D03*
X12802D03*
G54D29*
X30535Y126393D03*
Y121275D03*
X37469Y121744D03*
Y116626D03*
M02*
