G04 ================== begin FILE IDENTIFICATION RECORD ==================*
G04 Layout Name:  E:/workspace/flyer/pcb/pcb/flyer.brd*
G04 Film Name:    silkscreen_bottom*
G04 File Format:  Gerber RS274X*
G04 File Origin:  Cadence Allegro 16.5-P002*
G04 Origin Date:  Fri Apr 08 22:14:13 2016*
G04 *
G04 Layer:  REF DES/SILKSCREEN_BOTTOM*
G04 Layer:  PACKAGE GEOMETRY/SOLDERMASK_BOTTOM*
G04 Layer:  BOARD GEOMETRY/OUTLINE*
G04 Layer:  BOARD GEOMETRY/SILKSCREEN_BOTTOM*
G04 *
G04 Offset:    (0.000 0.000)*
G04 Mirror:    No*
G04 Mode:      Positive*
G04 Rotation:  0*
G04 FullContactRelief:  No*
G04 UndefLineWidth:     10.000*
G04 ================== end FILE IDENTIFICATION RECORD ====================*
%FSLAX25Y25*MOIN*%
%IR0*IPPOS*OFA0.00000B0.00000*MIA0B0*SFA1.00000B1.00000*%
%ADD10C,.005909*%
%ADD11C,.01*%
G75*
%LPD*%
G75*
G54D10*
G01X-2784Y-14266D02*
X-2534Y-14620D01*
X-2368Y-15033D01*
Y-15506D01*
X-2618Y-16037D01*
X-3034Y-16450D01*
X-3534Y-16746D01*
X-4368Y-16982D01*
X-5118Y-17041D01*
X-5868Y-16923D01*
X-6368Y-16746D01*
X-6868Y-16391D01*
X-7201Y-15978D01*
X-7368Y-15565D01*
Y-15151D01*
X-7201Y-14738D01*
X-6951Y-14384D01*
X-6618Y-14088D01*
G01X-7368Y-11510D02*
X-2368D01*
X-3368Y-12218D01*
G01X-7368D02*
Y-10801D01*
G01Y-7573D02*
X-6284Y-7455D01*
X-5368Y-7278D01*
X-4534Y-7042D01*
X-3618Y-6747D01*
X-2368Y-6274D01*
Y-8636D01*
G01X-17193Y22015D02*
X-17443Y22369D01*
X-17610Y22782D01*
Y23255D01*
X-17360Y23786D01*
X-16943Y24199D01*
X-16443Y24495D01*
X-15610Y24731D01*
X-14860Y24790D01*
X-14110Y24672D01*
X-13610Y24495D01*
X-13109Y24140D01*
X-12776Y23727D01*
X-12610Y23314D01*
Y22900D01*
X-12776Y22487D01*
X-13026Y22133D01*
X-13359Y21837D01*
G01X-12610Y19259D02*
X-17610D01*
X-16610Y19968D01*
G01X-12610D02*
Y18550D01*
G01X-14693Y16326D02*
X-15276Y15913D01*
X-15610Y15558D01*
X-15776Y15086D01*
X-15610Y14673D01*
X-15276Y14378D01*
X-14776Y14141D01*
X-14193Y14082D01*
X-13693Y14141D01*
X-13193Y14378D01*
X-12776Y14732D01*
X-12610Y15145D01*
X-12776Y15618D01*
X-13276Y16031D01*
X-14026Y16267D01*
X-14860Y16326D01*
X-15943Y16208D01*
X-16526Y16031D01*
X-17110Y15736D01*
X-17526Y15322D01*
X-17610Y14909D01*
X-17443Y14496D01*
X-17026Y14200D01*
G01X-10692Y22015D02*
X-10942Y22369D01*
X-11109Y22782D01*
Y23255D01*
X-10858Y23786D01*
X-10442Y24199D01*
X-9942Y24495D01*
X-9109Y24731D01*
X-8359Y24790D01*
X-7609Y24672D01*
X-7108Y24495D01*
X-6608Y24140D01*
X-6275Y23727D01*
X-6109Y23314D01*
Y22900D01*
X-6275Y22487D01*
X-6525Y22133D01*
X-6858Y21837D01*
G01X-6109Y19259D02*
X-11109D01*
X-10109Y19968D01*
G01X-6109D02*
Y18550D01*
G01X-6858Y16503D02*
X-6442Y16149D01*
X-6192Y15736D01*
X-6109Y15204D01*
X-6275Y14673D01*
X-6608Y14260D01*
X-7192Y13964D01*
X-7858Y13905D01*
X-8525Y14023D01*
X-8942Y14319D01*
X-9275Y14732D01*
X-9358Y15145D01*
X-9275Y15558D01*
X-8942Y16090D01*
X-11109Y15913D01*
Y14319D01*
G01X24323Y-8395D02*
X24573Y-8749D01*
X24739Y-9162D01*
Y-9635D01*
X24489Y-10166D01*
X24073Y-10580D01*
X23573Y-10875D01*
X22739Y-11111D01*
X21989Y-11170D01*
X21239Y-11052D01*
X20739Y-10875D01*
X20239Y-10521D01*
X19906Y-10107D01*
X19739Y-9694D01*
Y-9281D01*
X19906Y-8867D01*
X20156Y-8513D01*
X20489Y-8218D01*
G01X19739Y-5639D02*
X24739D01*
X23740Y-6348D01*
G01X19739D02*
Y-4931D01*
G01X23906Y-2706D02*
X24406Y-2352D01*
X24656Y-1939D01*
X24739Y-1466D01*
X24573Y-876D01*
X24156Y-463D01*
X23656Y-344D01*
X23156Y-404D01*
X22739Y-640D01*
X21906Y-1821D01*
X21323Y-2352D01*
X20489Y-2706D01*
X19739Y-2825D01*
Y-344D01*
G01X23945Y5728D02*
X24300Y5978D01*
X24713Y6144D01*
X25185D01*
X25717Y5894D01*
X26130Y5478D01*
X26425Y4978D01*
X26662Y4144D01*
X26720Y3394D01*
X26602Y2644D01*
X26425Y2144D01*
X26071Y1644D01*
X25658Y1311D01*
X25244Y1144D01*
X24831D01*
X24418Y1311D01*
X24063Y1561D01*
X23768Y1894D01*
G01X21190Y1144D02*
Y6144D01*
X21898Y5144D01*
G01Y1144D02*
X20481D01*
G01X18434Y2144D02*
X18080Y1561D01*
X17607Y1228D01*
X17076Y1144D01*
X16603Y1228D01*
X16131Y1644D01*
X15836Y2144D01*
X15777Y2644D01*
X15895Y3227D01*
X16308Y3644D01*
X16722Y3811D01*
X17253D01*
G01X16722D02*
X16367Y4061D01*
X16072Y4477D01*
X15954Y4978D01*
X16072Y5478D01*
X16367Y5894D01*
X16899Y6144D01*
X17430Y6061D01*
X17962Y5728D01*
G01X21030Y-12594D02*
X21384Y-12343D01*
X21797Y-12177D01*
X22270D01*
X22801Y-12427D01*
X23214Y-12844D01*
X23510Y-13344D01*
X23746Y-14177D01*
X23805Y-14927D01*
X23687Y-15677D01*
X23510Y-16177D01*
X23155Y-16677D01*
X22742Y-17010D01*
X22329Y-17177D01*
X21915D01*
X21502Y-17010D01*
X21148Y-16760D01*
X20852Y-16427D01*
G01X18274Y-17177D02*
Y-12177D01*
X18982Y-13177D01*
G01Y-17177D02*
X17566D01*
G01X14219D02*
X13806Y-17094D01*
X13334Y-16844D01*
X13038Y-16427D01*
X12920Y-15843D01*
X13038Y-15260D01*
X13393Y-14760D01*
X13924Y-14510D01*
X14515D01*
X14869Y-14344D01*
X15164Y-13927D01*
X15282Y-13344D01*
X15105Y-12760D01*
X14692Y-12343D01*
X14219Y-12177D01*
X13747Y-12343D01*
X13334Y-12760D01*
X13156Y-13344D01*
X13274Y-13927D01*
X13570Y-14344D01*
X13924Y-14510D01*
X14515D01*
X15046Y-14760D01*
X15400Y-15260D01*
X15518Y-15843D01*
X15400Y-16427D01*
X15105Y-16844D01*
X14633Y-17094D01*
X14219Y-17177D01*
G01X18705Y18375D02*
X19059Y18625D01*
X19473Y18792D01*
X19945D01*
X20476Y18542D01*
X20890Y18125D01*
X21185Y17625D01*
X21421Y16792D01*
X21480Y16042D01*
X21362Y15292D01*
X21185Y14792D01*
X20831Y14291D01*
X20417Y13958D01*
X20004Y13792D01*
X19591D01*
X19177Y13958D01*
X18823Y14208D01*
X18528Y14541D01*
G01X15949Y13792D02*
Y18792D01*
X16658Y17792D01*
G01Y13792D02*
X15241D01*
G01X11186D02*
Y18792D01*
X13371Y15208D01*
X10418D01*
G54D11*
G01X-288346Y-254961D02*
G03X-254961Y-288346I16678J-16708D01*
G01Y288346D02*
G03X-288346Y254961I-16708J-16678D01*
G01D02*
G02Y-254961I-156466J-254961D01*
G01X254961Y-288346D02*
G03X-254961I-254961J-156466D01*
G01X254961Y288346D02*
G02X-254961I-254961J156466D01*
G01X-133201Y-1938D02*
X-133451Y-1805D01*
X-133618Y-1645D01*
X-133701Y-1458D01*
X-133618Y-1245D01*
X-133451Y-1085D01*
X-133201Y-925D01*
X-132868Y-871D01*
X-131201D01*
G01X-133701Y795D02*
X-131201D01*
X-131701Y475D01*
G01X-133701D02*
Y1115D01*
G01X-131201Y2995D02*
X-131284Y2782D01*
X-131492Y2622D01*
X-131742Y2515D01*
X-132076Y2435D01*
X-132451Y2409D01*
X-132826Y2435D01*
X-133159Y2515D01*
X-133409Y2622D01*
X-133618Y2782D01*
X-133701Y2995D01*
X-133618Y3209D01*
X-133409Y3369D01*
X-133159Y3475D01*
X-132826Y3555D01*
X-132451Y3582D01*
X-132076Y3555D01*
X-131742Y3475D01*
X-131492Y3369D01*
X-131284Y3209D01*
X-131201Y2995D01*
G01X-60642Y-23828D02*
X-60892Y-23694D01*
X-61058Y-23534D01*
X-61142Y-23348D01*
X-61058Y-23134D01*
X-60892Y-22974D01*
X-60642Y-22814D01*
X-60308Y-22761D01*
X-58642D01*
G01X-60850Y-21548D02*
X-61058Y-21361D01*
X-61142Y-21148D01*
X-61058Y-20934D01*
X-60808Y-20748D01*
X-60433Y-20615D01*
X-60058Y-20561D01*
X-59600D01*
X-59225Y-20615D01*
X-58892Y-20748D01*
X-58725Y-20908D01*
X-58642Y-21094D01*
X-58725Y-21308D01*
X-58892Y-21468D01*
X-59142Y-21575D01*
X-59475Y-21628D01*
X-59767Y-21575D01*
X-60058Y-21441D01*
X-60225Y-21281D01*
X-60267Y-21094D01*
X-60183Y-20881D01*
X-59975Y-20721D01*
X-59600Y-20561D01*
G01X22306Y-26244D02*
Y-29827D01*
X22053Y-30578D01*
X21546Y-31078D01*
X20913Y-31244D01*
X20280Y-31078D01*
X19773Y-30578D01*
X19520Y-29827D01*
Y-26244D01*
G01X17208Y-30244D02*
X16828Y-30828D01*
X16321Y-31161D01*
X15751Y-31244D01*
X15245Y-31161D01*
X14738Y-30744D01*
X14422Y-30244D01*
X14358Y-29744D01*
X14485Y-29161D01*
X14928Y-28744D01*
X15371Y-28578D01*
X15941D01*
G01X15371D02*
X14991Y-28328D01*
X14675Y-27911D01*
X14548Y-27411D01*
X14675Y-26911D01*
X14991Y-26494D01*
X15561Y-26244D01*
X16131Y-26327D01*
X16701Y-26661D01*
G01X36960Y-111287D02*
X37093Y-111037D01*
X37253Y-110871D01*
X37440Y-110787D01*
X37653Y-110871D01*
X37813Y-111037D01*
X37973Y-111287D01*
X38026Y-111621D01*
Y-113287D01*
G01X39693Y-110787D02*
Y-113287D01*
X39373Y-112787D01*
G01Y-110787D02*
X40013D01*
G01X41893D02*
Y-113287D01*
X41573Y-112787D01*
G01Y-110787D02*
X42213D01*
G01X288346Y254961D02*
G03Y-254961I156466J-254961D01*
G01D02*
G02X254961Y-288346I-16678J-16708D01*
G01Y288346D02*
G02X288346Y254961I16708J-16678D01*
M02*
