G04 ================== begin FILE IDENTIFICATION RECORD ==================*
G04 Layout Name:  E:/workspace/flyer/pcb/pcb/flyer.brd*
G04 Film Name:    soldermask_top*
G04 File Format:  Gerber RS274X*
G04 File Origin:  Cadence Allegro 16.5-P002*
G04 Origin Date:  Sat Apr 09 10:41:48 2016*
G04 *
G04 Layer:  VIA CLASS/SOLDERMASK_TOP*
G04 Layer:  PIN/SOLDERMASK_TOP*
G04 Layer:  PACKAGE GEOMETRY/SOLDERMASK_TOP*
G04 Layer:  BOARD GEOMETRY/OUTLINE*
G04 Layer:  BOARD GEOMETRY/SOLDERMASK_TOP*
G04 *
G04 Offset:    (0.000 0.000)*
G04 Mirror:    No*
G04 Mode:      Positive*
G04 Rotation:  0*
G04 FullContactRelief:  No*
G04 UndefLineWidth:     10.000*
G04 ================== end FILE IDENTIFICATION RECORD ====================*
%FSLAX35Y35*MOIN*%
%IR0*IPPOS*OFA0.00000B0.00000*MIA0B0*SFA1.00000B1.00000*%
%ADD16R,.03937X.037799*%
%AMMACRO15*
21,1,.037799,.03937,0.0,0.0,45.*%
%ADD15MACRO15*%
%ADD20R,.037799X.03937*%
%ADD17R,.126X.126*%
%ADD10C,.393701*%
%ADD35R,.090551X.141728*%
%AMMACRO11*
21,1,.106299,.106299,0.0,0.0,45.*%
%ADD11MACRO11*%
%ADD28R,.106299X.106299*%
%AMMACRO13*
21,1,.037799,.03937,0.0,0.0,135.*%
%ADD13MACRO13*%
%ADD18R,.012X.043*%
%ADD19R,.043X.012*%
%ADD29R,.016X.064*%
%ADD26R,.064X.016*%
%ADD31R,.048X.06*%
%ADD14C,.044*%
%ADD21R,.063X.063*%
%ADD32R,.0315X.03937*%
%AMMACRO12*
21,1,.065,.065,0.0,0.0,45.*%
%ADD12MACRO12*%
%ADD23R,.065X.065*%
%ADD33C,.055118*%
%ADD34R,.090551X.04724*%
%ADD30R,.062988X.0315*%
%ADD27R,.07087X.055118*%
%ADD22C,.062992*%
%ADD25R,.055118X.07087*%
%ADD24R,.0315X.062988*%
%ADD36R,.047244X.076772*%
%ADD37C,.01*%
G75*
%LPD*%
G75*
G54D10*
X-271654Y-271654D03*
Y271654D03*
X271654Y-271654D03*
Y271654D03*
G54D11*
X-253551Y-244386D03*
X-243807Y-254130D03*
X-253894Y245068D03*
X-244150Y254812D03*
X245135Y-253551D03*
X245501Y252987D03*
X254879Y-243807D03*
X255245Y243244D03*
G54D20*
X-104447Y2443D03*
X-98463D03*
X-80059Y106538D03*
X-74074D03*
X3942Y-32860D03*
Y-41212D03*
X-11665Y33805D03*
X-17649D03*
X9926Y-32860D03*
Y-41212D03*
X70366Y1182D03*
X64382D03*
X70327Y-17966D03*
X64342D03*
G54D30*
X4890Y104328D03*
Y96848D03*
X15126D03*
Y100588D03*
Y104328D03*
G54D12*
X-238244Y-233954D03*
X-234347Y-223375D03*
X-236082Y240648D03*
X-232184Y230069D03*
X-227666Y-230057D03*
X-225503Y236750D03*
X235845Y-239387D03*
X225266Y-235490D03*
X231948Y-228808D03*
X240254Y235845D03*
X236356Y225266D03*
X229675Y231948D03*
G54D21*
X-105745Y21631D03*
X-93934D03*
X26240Y76086D03*
Y87897D03*
G54D22*
X-73858Y-70236D03*
X-53858D03*
X-63858D03*
X-66024Y3189D03*
Y-6811D03*
Y-16811D03*
Y13189D03*
X-57201Y88059D03*
X-47201D03*
X-43858Y-70236D03*
X-37201Y88059D03*
X55002Y-71156D03*
X47931Y-78228D03*
X76216Y-49943D03*
X69145Y-57014D03*
X62074Y-64085D03*
X83287Y-42872D03*
X86372Y50740D03*
Y40740D03*
Y70740D03*
Y60740D03*
X104500Y-21659D03*
X97429Y-28730D03*
X90358Y-35801D03*
X111571Y-14588D03*
X96372Y50740D03*
Y40740D03*
Y70740D03*
Y60740D03*
G54D31*
X4928Y87901D03*
X12802D03*
G54D13*
X-220904Y-215057D03*
X-216672Y-219289D03*
X-206547Y-208099D03*
X-210778Y-203868D03*
X-209202Y210266D03*
X-204971Y206034D03*
X209951Y-206680D03*
X205719Y-202449D03*
X216751Y219013D03*
X211842Y209502D03*
X207610Y213733D03*
X220983Y214781D03*
G54D23*
X-78291Y-48806D03*
Y-39358D03*
X-68055Y-44082D03*
G54D32*
X30535Y126393D03*
Y121275D03*
X37469Y121744D03*
Y116626D03*
G54D14*
X-221586Y-208347D03*
X-228914Y-217724D03*
X-218040Y230332D03*
X-220980Y233392D03*
X-156142Y144913D03*
X-141722Y130493D03*
X-135378Y129981D03*
X-127814Y122534D03*
X-148144Y142076D03*
X-103169Y-111325D03*
X-115521Y-100746D03*
X-107247Y-92945D03*
X-121628Y-26359D03*
X-118200Y-12884D03*
X-109847Y-4767D03*
X-103070Y-7092D03*
X-119894Y21985D03*
X-100312Y12884D03*
X-113078Y101849D03*
X-113945Y107680D03*
X-126041Y114457D03*
X-96136Y-104371D03*
X-87931Y-48806D03*
X-78314Y-28841D03*
X-74505Y-6811D03*
X-96254Y-5319D03*
X-86128Y-17992D03*
X-80059Y112327D03*
X-51299Y-26437D03*
Y-158D03*
X-48265Y14775D03*
X-54136Y59179D03*
X-70408Y79233D03*
X-53111Y65759D03*
X-57682Y113393D03*
X-37115Y-52678D03*
X-42040Y-51929D03*
X-22222Y-25571D03*
X-45074Y-22379D03*
X-27068Y-28723D03*
X-35184Y-23837D03*
X-30968Y-20133D03*
Y-40621D03*
X-45074Y-315D03*
X-40424Y-18991D03*
Y1261D03*
X-35184Y-236D03*
X-30220Y-8392D03*
X-29668Y-13199D03*
X-41409Y14775D03*
X-44404Y49408D03*
X-40306Y53190D03*
X-29382Y107770D03*
X-25728Y111423D03*
X-21434Y132226D03*
X-36327Y142352D03*
X866Y-126278D03*
X-14302Y-51417D03*
X5197Y-52792D03*
X-7880Y-51811D03*
X-1300Y-28723D03*
X-13554D03*
X-4058Y-36406D03*
X-16154Y-14814D03*
X-15208Y-2955D03*
X-1655Y-14617D03*
X-8274Y1064D03*
X-11505Y1418D03*
X-16824Y-9535D03*
X-14775Y16706D03*
X-8594Y16509D03*
X-2837Y11150D03*
X-14105Y28723D03*
X-2246Y16706D03*
X-17649Y38964D03*
X-18991Y105868D03*
X-7919Y98933D03*
X13514Y-63473D03*
X18189Y-59559D03*
X15405Y-41212D03*
X18794Y-38100D03*
X18796Y-26987D03*
X14302Y-28053D03*
X15484Y-12884D03*
X15563Y-17336D03*
X31323Y630D03*
X15760Y8904D03*
X11387Y16548D03*
X12805Y29195D03*
X30338Y6895D03*
X30220Y47556D03*
X25019Y41922D03*
X26556Y98067D03*
X23955Y100588D03*
X21160Y117528D03*
X47931Y-58667D03*
X57090Y-12805D03*
X47595D03*
X36681Y30180D03*
X42670Y35066D03*
X58391Y70723D03*
X43500Y116429D03*
X70211Y-47165D03*
X64340Y-35066D03*
X71708Y-35342D03*
X78761Y-20882D03*
X59730Y-23679D03*
X72378Y-40700D03*
X76101Y-18971D03*
X75412Y-16548D03*
X74584Y-2837D03*
X67138Y9535D03*
Y18124D03*
X60440Y7210D03*
Y18203D03*
X65089Y74742D03*
X74210Y81105D03*
X70820Y89420D03*
X75136Y103386D03*
X66468Y87389D03*
X62602Y86448D03*
X60164Y127341D03*
X66398Y122070D03*
X106258Y17214D03*
X106183Y82070D03*
X106813Y89399D03*
X90414Y125913D03*
X98421Y116388D03*
X137191Y-133881D03*
X128799Y-141919D03*
X117609Y-130729D03*
X133763Y-138570D03*
X120919Y-117609D03*
X116703Y-121904D03*
X120643Y29708D03*
X133369Y109296D03*
X125568Y121510D03*
X134630Y137033D03*
X125292Y127656D03*
X132857Y115127D03*
X146450Y122573D03*
X141722Y138058D03*
X146489Y128641D03*
X218079Y-225762D03*
X218577Y-232131D03*
X226077Y218749D03*
X230057Y220758D03*
G54D24*
X-74148Y88063D03*
Y98299D03*
X-70408Y88063D03*
X-66668D03*
Y98299D03*
G54D33*
X52796Y-17998D03*
Y1214D03*
G54D15*
X-214600Y215924D03*
X-220928Y227326D03*
X-225159Y223095D03*
X-210368Y220155D03*
X-198391Y-191496D03*
X-202622Y-195727D03*
X72405Y-74084D03*
X68174Y-78315D03*
X218146Y-213914D03*
X213914Y-218146D03*
X201937Y197051D03*
X206168Y201283D03*
X223134Y-221101D03*
X227366Y-216870D03*
G54D25*
X-54810Y122849D03*
X-66621D03*
X77268Y96530D03*
X89079D03*
G54D34*
X66398Y107392D03*
Y125384D03*
Y116388D03*
G54D16*
X-113590Y-54488D03*
Y-48504D03*
X-87192Y88101D03*
Y94085D03*
X-94718Y116863D03*
Y122847D03*
X-87153D03*
Y116863D03*
X-7919Y93888D03*
Y87904D03*
X15090Y111544D03*
Y117528D03*
X35854Y104289D03*
Y98305D03*
X44561Y104211D03*
Y98226D03*
X48935Y115957D03*
Y121941D03*
X56303D03*
Y115957D03*
X71708Y-24470D03*
Y-30454D03*
X64498Y-24430D03*
Y-30414D03*
X78761Y-24548D03*
Y-30533D03*
X66468Y92238D03*
Y98222D03*
X90029Y8316D03*
Y14300D03*
X105474Y64736D03*
Y70721D03*
X114930Y64776D03*
Y70760D03*
G54D26*
X-22650Y4925D03*
Y2955D03*
Y985D03*
Y-985D03*
Y-2955D03*
Y-4925D03*
Y-6895D03*
Y-8865D03*
Y-10835D03*
Y-12805D03*
Y-14775D03*
Y14775D03*
Y12805D03*
Y10835D03*
Y8865D03*
Y6895D03*
X22650Y-14775D03*
Y-12805D03*
Y-10835D03*
Y-8865D03*
Y-6895D03*
Y-4925D03*
Y-2955D03*
Y-985D03*
Y985D03*
Y2955D03*
Y4925D03*
Y6895D03*
Y8865D03*
Y10835D03*
Y12805D03*
Y14775D03*
G54D35*
X90414Y116388D03*
G54D17*
X-103071Y-23898D03*
G54D36*
X123834Y8424D03*
Y38935D03*
G54D27*
X-18991Y99717D03*
Y87905D03*
X56106Y86448D03*
Y98260D03*
X97712Y5402D03*
Y17214D03*
G54D18*
X-103071Y-34921D03*
X-105039D03*
X-107008D03*
X-108976D03*
Y-12874D03*
X-107008D03*
X-105039D03*
X-103071D03*
X-97165Y-34921D03*
X-99134D03*
X-101102D03*
Y-12874D03*
X-99134D03*
X-97165D03*
G54D37*
G01X-288346Y-254961D02*
G03X-254961Y-288346I16678J-16708D01*
G01Y288346D02*
G03X-288346Y254961I-16708J-16678D01*
G01D02*
G02Y-254961I-156466J-254961D01*
G01X254961Y-288346D02*
G03X-254961I-254961J-156466D01*
G01X254961Y288346D02*
G02X-254961I-254961J156466D01*
G01X288346Y254961D02*
G03Y-254961I156466J-254961D01*
G01D02*
G02X254961Y-288346I-16678J-16708D01*
G01Y288346D02*
G02X288346Y254961I16708J-16678D01*
G54D19*
X-114094Y-29803D03*
Y-27835D03*
Y-25866D03*
Y-23898D03*
Y-21929D03*
Y-19961D03*
Y-17992D03*
X-92047Y-21929D03*
Y-23898D03*
Y-25866D03*
Y-27835D03*
Y-29803D03*
Y-17992D03*
Y-19961D03*
G54D28*
X-36248Y107770D03*
Y121549D03*
G54D29*
X-14775Y-22650D03*
X-12805D03*
X-10835D03*
X-8865D03*
X-6895D03*
X-4925D03*
X-2955D03*
X-985D03*
X985D03*
X2955D03*
X4925D03*
Y22650D03*
X2955D03*
X985D03*
X-985D03*
X-2955D03*
X-4925D03*
X-6895D03*
X-8865D03*
X-10835D03*
X-12805D03*
X-14775D03*
X6895Y-22650D03*
X8865D03*
X10835D03*
X12805D03*
X14775D03*
Y22650D03*
X12805D03*
X10835D03*
X8865D03*
X6895D03*
M02*
