G04 ================== begin FILE IDENTIFICATION RECORD ==================*
G04 Layout Name:  E:/workspace/flyer/pcb/pcb/flyer.brd*
G04 Film Name:    top*
G04 File Format:  Gerber RS274X*
G04 File Origin:  Cadence Allegro 16.5-P002*
G04 Origin Date:  Fri Apr 08 22:14:13 2016*
G04 *
G04 Layer:  VIA CLASS/TOP*
G04 Layer:  PIN/TOP*
G04 Layer:  ETCH/TOP*
G04 Layer:  BOARD GEOMETRY/OUTLINE*
G04 *
G04 Offset:    (0.000 0.000)*
G04 Mirror:    No*
G04 Mode:      Positive*
G04 Rotation:  0*
G04 FullContactRelief:  No*
G04 UndefLineWidth:     10.000*
G04 ================== end FILE IDENTIFICATION RECORD ====================*
%FSLAX25Y25*MOIN*%
%IR0*IPPOS*OFA0.00000B0.00000*MIA0B0*SFA1.00000B1.00000*%
%ADD36R,.03937X.068898*%
%ADD18R,.009X.039*%
%ADD17R,.122X.122*%
%ADD19R,.039X.009*%
%AMMACRO13*
21,1,.029921,.0315,0.0,0.0,135.*%
%ADD13MACRO13*%
%ADD10C,.354331*%
%ADD35R,.08661X.137799*%
%ADD29R,.012X.06*%
%ADD26R,.06X.012*%
%ADD31R,.043X.055*%
%ADD14C,.024*%
%AMMACRO12*
21,1,.06,.06,0.0,0.0,45.*%
%ADD12MACRO12*%
%ADD23R,.06X.06*%
%ADD16R,.0315X.029921*%
%AMMACRO15*
21,1,.029921,.0315,0.0,0.0,45.*%
%ADD15MACRO15*%
%ADD34R,.08661X.043311*%
%ADD20R,.029921X.0315*%
%ADD22C,.055118*%
%ADD33C,.047244*%
%ADD21R,.059X.059*%
%ADD30R,.055118X.023618*%
%ADD24R,.023618X.055118*%
%AMMACRO11*
21,1,.098425,.098425,0.0,0.0,45.*%
%ADD11MACRO11*%
%ADD28R,.098425X.098425*%
%ADD27R,.062988X.04724*%
%ADD32R,.027559X.035429*%
%ADD25R,.04724X.062988*%
%ADD37C,.008*%
%ADD38C,.01*%
%ADD39C,.02*%
%ADD40C,.03*%
%ADD41C,.04*%
%ADD42C,.05*%
%ADD43C,.015*%
%ADD44C,.025*%
G75*
%LPD*%
G75*
G54D10*
X-271654Y-271654D03*
D03*
Y271654D03*
D03*
X271654Y-271654D03*
D03*
Y271654D03*
D03*
G54D11*
X-253551Y-244386D03*
X-243807Y-254130D03*
X-253894Y245068D03*
X-244150Y254812D03*
X245135Y-253551D03*
X245501Y252987D03*
X254879Y-243807D03*
X255245Y243244D03*
G54D20*
X-104447Y2443D03*
X-98463D03*
X-80059Y106538D03*
X-74074D03*
X3942Y-32860D03*
Y-41212D03*
X-11665Y33805D03*
X-17649D03*
X9926Y-32860D03*
Y-41212D03*
X70327Y-17966D03*
X64342D03*
X70366Y1182D03*
X64382D03*
G54D30*
X4890Y104328D03*
Y96848D03*
X15126D03*
Y100588D03*
Y104328D03*
G54D21*
X-110276Y13317D03*
X-98465D03*
X26240Y76086D03*
Y87897D03*
G54D12*
X-238244Y-233954D03*
X-234347Y-223375D03*
X-236082Y240648D03*
X-232184Y230069D03*
X-227666Y-230057D03*
X-225503Y236750D03*
X235845Y-239387D03*
X225266Y-235490D03*
X231948Y-228808D03*
X240254Y235845D03*
X236356Y225266D03*
X229675Y231948D03*
G54D40*
G01X866Y-126278D02*
Y-130690D01*
X827Y-130729D01*
G01X19818Y100588D02*
X15126D01*
G54D22*
X-73858Y-70236D03*
X-53858D03*
X-63858D03*
X-66024Y3189D03*
Y-6811D03*
Y-16811D03*
Y13189D03*
X-57201Y88059D03*
X-47201D03*
X-43858Y-70236D03*
X-37201Y88059D03*
X55002Y-71156D03*
X47931Y-78228D03*
X76216Y-49943D03*
X69145Y-57014D03*
X62074Y-64085D03*
X83287Y-42872D03*
X86372Y50740D03*
Y40740D03*
Y70740D03*
Y60740D03*
X104500Y-21659D03*
X97429Y-28730D03*
X90358Y-35801D03*
X111571Y-14588D03*
X96372Y50740D03*
Y40740D03*
Y70740D03*
Y60740D03*
G54D31*
X4928Y87901D03*
X12802D03*
G54D13*
X-220904Y-215057D03*
X-216672Y-219289D03*
X-206547Y-208099D03*
X-210778Y-203868D03*
X-209202Y210266D03*
X-204971Y206034D03*
X209951Y-206680D03*
X205719Y-202449D03*
X216751Y219013D03*
X211842Y209502D03*
X207610Y213733D03*
X220983Y214781D03*
G54D41*
G01X-133684Y-11032D02*
Y-74151D01*
X-113827Y-94008D01*
G01X-119618Y18321D02*
X-121825D01*
X-133093Y7053D01*
G01X-104447Y2443D02*
X-125371D01*
X-133684Y-5871D01*
Y-11032D01*
G01X-113827Y-94008D02*
Y-94127D01*
X-103660Y-104293D01*
G01D02*
X-77832Y-130122D01*
X-73858D01*
G01X-113590Y-54488D02*
Y-58484D01*
X-113827Y-58720D01*
Y-94008D01*
G01X-94718Y122847D02*
X-98793D01*
X-98874Y122928D01*
X-109768D01*
X-119421Y113275D01*
Y18124D01*
X-119618Y18321D01*
G01X-73858Y-70236D02*
Y-130122D01*
G01D02*
X-74466Y-130729D01*
X827D01*
G01X-96254Y-5319D02*
X-95190Y-4255D01*
Y79D01*
X-97554Y2443D01*
X-98463D01*
G01X-87153Y122847D02*
X-71486D01*
X-71483Y122849D01*
X-66621D01*
G01X-94718Y122847D02*
X-87153D01*
G01X-66024Y13189D02*
Y18445D01*
X-66113Y18535D01*
Y36957D01*
X-33451Y69620D01*
X33687D01*
X44246Y80179D01*
Y90581D01*
X46334Y92669D01*
X52875D01*
X56106Y95900D01*
Y98260D01*
G01X-70408Y79233D02*
Y84355D01*
G01X-66621Y122849D02*
Y103601D01*
X-66668Y103555D01*
Y98299D01*
G01X-47201Y88059D02*
Y116348D01*
X-47122Y116427D01*
Y118096D01*
X-43669Y121549D01*
X-36248D01*
G01X-54810Y122849D02*
Y116265D01*
X-57682Y113393D01*
G01X-57201Y88059D02*
X-57205Y88063D01*
X-64896D01*
G01X-37201Y88059D02*
X-24794D01*
X-24640Y87905D01*
X-18991D01*
G01X827Y-130729D02*
X33805D01*
G01X-2837Y11150D02*
X-1259Y9573D01*
X10203D01*
X14203Y13572D01*
G01X4890Y96848D02*
Y104328D01*
G01X4928Y87901D02*
Y96810D01*
X4890Y96848D01*
G01X-7919Y87904D02*
X4926D01*
X4928Y87901D01*
G01X-18991Y87905D02*
X-11996D01*
X-11994Y87904D01*
X-7919D01*
G01X14203Y13572D02*
X17050Y16420D01*
Y16452D01*
X18573Y17975D01*
X18605D01*
X89162Y88532D01*
G01X35854Y98305D02*
Y78445D01*
X33494Y76086D01*
X26240D01*
G01X23955Y100588D02*
X19818D01*
G01X12802Y87901D02*
X20786D01*
X20790Y87897D01*
X26240D01*
G01X15126Y94840D02*
Y90225D01*
X12802Y87901D01*
G01X33805Y-130729D02*
X46689D01*
G01D02*
X117609D01*
G01X47931Y-81913D02*
Y-129487D01*
X46689Y-130729D01*
G01X47931Y-78228D02*
Y-81913D01*
G01X56106Y86448D02*
X62602D01*
G01X56106Y98260D02*
X66430D01*
X66468Y98222D01*
G01X44561Y98226D02*
X56073D01*
X56106Y98260D01*
G01X35854Y98305D02*
X40408D01*
X40486Y98226D01*
X44561D01*
G01X89079Y96530D02*
Y100537D01*
X78652Y110964D01*
G01D02*
X73229Y116388D01*
X66398D01*
G01X77268Y96530D02*
Y101254D01*
X75136Y103386D01*
G01X66468Y92238D02*
Y87389D01*
G01X73442Y92984D02*
X76988Y96530D01*
X77268D01*
G01X66468Y98222D02*
Y107322D01*
X66398Y107392D01*
G01Y125384D02*
Y122070D01*
G01X125056Y65601D02*
Y53323D01*
X90029Y18296D01*
Y14300D01*
G01X97712D02*
X101926D01*
X104725Y17100D01*
G01X96372Y70740D02*
Y81322D01*
G01Y70740D02*
X105455D01*
X105474Y70721D01*
G01D02*
X112101D01*
X112132Y70752D01*
X114921D01*
X114930Y70760D01*
G01X96372Y81322D02*
X90996Y86698D01*
G01X96372Y81322D02*
Y82070D01*
G01X90996Y86698D02*
X89162Y88532D01*
G01D02*
Y90798D01*
X89079Y90881D01*
Y96530D01*
G01X117609Y-130729D02*
X131360Y-116979D01*
Y59809D01*
X125568Y65601D01*
X125056D01*
G01X123834Y38935D02*
Y32899D01*
X120643Y29708D01*
G01X114930Y70760D02*
X119896D01*
X125056Y65601D01*
G54D32*
X30535Y126393D03*
Y121275D03*
X37469Y121744D03*
Y116626D03*
G54D23*
X-78291Y-48806D03*
Y-39358D03*
X-68055Y-44082D03*
G54D14*
X-228914Y-217724D03*
X-221586Y-208347D03*
X-220980Y233392D03*
X-218040Y230332D03*
X-156142Y144913D03*
X-133093Y7053D03*
X-141722Y130493D03*
X-135378Y129981D03*
X-127814Y122534D03*
X-148144Y142076D03*
X-103169Y-111325D03*
X-115521Y-100746D03*
X-107247Y-92945D03*
X-118200Y-12884D03*
X-109847Y-4767D03*
X-103070Y-7092D03*
X-113078Y101849D03*
X-113945Y107680D03*
X-126041Y114457D03*
X-96136Y-104371D03*
X-87931Y-48806D03*
X-78314Y-28841D03*
X-74505Y-6811D03*
X-96254Y-5319D03*
X-86128Y-17992D03*
X-80059Y112327D03*
X-51299Y-26437D03*
Y-158D03*
X-48265Y14775D03*
X-54136Y59179D03*
X-70408Y79233D03*
X-53111Y65759D03*
X-57682Y113393D03*
X-37115Y-52678D03*
X-42040Y-51929D03*
X-22222Y-25571D03*
X-45074Y-22379D03*
X-27068Y-28723D03*
X-35184Y-23837D03*
X-30968Y-20133D03*
Y-40621D03*
X-45074Y-315D03*
X-40424Y-18991D03*
Y1261D03*
X-35184Y-236D03*
X-30220Y-8392D03*
X-29668Y-13199D03*
X-41409Y14775D03*
X-44404Y49408D03*
X-40306Y53190D03*
X-25728Y111423D03*
X-29382Y107770D03*
X-21434Y132226D03*
X-36327Y142352D03*
X866Y-126278D03*
X-14302Y-51417D03*
X5197Y-52792D03*
X-7880Y-51811D03*
X-1300Y-28723D03*
X-13554D03*
X-4058Y-36406D03*
X-16824Y-14775D03*
X-15208Y-2955D03*
X-17454Y-8629D03*
X-8274Y1064D03*
X2837Y3310D03*
X-11505Y1418D03*
X-1655Y-14617D03*
X-14775Y16706D03*
X-8594Y16509D03*
X-2837Y11150D03*
X-14105Y28723D03*
X-2246Y16706D03*
X-17649Y38964D03*
X-18991Y105868D03*
X-7919Y98933D03*
X13514Y-63473D03*
X18189Y-59559D03*
X15405Y-41212D03*
X18794Y-38100D03*
X18796Y-26987D03*
X14302Y-28053D03*
X15484Y-12884D03*
X15563Y-17336D03*
X31323Y630D03*
X15760Y8904D03*
X11387Y16548D03*
X30338Y6895D03*
X12805Y29195D03*
X30220Y47556D03*
X25019Y41922D03*
X23955Y100588D03*
X26556Y98067D03*
X21160Y117528D03*
X47931Y-58667D03*
X57090Y-12805D03*
X47595D03*
X36681Y30180D03*
X42670Y35066D03*
X58391Y70723D03*
X43500Y116429D03*
X70211Y-47165D03*
X64340Y-35066D03*
X71708Y-35342D03*
X59730Y-23679D03*
X78761Y-20882D03*
X72378Y-40700D03*
X75412Y-16548D03*
X76101Y-18971D03*
X74584Y-2837D03*
X67138Y9535D03*
Y18124D03*
X60440Y7210D03*
Y18203D03*
X65089Y74742D03*
X74210Y81105D03*
X70820Y89420D03*
X75136Y103386D03*
X66468Y87389D03*
X62602Y86448D03*
X66398Y122070D03*
X60164Y127341D03*
X104725Y17100D03*
X106183Y82070D03*
X106813Y89399D03*
X98421Y116388D03*
X90414Y125913D03*
X137191Y-133881D03*
X128799Y-141919D03*
X117609Y-130729D03*
X133763Y-138570D03*
X120919Y-117609D03*
X116703Y-121904D03*
X120643Y29708D03*
X133369Y109296D03*
X125568Y121510D03*
X125292Y127656D03*
X134630Y137033D03*
X132857Y115127D03*
X146450Y122573D03*
X141722Y138058D03*
X146489Y128641D03*
X218577Y-232131D03*
X218079Y-225762D03*
X226077Y218749D03*
X230057Y220758D03*
G54D42*
G01X-253894Y245068D02*
X-253657D01*
X-248220Y239631D01*
Y232421D01*
X-169262Y153463D01*
Y140536D01*
X-164262Y135536D01*
X-41882D01*
X-36248Y129902D01*
Y129470D01*
G01X-236082Y240648D02*
X-238291Y242857D01*
Y249363D01*
X-243740Y254812D01*
X-244150D01*
G01X-119618Y18321D02*
X-114974D01*
X-110123Y13470D01*
X-110276Y13317D01*
G01X-98465D02*
X-71908D01*
X-71780Y13189D01*
X-66024D01*
G01X-29382Y107770D02*
X-25728Y111423D01*
G01X-36248Y107770D02*
X-29382D01*
G01X-36248Y129470D02*
Y121549D01*
G01X122140Y139240D02*
X-26479D01*
X-36248Y129470D01*
G01X-18991Y99717D02*
Y105868D01*
G01X-7919Y93888D02*
Y98933D01*
G01X15090Y117528D02*
X21160D01*
G01X66468Y87389D02*
X67847D01*
X70820Y90362D01*
G01X62602Y86448D02*
X65526D01*
X66468Y87389D01*
G01X70820Y90362D02*
X73442Y92984D01*
G01X70820Y90362D02*
Y89420D01*
G01X90414Y116388D02*
Y125913D01*
G01Y116388D02*
X98421D01*
G01X122140Y139240D02*
X122869D01*
X139181Y122928D01*
Y-124287D01*
G01X240254Y235845D02*
X247846D01*
X255245Y243244D01*
G54D24*
X-74148Y88063D03*
Y98299D03*
X-70408Y88063D03*
X-66668D03*
Y98299D03*
G54D33*
X52796Y-17998D03*
Y1214D03*
G54D15*
X-214600Y215924D03*
X-220928Y227326D03*
X-225159Y223095D03*
X-210368Y220155D03*
X-198391Y-191496D03*
X-202622Y-195727D03*
X72405Y-74084D03*
X68174Y-78315D03*
X218146Y-213914D03*
X213914Y-218146D03*
X201937Y197051D03*
X206168Y201283D03*
X223134Y-221101D03*
X227366Y-216870D03*
G54D43*
G01X-118200Y-12884D02*
X-110686D01*
X-110676Y-12874D01*
X-108976D01*
G01X-114094Y-17992D02*
X-115594D01*
X-118200Y-15387D01*
Y-12884D01*
G01X-101102Y-12874D02*
Y-10167D01*
X-100686Y-9751D01*
G01X47931Y-78228D02*
Y-58667D01*
G54D25*
X-54810Y122849D03*
X-66621D03*
X77268Y96530D03*
X89079D03*
G54D34*
X66398Y107392D03*
Y125384D03*
Y116388D03*
G54D16*
X-113590Y-54488D03*
Y-48504D03*
X-87192Y88101D03*
Y94085D03*
X-94718Y116863D03*
Y122847D03*
X-87153D03*
Y116863D03*
X-7919Y93888D03*
Y87904D03*
X15090Y111544D03*
Y117528D03*
X35854Y104289D03*
Y98305D03*
X44561Y104211D03*
Y98226D03*
X48935Y115957D03*
Y121941D03*
X56303D03*
Y115957D03*
X71708Y-24470D03*
Y-30454D03*
X64498Y-24430D03*
Y-30414D03*
X78761Y-24548D03*
Y-30533D03*
X66468Y92238D03*
Y98222D03*
X90029Y8316D03*
Y14300D03*
X97712Y8316D03*
Y14300D03*
X105474Y64736D03*
Y70721D03*
X114930Y64776D03*
Y70760D03*
G54D44*
G01X-253551Y-244386D02*
X-248834Y-239669D01*
X-243959D01*
X-238244Y-233954D01*
G01X139181Y-124287D02*
X124898Y-138570D01*
X-123322D01*
X-234469Y-249717D01*
X-238785D01*
X-239090Y-249413D01*
X-243807Y-254130D01*
G01X-234347Y-223375D02*
X-230988Y-220017D01*
Y-219798D01*
X-228914Y-217724D01*
G01X-225503Y236750D02*
X-222144Y233392D01*
X-220980D01*
G01X-64896Y88063D02*
X-66668D01*
G01X15126Y96848D02*
Y94840D01*
G01X245501Y252987D02*
X240784Y248270D01*
X231170D01*
X122140Y139240D01*
G01X139181Y-124287D02*
X139752Y-124859D01*
X142273D01*
X250161Y-232746D01*
Y-239090D01*
X254879Y-243807D01*
G01X235845Y-239387D02*
X239204Y-242746D01*
Y-242868D01*
X240418Y-244082D01*
Y-248834D01*
X245135Y-253551D01*
G01X225266Y-235490D02*
X221908Y-232131D01*
X218577D01*
G01X236356Y225266D02*
X232998Y221908D01*
X231206D01*
X230057Y220758D01*
G54D26*
X-22650Y4925D03*
Y2955D03*
Y985D03*
Y-985D03*
Y-2955D03*
Y-4925D03*
Y-6895D03*
Y-8865D03*
Y-10835D03*
Y-12805D03*
Y-14775D03*
Y14775D03*
Y12805D03*
Y10835D03*
Y8865D03*
Y6895D03*
X22650Y-14775D03*
Y-12805D03*
Y-10835D03*
Y-8865D03*
Y-6895D03*
Y-4925D03*
Y-2955D03*
Y-985D03*
Y985D03*
Y2955D03*
Y4925D03*
Y6895D03*
Y8865D03*
Y10835D03*
Y12805D03*
Y14775D03*
G54D35*
X90414Y116388D03*
G54D17*
X-103071Y-23898D03*
G54D27*
X-18991Y99717D03*
Y87905D03*
X56106Y86448D03*
Y98260D03*
G54D18*
X-103071Y-34921D03*
X-105039D03*
X-107008D03*
X-108976D03*
Y-12874D03*
X-107008D03*
X-105039D03*
X-103071D03*
X-97165Y-34921D03*
X-99134D03*
X-101102D03*
Y-12874D03*
X-99134D03*
X-97165D03*
G54D36*
X123834Y8424D03*
Y38935D03*
G54D37*
G01X-210778Y-203868D02*
X-209028Y-202117D01*
X-209012D01*
X-202622Y-195727D01*
G01X-156142Y144913D02*
Y148065D01*
X-202398Y194321D01*
G01X-209202Y210266D02*
X-210896Y211960D01*
Y212220D01*
X-214600Y215924D01*
G01X-220928Y227326D02*
X-219233Y229020D01*
Y229139D01*
X-218040Y230332D01*
G01X-198391Y-191496D02*
X-195779Y-188884D01*
Y-181004D01*
X-115521Y-100746D01*
G01X-148144Y142076D02*
Y149208D01*
X-204971Y206034D01*
G01X-133684Y-11032D02*
X-132423Y-9771D01*
X-107483D01*
X-107008Y-10246D01*
Y-12874D01*
G01X-126041Y114457D02*
X-141722Y130138D01*
Y130493D01*
G01X-127814Y122534D02*
X-135260Y129981D01*
X-135378D01*
G01X-107247Y-92945D02*
X-76475Y-62173D01*
X-71708D01*
X-51299Y-41764D01*
Y-26437D01*
G01X-68055Y-44082D02*
Y-47982D01*
X-78424Y-58351D01*
X-93811D01*
X-103659Y-48504D01*
X-113590D01*
G01X-105039Y-12874D02*
Y-9575D01*
X-109847Y-4767D01*
G01X-103070Y-7092D02*
Y-10024D01*
X-103071Y-10024D01*
Y-12874D01*
G01X-100686Y-9751D02*
X-100016Y-9081D01*
G01X-53111Y65759D02*
X-72023D01*
X-113945Y107680D01*
G01X-45074Y-22379D02*
Y-38770D01*
X-71038Y-64734D01*
X-75215D01*
X-96136Y-85656D01*
Y-104371D01*
G01X-74505Y-6811D02*
Y-13317D01*
X-83117Y-21929D01*
X-92047D01*
G01Y-23898D02*
X-89197D01*
X-89176Y-23876D01*
X-81243D01*
X-70841Y-13475D01*
Y-1629D01*
X-66024Y3189D01*
G01X-30220Y-8392D02*
X-47555D01*
X-47595Y-8352D01*
X-65108Y-25866D01*
X-92047D01*
G01X-78314Y-28841D02*
Y-30941D01*
X-78291Y-30964D01*
Y-39358D01*
G01X-92047Y-17992D02*
X-86128D01*
G01X-87192Y88101D02*
X-76267D01*
X-76229Y88063D01*
X-74148D01*
G01X-87192Y88101D02*
X-90219D01*
X-94718Y92600D01*
Y116863D01*
G01X-80059Y106538D02*
Y112327D01*
G01X-87192Y94085D02*
Y114427D01*
X-87153Y114467D01*
Y116863D01*
G01X-42040Y-51929D02*
X-53858Y-63748D01*
Y-70236D01*
G01X-68055Y-44082D02*
Y-38032D01*
X-58804Y-28782D01*
X-58647D01*
X-43773Y-13908D01*
X-35696D01*
X-33017Y-16587D01*
X-28998D01*
X-27068Y-18518D01*
Y-28723D01*
G01X-22650Y-4925D02*
X-60482D01*
X-62368Y-6811D01*
X-66024D01*
G01X-22650Y-2955D02*
X-59880D01*
X-66024Y3189D01*
G01X-51299Y-158D02*
Y11741D01*
X-48265Y14775D01*
G01X-74148Y98299D02*
Y103989D01*
X-74074Y104063D01*
Y106538D01*
G01X-43858Y-70236D02*
Y-59421D01*
X-37115Y-52678D01*
G01X-40424Y-18991D02*
Y-42788D01*
X-40464Y-42828D01*
X-19818Y-63473D01*
X13514D01*
G01X-35184Y-23837D02*
Y-43379D01*
X-19005Y-59559D01*
X18189D01*
G01X-22222Y-25571D02*
X-19301Y-22650D01*
X-14775D01*
G01X-13554Y-28723D02*
X-27068D01*
G01X-30968Y-40621D02*
Y-20133D01*
G01X-22650Y2955D02*
X-38730D01*
X-40424Y1261D01*
G01X-22650Y985D02*
X-33963D01*
X-35184Y-236D01*
G01X-17454Y-8629D02*
X-18650Y-9824D01*
Y-11849D01*
X-19236Y-12435D01*
X-19409D01*
X-19779Y-12805D01*
X-22650D01*
G01X-29668Y-13199D02*
X-27304Y-10835D01*
X-22650D01*
G01Y14775D02*
X-41409D01*
G01X-40306Y53190D02*
X-8904D01*
X-985Y45271D01*
Y22650D01*
G01X-14302Y-51417D02*
Y-48383D01*
X-10835Y-44916D01*
Y-22650D01*
G01X5197Y-52792D02*
X-6895Y-40700D01*
Y-22650D01*
G01X-8865D02*
Y-50826D01*
X-7880Y-51811D01*
G01X6895Y-22650D02*
Y-26550D01*
X4722Y-28723D01*
X-1300D01*
G01X-4058Y-36406D02*
X-4964Y-35499D01*
Y-26589D01*
X-4925Y-26550D01*
Y-22650D01*
G01X22650Y-2955D02*
X-15208D01*
G01X65089Y74742D02*
X46650D01*
X2955Y31047D01*
Y22650D01*
G01X-10835D02*
Y18750D01*
X-8594Y16509D01*
G01X-11665Y33805D02*
X-7998D01*
X-6895Y32702D01*
Y22650D01*
G01X-12805D02*
Y27423D01*
X-14105Y28723D01*
G01X74210Y81105D02*
X50215D01*
X985Y31875D01*
Y22650D01*
G01X-17649Y33805D02*
Y38964D01*
G01X9926Y-41212D02*
X15405D01*
G01X62074Y-64085D02*
X32512Y-34524D01*
X13987D01*
X12323Y-32860D01*
X9926D01*
G01D02*
Y-30385D01*
X9771Y-30229D01*
Y-29589D01*
X8865Y-28683D01*
Y-22650D01*
G01X9926Y-32860D02*
Y-35335D01*
X9929Y-35337D01*
Y-35657D01*
X12372Y-38100D01*
X18794D01*
G01X10835Y-22650D02*
Y-28289D01*
X11171Y-28625D01*
Y-29610D01*
X13908Y-32347D01*
X17691D01*
X18873Y-31165D01*
Y-29163D01*
X18796Y-29087D01*
Y-26987D01*
G01D02*
X28011D01*
X58039Y-57014D01*
X69145D01*
G01X14302Y-28053D02*
Y-27462D01*
X12805Y-25965D01*
Y-22650D01*
G01X22650Y-12805D02*
X47595D01*
G01X52796Y-17998D02*
Y-13199D01*
X46492Y-6895D01*
X22650D01*
G01X52796Y1214D02*
X46657Y-4925D01*
X22650D01*
G01X15484Y-12884D02*
X17375Y-14775D01*
X22650D01*
G01X87537Y8333D02*
X86503D01*
X81991Y12844D01*
X55948D01*
X40148Y-2955D01*
X22650D01*
G01Y14775D02*
X70408D01*
X96372Y40740D01*
G01X58391Y70723D02*
X14775Y27107D01*
Y22650D01*
G01X30220Y47556D02*
X22064D01*
X4925Y30417D01*
Y22650D01*
G01X15760Y8904D02*
X18711D01*
X18750Y8865D01*
X22650D01*
G01Y6895D02*
X30338D01*
G01X12805Y22650D02*
Y29195D01*
G01X25019Y41922D02*
X18991D01*
X6895Y29826D01*
Y22650D01*
G01X15126Y104328D02*
X33340D01*
X33379Y104289D01*
X35854D01*
G01X15126Y104328D02*
Y109112D01*
X15090Y109148D01*
Y111544D01*
G01X57090Y-12805D02*
X81504D01*
X97429Y-28730D01*
G01X64342Y-17966D02*
X56090D01*
X56058Y-17998D01*
X52796D01*
G01Y1214D02*
X61954D01*
X61986Y1182D01*
X64382D01*
G01X42670Y35066D02*
X50196D01*
X67138Y18124D01*
G01X36681Y30180D02*
X48462D01*
X60440Y18203D01*
G01X35854Y104289D02*
X42008D01*
X42086Y104211D01*
X44561D01*
G01X70211Y-47165D02*
X71547D01*
X89359Y-29353D01*
Y-29321D01*
X89950Y-28730D01*
X97429D01*
G01X64340Y-35066D02*
Y-30572D01*
X64498Y-30414D01*
G01X71708Y-30454D02*
Y-35342D01*
G01X64498Y-24430D02*
X60481D01*
X59730Y-23679D01*
G01X72378Y-40700D02*
X78721Y-34357D01*
Y-32968D01*
X78761Y-32929D01*
Y-30533D01*
G01X67138Y9535D02*
X71314D01*
X86404Y-5555D01*
X115009D01*
X120584Y-11131D01*
X120662D01*
X121155Y-11623D01*
G01X116703Y-121904D02*
Y-12372D01*
X112290Y-7959D01*
X85301D01*
X72102Y5240D01*
X62410D01*
X60440Y7210D01*
G01X123834Y8424D02*
X100295D01*
X100187Y8316D01*
X97712D01*
G01D02*
X90029D01*
G01X87537Y8333D02*
X87399Y8471D01*
G01X87537Y8333D02*
X87554Y8316D01*
X90029D01*
G01X96372Y50740D02*
X100028D01*
X100060Y50708D01*
X103977D01*
X114930Y61661D01*
Y64776D01*
G01X105474Y64736D02*
X105513Y64697D01*
Y61700D01*
X104552Y60740D01*
X96372D01*
G01X106183Y82070D02*
X133369Y109256D01*
Y109296D01*
G01X106813Y89399D02*
X132542Y115127D01*
X132857D01*
G01X137191Y-133881D02*
X144377D01*
X227366Y-216870D01*
G01X146450Y122573D02*
X195700Y171823D01*
Y176906D01*
X220758Y201964D01*
Y208190D01*
X215001Y213947D01*
Y217263D01*
X216751Y219013D01*
G01X201937Y197051D02*
X193178Y188293D01*
Y175330D01*
X146489Y128641D01*
G01X206168Y201283D02*
X207863Y202977D01*
Y205522D01*
X211842Y209502D01*
G54D28*
X-36248Y107770D03*
Y121549D03*
G54D19*
X-114094Y-29803D03*
Y-27835D03*
Y-25866D03*
Y-23898D03*
Y-21929D03*
Y-19961D03*
Y-17992D03*
X-92047Y-21929D03*
Y-23898D03*
Y-25866D03*
Y-27835D03*
Y-29803D03*
Y-17992D03*
Y-19961D03*
G54D38*
G01X-103169Y-111325D02*
X-209312Y-217468D01*
X-214852D01*
X-216672Y-219289D01*
G01X-227666Y-230057D02*
X-224837Y-227228D01*
X-224612D01*
X-216672Y-219289D01*
G01X-202398Y194321D02*
X-221467Y213390D01*
Y219403D01*
X-225159Y223095D01*
G01X-232184Y230069D02*
X-229356Y227241D01*
X-229305D01*
X-225159Y223095D01*
G01X-54136Y59179D02*
X-70408D01*
X-113078Y101849D01*
G01X-45074Y-315D02*
Y31047D01*
X-31835Y44286D01*
X-8826D01*
X-4925Y40385D01*
Y22650D01*
G01X-22650Y-14775D02*
X-16824D01*
G01X-44404Y49408D02*
X-8904D01*
X-2955Y43458D01*
Y22650D01*
G01X-14775D02*
Y16706D01*
G01X14775Y-22650D02*
Y-18124D01*
X15563Y-17336D01*
G01X11387Y16548D02*
Y16388D01*
X14203Y13572D01*
G01X10835Y22650D02*
Y19300D01*
X11387Y18748D01*
Y16548D01*
G01X30535Y121275D02*
X34622D01*
X35091Y121744D01*
X37469D01*
G01X48935Y121941D02*
X56303D01*
G01X37469Y116626D02*
X37666Y116429D01*
X43500D01*
G01X48935Y115957D02*
X43972D01*
X43500Y116429D01*
G01X72405Y-74084D02*
X77933Y-68556D01*
Y-65798D01*
X71805Y-59670D01*
X71800D01*
X69145Y-57014D01*
G01X71708Y-21923D02*
X70327Y-20541D01*
Y-17966D01*
G01X71708Y-24470D02*
Y-21923D01*
G01X76101Y-18971D02*
X73150Y-21923D01*
X71708D01*
G01X78761Y-24548D02*
Y-20882D01*
G01X121155Y-11623D02*
Y-49723D01*
X120919Y-49959D01*
Y-117609D01*
G01X70327Y-17966D02*
X73993D01*
X75412Y-16548D01*
G01X74584Y-2837D02*
Y-540D01*
X72862Y1182D01*
X70366D01*
G01X133763Y-138570D02*
X135963D01*
X145012Y-147618D01*
Y-148006D01*
X201276Y-204270D01*
X203898D01*
X205719Y-202449D01*
G01X218146Y-213914D02*
X216325Y-212094D01*
X215364D01*
X209951Y-206680D01*
G01X216751Y219013D02*
X218572Y220834D01*
Y220845D01*
X229675Y231948D01*
G01X-288346Y-254961D02*
G03X-254961Y-288346I16678J-16708D01*
G01Y288346D02*
G03X-288346Y254961I-16708J-16678D01*
G01D02*
G02Y-254961I-156466J-254961D01*
G01X254961Y-288346D02*
G03X-254961I-254961J-156466D01*
G01X254961Y288346D02*
G02X-254961I-254961J156466D01*
G01X288346Y254961D02*
G03Y-254961I156466J-254961D01*
G01D02*
G02X254961Y-288346I-16678J-16708D01*
G01Y288346D02*
G02X288346Y254961I16708J-16678D01*
G54D29*
X-14775Y-22650D03*
X-12805D03*
X-10835D03*
X-8865D03*
X-6895D03*
X-4925D03*
X-2955D03*
X-985D03*
X985D03*
X2955D03*
X4925D03*
Y22650D03*
X2955D03*
X985D03*
X-985D03*
X-2955D03*
X-4925D03*
X-6895D03*
X-8865D03*
X-10835D03*
X-12805D03*
X-14775D03*
X6895Y-22650D03*
X8865D03*
X10835D03*
X12805D03*
X14775D03*
Y22650D03*
X12805D03*
X10835D03*
X8865D03*
X6895D03*
G54D39*
G01X-221586Y-208347D02*
X-223022Y-209784D01*
Y-212938D01*
X-220904Y-215057D01*
G01X-210368Y220155D02*
X-208194Y217981D01*
X-208170D01*
X-132542Y142352D01*
X-36327D01*
G01X-103660Y-104293D02*
X-204372Y-205004D01*
Y-205924D01*
X-206547Y-208099D01*
G01X-100016Y-9081D02*
X-96254Y-5319D01*
G01X-78291Y-48806D02*
X-87931D01*
G01X-70408Y84355D02*
Y88063D01*
G01X-21434Y132226D02*
X30259D01*
G01X3942Y-41212D02*
Y-32860D01*
G01Y-41212D02*
Y-44367D01*
X14105Y-54530D01*
X25334D01*
X33884Y-63079D01*
Y-130650D01*
X33805Y-130729D01*
G01X30259Y132226D02*
X74939D01*
X78652Y128513D01*
Y110964D01*
G01X30535Y126393D02*
Y131951D01*
X30259Y132226D01*
G01X47931Y-81913D02*
X48404Y-82385D01*
X64104D01*
X68174Y-78315D01*
G01X56303Y115957D02*
X60137D01*
X60568Y116388D01*
X66398D01*
G01Y125384D02*
X62121D01*
X60164Y127341D01*
G01X125568Y121510D02*
Y121270D01*
X90996Y86698D01*
G01X213914Y-218146D02*
X209395Y-213627D01*
X200507D01*
X128799Y-141919D01*
G01X141722Y138058D02*
Y147789D01*
X205436Y211504D01*
Y211559D01*
X207610Y213733D01*
G01X223134Y-221101D02*
X221016Y-223220D01*
X220622D01*
X218079Y-225762D01*
G01X227366Y-216870D02*
X229540Y-219044D01*
Y-223224D01*
X228766Y-223998D01*
Y-225626D01*
X231948Y-228808D01*
G01X220983Y214781D02*
X223157Y216956D01*
X224284D01*
X226077Y218749D01*
M02*
