G04 ================== begin FILE IDENTIFICATION RECORD ==================*
G04 Layout Name:  E:/workspace/flyer/pcb/pcb/v3.0/flyer.brd*
G04 Film Name:    PASTEMASK_TOP*
G04 File Format:  Gerber RS274X*
G04 File Origin:  Cadence Allegro 16.5-P002*
G04 Origin Date:  Thu Jun 23 16:53:32 2016*
G04 *
G04 Layer:  PIN/PASTEMASK_TOP*
G04 Layer:  BOARD GEOMETRY/OUTLINE*
G04 *
G04 Offset:    (0.00 0.00)*
G04 Mirror:    No*
G04 Mode:      Positive*
G04 Rotation:  0*
G04 FullContactRelief:  No*
G04 UndefLineWidth:     10.00*
G04 ================== end FILE IDENTIFICATION RECORD ====================*
%FSLAX35Y35*MOIN*%
%IR0*IPPOS*OFA0.00000B0.00000*MIA0B0*SFA1.00000B1.00000*%
%AMMACRO17*
21,1,.026,.03,0.0,0.0,135.*%
%ADD17MACRO17*%
%AMMACRO12*
21,1,.031,.043,0.0,0.0,135.*%
%ADD12MACRO12*%
%AMMACRO11*
21,1,.033,.026,0.0,0.0,135.*%
%ADD11MACRO11*%
%ADD28R,.006X.018*%
%ADD22R,.023X.009*%
%ADD19C,.051*%
%ADD27R,.018X.006*%
%AMMACRO15*
21,1,.075,.075,0.0,0.0,135.*%
%ADD15MACRO15*%
%ADD30C,.029*%
%ADD25R,.01X.043*%
%ADD23R,.043X.01*%
%AMMACRO18*
21,1,.026,.03,0.0,0.0,45.*%
%ADD18MACRO18*%
%AMMACRO13*
21,1,.031,.043,0.0,0.0,45.*%
%ADD13MACRO13*%
%ADD24R,.026X.03*%
%ADD21R,.026X.033*%
%AMMACRO14*
21,1,.033,.026,0.0,0.0,45.*%
%ADD14MACRO14*%
%ADD20R,.033X.026*%
%ADD10C,.34*%
%ADD29R,.055X.043*%
%ADD26R,.075X.075*%
%AMMACRO16*
21,1,.075,.075,0.0,0.0,45.*%
%ADD16MACRO16*%
%ADD31C,.01*%
G75*
%LPD*%
G75*
G54D10*
X-177165Y-177165D03*
Y177165D03*
X177165Y-177165D03*
Y177165D03*
G54D20*
X-66100Y17100D03*
X-66200Y27000D03*
X-66100Y32900D03*
X-59800Y17100D03*
X-59900Y27000D03*
X-59800Y32900D03*
X-44900Y58700D03*
X-45100Y52450D03*
X-38600Y58700D03*
X-38800Y52450D03*
X-13300Y43500D03*
X-7000D03*
X34000Y-30100D03*
X40300D03*
X30400Y22900D03*
X36700D03*
X28400Y53200D03*
X22100D03*
X55170Y64310D03*
X61470D03*
G54D11*
X-155745Y-155355D03*
X-160200Y-150900D03*
X-87055Y-86345D03*
X-82600Y-90800D03*
X91055Y81345D03*
X86600Y85800D03*
X158355Y157445D03*
X153900Y161900D03*
G54D21*
X-53600Y55500D03*
Y49200D03*
X-38700Y-43500D03*
X-33400Y-52200D03*
Y-58500D03*
X-38700Y-37200D03*
X-7500Y-61200D03*
Y-54900D03*
X-1300Y-61200D03*
Y-54900D03*
X-8000Y-31600D03*
Y-37900D03*
X-12700Y57190D03*
Y50890D03*
X8400Y-53400D03*
Y-47100D03*
X2700Y-34700D03*
Y-41000D03*
X14500Y53200D03*
Y59500D03*
X33300Y-68100D03*
X27000D03*
X33300Y-61800D03*
X20600Y-63000D03*
Y-56700D03*
X27000Y-61800D03*
X39300Y-62900D03*
Y-56600D03*
X48100Y-42400D03*
Y-48700D03*
X57200Y-4000D03*
Y-10300D03*
Y2600D03*
Y8900D03*
X48900Y57060D03*
Y50760D03*
X61450Y57060D03*
Y50760D03*
G54D30*
X45100Y-10300D03*
Y8900D03*
G54D12*
X-151296Y-141904D03*
X-142104Y-151096D03*
X144404Y152496D03*
X153596Y143304D03*
G54D31*
G01X157519Y-178398D02*
G03X178398Y-157519I19646J1233D01*
G01X111763Y-90884D01*
G02Y90884I90884J90884D01*
G01X178398Y157519D01*
G03X157519Y178398I-1233J19646D01*
G01X90884Y111763D01*
G02X-90884I-90884J90884D01*
G01X-157519Y178398D01*
G03X-178398Y157519I-19646J-1233D01*
G01X-111763Y90884D01*
G02Y-90884I-90884J-90884D01*
G01X-178398Y-157519D01*
G03X-157519Y-178398I1233J-19646D01*
G01X-90884Y-111763D01*
G02X90884I90884J-90884D01*
G01X157519Y-178398D01*
G54D13*
X-154696Y143504D03*
X-145504Y152696D03*
X141804Y-151196D03*
X150996Y-142004D03*
G54D22*
X-24100Y-47123D03*
Y-49682D03*
Y-52241D03*
Y-54800D03*
X-17600D03*
X-17598Y-52241D03*
Y-49682D03*
Y-47123D03*
G54D14*
X-158355Y156745D03*
X-153900Y161200D03*
X-93055Y82545D03*
X-88600Y87000D03*
X85045Y-91655D03*
X89500Y-87200D03*
X156645Y-156455D03*
X161100Y-152000D03*
G54D23*
X-29038Y-10864D03*
Y-8895D03*
Y-6927D03*
Y-4958D03*
Y-2990D03*
Y-1021D03*
Y947D03*
Y2916D03*
Y4884D03*
Y6853D03*
Y8821D03*
Y10790D03*
Y12758D03*
Y14727D03*
Y16695D03*
Y18664D03*
X16238Y-2990D03*
Y-4958D03*
Y-6927D03*
Y-8895D03*
Y-10864D03*
Y18664D03*
Y16695D03*
Y14727D03*
Y12758D03*
Y10790D03*
Y8821D03*
Y6853D03*
Y4884D03*
Y2916D03*
Y947D03*
Y-1021D03*
G54D24*
X-25100Y58400D03*
X-28800Y50500D03*
X-21400D03*
X38600Y58700D03*
X34900Y50800D03*
X42300D03*
G54D15*
X-131415Y-139685D03*
X-139900Y-131200D03*
X141685Y133115D03*
X133200Y141600D03*
G54D16*
X-143285Y134715D03*
X-134800Y143200D03*
X130315Y-138485D03*
X138800Y-130000D03*
G54D25*
X-3447Y-18738D03*
X-5416D03*
X-7384D03*
X-9353D03*
X-11321D03*
X-13290D03*
X-15258D03*
X-17227D03*
X-19195D03*
X-21164D03*
Y26538D03*
X-19195D03*
X-17227D03*
X-15258D03*
X-13290D03*
X-11321D03*
X-9353D03*
X-7384D03*
X-5416D03*
X-3447D03*
X8364Y-18738D03*
X6395D03*
X4427D03*
X2458D03*
X490D03*
X-1479D03*
Y26538D03*
X490D03*
X2458D03*
X4427D03*
X6395D03*
X8364D03*
G54D26*
X100Y55100D03*
Y67100D03*
G54D17*
X-99302Y-102070D03*
X-96333Y-93867D03*
X-91100Y-99100D03*
X102402Y101970D03*
X99433Y93767D03*
X94200Y99000D03*
G54D18*
X-104970Y102002D03*
X-96767Y99033D03*
X-102000Y93800D03*
X101570Y-104502D03*
X93367Y-101533D03*
X98600Y-96300D03*
G54D27*
X36120Y-45524D03*
Y-47099D03*
Y-48674D03*
X24309D03*
Y-47099D03*
Y-45524D03*
X36120Y-40800D03*
Y-42375D03*
Y-43950D03*
X24309D03*
Y-42375D03*
Y-40800D03*
G54D19*
X-78740Y-78740D03*
X-63600Y-49400D03*
Y-29400D03*
Y-39400D03*
Y-19400D03*
X-78740Y78740D03*
X-47500Y-48400D03*
Y-58400D03*
Y-38400D03*
X-53600Y-24200D03*
Y-14200D03*
Y-4200D03*
X-41500Y17100D03*
X-51500D03*
X-41500Y7100D03*
X-51500D03*
X-41500Y37100D03*
X-51500D03*
X-41500Y27100D03*
X-51500D03*
X78740Y-78740D03*
Y78740D03*
G54D28*
X34152Y-50643D03*
X32577D03*
X31002D03*
X29428D03*
X27853D03*
X26278D03*
Y-38831D03*
X27853D03*
X29428D03*
X31002D03*
X32577D03*
X34152D03*
G54D29*
X30400Y35200D03*
X60700D03*
M02*
