G04 ================== begin FILE IDENTIFICATION RECORD ==================*
G04 Layout Name:  E:/workspace/flyer/pcb/pcb/v3.0/flyer.brd*
G04 Film Name:    SILSCREEN_BOTTOM*
G04 File Format:  Gerber RS274X*
G04 File Origin:  Cadence Allegro 16.5-P002*
G04 Origin Date:  Thu Jun 23 16:53:32 2016*
G04 *
G04 Layer:  REF DES/ASSEMBLY_BOTTOM*
G04 Layer:  PACKAGE GEOMETRY/SILKSCREEN_BOTTOM*
G04 Layer:  BOARD GEOMETRY/OUTLINE*
G04 Layer:  BOARD GEOMETRY/SILKSCREEN_BOTTOM*
G04 *
G04 Offset:    (0.00 0.00)*
G04 Mirror:    No*
G04 Mode:      Positive*
G04 Rotation:  0*
G04 FullContactRelief:  No*
G04 UndefLineWidth:     10.00*
G04 ================== end FILE IDENTIFICATION RECORD ====================*
%FSLAX35Y35*MOIN*%
%IR0*IPPOS*OFA0.00000B0.00000*MIA0B0*SFA1.00000B1.00000*%
%ADD10C,.01*%
%ADD11C,.006*%
G75*
%LPD*%
G75*
G54D10*
G01X157519Y-178398D02*
G03X178398Y-157519I19646J1233D01*
G01X111763Y-90884D01*
G02Y90884I90884J90884D01*
G01X178398Y157519D01*
G03X157519Y178398I-1233J19646D01*
G01X90884Y111763D01*
G02X-90884I-90884J90884D01*
G01X-157519Y178398D01*
G03X-178398Y157519I-19646J-1233D01*
G01X-111763Y90884D01*
G02Y-90884I-90884J-90884D01*
G01X-178398Y-157519D01*
G03X-157519Y-178398I1233J-19646D01*
G01X-90884Y-111763D01*
G02X90884I90884J-90884D01*
G01X157519Y-178398D01*
G54D11*
G01X-129929Y-116671D02*
X-133269Y-120012D01*
X-132341Y-120940D01*
X-131877Y-121070D01*
X-131469Y-121033D01*
X-130949Y-120661D01*
X-130578Y-120142D01*
X-130522Y-119641D01*
X-130615Y-119214D01*
X-131543Y-118286D01*
G01X-130615Y-119214D02*
X-128444Y-118156D01*
G01X-126402Y-120198D02*
X-129743Y-123538D01*
X-129520Y-122425D01*
G01X-126848Y-119752D02*
X-125957Y-120643D01*
G01X-125715Y-123668D02*
X-125845Y-124318D01*
Y-124763D01*
X-125660Y-125171D01*
X-125288Y-125320D01*
X-124880Y-125283D01*
X-124398Y-125097D01*
X-123971Y-124745D01*
X-123674Y-124374D01*
X-123488Y-123891D01*
X-123433Y-123390D01*
X-123581Y-123019D01*
X-123989Y-122833D01*
X-124583Y-122907D01*
X-125233Y-123260D01*
X-125827Y-123779D01*
X-126476Y-124577D01*
X-126755Y-125079D01*
X-126959Y-125654D01*
X-126977Y-126192D01*
X-126773Y-126508D01*
X-126402Y-126656D01*
X-125938Y-126563D01*
G01X-131520Y120933D02*
X-128338Y117751D01*
X-128196D01*
X-120135Y125812D01*
X-123388Y129065D01*
X-131520Y120933D01*
G01X-116933Y-128020D02*
X-113751Y-124838D01*
Y-124696D01*
X-121812Y-116635D01*
X-125065Y-119888D01*
X-116933Y-128020D01*
G01X-112003Y-114497D02*
X-115343Y-117837D01*
X-114601Y-118580D01*
X-114137Y-118710D01*
X-113691D01*
X-113172Y-118561D01*
X-112634Y-118320D01*
X-112040Y-117801D01*
X-111520Y-117207D01*
X-111279Y-116669D01*
X-111130Y-116149D01*
X-111131Y-115703D01*
X-111261Y-115239D01*
X-112003Y-114497D01*
G01X-108402Y-118098D02*
X-111743Y-121438D01*
X-111520Y-120325D01*
G01X-108848Y-117652D02*
X-107957Y-118543D01*
G01X-108959Y-124222D02*
X-109144Y-123814D01*
X-109089Y-123313D01*
X-108903Y-122830D01*
X-108569Y-122273D01*
X-108105Y-121735D01*
X-107567Y-121271D01*
X-107010Y-120937D01*
X-106528Y-120752D01*
X-106027Y-120696D01*
X-105618Y-120882D01*
X-105433Y-121290D01*
X-105488Y-121791D01*
X-105674Y-122274D01*
X-106008Y-122830D01*
X-106472Y-123369D01*
X-107010Y-123832D01*
X-107567Y-124167D01*
X-108049Y-124352D01*
X-108550Y-124408D01*
X-108959Y-124222D01*
G01X-103351Y-112996D02*
X-110846Y-105501D01*
X-111978D01*
X-114665Y-108188D01*
X-106533Y-116320D01*
X-103351Y-113138D01*
Y-112996D01*
G01X-125019Y119251D02*
X-121678Y115911D01*
X-120750Y116839D01*
X-120620Y117303D01*
X-120657Y117711D01*
X-121029Y118231D01*
X-121548Y118602D01*
X-122049Y118658D01*
X-122476Y118565D01*
X-123404Y117637D01*
G01X-122476Y118565D02*
X-123534Y120736D01*
G01X-121734Y121757D02*
X-121752Y122295D01*
X-121567Y122703D01*
X-121158Y122889D01*
X-120564Y122815D01*
X-119878Y122499D01*
X-119302Y122073D01*
X-118690Y121460D01*
X-118263Y120885D01*
X-118003Y120254D01*
Y119808D01*
X-118152Y119437D01*
X-118560Y119252D01*
X-119006D01*
X-119488Y119437D01*
X-120008Y119808D01*
X-120323Y120272D01*
X-120527Y120848D01*
Y121293D01*
X-120323Y121609D01*
X-119915Y121794D01*
X-119414Y121739D01*
X-118690Y121460D01*
G01X-115663Y111107D02*
X-112323Y107767D01*
X-111580Y108509D01*
X-111450Y108973D01*
Y109419D01*
X-111599Y109938D01*
X-111840Y110476D01*
X-112359Y111070D01*
X-112953Y111590D01*
X-113491Y111831D01*
X-114011Y111980D01*
X-114457Y111979D01*
X-114921Y111849D01*
X-115663Y111107D01*
G01X-111617Y115153D02*
X-108276Y111813D01*
X-112044Y112833D01*
X-110188Y114689D01*
G01X-118696Y109951D02*
X-111201Y117446D01*
Y118578D01*
X-113888Y121265D01*
X-122020Y113133D01*
X-118838Y109951D01*
X-118696D01*
G01X-57700Y5000D02*
Y6300D01*
X-57000Y5600D01*
X-57600Y5000D01*
X-57700D01*
G01X-38000Y3600D02*
Y40600D01*
X-55000D01*
Y3600D01*
X-38000D01*
G01X-27730Y-13570D02*
X-27415Y-13333D01*
X-27048Y-13176D01*
X-26628D01*
X-26155Y-13412D01*
X-25788Y-13806D01*
X-25525Y-14278D01*
X-25315Y-15066D01*
X-25262Y-15774D01*
X-25368Y-16483D01*
X-25525Y-16955D01*
X-25840Y-17428D01*
X-26208Y-17743D01*
X-26575Y-17900D01*
X-26942D01*
X-27310Y-17743D01*
X-27625Y-17506D01*
X-27888Y-17192D01*
G01X-30512Y-17900D02*
Y-13176D01*
X-29882Y-14121D01*
G01Y-17900D02*
X-31142D01*
G01X-33294Y-16955D02*
X-33609Y-17506D01*
X-34029Y-17821D01*
X-34502Y-17900D01*
X-34922Y-17821D01*
X-35342Y-17428D01*
X-35604Y-16955D01*
X-35656Y-16483D01*
X-35552Y-15932D01*
X-35184Y-15538D01*
X-34816Y-15380D01*
X-34344D01*
G01X-34816D02*
X-35131Y-15144D01*
X-35394Y-14751D01*
X-35499Y-14278D01*
X-35394Y-13806D01*
X-35131Y-13412D01*
X-34659Y-13176D01*
X-34187Y-13255D01*
X-33714Y-13570D01*
G01X-19900Y-2000D02*
X-24400D01*
X-24500Y-2100D01*
Y-13500D01*
X-19900D01*
Y-2000D01*
G01X-25470Y18970D02*
X-25785Y18733D01*
X-26152Y18576D01*
X-26572D01*
X-27045Y18812D01*
X-27412Y19206D01*
X-27675Y19678D01*
X-27885Y20466D01*
X-27938Y21174D01*
X-27832Y21883D01*
X-27675Y22355D01*
X-27360Y22828D01*
X-26992Y23143D01*
X-26625Y23300D01*
X-26258D01*
X-25890Y23143D01*
X-25575Y22906D01*
X-25312Y22592D01*
G01X-22688Y23300D02*
Y18576D01*
X-23318Y19521D01*
G01Y23300D02*
X-22058D01*
G01X-19749Y19363D02*
X-19433Y18891D01*
X-19066Y18655D01*
X-18646Y18576D01*
X-18121Y18733D01*
X-17753Y19127D01*
X-17648Y19599D01*
X-17701Y20072D01*
X-17911Y20466D01*
X-18961Y21253D01*
X-19433Y21804D01*
X-19749Y22592D01*
X-19854Y23300D01*
X-17648D01*
G01X-23500Y500D02*
X-19000D01*
X-18900Y600D01*
Y12000D01*
X-23500D01*
Y500D01*
G01X-15375Y-13300D02*
Y-18024D01*
X-14063D01*
X-13643Y-17788D01*
X-13380Y-17473D01*
X-13275Y-16843D01*
X-13380Y-16213D01*
X-13695Y-15820D01*
X-14063Y-15583D01*
X-15375D01*
G01X-14063D02*
X-13275Y-13300D01*
G01X-11386Y-17237D02*
X-11070Y-17709D01*
X-10703Y-17945D01*
X-10283Y-18024D01*
X-9758Y-17867D01*
X-9390Y-17473D01*
X-9285Y-17001D01*
X-9338Y-16528D01*
X-9548Y-16134D01*
X-10598Y-15347D01*
X-11070Y-14796D01*
X-11386Y-14008D01*
X-11491Y-13300D01*
X-9285D01*
G01X-5821D02*
Y-18024D01*
X-7764Y-14638D01*
X-5138D01*
G01X-15600Y-6300D02*
X-11100D01*
X-11000Y-6200D01*
Y5200D01*
X-15600D01*
Y-6300D01*
G01X-3580Y-3000D02*
Y-7724D01*
X-2530D01*
X-2110Y-7488D01*
X-1795Y-7173D01*
X-1532Y-6701D01*
X-1322Y-6149D01*
X-1270Y-5362D01*
X-1322Y-4575D01*
X-1532Y-4023D01*
X-1795Y-3551D01*
X-2110Y-3236D01*
X-2530Y-3000D01*
X-3580D01*
G01X1512D02*
Y-7724D01*
X882Y-6779D01*
G01Y-3000D02*
X2142D01*
G01X5449D02*
Y-7724D01*
X4819Y-6779D01*
G01Y-3000D02*
X6079D01*
G01X-8900Y5100D02*
Y-5500D01*
X-8100Y-6300D01*
X-4300D01*
Y5200D01*
X-8800D01*
X-8900Y5100D01*
G01X-14100Y7600D02*
X-9600D01*
X-9500Y7700D01*
Y19100D01*
X-14100D01*
Y7600D01*
G01X330Y5070D02*
X15Y4833D01*
X-352Y4676D01*
X-772D01*
X-1245Y4912D01*
X-1612Y5306D01*
X-1875Y5778D01*
X-2085Y6566D01*
X-2138Y7274D01*
X-2032Y7983D01*
X-1875Y8455D01*
X-1560Y8928D01*
X-1192Y9243D01*
X-825Y9400D01*
X-458D01*
X-90Y9243D01*
X225Y9006D01*
X488Y8692D01*
G01X2219Y8849D02*
X2587Y9243D01*
X3007Y9400D01*
X3427Y9243D01*
X3794Y8770D01*
X4057Y8062D01*
X4162Y7353D01*
Y6487D01*
X4057Y5778D01*
X3794Y5148D01*
X3479Y4833D01*
X3112Y4676D01*
X2692Y4833D01*
X2377Y5148D01*
X2167Y5621D01*
X2062Y6251D01*
X2167Y6802D01*
X2430Y7353D01*
X2745Y7668D01*
X3112Y7747D01*
X3532Y7589D01*
X3847Y7196D01*
X4162Y6487D01*
G01X-7300Y8000D02*
X-2800D01*
X-2700Y8100D01*
Y19500D01*
X-7300D01*
Y8000D01*
G01X-12170Y20170D02*
X-12485Y19933D01*
X-12852Y19776D01*
X-13272D01*
X-13745Y20012D01*
X-14112Y20406D01*
X-14375Y20878D01*
X-14585Y21666D01*
X-14638Y22374D01*
X-14532Y23083D01*
X-14375Y23555D01*
X-14060Y24028D01*
X-13692Y24343D01*
X-13325Y24500D01*
X-12958D01*
X-12590Y24343D01*
X-12275Y24106D01*
X-12012Y23792D01*
G01X-9388Y24500D02*
X-9021Y24421D01*
X-8601Y24185D01*
X-8338Y23792D01*
X-8233Y23240D01*
X-8338Y22689D01*
X-8653Y22217D01*
X-9126Y21980D01*
X-9650D01*
X-9966Y21823D01*
X-10228Y21429D01*
X-10333Y20878D01*
X-10175Y20327D01*
X-9808Y19933D01*
X-9388Y19776D01*
X-8968Y19933D01*
X-8601Y20327D01*
X-8443Y20878D01*
X-8548Y21429D01*
X-8810Y21823D01*
X-9126Y21980D01*
X-9650D01*
X-10123Y22217D01*
X-10438Y22689D01*
X-10543Y23240D01*
X-10438Y23792D01*
X-10175Y24185D01*
X-9755Y24421D01*
X-9388Y24500D01*
G01X-3170Y21270D02*
X-3485Y21033D01*
X-3852Y20876D01*
X-4272D01*
X-4745Y21112D01*
X-5112Y21506D01*
X-5375Y21978D01*
X-5585Y22766D01*
X-5638Y23474D01*
X-5532Y24183D01*
X-5375Y24655D01*
X-5060Y25128D01*
X-4692Y25443D01*
X-4325Y25600D01*
X-3958D01*
X-3590Y25443D01*
X-3275Y25206D01*
X-3012Y24892D01*
G01X-388Y25600D02*
Y20876D01*
X-1018Y21821D01*
G01Y25600D02*
X242D01*
G01X3549D02*
Y20876D01*
X2919Y21821D01*
G01Y25600D02*
X4179D01*
G01X14530Y-18230D02*
X14215Y-18467D01*
X13848Y-18624D01*
X13428D01*
X12955Y-18388D01*
X12588Y-17994D01*
X12325Y-17522D01*
X12115Y-16734D01*
X12062Y-16026D01*
X12168Y-15317D01*
X12325Y-14845D01*
X12640Y-14372D01*
X13008Y-14057D01*
X13375Y-13900D01*
X13742D01*
X14110Y-14057D01*
X14425Y-14294D01*
X14688Y-14608D01*
G01X17312Y-13900D02*
Y-18624D01*
X16682Y-17679D01*
G01Y-13900D02*
X17942D01*
G01X21879D02*
Y-18624D01*
X19936Y-15238D01*
X22562D01*
G01X11000Y-2000D02*
X6500D01*
X6400Y-2100D01*
Y-13500D01*
X11000D01*
Y-2000D01*
G01X-1200Y4800D02*
Y300D01*
X-1100Y200D01*
X10300D01*
Y4800D01*
X-1200D01*
G01X3930Y15170D02*
X3615Y14933D01*
X3248Y14776D01*
X2828D01*
X2355Y15012D01*
X1988Y15406D01*
X1725Y15878D01*
X1515Y16666D01*
X1462Y17374D01*
X1568Y18083D01*
X1725Y18555D01*
X2040Y19028D01*
X2408Y19343D01*
X2775Y19500D01*
X3142D01*
X3510Y19343D01*
X3825Y19106D01*
X4088Y18792D01*
G01X6712Y19500D02*
Y14776D01*
X6082Y15721D01*
G01Y19500D02*
X7342D01*
G01X10649Y14776D02*
X10229Y14933D01*
X9914Y15327D01*
X9704Y15799D01*
X9546Y16429D01*
X9494Y17138D01*
X9546Y17847D01*
X9704Y18477D01*
X9914Y18949D01*
X10229Y19343D01*
X10649Y19500D01*
X11069Y19343D01*
X11384Y18949D01*
X11594Y18477D01*
X11752Y17847D01*
X11804Y17138D01*
X11752Y16429D01*
X11594Y15799D01*
X11384Y15327D01*
X11069Y14933D01*
X10649Y14776D01*
G01X-1100Y13700D02*
Y9200D01*
X-1000Y9100D01*
X10400D01*
Y13700D01*
X-1100D01*
G01X127120Y-119533D02*
X123938Y-116351D01*
X123796D01*
X115735Y-124412D01*
X118988Y-127665D01*
X127120Y-119533D01*
G01X107720Y-119300D02*
Y-124024D01*
X108770D01*
X109190Y-123788D01*
X109505Y-123473D01*
X109768Y-123001D01*
X109978Y-122449D01*
X110030Y-121662D01*
X109978Y-120875D01*
X109768Y-120323D01*
X109505Y-119851D01*
X109190Y-119536D01*
X108770Y-119300D01*
X107720D01*
G01X112812D02*
X113179Y-119379D01*
X113599Y-119615D01*
X113862Y-120008D01*
X113967Y-120560D01*
X113862Y-121111D01*
X113547Y-121583D01*
X113074Y-121820D01*
X112550D01*
X112234Y-121977D01*
X111972Y-122371D01*
X111867Y-122922D01*
X112025Y-123473D01*
X112392Y-123867D01*
X112812Y-124024D01*
X113232Y-123867D01*
X113599Y-123473D01*
X113757Y-122922D01*
X113652Y-122371D01*
X113390Y-121977D01*
X113074Y-121820D01*
X112550D01*
X112077Y-121583D01*
X111762Y-121111D01*
X111657Y-120560D01*
X111762Y-120008D01*
X112025Y-119615D01*
X112445Y-119379D01*
X112812Y-119300D01*
G01X109204Y-117649D02*
X116699Y-110154D01*
Y-109022D01*
X114012Y-106335D01*
X105880Y-114467D01*
X109062Y-117649D01*
X109204D01*
G01X113197Y107103D02*
X109857Y103763D01*
X110599Y103020D01*
X111063Y102890D01*
X111509D01*
X112028Y103039D01*
X112566Y103280D01*
X113160Y103799D01*
X113680Y104393D01*
X113921Y104931D01*
X114070Y105451D01*
X114069Y105897D01*
X113939Y106361D01*
X113197Y107103D01*
G01X114701Y102816D02*
X114571Y102166D01*
Y101721D01*
X114756Y101313D01*
X115128Y101164D01*
X115536Y101201D01*
X116018Y101387D01*
X116445Y101739D01*
X116742Y102110D01*
X116928Y102593D01*
X116983Y103094D01*
X116835Y103465D01*
X116427Y103651D01*
X115833Y103577D01*
X115183Y103224D01*
X114589Y102705D01*
X113940Y101907D01*
X113661Y101405D01*
X113457Y100830D01*
X113439Y100292D01*
X113643Y99976D01*
X114014Y99828D01*
X114478Y99921D01*
G01X122071Y119129D02*
X118731Y115788D01*
X119659Y114860D01*
X120123Y114730D01*
X120531Y114767D01*
X121051Y115139D01*
X121422Y115658D01*
X121478Y116159D01*
X121385Y116586D01*
X120457Y117514D01*
G01X121385Y116586D02*
X123556Y117644D01*
G01X125598Y115602D02*
X122257Y112262D01*
X122480Y113375D01*
G01X125152Y116048D02*
X126043Y115157D01*
G01X125041Y109478D02*
X124856Y109886D01*
X124911Y110387D01*
X125097Y110870D01*
X125431Y111427D01*
X125895Y111965D01*
X126433Y112429D01*
X126990Y112763D01*
X127472Y112948D01*
X127973Y113004D01*
X128382Y112818D01*
X128567Y112410D01*
X128512Y111909D01*
X128326Y111426D01*
X127992Y110870D01*
X127528Y110331D01*
X126990Y109868D01*
X126433Y109533D01*
X125951Y109348D01*
X125450Y109292D01*
X125041Y109478D01*
G01X125267Y117380D02*
X128449Y120562D01*
Y120704D01*
X120388Y128765D01*
X117135Y125512D01*
X125267Y117380D01*
G01X117649Y110504D02*
X110154Y117999D01*
X109022D01*
X106335Y115312D01*
X114467Y107180D01*
X117649Y110362D01*
Y110504D01*
G01X127825Y-121600D02*
Y-126324D01*
X129137D01*
X129557Y-126088D01*
X129820Y-125773D01*
X129925Y-125143D01*
X129820Y-124513D01*
X129505Y-124120D01*
X129137Y-123883D01*
X127825D01*
G01X129137D02*
X129925Y-121600D01*
G01X132812D02*
Y-126324D01*
X132182Y-125379D01*
G01Y-121600D02*
X133442D01*
G01X135594Y-122308D02*
X135909Y-121915D01*
X136276Y-121679D01*
X136749Y-121600D01*
X137222Y-121757D01*
X137589Y-122072D01*
X137852Y-122623D01*
X137904Y-123253D01*
X137799Y-123883D01*
X137536Y-124277D01*
X137169Y-124592D01*
X136802Y-124671D01*
X136434Y-124592D01*
X135962Y-124277D01*
X136119Y-126324D01*
X137536D01*
M02*
