G04 ================== begin FILE IDENTIFICATION RECORD ==================*
G04 Layout Name:  E:/workspace/flyer/pcb/pcb/flyer.brd*
G04 Film Name:    silkscreen_top*
G04 File Format:  Gerber RS274X*
G04 File Origin:  Cadence Allegro 16.5-P002*
G04 Origin Date:  Sat Apr 09 15:29:22 2016*
G04 *
G04 Layer:  REF DES/SILKSCREEN_TOP*
G04 Layer:  PACKAGE GEOMETRY/SILKSCREEN_TOP*
G04 Layer:  BOARD GEOMETRY/OUTLINE*
G04 Layer:  BOARD GEOMETRY/SILKSCREEN_TOP*
G04 *
G04 Offset:    (0.000 0.000)*
G04 Mirror:    No*
G04 Mode:      Positive*
G04 Rotation:  0*
G04 FullContactRelief:  No*
G04 UndefLineWidth:     10.000*
G04 ================== end FILE IDENTIFICATION RECORD ====================*
%FSLAX25Y25*MOIN*%
%IR0*IPPOS*OFA0.00000B0.00000*MIA0B0*SFA1.00000B1.00000*%
%ADD10C,.001*%
%ADD11C,.004*%
%ADD12C,.005*%
%ADD13C,.006*%
%ADD14C,.008*%
%ADD15C,.003937*%
%ADD16C,.00598*%
%ADD17C,.005909*%
%ADD18C,.007874*%
%ADD19C,.01*%
G75*
%LPD*%
G75*
G54D10*
G01X-248191Y-264951D02*
X-248167Y-264833D01*
X-248177Y-264729D01*
X-248219Y-264640D01*
X-248318Y-264588D01*
X-248422Y-264578D01*
X-248549Y-264592D01*
X-248662Y-264668D01*
X-249134Y-265139D01*
G01X-249162Y-263980D02*
X-249136Y-263841D01*
X-249164Y-263718D01*
X-249237Y-263621D01*
X-249325Y-263558D01*
X-249459Y-263541D01*
X-249577Y-263565D01*
X-249657Y-263626D01*
X-249720Y-263728D01*
X-249714Y-263852D01*
X-249671Y-263942D01*
X-249586Y-264027D01*
G01X-249671Y-263942D02*
X-249763Y-263921D01*
X-249869Y-263932D01*
X-249959Y-263984D01*
X-250010Y-264074D01*
X-250022Y-264180D01*
X-249973Y-264300D01*
X-249876Y-264373D01*
X-249744Y-264411D01*
G01X-257858Y253187D02*
X-257791Y253087D01*
X-257711Y253021D01*
X-257618Y252987D01*
X-257511Y253021D01*
X-257431Y253087D01*
X-257351Y253187D01*
X-257324Y253321D01*
Y253987D01*
G01X-256191Y252987D02*
Y253987D01*
X-256351Y253787D01*
G01Y252987D02*
X-256031D01*
G01X-81008Y-65154D02*
X-80942Y-65254D01*
X-80862Y-65321D01*
X-80768Y-65354D01*
X-80662Y-65321D01*
X-80582Y-65254D01*
X-80502Y-65154D01*
X-80475Y-65021D01*
Y-64354D01*
G01X-79368Y-65354D02*
X-79342Y-65138D01*
X-79302Y-64954D01*
X-79248Y-64788D01*
X-79182Y-64604D01*
X-79075Y-64354D01*
X-79608D01*
G01X-92466Y15725D02*
Y14725D01*
X-92732D01*
X-92839Y14775D01*
X-92919Y14842D01*
X-92986Y14942D01*
X-93039Y15059D01*
X-93052Y15225D01*
X-93039Y15392D01*
X-92986Y15508D01*
X-92919Y15608D01*
X-92839Y15675D01*
X-92732Y15725D01*
X-92466D01*
G01X-93932Y15608D02*
X-94026Y15692D01*
X-94132Y15725D01*
X-94239Y15692D01*
X-94332Y15592D01*
X-94399Y15442D01*
X-94426Y15292D01*
Y15108D01*
X-94399Y14958D01*
X-94332Y14825D01*
X-94252Y14758D01*
X-94159Y14725D01*
X-94052Y14758D01*
X-93972Y14825D01*
X-93919Y14925D01*
X-93892Y15059D01*
X-93919Y15175D01*
X-93986Y15292D01*
X-94066Y15358D01*
X-94159Y15375D01*
X-94266Y15342D01*
X-94346Y15258D01*
X-94426Y15108D01*
G01X-41644Y95087D02*
X-41537Y95004D01*
X-41417Y94954D01*
X-41311D01*
X-41204Y95004D01*
X-41124Y95087D01*
X-41084Y95204D01*
X-41111Y95321D01*
X-41177Y95421D01*
X-41297Y95487D01*
X-41457Y95521D01*
X-41551Y95587D01*
X-41591Y95704D01*
X-41564Y95821D01*
X-41497Y95904D01*
X-41404Y95954D01*
X-41311D01*
X-41217Y95921D01*
X-41137Y95837D01*
G01X-40364Y95954D02*
X-40177Y94954D01*
X-39964Y95954D01*
X-39751Y94954D01*
X-39564Y95954D01*
G01X-38817Y95787D02*
X-38737Y95887D01*
X-38644Y95937D01*
X-38537Y95954D01*
X-38404Y95921D01*
X-38311Y95837D01*
X-38284Y95737D01*
X-38297Y95637D01*
X-38351Y95554D01*
X-38617Y95387D01*
X-38737Y95271D01*
X-38817Y95104D01*
X-38844Y94954D01*
X-38284D01*
G01X-27762Y118991D02*
X-27695Y118891D01*
X-27615Y118824D01*
X-27522Y118791D01*
X-27415Y118824D01*
X-27335Y118891D01*
X-27255Y118991D01*
X-27229Y119124D01*
Y119791D01*
G01X-26095Y118791D02*
X-26002Y118808D01*
X-25895Y118858D01*
X-25829Y118941D01*
X-25802Y119058D01*
X-25829Y119174D01*
X-25908Y119274D01*
X-26029Y119324D01*
X-26162D01*
X-26242Y119358D01*
X-26308Y119441D01*
X-26335Y119558D01*
X-26295Y119674D01*
X-26202Y119758D01*
X-26095Y119791D01*
X-25988Y119758D01*
X-25895Y119674D01*
X-25855Y119558D01*
X-25882Y119441D01*
X-25949Y119358D01*
X-26029Y119324D01*
X-26162D01*
X-26282Y119274D01*
X-26362Y119174D01*
X-26388Y119058D01*
X-26362Y118941D01*
X-26295Y118858D01*
X-26188Y118808D01*
X-26095Y118791D01*
G01X21422Y93457D02*
Y94457D01*
X21689D01*
X21795Y94407D01*
X21875Y94340D01*
X21942Y94240D01*
X21995Y94123D01*
X22009Y93957D01*
X21995Y93790D01*
X21942Y93674D01*
X21875Y93573D01*
X21795Y93507D01*
X21689Y93457D01*
X21422D01*
G01X22822Y93607D02*
X22902Y93524D01*
X22995Y93474D01*
X23115Y93457D01*
X23235Y93490D01*
X23329Y93557D01*
X23395Y93674D01*
X23409Y93807D01*
X23382Y93940D01*
X23315Y94024D01*
X23222Y94090D01*
X23129Y94107D01*
X23035Y94090D01*
X22915Y94024D01*
X22955Y94457D01*
X23315D01*
G01X39282Y-79690D02*
X39400Y-79714D01*
X39504Y-79704D01*
X39593Y-79662D01*
X39645Y-79563D01*
X39654Y-79459D01*
X39640Y-79332D01*
X39565Y-79219D01*
X39093Y-78747D01*
G01X40288Y-78754D02*
X40404Y-78757D01*
X40505Y-78726D01*
X40602Y-78653D01*
X40663Y-78544D01*
X40682Y-78431D01*
X40647Y-78302D01*
X40562Y-78198D01*
X40449Y-78123D01*
X40343Y-78111D01*
X40229Y-78130D01*
X40152Y-78184D01*
X40098Y-78262D01*
X40060Y-78394D01*
X39782Y-78059D01*
X40036Y-77804D01*
G01X52132Y16903D02*
Y17353D01*
X51866Y17903D01*
G01X52399D02*
X52132Y17353D01*
G01X53532Y16903D02*
Y17903D01*
X53372Y17703D01*
G01Y16903D02*
X53692D01*
G01X86527Y32566D02*
X86627Y32632D01*
X86694Y32712D01*
X86727Y32806D01*
X86694Y32912D01*
X86627Y32992D01*
X86527Y33073D01*
X86394Y33099D01*
X85727D01*
G01X86310Y33979D02*
X86194Y34073D01*
X86127Y34152D01*
X86094Y34259D01*
X86127Y34352D01*
X86194Y34419D01*
X86294Y34472D01*
X86410Y34486D01*
X86510Y34472D01*
X86610Y34419D01*
X86694Y34339D01*
X86727Y34246D01*
X86694Y34139D01*
X86594Y34046D01*
X86444Y33992D01*
X86277Y33979D01*
X86060Y34006D01*
X85944Y34046D01*
X85827Y34112D01*
X85744Y34206D01*
X85727Y34299D01*
X85760Y34392D01*
X85844Y34459D01*
G01X121630Y44695D02*
X121736Y44611D01*
X121856Y44561D01*
X121963D01*
X122070Y44611D01*
X122150Y44695D01*
X122190Y44811D01*
X122163Y44928D01*
X122096Y45028D01*
X121976Y45095D01*
X121816Y45128D01*
X121723Y45195D01*
X121683Y45311D01*
X121710Y45428D01*
X121776Y45511D01*
X121870Y45561D01*
X121963D01*
X122056Y45528D01*
X122136Y45445D01*
G01X122910Y45561D02*
X123096Y44561D01*
X123310Y45561D01*
X123523Y44561D01*
X123710Y45561D01*
G01X124710Y44561D02*
Y45561D01*
X124550Y45361D01*
G01Y44561D02*
X124870D01*
G01X265699Y-248191D02*
X265582Y-248167D01*
X265478Y-248177D01*
X265388Y-248219D01*
X265336Y-248318D01*
X265327Y-248422D01*
X265341Y-248549D01*
X265417Y-248662D01*
X265888Y-249134D01*
G01X264266Y-249341D02*
X264974Y-250048D01*
X264816Y-249193D01*
X264344Y-249664D01*
G01X249914Y259732D02*
X249890Y259615D01*
X249899Y259511D01*
X249942Y259421D01*
X250041Y259370D01*
X250145Y259360D01*
X250272Y259374D01*
X250385Y259450D01*
X250856Y259921D01*
G01X251361Y259181D02*
X251488Y259195D01*
X251589Y259165D01*
X251676Y259101D01*
X251747Y258983D01*
X251754Y258858D01*
X251702Y258769D01*
X251622Y258707D01*
X251526Y258686D01*
X251219Y258757D01*
X251052Y258759D01*
X250877Y258698D01*
X250753Y258611D01*
X251148Y258215D01*
G54D11*
G01X64906Y129638D02*
X67406D01*
X66906Y130138D01*
G01X64906D02*
Y129138D01*
G01X96127Y116607D02*
X98627D01*
X96835Y118148D01*
Y116065D01*
G54D12*
G01X29161Y130534D02*
X31661D01*
X31161Y130854D01*
G01X29161D02*
Y130214D01*
G01X36095Y125885D02*
X38595D01*
X38095Y126205D01*
G01X36095D02*
Y125565D01*
G01X71406Y129638D02*
Y103388D01*
G01X85886Y103297D02*
X71398D01*
G01X85886Y129675D02*
X71398D01*
G01X85886Y107786D02*
Y103297D01*
G01Y125266D02*
Y129675D01*
G54D13*
G01X-16800Y-25000D02*
X-25000D01*
Y-16800D01*
G01Y16800D02*
Y25000D01*
X-16800D01*
G01X-2452Y93908D02*
Y91408D01*
X-1385D01*
G01X281D02*
Y93908D01*
X-39Y93408D01*
G01Y91408D02*
X601D01*
G01X25000Y-16800D02*
Y-20000D01*
X20000Y-25000D01*
X16800D01*
G01X25000Y16800D02*
Y25000D01*
X16800D01*
G01X21898Y124031D02*
Y127131D01*
X22664D01*
X22971Y126976D01*
X23201Y126770D01*
X23393Y126460D01*
X23546Y126098D01*
X23584Y125581D01*
X23546Y125064D01*
X23393Y124703D01*
X23201Y124393D01*
X22971Y124186D01*
X22664Y124031D01*
X21898D01*
G01X25564D02*
X25641Y124703D01*
X25756Y125271D01*
X25910Y125788D01*
X26101Y126356D01*
X26408Y127131D01*
X24875D01*
G01X28862Y130546D02*
X31962D01*
X31342Y131006D01*
G01X28862D02*
Y130086D01*
G01X35764Y124425D02*
Y127525D01*
X36723D01*
X37030Y127370D01*
X37221Y127164D01*
X37298Y126750D01*
X37221Y126337D01*
X36991Y126079D01*
X36723Y125923D01*
X35764D01*
G01X36723D02*
X37298Y124425D01*
G01X38703Y127009D02*
X38933Y127318D01*
X39201Y127474D01*
X39508Y127525D01*
X39891Y127422D01*
X40160Y127164D01*
X40236Y126854D01*
X40198Y126543D01*
X40044Y126285D01*
X39278Y125768D01*
X38933Y125407D01*
X38703Y124890D01*
X38626Y124425D01*
X40236D01*
G01X41603Y127009D02*
X41833Y127318D01*
X42101Y127474D01*
X42408Y127525D01*
X42791Y127422D01*
X43060Y127164D01*
X43136Y126854D01*
X43098Y126543D01*
X42944Y126285D01*
X42178Y125768D01*
X41833Y125407D01*
X41603Y124890D01*
X41526Y124425D01*
X43136D01*
G01X35797Y125897D02*
X38897D01*
X38277Y126357D01*
G01X35797D02*
Y125437D01*
G01X81433Y130383D02*
Y128090D01*
X81646Y127610D01*
X82073Y127290D01*
X82606Y127183D01*
X83140Y127290D01*
X83566Y127610D01*
X83780Y128090D01*
Y130383D01*
G01X84793Y128516D02*
X85166Y128890D01*
X85486Y129103D01*
X85913Y129210D01*
X86286Y129103D01*
X86553Y128890D01*
X86766Y128570D01*
X86820Y128196D01*
X86766Y127877D01*
X86553Y127556D01*
X86233Y127290D01*
X85860Y127183D01*
X85433Y127290D01*
X85060Y127610D01*
X84846Y128090D01*
X84793Y128623D01*
X84900Y129316D01*
X85060Y129690D01*
X85326Y130063D01*
X85700Y130330D01*
X86073Y130383D01*
X86446Y130277D01*
X86713Y130010D01*
G54D14*
G01X1975Y83964D02*
X7365D01*
G01X1975Y91838D02*
Y83964D01*
G01X7365Y91838D02*
X1975D01*
G01X15755Y83964D02*
X10365D01*
G01X15755Y91838D02*
Y83964D01*
G01X10365Y91838D02*
X15755D01*
G54D15*
G01X52796Y13261D02*
G03X44922Y5387I0J-7874D01*
G01Y-22172D01*
G03X52796Y-30046I7874J0D01*
G01Y13261D02*
G02X60670Y5387I0J-7874D01*
G01Y-22172D01*
G02X52796Y-30046I-7874J0D01*
G54D16*
G01X27960Y118503D02*
X33110D01*
Y129165D01*
G01X34895Y124516D02*
Y113854D01*
X40044D01*
Y124516D01*
X34895D01*
G54D17*
G01X-204867Y-228393D02*
X-208402Y-231929D01*
X-209446Y-230885D01*
X-209603Y-230374D01*
X-209576Y-229930D01*
X-209189Y-229375D01*
X-208634Y-228987D01*
X-208089Y-228943D01*
X-207619Y-229058D01*
X-206576Y-230102D01*
G01X-207619Y-229058D02*
X-206537Y-226723D01*
G01X-208569Y-224691D02*
X-212104Y-228227D01*
X-210896Y-228021D01*
G01X-208068Y-225192D02*
X-209070Y-224190D01*
G01X-214972Y-225360D02*
X-214520Y-225576D01*
X-213974Y-225532D01*
X-213454Y-225345D01*
X-212857Y-224999D01*
X-212285Y-224510D01*
X-211797Y-223938D01*
X-211450Y-223342D01*
X-211264Y-222821D01*
X-211220Y-222276D01*
X-211436Y-221824D01*
X-211888Y-221608D01*
X-212433Y-221652D01*
X-212954Y-221838D01*
X-213550Y-222185D01*
X-214122Y-222673D01*
X-214611Y-223245D01*
X-214957Y-223842D01*
X-215144Y-224363D01*
X-215188Y-224908D01*
X-214972Y-225360D01*
G01X-221850Y-218008D02*
X-224634Y-215224D01*
X-220737Y-211327D01*
X-217953Y-214110D01*
G01X-219623Y-220235D02*
X-216839Y-223019D01*
X-212942Y-219122D01*
X-215726Y-216338D01*
G01X-211727Y-207533D02*
X-215263Y-203998D01*
X-214219Y-202954D01*
X-213708Y-202796D01*
X-213263Y-202823D01*
X-212708Y-203211D01*
X-212321Y-203766D01*
X-212277Y-204311D01*
X-212392Y-204780D01*
X-213436Y-205824D01*
G01X-212392Y-204780D02*
X-210057Y-205863D01*
G01X-208025Y-203831D02*
X-211560Y-200295D01*
X-211354Y-201504D01*
G01X-208526Y-204332D02*
X-207524Y-203330D01*
G01X-208897Y-198811D02*
X-209000Y-198207D01*
X-208885Y-197738D01*
X-208610Y-197345D01*
X-208074Y-197045D01*
X-207488Y-197047D01*
X-207051Y-197317D01*
X-206739Y-197713D01*
X-206611Y-198174D01*
X-206857Y-199599D01*
X-206820Y-200387D01*
X-206481Y-201227D01*
X-206035Y-201841D01*
X-204281Y-200087D01*
G01X-211725Y-206818D02*
X-214508Y-204034D01*
X-210611Y-200137D01*
X-203401Y-207347D01*
Y-208517D01*
X-206714Y-211829D01*
X-209498Y-209046D01*
G01X-206251Y211213D02*
X-209035Y213996D01*
X-212933Y210099D01*
X-210149Y207315D01*
G01X-219852Y218040D02*
Y223040D01*
X-218672D01*
X-218199Y222790D01*
X-217845Y222456D01*
X-217549Y221956D01*
X-217313Y221373D01*
X-217254Y220540D01*
X-217313Y219706D01*
X-217549Y219123D01*
X-217845Y218623D01*
X-218199Y218289D01*
X-218672Y218040D01*
X-219852D01*
G01X-214499D02*
Y223040D01*
X-215207Y222040D01*
G01Y218040D02*
X-213790D01*
G01X-211649Y214977D02*
X-214433Y212194D01*
X-218330Y216091D01*
X-211120Y223301D01*
X-209951D01*
X-206638Y219988D01*
X-209422Y217204D01*
G01X-215952Y224856D02*
Y229856D01*
X-214476D01*
X-214003Y229606D01*
X-213708Y229272D01*
X-213590Y228606D01*
X-213708Y227939D01*
X-214062Y227522D01*
X-214476Y227272D01*
X-215952D01*
G01X-214476D02*
X-213590Y224856D01*
G01X-210008D02*
Y229856D01*
X-212192Y226272D01*
X-209240D01*
G01X-223879Y228273D02*
X-221095Y231056D01*
X-217197Y227159D01*
X-219981Y224375D01*
G01X-226106Y226046D02*
X-228890Y223262D01*
X-224992Y219364D01*
X-222208Y222148D01*
G01X-195662Y-215922D02*
X-199197Y-219457D01*
X-200032Y-218622D01*
X-200189Y-218111D01*
X-200204Y-217625D01*
X-200060Y-217063D01*
X-199814Y-216483D01*
X-199266Y-215852D01*
X-198636Y-215305D01*
X-198056Y-215059D01*
X-197494Y-214914D01*
X-197007Y-214929D01*
X-196497Y-215087D01*
X-195662Y-215922D01*
G01X-199236Y-213762D02*
X-199074Y-213099D01*
X-199172Y-212529D01*
X-199489Y-212094D01*
X-199882Y-211819D01*
X-200511Y-211780D01*
X-201073Y-211925D01*
X-201468Y-212236D01*
X-201797Y-212732D01*
X-201800Y-213319D01*
X-201625Y-213730D01*
X-201249Y-214105D01*
G01X-201625Y-213730D02*
X-202052Y-213656D01*
X-202556Y-213741D01*
X-202993Y-214011D01*
X-203263Y-214449D01*
X-203349Y-214952D01*
X-203150Y-215505D01*
X-202715Y-215822D01*
X-202104Y-215961D01*
G01X-201342Y-190549D02*
X-198558Y-187766D01*
X-194660Y-191663D01*
X-197444Y-194447D01*
G01X-203569Y-192776D02*
X-206353Y-195560D01*
X-202455Y-199458D01*
X-199671Y-196674D01*
G01X-204211Y210238D02*
Y215238D01*
X-202734D01*
X-202262Y214988D01*
X-201967Y214655D01*
X-201849Y213988D01*
X-201967Y213322D01*
X-202321Y212905D01*
X-202734Y212655D01*
X-204211D01*
G01X-202734D02*
X-201849Y210238D01*
G01X-200097Y212322D02*
X-199684Y212905D01*
X-199329Y213238D01*
X-198857Y213405D01*
X-198444Y213238D01*
X-198148Y212905D01*
X-197912Y212405D01*
X-197853Y211822D01*
X-197912Y211322D01*
X-198148Y210822D01*
X-198503Y210405D01*
X-198916Y210238D01*
X-199388Y210405D01*
X-199802Y210905D01*
X-200038Y211655D01*
X-200097Y212488D01*
X-199979Y213572D01*
X-199802Y214155D01*
X-199506Y214738D01*
X-199093Y215155D01*
X-198680Y215238D01*
X-198266Y215072D01*
X-197971Y214655D01*
G01X-204024Y208985D02*
X-201240Y206201D01*
X-205138Y202304D01*
X-207922Y205088D01*
G01X-110834Y-53071D02*
Y-57008D01*
X-116346D01*
Y-53071D01*
G01X-110834Y-49921D02*
Y-45984D01*
X-116346D01*
Y-49921D01*
G01X-106614D02*
Y-45984D01*
X-101102D01*
Y-49921D01*
G01X-106614Y-53071D02*
Y-57008D01*
X-101102D01*
Y-53071D01*
G01X-118713Y-43537D02*
Y-38537D01*
X-117237D01*
X-116764Y-38787D01*
X-116469Y-39120D01*
X-116351Y-39787D01*
X-116469Y-40454D01*
X-116823Y-40870D01*
X-117237Y-41120D01*
X-118713D01*
G01X-117237D02*
X-116351Y-43537D01*
G01X-114599Y-39370D02*
X-114245Y-38870D01*
X-113831Y-38620D01*
X-113359Y-38537D01*
X-112768Y-38704D01*
X-112355Y-39120D01*
X-112237Y-39620D01*
X-112296Y-40120D01*
X-112532Y-40537D01*
X-113713Y-41370D01*
X-114245Y-41954D01*
X-114599Y-42787D01*
X-114717Y-43537D01*
X-112237D01*
G01X-110721Y-42787D02*
X-110367Y-43204D01*
X-109954Y-43454D01*
X-109422Y-43537D01*
X-108891Y-43370D01*
X-108478Y-43037D01*
X-108182Y-42454D01*
X-108123Y-41787D01*
X-108241Y-41120D01*
X-108537Y-40704D01*
X-108950Y-40370D01*
X-109363Y-40287D01*
X-109777Y-40370D01*
X-110308Y-40704D01*
X-110131Y-38537D01*
X-108537D01*
G01X-103938Y-43773D02*
Y-38773D01*
X-102462D01*
X-101989Y-39024D01*
X-101694Y-39357D01*
X-101576Y-40023D01*
X-101694Y-40690D01*
X-102048Y-41107D01*
X-102462Y-41357D01*
X-103938D01*
G01X-102462D02*
X-101576Y-43773D01*
G01X-99824Y-39607D02*
X-99470Y-39107D01*
X-99056Y-38857D01*
X-98584Y-38773D01*
X-97994Y-38940D01*
X-97580Y-39357D01*
X-97462Y-39857D01*
X-97521Y-40357D01*
X-97757Y-40773D01*
X-98938Y-41607D01*
X-99470Y-42190D01*
X-99824Y-43024D01*
X-99942Y-43773D01*
X-97462D01*
G01X-95769Y-41690D02*
X-95356Y-41107D01*
X-95002Y-40773D01*
X-94529Y-40607D01*
X-94116Y-40773D01*
X-93821Y-41107D01*
X-93584Y-41607D01*
X-93525Y-42190D01*
X-93584Y-42690D01*
X-93821Y-43190D01*
X-94175Y-43607D01*
X-94588Y-43773D01*
X-95061Y-43607D01*
X-95474Y-43107D01*
X-95710Y-42357D01*
X-95769Y-41523D01*
X-95651Y-40440D01*
X-95474Y-39857D01*
X-95179Y-39273D01*
X-94766Y-38857D01*
X-94352Y-38773D01*
X-93939Y-38940D01*
X-93644Y-39357D01*
G01X-103030Y5199D02*
X-106967D01*
Y-313D01*
X-103030D01*
G01X-90030Y8883D02*
X-90384Y9133D01*
X-90797Y9300D01*
X-91270D01*
X-91801Y9050D01*
X-92214Y8633D01*
X-92510Y8133D01*
X-92746Y7300D01*
X-92805Y6550D01*
X-92687Y5800D01*
X-92510Y5300D01*
X-92155Y4800D01*
X-91742Y4467D01*
X-91329Y4300D01*
X-90915D01*
X-90502Y4467D01*
X-90148Y4717D01*
X-89852Y5050D01*
G01X-87274Y4300D02*
Y9300D01*
X-87982Y8300D01*
G01Y4300D02*
X-86565D01*
G01X-84223Y4883D02*
X-83810Y4467D01*
X-83337Y4300D01*
X-82865Y4467D01*
X-82452Y4966D01*
X-82156Y5717D01*
X-82038Y6467D01*
Y7383D01*
X-82156Y8133D01*
X-82452Y8800D01*
X-82806Y9133D01*
X-83219Y9300D01*
X-83692Y9133D01*
X-84046Y8800D01*
X-84282Y8300D01*
X-84400Y7633D01*
X-84282Y7050D01*
X-83987Y6467D01*
X-83633Y6133D01*
X-83219Y6050D01*
X-82747Y6217D01*
X-82392Y6633D01*
X-82038Y7383D01*
G01X-99880Y5199D02*
X-95943D01*
Y-313D01*
X-99880D01*
G01X-76707Y84126D02*
Y102236D01*
X-64109D01*
Y84126D01*
X-76707D01*
G01X-78641Y103782D02*
X-82578D01*
Y109294D01*
X-78641D01*
G01X-75492Y103782D02*
X-71555D01*
Y109294D01*
X-75492D01*
G01X-95309Y97160D02*
Y102160D01*
X-94128D01*
X-93656Y101910D01*
X-93301Y101577D01*
X-93006Y101077D01*
X-92770Y100494D01*
X-92711Y99660D01*
X-92770Y98827D01*
X-93006Y98244D01*
X-93301Y97744D01*
X-93656Y97410D01*
X-94128Y97160D01*
X-95309D01*
G01X-89955D02*
X-89542Y97244D01*
X-89070Y97494D01*
X-88774Y97910D01*
X-88656Y98494D01*
X-88774Y99077D01*
X-89129Y99577D01*
X-89660Y99827D01*
X-90250D01*
X-90605Y99994D01*
X-90900Y100410D01*
X-91018Y100994D01*
X-90841Y101577D01*
X-90428Y101994D01*
X-89955Y102160D01*
X-89483Y101994D01*
X-89070Y101577D01*
X-88892Y100994D01*
X-89010Y100410D01*
X-89306Y99994D01*
X-89660Y99827D01*
X-90250D01*
X-90782Y99577D01*
X-91136Y99077D01*
X-91254Y98494D01*
X-91136Y97910D01*
X-90841Y97494D01*
X-90369Y97244D01*
X-89955Y97160D01*
G01X-84436Y89518D02*
Y85581D01*
X-89948D01*
Y95778D01*
X-89121Y96605D01*
X-84436D01*
Y92668D01*
G01X-83883Y97551D02*
Y93967D01*
X-83647Y93217D01*
X-83174Y92717D01*
X-82584Y92551D01*
X-81993Y92717D01*
X-81521Y93217D01*
X-81285Y93967D01*
Y97551D01*
G01X-78647Y92551D02*
X-78529Y93634D01*
X-78352Y94550D01*
X-78116Y95384D01*
X-77821Y96301D01*
X-77348Y97551D01*
X-79710D01*
G01X-99998Y127577D02*
Y132577D01*
X-98522D01*
X-98049Y132327D01*
X-97754Y131994D01*
X-97636Y131327D01*
X-97754Y130660D01*
X-98108Y130244D01*
X-98522Y129994D01*
X-99998D01*
G01X-98522D02*
X-97636Y127577D01*
G01X-94762D02*
Y132577D01*
X-95471Y131577D01*
G01Y127577D02*
X-94054D01*
G01X-91711Y128160D02*
X-91298Y127744D01*
X-90826Y127577D01*
X-90353Y127744D01*
X-89940Y128244D01*
X-89644Y128994D01*
X-89526Y129744D01*
Y130660D01*
X-89644Y131410D01*
X-89940Y132077D01*
X-90294Y132411D01*
X-90707Y132577D01*
X-91180Y132411D01*
X-91534Y132077D01*
X-91770Y131577D01*
X-91888Y130910D01*
X-91770Y130327D01*
X-91475Y129744D01*
X-91121Y129410D01*
X-90707Y129327D01*
X-90235Y129494D01*
X-89881Y129910D01*
X-89526Y130660D01*
G01X-91962Y118280D02*
Y114343D01*
X-97474D01*
Y118280D01*
G01X-91962Y121430D02*
Y125367D01*
X-97474D01*
Y121430D01*
G01X-86286Y127380D02*
Y132380D01*
X-84810D01*
X-84338Y132130D01*
X-84043Y131797D01*
X-83925Y131130D01*
X-84043Y130464D01*
X-84397Y130047D01*
X-84810Y129797D01*
X-86286D01*
G01X-84810D02*
X-83925Y127380D01*
G01X-81051D02*
Y132380D01*
X-81759Y131380D01*
G01Y127380D02*
X-80342D01*
G01X-78118Y129463D02*
X-77705Y130047D01*
X-77350Y130380D01*
X-76878Y130547D01*
X-76465Y130380D01*
X-76170Y130047D01*
X-75933Y129547D01*
X-75874Y128964D01*
X-75933Y128464D01*
X-76170Y127963D01*
X-76524Y127547D01*
X-76937Y127380D01*
X-77410Y127547D01*
X-77823Y128047D01*
X-78059Y128797D01*
X-78118Y129630D01*
X-78000Y130713D01*
X-77823Y131297D01*
X-77528Y131880D01*
X-77114Y132297D01*
X-76701Y132380D01*
X-76288Y132214D01*
X-75992Y131797D01*
G01X-89909Y121430D02*
Y125367D01*
X-84397D01*
Y121430D01*
G01X-89909Y118280D02*
Y114343D01*
X-84397D01*
Y118280D01*
G01X-66746Y133067D02*
X-67101Y133317D01*
X-67514Y133483D01*
X-67986D01*
X-68518Y133233D01*
X-68931Y132817D01*
X-69226Y132317D01*
X-69463Y131483D01*
X-69522Y130733D01*
X-69403Y129983D01*
X-69226Y129483D01*
X-68872Y128983D01*
X-68459Y128650D01*
X-68045Y128483D01*
X-67632D01*
X-67219Y128650D01*
X-66864Y128900D01*
X-66569Y129233D01*
G01X-65113Y132650D02*
X-64758Y133150D01*
X-64345Y133400D01*
X-63872Y133483D01*
X-63282Y133317D01*
X-62869Y132900D01*
X-62751Y132400D01*
X-62810Y131900D01*
X-63046Y131483D01*
X-64227Y130650D01*
X-64758Y130067D01*
X-65113Y129233D01*
X-65231Y128483D01*
X-62751D01*
G01X-64258Y127180D02*
X-70164D01*
Y119345D01*
X-69416Y118597D01*
X-63865D01*
G01X-57173Y127180D02*
X-51267D01*
G01D02*
Y118518D01*
X-57173D01*
G01X-32435Y31895D02*
Y36895D01*
X-30959D01*
X-30486Y36645D01*
X-30191Y36312D01*
X-30073Y35645D01*
X-30191Y34979D01*
X-30545Y34562D01*
X-30959Y34312D01*
X-32435D01*
G01X-30959D02*
X-30073Y31895D01*
G01X-27199D02*
Y36895D01*
X-27908Y35896D01*
G01Y31895D02*
X-26491D01*
G01X-23144D02*
X-22731Y31979D01*
X-22259Y32229D01*
X-21964Y32645D01*
X-21845Y33229D01*
X-21964Y33812D01*
X-22318Y34312D01*
X-22849Y34562D01*
X-23440D01*
X-23794Y34729D01*
X-24089Y35145D01*
X-24207Y35729D01*
X-24030Y36312D01*
X-23617Y36729D01*
X-23144Y36895D01*
X-22672Y36729D01*
X-22259Y36312D01*
X-22082Y35729D01*
X-22200Y35145D01*
X-22495Y34729D01*
X-22849Y34562D01*
X-23440D01*
X-23971Y34312D01*
X-24325Y33812D01*
X-24444Y33229D01*
X-24325Y32645D01*
X-24030Y32229D01*
X-23558Y31979D01*
X-23144Y31895D01*
G01X-23322Y90268D02*
Y84363D01*
X-15487D01*
X-14739Y85111D01*
Y90662D01*
G01X-27858Y97094D02*
X-28213Y97345D01*
X-28626Y97511D01*
X-29098D01*
X-29630Y97261D01*
X-30043Y96845D01*
X-30338Y96345D01*
X-30575Y95511D01*
X-30634Y94761D01*
X-30516Y94011D01*
X-30338Y93511D01*
X-29984Y93011D01*
X-29571Y92678D01*
X-29158Y92511D01*
X-28744D01*
X-28331Y92678D01*
X-27977Y92928D01*
X-27681Y93261D01*
G01X-26107Y93094D02*
X-25693Y92678D01*
X-25221Y92511D01*
X-24749Y92678D01*
X-24335Y93178D01*
X-24040Y93928D01*
X-23922Y94678D01*
Y95594D01*
X-24040Y96345D01*
X-24335Y97011D01*
X-24690Y97345D01*
X-25103Y97511D01*
X-25575Y97345D01*
X-25930Y97011D01*
X-26166Y96511D01*
X-26284Y95844D01*
X-26166Y95261D01*
X-25870Y94678D01*
X-25516Y94344D01*
X-25103Y94261D01*
X-24631Y94428D01*
X-24276Y94845D01*
X-23922Y95594D01*
G01X-23322Y97354D02*
Y103260D01*
G01D02*
X-14660D01*
Y97354D01*
G01X2442Y-29353D02*
Y-24353D01*
X3919D01*
X4391Y-24603D01*
X4686Y-24936D01*
X4804Y-25603D01*
X4686Y-26270D01*
X4332Y-26686D01*
X3919Y-26936D01*
X2442D01*
G01X3919D02*
X4804Y-29353D01*
G01X6556Y-25186D02*
X6910Y-24686D01*
X7324Y-24436D01*
X7796Y-24353D01*
X8386Y-24520D01*
X8800Y-24936D01*
X8918Y-25436D01*
X8859Y-25936D01*
X8623Y-26353D01*
X7442Y-27186D01*
X6910Y-27770D01*
X6556Y-28603D01*
X6438Y-29353D01*
X8918D01*
G01X5360Y-30104D02*
X1423D01*
Y-35616D01*
X5360D01*
G01Y-38456D02*
X1423D01*
Y-43968D01*
X5360D01*
G01X-13082Y36561D02*
X-9145D01*
Y31049D01*
X-13082D01*
G01X-16232Y36561D02*
X-20169D01*
Y31049D01*
X-16232D01*
G01X-10593Y75598D02*
X-10843Y75244D01*
X-11010Y74830D01*
Y74358D01*
X-10760Y73826D01*
X-10343Y73413D01*
X-9843Y73118D01*
X-9010Y72882D01*
X-8260Y72822D01*
X-7510Y72941D01*
X-7010Y73118D01*
X-6510Y73472D01*
X-6176Y73885D01*
X-6010Y74299D01*
Y74712D01*
X-6176Y75125D01*
X-6426Y75480D01*
X-6759Y75775D01*
G01X-6010Y78353D02*
X-6093Y78767D01*
X-6343Y79239D01*
X-6759Y79534D01*
X-7343Y79652D01*
X-7926Y79534D01*
X-8426Y79180D01*
X-8676Y78649D01*
Y78058D01*
X-8843Y77704D01*
X-9260Y77409D01*
X-9843Y77290D01*
X-10426Y77468D01*
X-10843Y77881D01*
X-11010Y78353D01*
X-10843Y78826D01*
X-10426Y79239D01*
X-9843Y79416D01*
X-9260Y79298D01*
X-8843Y79003D01*
X-8676Y78649D01*
Y78058D01*
X-8426Y77527D01*
X-7926Y77172D01*
X-7343Y77054D01*
X-6759Y77172D01*
X-6343Y77468D01*
X-6093Y77940D01*
X-6010Y78353D01*
G01X-10675Y92471D02*
Y96408D01*
X-5164D01*
Y92471D01*
G01X-10675Y89321D02*
Y85384D01*
X-5164D01*
Y89321D01*
G01X669Y113823D02*
Y110240D01*
X906Y109489D01*
X1378Y108989D01*
X1968Y108823D01*
X2559Y108989D01*
X3031Y109489D01*
X3267Y110240D01*
Y113823D01*
G01X6023Y108823D02*
X6436Y108906D01*
X6909Y109156D01*
X7204Y109573D01*
X7322Y110156D01*
X7204Y110739D01*
X6850Y111239D01*
X6318Y111490D01*
X5728D01*
X5374Y111656D01*
X5078Y112073D01*
X4960Y112656D01*
X5138Y113239D01*
X5551Y113656D01*
X6023Y113823D01*
X6496Y113656D01*
X6909Y113239D01*
X7086Y112656D01*
X6968Y112073D01*
X6673Y111656D01*
X6318Y111490D01*
X5728D01*
X5196Y111239D01*
X4842Y110739D01*
X4724Y110156D01*
X4842Y109573D01*
X5138Y109156D01*
X5610Y108906D01*
X6023Y108823D01*
G01X19063Y94289D02*
X952D01*
Y106887D01*
X19063D01*
Y94289D01*
G01X590Y115718D02*
Y120718D01*
X2067D01*
X2539Y120468D01*
X2834Y120134D01*
X2952Y119468D01*
X2834Y118801D01*
X2480Y118384D01*
X2067Y118134D01*
X590D01*
G01X2067D02*
X2952Y115718D01*
G01X4704Y119885D02*
X5059Y120384D01*
X5472Y120634D01*
X5944Y120718D01*
X6535Y120551D01*
X6948Y120134D01*
X7066Y119634D01*
X7007Y119134D01*
X6771Y118718D01*
X5590Y117885D01*
X5059Y117301D01*
X4704Y116468D01*
X4586Y115718D01*
X7066D01*
G01X10589D02*
Y120718D01*
X8405Y117135D01*
X11357D01*
G01X10598Y-49723D02*
Y-44723D01*
X12074D01*
X12547Y-44973D01*
X12842Y-45306D01*
X12960Y-45973D01*
X12842Y-46640D01*
X12488Y-47056D01*
X12074Y-47306D01*
X10598D01*
G01X12074D02*
X12960Y-49723D01*
G01X14535Y-48723D02*
X14889Y-49306D01*
X15361Y-49640D01*
X15893Y-49723D01*
X16365Y-49640D01*
X16838Y-49223D01*
X17133Y-48723D01*
X17192Y-48223D01*
X17074Y-47640D01*
X16660Y-47223D01*
X16247Y-47056D01*
X15716D01*
G01X16247D02*
X16601Y-46806D01*
X16897Y-46390D01*
X17015Y-45890D01*
X16897Y-45390D01*
X16601Y-44973D01*
X16070Y-44723D01*
X15538Y-44806D01*
X15007Y-45140D01*
G01X8509Y-30104D02*
X12446D01*
Y-35616D01*
X8509D01*
G01Y-38456D02*
X12446D01*
Y-43968D01*
X8509D01*
G01X29352Y107444D02*
Y112444D01*
X30829D01*
X31301Y112194D01*
X31596Y111860D01*
X31714Y111194D01*
X31596Y110527D01*
X31242Y110110D01*
X30829Y109860D01*
X29352D01*
G01X30829D02*
X31714Y107444D01*
G01X33466Y111611D02*
X33820Y112110D01*
X34234Y112360D01*
X34706Y112444D01*
X35297Y112277D01*
X35710Y111860D01*
X35828Y111360D01*
X35769Y110860D01*
X35533Y110444D01*
X34352Y109611D01*
X33820Y109027D01*
X33466Y108194D01*
X33348Y107444D01*
X35828D01*
G01X38643Y112444D02*
X38170Y112277D01*
X37816Y111860D01*
X37580Y111360D01*
X37403Y110694D01*
X37344Y109944D01*
X37403Y109194D01*
X37580Y108527D01*
X37816Y108027D01*
X38170Y107610D01*
X38643Y107444D01*
X39115Y107610D01*
X39470Y108027D01*
X39706Y108527D01*
X39883Y109194D01*
X39942Y109944D01*
X39883Y110694D01*
X39706Y111360D01*
X39470Y111860D01*
X39115Y112277D01*
X38643Y112444D01*
G01X12334Y112961D02*
Y109024D01*
X17846D01*
Y112961D01*
G01X12334Y116111D02*
Y120048D01*
X17846D01*
Y116111D01*
G01X33094Y129110D02*
X28960D01*
X27960Y128110D01*
Y118503D01*
G01X59069Y-90121D02*
X55534Y-86585D01*
X56577Y-85542D01*
X57088Y-85384D01*
X57533Y-85411D01*
X58088Y-85799D01*
X58476Y-86354D01*
X58520Y-86899D01*
X58404Y-87368D01*
X57360Y-88412D01*
G01X58404Y-87368D02*
X60739Y-88451D01*
G01X62771Y-86419D02*
X59236Y-82883D01*
X59442Y-84091D01*
G01X62270Y-86920D02*
X63272Y-85918D01*
G01X52076Y3856D02*
X51722Y4106D01*
X51308Y4272D01*
X50836D01*
X50305Y4022D01*
X49891Y3606D01*
X49596Y3106D01*
X49360Y2272D01*
X49301Y1522D01*
X49419Y772D01*
X49596Y272D01*
X49950Y-228D01*
X50364Y-561D01*
X50777Y-728D01*
X51190D01*
X51604Y-561D01*
X51958Y-311D01*
X52253Y22D01*
G01X54832Y-728D02*
Y4272D01*
X54123Y3272D01*
G01Y-728D02*
X55540D01*
G01X58886D02*
Y4272D01*
X58178Y3272D01*
G01Y-728D02*
X59595D01*
G01X52037Y-15293D02*
X51682Y-15043D01*
X51269Y-14876D01*
X50797D01*
X50265Y-15126D01*
X49852Y-15543D01*
X49557Y-16043D01*
X49320Y-16876D01*
X49261Y-17626D01*
X49380Y-18376D01*
X49557Y-18876D01*
X49911Y-19376D01*
X50324Y-19710D01*
X50738Y-19876D01*
X51151D01*
X51564Y-19710D01*
X51918Y-19460D01*
X52214Y-19126D01*
G01X54792Y-19876D02*
Y-14876D01*
X54084Y-15876D01*
G01Y-19876D02*
X55501D01*
G01X58847Y-14876D02*
X58375Y-15043D01*
X58020Y-15460D01*
X57784Y-15960D01*
X57607Y-16626D01*
X57548Y-17376D01*
X57607Y-18126D01*
X57784Y-18793D01*
X58020Y-19293D01*
X58375Y-19710D01*
X58847Y-19876D01*
X59319Y-19710D01*
X59674Y-19293D01*
X59910Y-18793D01*
X60087Y-18126D01*
X60146Y-17376D01*
X60087Y-16626D01*
X59910Y-15960D01*
X59674Y-15460D01*
X59319Y-15043D01*
X58847Y-14876D01*
G01X41888Y85921D02*
X41638Y85566D01*
X41471Y85153D01*
Y84681D01*
X41721Y84149D01*
X42138Y83736D01*
X42638Y83441D01*
X43471Y83204D01*
X44221Y83145D01*
X44971Y83264D01*
X45471Y83441D01*
X45971Y83795D01*
X46305Y84208D01*
X46471Y84622D01*
Y85035D01*
X46305Y85448D01*
X46055Y85802D01*
X45721Y86098D01*
G01Y87377D02*
X46138Y87731D01*
X46388Y88145D01*
X46471Y88676D01*
X46305Y89208D01*
X45971Y89621D01*
X45388Y89916D01*
X44721Y89975D01*
X44055Y89857D01*
X43638Y89562D01*
X43305Y89149D01*
X43221Y88735D01*
X43305Y88322D01*
X43638Y87791D01*
X41471Y87968D01*
Y89562D01*
G01X60437Y82905D02*
X51774D01*
Y88811D01*
G01X33098Y102872D02*
Y106809D01*
X38610D01*
Y102872D01*
G01X33098Y99723D02*
Y95786D01*
X38610D01*
Y99723D01*
G01X41806Y102793D02*
Y106730D01*
X47317D01*
Y102793D01*
G01X41806Y99644D02*
Y95707D01*
X47317D01*
Y99644D01*
G01X54566Y107063D02*
X54212Y107313D01*
X53799Y107479D01*
X53326D01*
X52795Y107229D01*
X52382Y106813D01*
X52086Y106313D01*
X51850Y105479D01*
X51791Y104729D01*
X51909Y103979D01*
X52086Y103479D01*
X52441Y102979D01*
X52854Y102646D01*
X53267Y102479D01*
X53681D01*
X54094Y102646D01*
X54448Y102896D01*
X54744Y103229D01*
G01X58030Y102479D02*
Y107479D01*
X55846Y103896D01*
X58798D01*
G01X60437Y95896D02*
Y101802D01*
X52602D01*
X51854Y101054D01*
Y95503D01*
G01X45270Y123480D02*
Y128480D01*
X46746D01*
X47219Y128230D01*
X47514Y127896D01*
X47632Y127230D01*
X47514Y126563D01*
X47160Y126146D01*
X46746Y125896D01*
X45270D01*
G01X46746D02*
X47632Y123480D01*
G01X49384Y127646D02*
X49738Y128146D01*
X50152Y128396D01*
X50624Y128480D01*
X51214Y128313D01*
X51628Y127896D01*
X51746Y127396D01*
X51687Y126896D01*
X51450Y126480D01*
X50270Y125646D01*
X49738Y125063D01*
X49384Y124229D01*
X49266Y123480D01*
X51746D01*
G01X54560D02*
Y128480D01*
X53852Y127480D01*
G01Y123480D02*
X55269D01*
G01X51691Y117374D02*
Y113437D01*
X46179D01*
Y117374D01*
G01X51691Y120523D02*
Y124460D01*
X46179D01*
Y120523D01*
G01X56893Y117609D02*
Y122609D01*
X58074D01*
X58546Y122359D01*
X58901Y122026D01*
X59196Y121526D01*
X59432Y120942D01*
X59491Y120109D01*
X59432Y119276D01*
X59196Y118692D01*
X58901Y118192D01*
X58546Y117859D01*
X58074Y117609D01*
X56893D01*
G01X61125Y119692D02*
X61538Y120276D01*
X61893Y120609D01*
X62365Y120776D01*
X62778Y120609D01*
X63074Y120276D01*
X63310Y119776D01*
X63369Y119192D01*
X63310Y118692D01*
X63074Y118192D01*
X62719Y117776D01*
X62306Y117609D01*
X61834Y117776D01*
X61420Y118276D01*
X61184Y119026D01*
X61125Y119859D01*
X61243Y120942D01*
X61420Y121526D01*
X61716Y122109D01*
X62129Y122526D01*
X62542Y122609D01*
X62956Y122442D01*
X63251Y122026D01*
G01X53547Y120523D02*
Y124460D01*
X59058D01*
Y114264D01*
X58232Y113437D01*
X53547D01*
Y117374D01*
G01X69454Y-73137D02*
X72238Y-70354D01*
X76136Y-74251D01*
X73352Y-77035D01*
G01X67227Y-75364D02*
X64444Y-78148D01*
X68341Y-82046D01*
X71125Y-79262D01*
G01X69034Y-42760D02*
X68784Y-43114D01*
X68618Y-43527D01*
Y-44000D01*
X68868Y-44531D01*
X69284Y-44944D01*
X69784Y-45240D01*
X70618Y-45476D01*
X71368Y-45535D01*
X72118Y-45417D01*
X72618Y-45240D01*
X73118Y-44886D01*
X73451Y-44472D01*
X73618Y-44059D01*
Y-43646D01*
X73451Y-43232D01*
X73201Y-42878D01*
X72868Y-42583D01*
G01X73618Y-40004D02*
X68618D01*
X69618Y-40713D01*
G01X73618D02*
Y-39296D01*
G01X68952Y-25887D02*
Y-21950D01*
X74464D01*
Y-25887D01*
G01X68952Y-29037D02*
Y-32974D01*
X74464D01*
Y-29037D01*
G01X64813Y-38928D02*
X59813D01*
Y-37452D01*
X60063Y-36979D01*
X60396Y-36684D01*
X61063Y-36566D01*
X61730Y-36684D01*
X62146Y-37038D01*
X62396Y-37452D01*
Y-38928D01*
G01Y-37452D02*
X64813Y-36566D01*
G01Y-33692D02*
X64730Y-33279D01*
X64480Y-32806D01*
X64063Y-32511D01*
X63480Y-32393D01*
X62896Y-32511D01*
X62396Y-32865D01*
X62146Y-33397D01*
Y-33987D01*
X61980Y-34342D01*
X61563Y-34637D01*
X60980Y-34755D01*
X60396Y-34578D01*
X59980Y-34164D01*
X59813Y-33692D01*
X59980Y-33220D01*
X60396Y-32806D01*
X60980Y-32629D01*
X61563Y-32747D01*
X61980Y-33042D01*
X62146Y-33397D01*
Y-33987D01*
X62396Y-34519D01*
X62896Y-34873D01*
X63480Y-34991D01*
X64063Y-34873D01*
X64480Y-34578D01*
X64730Y-34105D01*
X64813Y-33692D01*
G01X61742Y-25848D02*
Y-21911D01*
X67254D01*
Y-25848D01*
G01X61742Y-28997D02*
Y-32934D01*
X67254D01*
Y-28997D01*
G01X80670Y-45319D02*
X75670D01*
Y-43842D01*
X75921Y-43370D01*
X76254Y-43075D01*
X76920Y-42957D01*
X77587Y-43075D01*
X78004Y-43429D01*
X78254Y-43842D01*
Y-45319D01*
G01Y-43842D02*
X80670Y-42957D01*
G01X80087Y-41087D02*
X80504Y-40674D01*
X80670Y-40201D01*
X80504Y-39729D01*
X80004Y-39315D01*
X79254Y-39020D01*
X78504Y-38902D01*
X77587D01*
X76837Y-39020D01*
X76171Y-39315D01*
X75837Y-39670D01*
X75670Y-40083D01*
X75837Y-40555D01*
X76171Y-40910D01*
X76670Y-41146D01*
X77337Y-41264D01*
X77920Y-41146D01*
X78504Y-40851D01*
X78837Y-40496D01*
X78921Y-40083D01*
X78754Y-39611D01*
X78337Y-39256D01*
X77587Y-38902D01*
G01X76005Y-25966D02*
Y-22029D01*
X81516D01*
Y-25966D01*
G01X76005Y-29115D02*
Y-33052D01*
X81516D01*
Y-29115D01*
G01X68949Y3938D02*
X72886D01*
Y-1574D01*
X68949D01*
G01X65799Y3938D02*
X61862D01*
Y-1574D01*
X65799D01*
G01X68909Y-15210D02*
X72846D01*
Y-20722D01*
X68909D01*
G01X65760Y-15210D02*
X61823D01*
Y-20722D01*
X65760D01*
G01X60437Y88811D02*
Y82905D01*
G01X69141Y110528D02*
X69391Y110882D01*
X69558Y111295D01*
Y111768D01*
X69308Y112299D01*
X68891Y112712D01*
X68391Y113008D01*
X67558Y113244D01*
X66808Y113303D01*
X66058Y113185D01*
X65558Y113008D01*
X65058Y112654D01*
X64725Y112240D01*
X64558Y111827D01*
Y111414D01*
X64725Y111000D01*
X64975Y110646D01*
X65308Y110351D01*
G01X65558Y109071D02*
X64975Y108717D01*
X64641Y108245D01*
X64558Y107713D01*
X64641Y107241D01*
X65058Y106768D01*
X65558Y106473D01*
X66058Y106414D01*
X66641Y106532D01*
X67058Y106946D01*
X67225Y107359D01*
Y107890D01*
G01Y107359D02*
X67475Y107005D01*
X67891Y106709D01*
X68391Y106591D01*
X68891Y106709D01*
X69308Y107005D01*
X69558Y107536D01*
X69475Y108067D01*
X69141Y108599D01*
G01X69224Y93655D02*
Y89718D01*
X63712D01*
Y93655D01*
G01X69224Y96805D02*
Y100742D01*
X63712D01*
Y96805D01*
G01X79630Y92199D02*
X73725D01*
G01D02*
Y100861D01*
X79630D01*
G01X102043Y7765D02*
Y1859D01*
G01D02*
X93381D01*
Y7765D01*
G01X88119Y29086D02*
X93119D01*
Y27610D01*
X92869Y27137D01*
X92536Y26842D01*
X91869Y26724D01*
X91202Y26842D01*
X90786Y27196D01*
X90536Y27610D01*
Y29086D01*
G01Y27610D02*
X88119Y26724D01*
G01Y23850D02*
X93119D01*
X92119Y24559D01*
G01X88119D02*
Y23142D01*
G01Y19914D02*
X89202Y19796D01*
X90119Y19618D01*
X90952Y19382D01*
X91869Y19087D01*
X93119Y18614D01*
Y20976D01*
G01X92785Y9733D02*
Y5796D01*
X87273D01*
Y9733D01*
G01X92785Y12883D02*
Y16820D01*
X87273D01*
Y12883D01*
G01X102610Y26938D02*
X102860Y27292D01*
X103027Y27706D01*
Y28178D01*
X102777Y28710D01*
X102360Y29123D01*
X101860Y29418D01*
X101027Y29654D01*
X100277Y29713D01*
X99527Y29595D01*
X99027Y29418D01*
X98527Y29064D01*
X98194Y28650D01*
X98027Y28237D01*
Y27824D01*
X98194Y27411D01*
X98444Y27056D01*
X98777Y26761D01*
G01X98027Y24301D02*
X99110Y24182D01*
X100027Y24005D01*
X100860Y23769D01*
X101777Y23474D01*
X103027Y23002D01*
Y25363D01*
G01X102043Y14851D02*
Y20757D01*
X94208D01*
X93460Y20009D01*
Y14457D01*
G01X103109Y75333D02*
Y80333D01*
X104586D01*
X105058Y80083D01*
X105353Y79749D01*
X105471Y79083D01*
X105353Y78416D01*
X104999Y78000D01*
X104586Y77749D01*
X103109D01*
G01X104586D02*
X105471Y75333D01*
G01X108345D02*
Y80333D01*
X107636Y79333D01*
G01Y75333D02*
X109053D01*
G01X111101Y76083D02*
X111455Y75666D01*
X111868Y75416D01*
X112400Y75333D01*
X112931Y75499D01*
X113344Y75833D01*
X113640Y76416D01*
X113699Y77083D01*
X113581Y77749D01*
X113285Y78166D01*
X112872Y78499D01*
X112459Y78583D01*
X112045Y78499D01*
X111514Y78166D01*
X111691Y80333D01*
X113285D01*
G01X108230Y66154D02*
Y62217D01*
X102718D01*
Y66154D01*
G01X108230Y69303D02*
Y73240D01*
X102718D01*
Y69303D01*
G01X96842Y104265D02*
X96488Y104515D01*
X96075Y104682D01*
X95602D01*
X95071Y104432D01*
X94658Y104015D01*
X94362Y103515D01*
X94126Y102682D01*
X94067Y101932D01*
X94185Y101182D01*
X94362Y100682D01*
X94717Y100182D01*
X95130Y99849D01*
X95543Y99682D01*
X95957D01*
X96370Y99849D01*
X96724Y100099D01*
X97020Y100432D01*
G01X98476Y101765D02*
X98890Y102349D01*
X99244Y102682D01*
X99716Y102849D01*
X100130Y102682D01*
X100425Y102349D01*
X100661Y101849D01*
X100720Y101265D01*
X100661Y100765D01*
X100425Y100265D01*
X100070Y99849D01*
X99657Y99682D01*
X99185Y99849D01*
X98772Y100348D01*
X98535Y101099D01*
X98476Y101932D01*
X98594Y103015D01*
X98772Y103599D01*
X99067Y104182D01*
X99480Y104599D01*
X99893Y104682D01*
X100307Y104515D01*
X100602Y104099D01*
G01X86716Y92199D02*
X92622D01*
Y100034D01*
X91874Y100782D01*
X86323D01*
G01X115993Y75412D02*
Y80412D01*
X117469D01*
X117942Y80162D01*
X118237Y79828D01*
X118355Y79162D01*
X118237Y78495D01*
X117883Y78078D01*
X117469Y77828D01*
X115993D01*
G01X117469D02*
X118355Y75412D01*
G01X121229D02*
Y80412D01*
X120520Y79412D01*
G01Y75412D02*
X121937D01*
G01X125992D02*
Y80412D01*
X123807Y76828D01*
X126760D01*
G01X117686Y66193D02*
Y62256D01*
X112174D01*
Y66193D01*
G01X117686Y69343D02*
Y73280D01*
X112174D01*
Y69343D01*
G01X196070Y-200601D02*
X192535Y-204137D01*
X191491Y-203093D01*
X191334Y-202582D01*
X191361Y-202138D01*
X191748Y-201583D01*
X192303Y-201195D01*
X192848Y-201151D01*
X193318Y-201266D01*
X194362Y-202310D01*
G01X193318Y-201266D02*
X194400Y-198931D01*
G01X192368Y-196899D02*
X188833Y-200435D01*
X190041Y-200229D01*
G01X192869Y-197400D02*
X191867Y-196398D01*
G01X189712Y-195658D02*
X189874Y-194995D01*
X189776Y-194425D01*
X189459Y-193990D01*
X189066Y-193715D01*
X188438Y-193676D01*
X187875Y-193820D01*
X187480Y-194132D01*
X187151Y-194628D01*
X187149Y-195215D01*
X187323Y-195625D01*
X187699Y-196001D01*
G01X187323Y-195625D02*
X186896Y-195552D01*
X186392Y-195637D01*
X185955Y-195907D01*
X185685Y-196344D01*
X185599Y-196848D01*
X185798Y-197401D01*
X186233Y-197717D01*
X186845Y-197857D01*
G01X207000Y-207627D02*
X209784Y-210411D01*
X213681Y-206514D01*
X210897Y-203730D01*
G01X210809Y-213490D02*
X207273Y-209954D01*
X208108Y-209119D01*
X208619Y-208962D01*
X209105Y-208947D01*
X209668Y-209092D01*
X210247Y-209337D01*
X210878Y-209885D01*
X211426Y-210516D01*
X211671Y-211095D01*
X211816Y-211658D01*
X211801Y-212144D01*
X211644Y-212655D01*
X210809Y-213490D01*
G01X215096Y-209203D02*
X211560Y-205668D01*
X212549Y-209746D01*
X214637Y-207658D01*
G01X215195Y-212968D02*
X217979Y-210184D01*
X221876Y-214082D01*
X214666Y-221292D01*
X213497D01*
X210184Y-217979D01*
X212968Y-215195D01*
G01X204773Y-205400D02*
X201989Y-202616D01*
X205886Y-198719D01*
X208670Y-201502D01*
G01X219702Y219959D02*
X216918Y222743D01*
X213021Y218846D01*
X215805Y216062D01*
G01X211814Y200113D02*
Y205113D01*
X213290D01*
X213762Y204862D01*
X214058Y204529D01*
X214176Y203863D01*
X214058Y203196D01*
X213703Y202779D01*
X213290Y202529D01*
X211814D01*
G01X213290D02*
X214176Y200113D01*
G01X216931D02*
X217049Y201196D01*
X217227Y202112D01*
X217463Y202946D01*
X217758Y203863D01*
X218230Y205113D01*
X215869D01*
G01X204888Y196105D02*
X202104Y193321D01*
X198207Y197218D01*
X200990Y200002D01*
G01X207115Y198332D02*
X209899Y201116D01*
X206001Y205013D01*
X203217Y202229D01*
G01X206416Y217173D02*
Y222173D01*
X207597D01*
X208070Y221923D01*
X208424Y221589D01*
X208719Y221089D01*
X208955Y220506D01*
X209014Y219673D01*
X208955Y218839D01*
X208719Y218256D01*
X208424Y217756D01*
X208070Y217423D01*
X207597Y217173D01*
X206416D01*
G01X210648Y221340D02*
X211002Y221839D01*
X211416Y222090D01*
X211888Y222173D01*
X212478Y222006D01*
X212892Y221589D01*
X213010Y221089D01*
X212951Y220589D01*
X212715Y220173D01*
X211534Y219340D01*
X211002Y218756D01*
X210648Y217923D01*
X210530Y217173D01*
X213010D01*
G01X212789Y212453D02*
X215572Y209669D01*
X211675Y205771D01*
X204465Y212982D01*
Y214151D01*
X207778Y217464D01*
X210561Y214680D01*
G01X215360Y223240D02*
Y228240D01*
X216836D01*
X217308Y227990D01*
X217604Y227657D01*
X217722Y226990D01*
X217604Y226324D01*
X217249Y225907D01*
X216836Y225657D01*
X215360D01*
G01X216836D02*
X217722Y223240D01*
G01X219296Y223990D02*
X219651Y223574D01*
X220064Y223324D01*
X220596Y223240D01*
X221127Y223407D01*
X221540Y223740D01*
X221836Y224324D01*
X221895Y224990D01*
X221776Y225657D01*
X221481Y226074D01*
X221068Y226407D01*
X220655Y226490D01*
X220241Y226407D01*
X219710Y226074D01*
X219887Y228240D01*
X221481D01*
G01X236470Y-205064D02*
X240006Y-208599D01*
X238962Y-209643D01*
X238451Y-209800D01*
X238007Y-209774D01*
X237452Y-209386D01*
X237064Y-208831D01*
X237020Y-208286D01*
X237135Y-207816D01*
X238179Y-206773D01*
G01X237135Y-207816D02*
X234800Y-206734D01*
G01X232768Y-208766D02*
X236304Y-212302D01*
X236098Y-211093D01*
G01X233269Y-208265D02*
X232267Y-209267D01*
G01X229901Y-211633D02*
X233437Y-215169D01*
X233231Y-213960D01*
G01X230402Y-211132D02*
X229400Y-212134D01*
G01X226085Y-222048D02*
X223301Y-224831D01*
X219404Y-220934D01*
X222188Y-218150D01*
G01X228312Y-219820D02*
X231096Y-217036D01*
X227199Y-213139D01*
X224415Y-215923D01*
G01X221929Y217732D02*
X224713Y214948D01*
X220816Y211051D01*
X218032Y213835D01*
G54D18*
G01X-233233Y-234511D02*
X-238244Y-239522D01*
X-243812Y-233954D01*
X-238801Y-228943D01*
G01X-227109Y-235068D02*
X-222098Y-230057D01*
X-234347Y-217807D01*
X-239358Y-222819D01*
G01X-237195Y229512D02*
X-232184Y224501D01*
X-219935Y236750D01*
X-224946Y241761D01*
G01X-236638Y235637D02*
X-241649Y240648D01*
X-236082Y246216D01*
X-231071Y241204D01*
G01X-97083Y21631D02*
X-102595D01*
G01Y18087D02*
X-109288D01*
Y25174D01*
X-102595D01*
G01X-75141Y-35421D02*
X-82228D01*
Y-52743D01*
X-75141D01*
G01X-97083Y18087D02*
X-90390D01*
Y25174D01*
X-97083D01*
G01X-99052Y21631D02*
X-101414Y19268D01*
Y23993D01*
X-99052Y21631D01*
G01X-98264Y19662D02*
Y23599D01*
G01X-71204Y-40145D02*
X-64118D01*
Y-48019D01*
X-71204D01*
G01X22697Y79235D02*
Y72542D01*
X29784D01*
Y79235D01*
G01X22697Y84747D02*
Y91440D01*
X29784D01*
Y84747D01*
G01X236959Y-228252D02*
X231948Y-223240D01*
X219699Y-235490D01*
X224710Y-240500D01*
G01X236402Y-234376D02*
X241413Y-239387D01*
X235845Y-244955D01*
X230834Y-239944D01*
G01X229118Y236959D02*
X224107Y231948D01*
X236356Y219699D01*
X241367Y224710D01*
G01X235243Y236402D02*
X240254Y241413D01*
X245822Y235845D01*
X240810Y230834D01*
G54D19*
G01X-288346Y-254961D02*
G03X-254961Y-288346I16678J-16708D01*
G01Y288346D02*
G03X-288346Y254961I-16708J-16678D01*
G01D02*
G02Y-254961I-156466J-254961D01*
G01X254961Y-288346D02*
G03X-254961I-254961J-156466D01*
G01X254961Y288346D02*
G02X-254961I-254961J156466D01*
G01X-111929Y-15039D02*
Y-32756D01*
X-94213D01*
Y-15039D01*
X-111929D01*
G01X-86260Y-5900D02*
X-89843D01*
X-90593Y-6154D01*
X-91093Y-6660D01*
X-91260Y-7293D01*
X-91093Y-7926D01*
X-90593Y-8433D01*
X-89843Y-8686D01*
X-86260D01*
G01X-90677Y-11315D02*
X-91093Y-11758D01*
X-91260Y-12265D01*
X-91093Y-12772D01*
X-90593Y-13215D01*
X-89843Y-13531D01*
X-89093Y-13658D01*
X-88176D01*
X-87426Y-13531D01*
X-86760Y-13215D01*
X-86426Y-12835D01*
X-86260Y-12392D01*
X-86426Y-11885D01*
X-86760Y-11505D01*
X-87260Y-11252D01*
X-87927Y-11125D01*
X-88510Y-11252D01*
X-89093Y-11569D01*
X-89427Y-11948D01*
X-89510Y-12392D01*
X-89343Y-12898D01*
X-88926Y-13278D01*
X-88176Y-13658D01*
G01X288346Y254961D02*
G03Y-254961I156466J-254961D01*
G01D02*
G02X254961Y-288346I-16678J-16708D01*
G01Y288346D02*
G02X288346Y254961I16708J-16678D01*
M02*
