G04 ================== begin FILE IDENTIFICATION RECORD ==================*
G04 Layout Name:  E:/workspace/flyer/pcb/pcb/flyer.brd*
G04 Film Name:    pastemask_top*
G04 File Format:  Gerber RS274X*
G04 File Origin:  Cadence Allegro 16.5-P002*
G04 Origin Date:  Fri May 27 15:33:46 2016*
G04 *
G04 Layer:  PIN/PASTEMASK_TOP*
G04 Layer:  BOARD GEOMETRY/OUTLINE*
G04 *
G04 Offset:    (0.0000 0.0000)*
G04 Mirror:    No*
G04 Mode:      Positive*
G04 Rotation:  0*
G04 FullContactRelief:  No*
G04 UndefLineWidth:     0.0000*
G04 ================== end FILE IDENTIFICATION RECORD ====================*
%FSLAX25Y25*MOIN*%
%IR0*IPPOS*OFA0.00000B0.00000*MIA0B0*SFA1.00000B1.00000*%
%ADD24R,.062988X.04724*%
%ADD25R,.04724X.062988*%
%AMMACRO12*
21,1,.029921,.0315,0.0,0.0,135.*%
%ADD12MACRO12*%
%ADD17R,.012X.06*%
%ADD18R,.06X.012*%
%ADD20R,.055118X.023618*%
%ADD27R,.068898X.03937*%
%AMMACRO30*
21,1,.064961,.125984,0.0,0.0,45.*%
%ADD30MACRO30*%
%ADD14R,.0315X.029921*%
%AMMACRO13*
21,1,.029921,.0315,0.0,0.0,45.*%
%ADD13MACRO13*%
%AMMACRO10*
21,1,.098425,.098425,0.0,0.0,45.*%
%ADD10MACRO10*%
%ADD16R,.029921X.0315*%
%ADD15R,.098425X.098425*%
%ADD21R,.008X.018*%
%ADD22R,.018X.008*%
%AMMACRO11*
21,1,.06,.06,0.0,0.0,45.*%
%ADD11MACRO11*%
%ADD29R,.043311X.08661*%
%ADD19R,.043X.055*%
%ADD26R,.02X.014*%
%ADD28R,.137799X.08661*%
%ADD23R,.059X.059*%
%LPD*%
G75*
G54D10*
X-213583Y203622D03*
X-209586Y-200847D03*
X-199843Y-210591D03*
X-203839Y213366D03*
X203957Y-211240D03*
X203740Y213701D03*
X213701Y-201496D03*
X213484Y203957D03*
G54D11*
X-193504Y192524D03*
X-189606Y181946D03*
X-185910Y-188700D03*
X-182013Y-178122D03*
X-175331Y-184803D03*
X-182925Y188627D03*
X193189Y-190989D03*
X182610Y-187092D03*
X189291Y-180410D03*
X193587Y194291D03*
X189690Y183712D03*
X183009Y190394D03*
G54D20*
X-11176Y75106D03*
Y78846D03*
Y82587D03*
X-21413D03*
Y75106D03*
G54D21*
X11133Y-46485D03*
X12707D03*
X14282D03*
X15857D03*
X17432D03*
Y-58296D03*
X15857D03*
X14282D03*
X12707D03*
X11133D03*
X19007Y-46485D03*
Y-58296D03*
G54D30*
X81578Y92847D03*
X99618Y110887D03*
G54D12*
X-164658Y-174413D03*
X-160426Y-178644D03*
X-143002Y-151144D03*
X-147234Y-146913D03*
X-156761Y-156073D03*
X-152530Y-160305D03*
X159656Y162943D03*
X163887Y158711D03*
X170856Y165916D03*
X166624Y170147D03*
X168672Y184242D03*
X172903Y180010D03*
G54D22*
X9164Y-56328D03*
Y-54753D03*
Y-53178D03*
Y-51604D03*
Y-50029D03*
Y-48454D03*
X20975D03*
Y-50029D03*
Y-51604D03*
Y-53178D03*
Y-54753D03*
Y-56328D03*
G54D13*
X-186780Y169918D03*
X-182548Y174149D03*
X-166527Y164892D03*
X-151081Y166502D03*
X-155312Y162271D03*
X-162296Y169124D03*
X149444Y-152218D03*
X178357Y-168454D03*
X153676Y-147987D03*
X157097Y-159793D03*
X161328Y-155561D03*
X182588Y-164223D03*
G54D23*
X-2789Y64493D03*
X9022D03*
G54D14*
X-68161Y-40923D03*
Y-46907D03*
X-78635Y-37475D03*
Y-43459D03*
X-60759Y-46198D03*
Y-52182D03*
X-78796Y-20192D03*
Y-14207D03*
X-69877Y-11404D03*
X-59546Y-2424D03*
Y3560D03*
X-69877Y-5420D03*
X-84484Y40614D03*
X-84550Y32525D03*
Y26541D03*
X-84484Y46598D03*
X-39597Y81076D03*
Y75092D03*
X-32572Y81087D03*
Y75102D03*
X2096Y-73258D03*
Y-67274D03*
X18209Y-73602D03*
Y-67618D03*
X10346Y-73473D03*
Y-67489D03*
X8993Y82483D03*
Y76499D03*
X1602Y76542D03*
Y82526D03*
X18618D03*
Y76542D03*
X25385Y-73258D03*
Y-67274D03*
X31186Y71601D03*
Y77585D03*
X48779Y-50344D03*
Y-56328D03*
X47425Y18524D03*
Y12540D03*
X74313Y-41858D03*
Y-47842D03*
G54D15*
X-63765Y75076D03*
X-49985D03*
G54D24*
X42036Y71566D03*
Y83378D03*
G54D16*
X-33629Y65379D03*
X-39613D03*
X-11522Y-59653D03*
X-17506D03*
X-11522Y-52778D03*
X-17506D03*
X-11565Y-45731D03*
X-17549D03*
X17740Y55445D03*
X10718Y55479D03*
X4734D03*
X28645Y-50838D03*
X34630D03*
X40199Y-30261D03*
X34215D03*
X34248Y-23458D03*
X40232D03*
X43302Y49943D03*
X23724Y55445D03*
X67369Y-62188D03*
X61384D03*
X55422Y-36041D03*
X61407D03*
X67663Y11558D03*
X60375Y11425D03*
X54391D03*
X54324Y18495D03*
X60308D03*
X69045Y42572D03*
X63061D03*
X55439D03*
X49455D03*
X49286Y49943D03*
X73648Y11558D03*
G54D25*
X31467Y59164D03*
X43279D03*
G54D26*
X61424Y-45222D03*
Y-47781D03*
Y-50341D03*
Y-52900D03*
X55125Y-45222D03*
Y-47781D03*
Y-50341D03*
Y-52900D03*
G54D17*
X-14285Y-11792D03*
X-12316D03*
X-10346D03*
X-8376D03*
Y33508D03*
X-10346D03*
X-12316D03*
X-14285D03*
X-6406Y-11792D03*
X-4436D03*
X-2466D03*
X-496D03*
X1474D03*
X3444D03*
X5415D03*
X7384D03*
X9354D03*
X11324D03*
X13294D03*
X15264D03*
Y33508D03*
X13294D03*
X11324D03*
X9354D03*
X7384D03*
X5415D03*
X3444D03*
X1474D03*
X-496D03*
X-2466D03*
X-4436D03*
X-6406D03*
G54D27*
X52332Y35903D03*
X82844D03*
G54D18*
X-22161Y17753D03*
Y15783D03*
Y13813D03*
Y11843D03*
Y9873D03*
Y7903D03*
Y5933D03*
Y3963D03*
Y1993D03*
Y23D03*
Y-1947D03*
Y-3917D03*
Y25633D03*
Y23663D03*
Y21693D03*
Y19723D03*
X23139Y-3917D03*
Y-1947D03*
Y23D03*
Y1993D03*
Y3963D03*
Y5933D03*
Y7903D03*
Y9873D03*
Y11843D03*
Y13813D03*
Y15783D03*
Y17753D03*
Y19723D03*
Y21693D03*
Y23663D03*
Y25633D03*
G54D28*
X62500Y57992D03*
G54D19*
X-13537Y64493D03*
X-21411D03*
G54D29*
X71496Y82008D03*
X62500D03*
X53504D03*
M02*
