G04 ================== begin FILE IDENTIFICATION RECORD ==================*
G04 Layout Name:  E:/workspace/flyer/pcb/pcb/flyer.brd*
G04 Film Name:    silkscreen_top*
G04 File Format:  Gerber RS274X*
G04 File Origin:  Cadence Allegro 16.5-P002*
G04 Origin Date:  Fri May 27 15:33:46 2016*
G04 *
G04 Layer:  REF DES/SILKSCREEN_TOP*
G04 Layer:  PACKAGE GEOMETRY/SILKSCREEN_TOP*
G04 Layer:  BOARD GEOMETRY/OUTLINE*
G04 Layer:  BOARD GEOMETRY/SILKSCREEN_TOP*
G04 *
G04 Offset:    (0.0000 0.0000)*
G04 Mirror:    No*
G04 Mode:      Positive*
G04 Rotation:  0*
G04 FullContactRelief:  No*
G04 UndefLineWidth:     0.0000*
G04 ================== end FILE IDENTIFICATION RECORD ====================*
%FSLAX25Y25*MOIN*%
%IR0*IPPOS*OFA0.00000B0.00000*MIA0B0*SFA1.00000B1.00000*%
%ADD10C,.003937*%
%ADD11C,.007874*%
%ADD12C,.008*%
%ADD13C,.005909*%
%ADD14C,.0045*%
%ADD15C,.005*%
%ADD16C,.006*%
G75*
%LPD*%
G75*
G54D10*
G01X42332Y-981D02*
G03X50206Y-8855I7874J0D01*
G01X77765D01*
G03X85639Y-981I0J7874D01*
G01X42332D02*
G02X50206Y6893I7874J0D01*
G01X77765D01*
G02X85639Y-981I0J-7874D01*
G01X57763Y-53470D02*
X57133D01*
Y-53352D01*
X57448Y-53037D01*
X57763Y-53352D01*
Y-53470D01*
G01X107023Y108827D02*
X83639Y85442D01*
X74173Y94907D01*
X97558Y118292D01*
X107023Y108827D01*
G54D11*
G01X-194617Y181389D02*
X-189606Y176378D01*
X-177357Y188627D01*
X-182368Y193638D01*
G01X-194061Y187513D02*
X-199072Y192524D01*
X-193504Y198092D01*
X-188493Y193081D01*
G01X-180899Y-189257D02*
X-185910Y-194269D01*
X-191478Y-188700D01*
X-186467Y-183690D01*
G01X-174775Y-189814D02*
X-169764Y-184803D01*
X-182013Y-172554D01*
X-187024Y-177565D01*
G01X20975Y-46485D02*
Y-58296D01*
X9164D01*
Y-47667D01*
X10345Y-46485D01*
X20975D01*
G01X11133Y-48848D02*
X11920Y-49635D01*
G01D02*
Y-48060D01*
G01D02*
X11133Y-48848D01*
G01X16670Y-5481D02*
Y-3276D01*
X18009Y-4615D01*
Y-4654D01*
X17182Y-5481D01*
X16670D01*
G01X5872Y60950D02*
X12566D01*
Y68037D01*
X5872D01*
G01X3904Y64493D02*
X1542Y62131D01*
Y66856D01*
X3904Y64493D01*
G01X4691Y62525D02*
Y66462D01*
G01X5872Y64493D02*
X361D01*
G01Y60950D02*
X-6332D01*
Y68037D01*
X361D01*
G01X194302Y-179854D02*
X189291Y-174843D01*
X177042Y-187092D01*
X182053Y-192103D01*
G01X193746Y-185978D02*
X198757Y-190989D01*
X193189Y-196557D01*
X188178Y-191546D01*
G01X182452Y195405D02*
X177441Y190394D01*
X189690Y178144D01*
X194701Y183156D01*
G01X188576Y194848D02*
X193587Y199859D01*
X199155Y194291D01*
X194144Y189280D01*
G54D12*
G01X-10584Y60556D02*
X-15974D01*
G01X-10584Y68430D02*
Y60556D01*
G01X-15974Y68430D02*
X-10584D01*
G01X-24364Y60556D02*
X-18974D01*
G01X-24364Y68430D02*
Y60556D01*
G01X-18974Y68430D02*
X-24364D01*
G54D13*
G01X-166008Y-168493D02*
Y-163493D01*
X-164532D01*
X-164060Y-163743D01*
X-163765Y-164076D01*
X-163646Y-164743D01*
X-163765Y-165409D01*
X-164119Y-165826D01*
X-164532Y-166076D01*
X-166008D01*
G01X-164532D02*
X-163646Y-168493D01*
G01X-162072Y-167493D02*
X-161717Y-168076D01*
X-161245Y-168409D01*
X-160713Y-168493D01*
X-160241Y-168409D01*
X-159769Y-167993D01*
X-159474Y-167493D01*
X-159415Y-166993D01*
X-159533Y-166410D01*
X-159946Y-165993D01*
X-160359Y-165826D01*
X-160891D01*
G01X-160359D02*
X-160005Y-165576D01*
X-159710Y-165160D01*
X-159592Y-164659D01*
X-159710Y-164159D01*
X-160005Y-163743D01*
X-160537Y-163493D01*
X-161068Y-163576D01*
X-161599Y-163909D01*
G01X-156718Y-168493D02*
Y-163493D01*
X-157426Y-164493D01*
G01Y-168493D02*
X-156009D01*
G01X-161707Y-173466D02*
X-164491Y-170682D01*
X-168388Y-174580D01*
X-165604Y-177363D01*
G01X-176751Y174742D02*
Y179742D01*
X-175275D01*
X-174802Y179492D01*
X-174507Y179159D01*
X-174389Y178492D01*
X-174507Y177826D01*
X-174861Y177409D01*
X-175275Y177159D01*
X-176751D01*
G01X-175275D02*
X-174389Y174742D01*
G01X-172637Y178909D02*
X-172283Y179409D01*
X-171869Y179659D01*
X-171397Y179742D01*
X-170807Y179576D01*
X-170393Y179159D01*
X-170275Y178659D01*
X-170334Y178159D01*
X-170570Y177742D01*
X-171751Y176909D01*
X-172283Y176326D01*
X-172637Y175492D01*
X-172755Y174742D01*
X-170275D01*
G01X-166752D02*
Y179742D01*
X-168937Y176159D01*
X-165984D01*
G01X-183829Y168971D02*
X-186613Y166187D01*
X-190510Y170085D01*
X-187726Y172869D01*
G01X-181602Y171198D02*
X-178818Y173982D01*
X-182715Y177880D01*
X-185499Y175096D01*
G01X-165246Y170070D02*
X-162462Y172854D01*
X-158565Y168957D01*
X-165776Y161746D01*
X-166945D01*
X-170257Y165059D01*
X-167474Y167843D01*
G01X-159480Y-175693D02*
X-156696Y-178477D01*
X-160593Y-182374D01*
X-163377Y-179591D01*
G01X-146361Y-164712D02*
Y-159712D01*
X-145181D01*
X-144708Y-159962D01*
X-144354Y-160295D01*
X-144059Y-160795D01*
X-143822Y-161379D01*
X-143763Y-162212D01*
X-143822Y-163045D01*
X-144059Y-163629D01*
X-144354Y-164129D01*
X-144708Y-164462D01*
X-145181Y-164712D01*
X-146361D01*
G01X-142130Y-162629D02*
X-141716Y-162045D01*
X-141362Y-161712D01*
X-140889Y-161545D01*
X-140476Y-161712D01*
X-140181Y-162045D01*
X-139945Y-162545D01*
X-139886Y-163128D01*
X-139945Y-163629D01*
X-140181Y-164129D01*
X-140535Y-164545D01*
X-140948Y-164712D01*
X-141421Y-164545D01*
X-141834Y-164045D01*
X-142070Y-163295D01*
X-142130Y-162462D01*
X-142011Y-161379D01*
X-141834Y-160795D01*
X-141539Y-160212D01*
X-141126Y-159795D01*
X-140713Y-159712D01*
X-140299Y-159878D01*
X-140004Y-160295D01*
G01X-142056Y-148193D02*
X-139272Y-150977D01*
X-143170Y-154874D01*
X-145953Y-152091D01*
G01X-144283Y-145966D02*
X-147067Y-143182D01*
X-150964Y-147080D01*
X-148180Y-149863D01*
G01X-157708Y-159024D02*
X-160492Y-156240D01*
X-156594Y-152343D01*
X-149384Y-159553D01*
Y-160722D01*
X-152697Y-164035D01*
X-155481Y-161251D01*
G01X-155954Y151195D02*
Y156195D01*
X-154478D01*
X-154006Y155945D01*
X-153710Y155612D01*
X-153592Y154945D01*
X-153710Y154279D01*
X-154065Y153862D01*
X-154478Y153612D01*
X-155954D01*
G01X-154478D02*
X-153592Y151195D01*
G01X-151840Y155362D02*
X-151486Y155862D01*
X-151072Y156112D01*
X-150600Y156195D01*
X-150010Y156029D01*
X-149596Y155612D01*
X-149478Y155112D01*
X-149537Y154612D01*
X-149774Y154195D01*
X-150954Y153362D01*
X-151486Y152779D01*
X-151840Y151945D01*
X-151958Y151195D01*
X-149478D01*
G01X-147785Y153278D02*
X-147372Y153862D01*
X-147018Y154195D01*
X-146545Y154362D01*
X-146132Y154195D01*
X-145837Y153862D01*
X-145601Y153362D01*
X-145542Y152779D01*
X-145601Y152278D01*
X-145837Y151778D01*
X-146191Y151362D01*
X-146604Y151195D01*
X-147077Y151362D01*
X-147490Y151862D01*
X-147726Y152612D01*
X-147785Y153445D01*
X-147667Y154528D01*
X-147490Y155112D01*
X-147195Y155695D01*
X-146782Y156112D01*
X-146369Y156195D01*
X-145955Y156029D01*
X-145660Y155612D01*
G01X-154031Y167449D02*
X-151248Y170233D01*
X-147350Y166335D01*
X-150134Y163552D01*
G01X-156259Y165222D02*
X-159043Y162438D01*
X-155145Y158541D01*
X-152361Y161324D01*
G01X-161143Y173453D02*
Y178453D01*
X-159962D01*
X-159489Y178203D01*
X-159135Y177870D01*
X-158840Y177370D01*
X-158604Y176786D01*
X-158544Y175953D01*
X-158604Y175120D01*
X-158840Y174536D01*
X-159135Y174036D01*
X-159489Y173703D01*
X-159962Y173453D01*
X-161143D01*
G01X-157088Y174453D02*
X-156733Y173870D01*
X-156261Y173537D01*
X-155730Y173453D01*
X-155257Y173537D01*
X-154785Y173953D01*
X-154490Y174453D01*
X-154431Y174953D01*
X-154549Y175536D01*
X-154962Y175953D01*
X-155376Y176120D01*
X-155907D01*
G01X-155376D02*
X-155021Y176370D01*
X-154726Y176786D01*
X-154608Y177287D01*
X-154726Y177787D01*
X-155021Y178203D01*
X-155553Y178453D01*
X-156084Y178370D01*
X-156615Y178037D01*
G01X-135759Y-152337D02*
Y-147337D01*
X-134283D01*
X-133811Y-147587D01*
X-133515Y-147920D01*
X-133397Y-148587D01*
X-133515Y-149254D01*
X-133870Y-149670D01*
X-134283Y-149920D01*
X-135759D01*
G01X-134283D02*
X-133397Y-152337D01*
G01X-131822Y-151337D02*
X-131468Y-151920D01*
X-130996Y-152254D01*
X-130464Y-152337D01*
X-129992Y-152254D01*
X-129520Y-151837D01*
X-129224Y-151337D01*
X-129165Y-150837D01*
X-129283Y-150254D01*
X-129697Y-149837D01*
X-130110Y-149670D01*
X-130642D01*
G01X-130110D02*
X-129756Y-149420D01*
X-129461Y-149004D01*
X-129343Y-148504D01*
X-129461Y-148004D01*
X-129756Y-147587D01*
X-130287Y-147337D01*
X-130819Y-147420D01*
X-131350Y-147754D01*
G01X-127768Y-151337D02*
X-127413Y-151920D01*
X-126941Y-152254D01*
X-126409Y-152337D01*
X-125937Y-152254D01*
X-125465Y-151837D01*
X-125170Y-151337D01*
X-125111Y-150837D01*
X-125229Y-150254D01*
X-125642Y-149837D01*
X-126056Y-149670D01*
X-126587D01*
G01X-126056D02*
X-125701Y-149420D01*
X-125406Y-149004D01*
X-125288Y-148504D01*
X-125406Y-148004D01*
X-125701Y-147587D01*
X-126233Y-147337D01*
X-126764Y-147420D01*
X-127295Y-147754D01*
G01X-99167Y45874D02*
Y50874D01*
X-97691D01*
X-97219Y50624D01*
X-96924Y50291D01*
X-96806Y49624D01*
X-96924Y48957D01*
X-97278Y48541D01*
X-97691Y48291D01*
X-99167D01*
G01X-97691D02*
X-96806Y45874D01*
G01X-95231Y46874D02*
X-94876Y46291D01*
X-94404Y45957D01*
X-93872Y45874D01*
X-93400Y45957D01*
X-92928Y46374D01*
X-92633Y46874D01*
X-92574Y47374D01*
X-92692Y47957D01*
X-93105Y48374D01*
X-93519Y48541D01*
X-94050D01*
G01X-93519D02*
X-93164Y48791D01*
X-92869Y49207D01*
X-92751Y49707D01*
X-92869Y50207D01*
X-93164Y50624D01*
X-93696Y50874D01*
X-94227Y50791D01*
X-94758Y50457D01*
G01X-91176Y46624D02*
X-90822Y46207D01*
X-90408Y45957D01*
X-89877Y45874D01*
X-89346Y46041D01*
X-88932Y46374D01*
X-88637Y46957D01*
X-88578Y47624D01*
X-88696Y48291D01*
X-88991Y48707D01*
X-89405Y49041D01*
X-89818Y49124D01*
X-90231Y49041D01*
X-90763Y48707D01*
X-90585Y50874D01*
X-88991D01*
G01X-87240Y42031D02*
Y38094D01*
X-81728D01*
Y42031D01*
G01X-98833Y32501D02*
Y37501D01*
X-97357D01*
X-96885Y37251D01*
X-96590Y36918D01*
X-96472Y36251D01*
X-96590Y35585D01*
X-96944Y35168D01*
X-97357Y34918D01*
X-98833D01*
G01X-97357D02*
X-96472Y32501D01*
G01X-94897Y33501D02*
X-94543Y32918D01*
X-94070Y32585D01*
X-93539Y32501D01*
X-93067Y32585D01*
X-92594Y33001D01*
X-92299Y33501D01*
X-92240Y34001D01*
X-92358Y34584D01*
X-92771Y35001D01*
X-93185Y35168D01*
X-93716D01*
G01X-93185D02*
X-92830Y35418D01*
X-92535Y35834D01*
X-92417Y36335D01*
X-92535Y36835D01*
X-92830Y37251D01*
X-93362Y37501D01*
X-93893Y37418D01*
X-94424Y37085D01*
G01X-90665Y34584D02*
X-90252Y35168D01*
X-89897Y35501D01*
X-89425Y35668D01*
X-89012Y35501D01*
X-88717Y35168D01*
X-88480Y34668D01*
X-88421Y34085D01*
X-88480Y33584D01*
X-88717Y33084D01*
X-89071Y32668D01*
X-89484Y32501D01*
X-89956Y32668D01*
X-90370Y33168D01*
X-90606Y33918D01*
X-90665Y34751D01*
X-90547Y35834D01*
X-90370Y36418D01*
X-90074Y37001D01*
X-89661Y37418D01*
X-89248Y37501D01*
X-88835Y37335D01*
X-88539Y36918D01*
G01X-87306Y31108D02*
Y35045D01*
X-81794D01*
Y31108D01*
G01X-87306Y27958D02*
Y24021D01*
X-81794D01*
Y27958D01*
G01X-87240Y45181D02*
Y49118D01*
X-81728D01*
Y45181D01*
G01X-64000Y-63388D02*
Y-58388D01*
X-62524D01*
X-62052Y-58638D01*
X-61756Y-58971D01*
X-61638Y-59638D01*
X-61756Y-60304D01*
X-62111Y-60721D01*
X-62524Y-60971D01*
X-64000D01*
G01X-62524D02*
X-61638Y-63388D01*
G01X-58765D02*
Y-58388D01*
X-59473Y-59388D01*
G01Y-63388D02*
X-58056D01*
G01X-54828D02*
X-54710Y-62305D01*
X-54533Y-61388D01*
X-54296Y-60554D01*
X-54001Y-59638D01*
X-53529Y-58388D01*
X-55891D01*
G01X-75086Y-58146D02*
Y-53146D01*
X-73610D01*
X-73137Y-53396D01*
X-72842Y-53729D01*
X-72724Y-54396D01*
X-72842Y-55062D01*
X-73196Y-55479D01*
X-73610Y-55729D01*
X-75086D01*
G01X-73610D02*
X-72724Y-58146D01*
G01X-69850D02*
Y-53146D01*
X-70559Y-54146D01*
G01Y-58146D02*
X-69142D01*
G01X-66917Y-53979D02*
X-66563Y-53479D01*
X-66150Y-53229D01*
X-65677Y-53146D01*
X-65087Y-53312D01*
X-64674Y-53729D01*
X-64556Y-54229D01*
X-64615Y-54729D01*
X-64851Y-55146D01*
X-66031Y-55979D01*
X-66563Y-56562D01*
X-66917Y-57396D01*
X-67035Y-58146D01*
X-64556D01*
G01X-70917Y-42341D02*
Y-38404D01*
X-65405D01*
Y-42341D01*
G01X-70917Y-45490D02*
Y-49428D01*
X-65405D01*
Y-45490D01*
G01X-83336Y-51529D02*
Y-46529D01*
X-81860D01*
X-81387Y-46779D01*
X-81092Y-47112D01*
X-80974Y-47779D01*
X-81092Y-48445D01*
X-81446Y-48862D01*
X-81860Y-49112D01*
X-83336D01*
G01X-81860D02*
X-80974Y-51529D01*
G01X-78100D02*
Y-46529D01*
X-78809Y-47529D01*
G01Y-51529D02*
X-77392D01*
G01X-75167Y-49446D02*
X-74754Y-48862D01*
X-74400Y-48529D01*
X-73927Y-48362D01*
X-73514Y-48529D01*
X-73219Y-48862D01*
X-72983Y-49362D01*
X-72924Y-49945D01*
X-72983Y-50446D01*
X-73219Y-50946D01*
X-73573Y-51362D01*
X-73986Y-51529D01*
X-74459Y-51362D01*
X-74872Y-50862D01*
X-75108Y-50112D01*
X-75167Y-49279D01*
X-75049Y-48196D01*
X-74872Y-47612D01*
X-74577Y-47029D01*
X-74164Y-46612D01*
X-73750Y-46529D01*
X-73337Y-46695D01*
X-73042Y-47112D01*
G01X-81391Y-38893D02*
Y-34956D01*
X-75879D01*
Y-38893D01*
G01X-81391Y-42042D02*
Y-45979D01*
X-75879D01*
Y-42042D01*
G01X-63515Y-47615D02*
Y-43678D01*
X-58004D01*
Y-47615D01*
G01X-63515Y-50765D02*
Y-54702D01*
X-58004D01*
Y-50765D01*
G01X-85141Y-7789D02*
Y-2789D01*
X-83665D01*
X-83193Y-3039D01*
X-82898Y-3372D01*
X-82780Y-4039D01*
X-82898Y-4705D01*
X-83252Y-5122D01*
X-83665Y-5372D01*
X-85141D01*
G01X-83665D02*
X-82780Y-7789D01*
G01X-79906D02*
Y-2789D01*
X-80614Y-3789D01*
G01Y-7789D02*
X-79197D01*
G01X-77150Y-7039D02*
X-76796Y-7456D01*
X-76382Y-7705D01*
X-75851Y-7789D01*
X-75320Y-7622D01*
X-74906Y-7289D01*
X-74611Y-6706D01*
X-74552Y-6039D01*
X-74670Y-5372D01*
X-74965Y-4955D01*
X-75379Y-4622D01*
X-75792Y-4539D01*
X-76205Y-4622D01*
X-76737Y-4955D01*
X-76559Y-2789D01*
X-74965D01*
G01X-76040Y-18774D02*
Y-22711D01*
X-81552D01*
Y-18774D01*
G01X-76040Y-15625D02*
Y-11688D01*
X-81552D01*
Y-15625D01*
G01X-67121Y-9987D02*
Y-13924D01*
X-72633D01*
Y-9987D01*
G01X-65891Y8625D02*
Y13625D01*
X-64415D01*
X-63943Y13375D01*
X-63648Y13042D01*
X-63530Y12375D01*
X-63648Y11709D01*
X-64002Y11292D01*
X-64415Y11042D01*
X-65891D01*
G01X-64415D02*
X-63530Y8625D01*
G01X-60656D02*
Y13625D01*
X-61364Y12625D01*
G01Y8625D02*
X-59947D01*
G01X-55893D02*
Y13625D01*
X-58077Y10042D01*
X-55125D01*
G01X-56790Y-1007D02*
Y-4944D01*
X-62302D01*
Y-1007D01*
G01X-56790Y2143D02*
Y6080D01*
X-62302D01*
Y2143D01*
G01X-79040Y-1172D02*
Y3828D01*
X-77564D01*
X-77091Y3578D01*
X-76796Y3244D01*
X-76678Y2578D01*
X-76796Y1911D01*
X-77150Y1494D01*
X-77564Y1244D01*
X-79040D01*
G01X-77564D02*
X-76678Y-1172D01*
G01X-73804D02*
Y3828D01*
X-74513Y2828D01*
G01Y-1172D02*
X-73096D01*
G01X-71048Y-172D02*
X-70694Y-756D01*
X-70222Y-1089D01*
X-69690Y-1172D01*
X-69218Y-1089D01*
X-68746Y-672D01*
X-68450Y-172D01*
X-68391Y328D01*
X-68509Y911D01*
X-68923Y1328D01*
X-69336Y1494D01*
X-69868D01*
G01X-69336D02*
X-68982Y1744D01*
X-68687Y2161D01*
X-68569Y2661D01*
X-68687Y3161D01*
X-68982Y3578D01*
X-69513Y3828D01*
X-70044Y3744D01*
X-70576Y3411D01*
G01X-67121Y-6837D02*
Y-2900D01*
X-72633D01*
Y-6837D01*
G01X-50595Y62938D02*
Y67938D01*
X-49119D01*
X-48646Y67688D01*
X-48351Y67354D01*
X-48233Y66688D01*
X-48351Y66021D01*
X-48706Y65604D01*
X-49119Y65354D01*
X-50595D01*
G01X-49119D02*
X-48233Y62938D01*
G01X-44651D02*
Y67938D01*
X-46835Y64354D01*
X-43883D01*
G01X-35046Y68135D02*
X-31109D01*
Y62623D01*
X-35046D01*
G01X-38196Y68135D02*
X-42133D01*
Y62623D01*
X-38196D01*
G01X-44506Y91412D02*
X-44860Y91662D01*
X-45273Y91828D01*
X-45745D01*
X-46277Y91578D01*
X-46690Y91162D01*
X-46985Y90662D01*
X-47222Y89828D01*
X-47281Y89078D01*
X-47163Y88328D01*
X-46985Y87828D01*
X-46631Y87328D01*
X-46218Y86995D01*
X-45805Y86828D01*
X-45391D01*
X-44978Y86995D01*
X-44624Y87245D01*
X-44328Y87578D01*
G01X-41041Y86828D02*
Y91828D01*
X-43226Y88245D01*
X-40274D01*
G01X-42353Y79659D02*
Y83596D01*
X-36841D01*
Y79659D01*
G01X-42353Y76509D02*
Y72572D01*
X-36841D01*
Y76509D01*
G01X-35328Y79669D02*
Y83606D01*
X-29816D01*
Y79669D01*
G01X-35328Y76520D02*
Y72583D01*
X-29816D01*
Y76520D01*
G01X-32292Y-61563D02*
Y-56563D01*
X-30816D01*
X-30344Y-56813D01*
X-30048Y-57146D01*
X-29930Y-57813D01*
X-30048Y-58479D01*
X-30403Y-58896D01*
X-30816Y-59146D01*
X-32292D01*
G01X-30816D02*
X-29930Y-61563D01*
G01X-28178Y-57396D02*
X-27824Y-56896D01*
X-27411Y-56646D01*
X-26938Y-56563D01*
X-26348Y-56729D01*
X-25935Y-57146D01*
X-25817Y-57646D01*
X-25876Y-58146D01*
X-26112Y-58563D01*
X-27293Y-59396D01*
X-27824Y-59979D01*
X-28178Y-60813D01*
X-28296Y-61563D01*
X-25817D01*
G01X-23002D02*
Y-56563D01*
X-23710Y-57563D01*
G01Y-61563D02*
X-22293D01*
G01X-12939Y-56897D02*
X-9002D01*
Y-62409D01*
X-12939D01*
G01X-16089Y-56897D02*
X-20026D01*
Y-62409D01*
X-16089D01*
G01X-9871Y-68862D02*
X-10226Y-68612D01*
X-10639Y-68445D01*
X-11111D01*
X-11643Y-68695D01*
X-12056Y-69112D01*
X-12351Y-69612D01*
X-12587Y-70445D01*
X-12646Y-71195D01*
X-12528Y-71945D01*
X-12351Y-72445D01*
X-11997Y-72945D01*
X-11583Y-73279D01*
X-11170Y-73445D01*
X-10757D01*
X-10344Y-73279D01*
X-9989Y-73029D01*
X-9694Y-72695D01*
G01X-7116Y-73445D02*
Y-68445D01*
X-7824Y-69445D01*
G01Y-73445D02*
X-6407D01*
G01X-3179D02*
X-3061Y-72362D01*
X-2884Y-71445D01*
X-2648Y-70612D01*
X-2352Y-69695D01*
X-1880Y-68445D01*
X-4242D01*
G01X-32292Y-54688D02*
Y-49688D01*
X-30816D01*
X-30344Y-49938D01*
X-30048Y-50271D01*
X-29930Y-50938D01*
X-30048Y-51604D01*
X-30403Y-52021D01*
X-30816Y-52271D01*
X-32292D01*
G01X-30816D02*
X-29930Y-54688D01*
G01X-28178Y-50521D02*
X-27824Y-50021D01*
X-27411Y-49771D01*
X-26938Y-49688D01*
X-26348Y-49854D01*
X-25935Y-50271D01*
X-25817Y-50771D01*
X-25876Y-51271D01*
X-26112Y-51688D01*
X-27293Y-52521D01*
X-27824Y-53104D01*
X-28178Y-53938D01*
X-28296Y-54688D01*
X-25817D01*
G01X-24124Y-50521D02*
X-23769Y-50021D01*
X-23356Y-49771D01*
X-22883Y-49688D01*
X-22293Y-49854D01*
X-21880Y-50271D01*
X-21762Y-50771D01*
X-21821Y-51271D01*
X-22057Y-51688D01*
X-23238Y-52521D01*
X-23769Y-53104D01*
X-24124Y-53938D01*
X-24242Y-54688D01*
X-21762D01*
G01X-12939Y-50022D02*
X-9002D01*
Y-55534D01*
X-12939D01*
G01X-16089Y-50022D02*
X-20026D01*
Y-55534D01*
X-16089D01*
G01X-32335Y-47641D02*
Y-42641D01*
X-30859D01*
X-30387Y-42891D01*
X-30091Y-43224D01*
X-29973Y-43891D01*
X-30091Y-44557D01*
X-30446Y-44974D01*
X-30859Y-45224D01*
X-32335D01*
G01X-30859D02*
X-29973Y-47641D01*
G01X-28221Y-43474D02*
X-27867Y-42974D01*
X-27454Y-42724D01*
X-26981Y-42641D01*
X-26391Y-42807D01*
X-25978Y-43224D01*
X-25859Y-43724D01*
X-25919Y-44224D01*
X-26155Y-44641D01*
X-27335Y-45474D01*
X-27867Y-46057D01*
X-28221Y-46891D01*
X-28339Y-47641D01*
X-25859D01*
G01X-24344Y-46641D02*
X-23989Y-47224D01*
X-23517Y-47557D01*
X-22985Y-47641D01*
X-22513Y-47557D01*
X-22041Y-47141D01*
X-21746Y-46641D01*
X-21687Y-46141D01*
X-21805Y-45558D01*
X-22218Y-45141D01*
X-22631Y-44974D01*
X-23163D01*
G01X-22631D02*
X-22277Y-44724D01*
X-21982Y-44308D01*
X-21864Y-43807D01*
X-21982Y-43307D01*
X-22277Y-42891D01*
X-22809Y-42641D01*
X-23340Y-42724D01*
X-23871Y-43057D01*
G01X-12982Y-42975D02*
X-9045D01*
Y-48487D01*
X-12982D01*
G01X-16132Y-42975D02*
X-20069D01*
Y-48487D01*
X-16132D01*
G01X-12008Y55031D02*
Y60031D01*
X-10532D01*
X-10060Y59781D01*
X-9765Y59448D01*
X-9646Y58781D01*
X-9765Y58115D01*
X-10119Y57698D01*
X-10532Y57448D01*
X-12008D01*
G01X-10532D02*
X-9646Y55031D01*
G01X-6773D02*
Y60031D01*
X-7481Y59031D01*
G01Y55031D02*
X-6064D01*
G01X-2718D02*
Y60031D01*
X-3426Y59031D01*
G01Y55031D02*
X-2009D01*
G01X-28006Y90810D02*
X-28360Y91060D01*
X-28773Y91227D01*
X-29245D01*
X-29777Y90977D01*
X-30190Y90560D01*
X-30485Y90060D01*
X-30722Y89227D01*
X-30781Y88477D01*
X-30663Y87727D01*
X-30485Y87227D01*
X-30131Y86727D01*
X-29718Y86393D01*
X-29305Y86227D01*
X-28891D01*
X-28478Y86393D01*
X-28124Y86643D01*
X-27828Y86977D01*
G01X-26549D02*
X-26194Y86560D01*
X-25781Y86310D01*
X-25250Y86227D01*
X-24719Y86393D01*
X-24305Y86727D01*
X-24010Y87310D01*
X-23951Y87977D01*
X-24069Y88643D01*
X-24364Y89060D01*
X-24778Y89393D01*
X-25191Y89477D01*
X-25604Y89393D01*
X-26135Y89060D01*
X-25958Y91227D01*
X-24364D01*
G01X-20549Y92258D02*
Y88675D01*
X-20313Y87925D01*
X-19840Y87425D01*
X-19250Y87258D01*
X-18659Y87425D01*
X-18187Y87925D01*
X-17951Y88675D01*
Y92258D01*
G01X-16317Y91425D02*
X-15963Y91925D01*
X-15549Y92175D01*
X-15077Y92258D01*
X-14487Y92092D01*
X-14073Y91675D01*
X-13955Y91175D01*
X-14014Y90675D01*
X-14250Y90258D01*
X-15431Y89425D01*
X-15963Y88842D01*
X-16317Y88008D01*
X-16435Y87258D01*
X-13955D01*
G01X-7239Y72548D02*
X-25350D01*
Y85145D01*
X-7239D01*
Y72548D01*
G01X17801Y-83213D02*
X17446Y-82963D01*
X17033Y-82797D01*
X16561D01*
X16029Y-83047D01*
X15616Y-83463D01*
X15321Y-83963D01*
X15085Y-84797D01*
X15026Y-85547D01*
X15144Y-86297D01*
X15321Y-86797D01*
X15675Y-87297D01*
X16089Y-87630D01*
X16502Y-87797D01*
X16915D01*
X17328Y-87630D01*
X17683Y-87380D01*
X17978Y-87047D01*
G01X20556Y-87797D02*
Y-82797D01*
X19848Y-83797D01*
G01Y-87797D02*
X21265D01*
G01X24611D02*
X25024Y-87713D01*
X25497Y-87464D01*
X25792Y-87047D01*
X25910Y-86463D01*
X25792Y-85880D01*
X25438Y-85380D01*
X24906Y-85130D01*
X24316D01*
X23962Y-84963D01*
X23667Y-84547D01*
X23548Y-83963D01*
X23726Y-83380D01*
X24139Y-82963D01*
X24611Y-82797D01*
X25083Y-82963D01*
X25497Y-83380D01*
X25674Y-83963D01*
X25556Y-84547D01*
X25261Y-84963D01*
X24906Y-85130D01*
X24316D01*
X23785Y-85380D01*
X23430Y-85880D01*
X23312Y-86463D01*
X23430Y-87047D01*
X23726Y-87464D01*
X24198Y-87713D01*
X24611Y-87797D01*
G01X3633Y-87539D02*
Y-82539D01*
X5109D01*
X5581Y-82789D01*
X5877Y-83122D01*
X5995Y-83789D01*
X5877Y-84456D01*
X5522Y-84872D01*
X5109Y-85122D01*
X3633D01*
G01X5109D02*
X5995Y-87539D01*
G01X7747Y-83372D02*
X8101Y-82872D01*
X8515Y-82622D01*
X8987Y-82539D01*
X9577Y-82706D01*
X9991Y-83122D01*
X10109Y-83622D01*
X10050Y-84122D01*
X9813Y-84539D01*
X8633Y-85372D01*
X8101Y-85956D01*
X7747Y-86789D01*
X7629Y-87539D01*
X10109D01*
G01X12923D02*
X13337Y-87456D01*
X13809Y-87206D01*
X14104Y-86789D01*
X14222Y-86206D01*
X14104Y-85622D01*
X13750Y-85122D01*
X13219Y-84872D01*
X12628D01*
X12274Y-84706D01*
X11979Y-84289D01*
X11861Y-83706D01*
X12038Y-83122D01*
X12451Y-82706D01*
X12923Y-82539D01*
X13396Y-82706D01*
X13809Y-83122D01*
X13986Y-83706D01*
X13868Y-84289D01*
X13573Y-84706D01*
X13219Y-84872D01*
X12628D01*
X12097Y-85122D01*
X11743Y-85622D01*
X11624Y-86206D01*
X11743Y-86789D01*
X12038Y-87206D01*
X12510Y-87456D01*
X12923Y-87539D01*
G01X4852Y-71841D02*
Y-75778D01*
X-659D01*
Y-71841D01*
G01X4852Y-68691D02*
Y-64754D01*
X-659D01*
Y-68691D01*
G01X20965Y-72185D02*
Y-76122D01*
X15454D01*
Y-72185D01*
G01X20965Y-69035D02*
Y-65098D01*
X15454D01*
Y-69035D01*
G01X13102Y-72056D02*
Y-75993D01*
X7591D01*
Y-72056D01*
G01X13102Y-68906D02*
Y-64969D01*
X7591D01*
Y-68906D01*
G01X15835Y59242D02*
Y64242D01*
X17311D01*
X17784Y63992D01*
X18079Y63659D01*
X18197Y62992D01*
X18079Y62326D01*
X17725Y61909D01*
X17311Y61659D01*
X15835D01*
G01X17311D02*
X18197Y59242D01*
G01X21071D02*
X21484Y59326D01*
X21957Y59575D01*
X22252Y59992D01*
X22370Y60576D01*
X22252Y61159D01*
X21898Y61659D01*
X21366Y61909D01*
X20776D01*
X20422Y62076D01*
X20126Y62492D01*
X20008Y63076D01*
X20185Y63659D01*
X20598Y64076D01*
X21071Y64242D01*
X21543Y64076D01*
X21957Y63659D01*
X22134Y63076D01*
X22016Y62492D01*
X21720Y62076D01*
X21366Y61909D01*
X20776D01*
X20244Y61659D01*
X19890Y61159D01*
X19772Y60576D01*
X19890Y59992D01*
X20185Y59575D01*
X20658Y59326D01*
X21071Y59242D01*
G01X19157Y58201D02*
X15220D01*
Y52689D01*
X19157D01*
G01X9301Y58235D02*
X13238D01*
Y52723D01*
X9301D01*
G01X6151Y58235D02*
X2214D01*
Y52723D01*
X6151D01*
G01X8123Y86688D02*
Y91688D01*
X9599D01*
X10071Y91438D01*
X10367Y91104D01*
X10485Y90438D01*
X10367Y89771D01*
X10012Y89354D01*
X9599Y89104D01*
X8123D01*
G01X9599D02*
X10485Y86688D01*
G01X13358D02*
Y91688D01*
X12650Y90688D01*
G01Y86688D02*
X14067D01*
G01X6237Y81066D02*
Y85003D01*
X11749D01*
Y81066D01*
G01X6237Y77917D02*
Y73980D01*
X11749D01*
Y77917D01*
G01X-1165Y86402D02*
Y91402D01*
X311D01*
X783Y91152D01*
X1078Y90819D01*
X1196Y90152D01*
X1078Y89485D01*
X724Y89069D01*
X311Y88819D01*
X-1165D01*
G01X311D02*
X1196Y86402D01*
G01X2948Y88485D02*
X3362Y89069D01*
X3716Y89402D01*
X4189Y89569D01*
X4602Y89402D01*
X4897Y89069D01*
X5133Y88569D01*
X5192Y87985D01*
X5133Y87485D01*
X4897Y86985D01*
X4543Y86569D01*
X4130Y86402D01*
X3657Y86569D01*
X3244Y87069D01*
X3007Y87819D01*
X2948Y88652D01*
X3067Y89735D01*
X3244Y90319D01*
X3539Y90902D01*
X3952Y91319D01*
X4365Y91402D01*
X4779Y91235D01*
X5074Y90819D01*
G01X4358Y77959D02*
Y74022D01*
X-1154D01*
Y77959D01*
G01X4358Y81109D02*
Y85046D01*
X-1154D01*
Y81109D01*
G01X18247Y90985D02*
X17893Y91235D01*
X17480Y91402D01*
X17007D01*
X16476Y91152D01*
X16063Y90735D01*
X15767Y90235D01*
X15531Y89402D01*
X15472Y88652D01*
X15590Y87902D01*
X15767Y87402D01*
X16122Y86902D01*
X16535Y86569D01*
X16948Y86402D01*
X17361D01*
X17775Y86569D01*
X18129Y86819D01*
X18424Y87152D01*
G01X21003Y86402D02*
Y91402D01*
X20294Y90402D01*
G01Y86402D02*
X21711D01*
G01X15862Y81109D02*
Y85046D01*
X21374D01*
Y81109D01*
G01X15862Y77959D02*
Y74022D01*
X21374D01*
Y77959D01*
G01X30531Y-73273D02*
Y-68273D01*
X32007D01*
X32480Y-68523D01*
X32775Y-68857D01*
X32893Y-69523D01*
X32775Y-70190D01*
X32421Y-70607D01*
X32007Y-70857D01*
X30531D01*
G01X32007D02*
X32893Y-73273D01*
G01X34645Y-69107D02*
X35000Y-68607D01*
X35413Y-68357D01*
X35885Y-68273D01*
X36476Y-68440D01*
X36889Y-68857D01*
X37007Y-69356D01*
X36948Y-69857D01*
X36712Y-70273D01*
X35531Y-71107D01*
X35000Y-71690D01*
X34645Y-72523D01*
X34527Y-73273D01*
X37007D01*
G01X38818Y-72690D02*
X39231Y-73107D01*
X39704Y-73273D01*
X40176Y-73107D01*
X40589Y-72607D01*
X40885Y-71857D01*
X41003Y-71107D01*
Y-70190D01*
X40885Y-69440D01*
X40589Y-68773D01*
X40235Y-68440D01*
X39822Y-68273D01*
X39349Y-68440D01*
X38995Y-68773D01*
X38759Y-69273D01*
X38641Y-69940D01*
X38759Y-70523D01*
X39054Y-71107D01*
X39409Y-71440D01*
X39822Y-71523D01*
X40294Y-71357D01*
X40648Y-70940D01*
X41003Y-70190D01*
G01X28141Y-71841D02*
Y-75778D01*
X22630D01*
Y-71841D01*
G01X28141Y-68691D02*
Y-64754D01*
X22630D01*
Y-68691D01*
G01X42477Y-65969D02*
Y-60969D01*
X43953D01*
X44426Y-61219D01*
X44721Y-61552D01*
X44839Y-62219D01*
X44721Y-62885D01*
X44367Y-63302D01*
X43953Y-63552D01*
X42477D01*
G01X43953D02*
X44839Y-65969D01*
G01X46414Y-64969D02*
X46768Y-65552D01*
X47240Y-65885D01*
X47772Y-65969D01*
X48244Y-65885D01*
X48717Y-65469D01*
X49012Y-64969D01*
X49071Y-64469D01*
X48953Y-63885D01*
X48539Y-63469D01*
X48126Y-63302D01*
X47594D01*
G01X48126D02*
X48480Y-63052D01*
X48776Y-62635D01*
X48894Y-62135D01*
X48776Y-61635D01*
X48480Y-61219D01*
X47949Y-60969D01*
X47418Y-61052D01*
X46886Y-61385D01*
G01X52476Y-65969D02*
Y-60969D01*
X50291Y-64552D01*
X53244D01*
G01X38360Y-44469D02*
X38006Y-44219D01*
X37593Y-44052D01*
X37120D01*
X36589Y-44302D01*
X36176Y-44719D01*
X35880Y-45219D01*
X35644Y-46052D01*
X35585Y-46802D01*
X35703Y-47552D01*
X35880Y-48052D01*
X36235Y-48552D01*
X36648Y-48885D01*
X37061Y-49052D01*
X37474D01*
X37888Y-48885D01*
X38242Y-48635D01*
X38537Y-48302D01*
G01X41116Y-49052D02*
Y-44052D01*
X40407Y-45052D01*
G01Y-49052D02*
X41824D01*
G01X44167Y-48469D02*
X44580Y-48885D01*
X45052Y-49052D01*
X45525Y-48885D01*
X45938Y-48385D01*
X46233Y-47635D01*
X46352Y-46885D01*
Y-45969D01*
X46233Y-45219D01*
X45938Y-44552D01*
X45584Y-44219D01*
X45170Y-44052D01*
X44698Y-44219D01*
X44344Y-44552D01*
X44108Y-45052D01*
X43990Y-45719D01*
X44108Y-46302D01*
X44403Y-46885D01*
X44757Y-47219D01*
X45170Y-47302D01*
X45643Y-47135D01*
X45997Y-46719D01*
X46352Y-45969D01*
G01X30063Y-53594D02*
X26126D01*
Y-48082D01*
X30063D01*
G01X33212Y-53594D02*
X37149D01*
Y-48082D01*
X33212D01*
G01X38781Y-27506D02*
X42719D01*
Y-33017D01*
X38781D01*
G01X35632Y-27506D02*
X31695D01*
Y-33017D01*
X35632D01*
G01X37664Y-17414D02*
Y-12414D01*
X39140D01*
X39613Y-12664D01*
X39908Y-12998D01*
X40026Y-13664D01*
X39908Y-14331D01*
X39554Y-14748D01*
X39140Y-14998D01*
X37664D01*
G01X39140D02*
X40026Y-17414D01*
G01X42900D02*
Y-12414D01*
X42191Y-13414D01*
G01Y-17414D02*
X43608D01*
G01X46954Y-12414D02*
X46482Y-12581D01*
X46128Y-12998D01*
X45892Y-13497D01*
X45715Y-14164D01*
X45656Y-14914D01*
X45715Y-15664D01*
X45892Y-16331D01*
X46128Y-16831D01*
X46482Y-17248D01*
X46954Y-17414D01*
X47427Y-17248D01*
X47781Y-16831D01*
X48017Y-16331D01*
X48194Y-15664D01*
X48254Y-14914D01*
X48194Y-14164D01*
X48017Y-13497D01*
X47781Y-12998D01*
X47427Y-12581D01*
X46954Y-12414D01*
G01X35665Y-26214D02*
X31728D01*
Y-20702D01*
X35665D01*
G01X38815Y-26214D02*
X42752D01*
Y-20702D01*
X38815D01*
G01X38855Y20771D02*
X38500Y21021D01*
X38087Y21188D01*
X37615D01*
X37083Y20938D01*
X36670Y20521D01*
X36375Y20021D01*
X36139Y19188D01*
X36080Y18438D01*
X36198Y17688D01*
X36375Y17188D01*
X36729Y16688D01*
X37143Y16354D01*
X37556Y16188D01*
X37969D01*
X38382Y16354D01*
X38737Y16604D01*
X39032Y16938D01*
G01X41492Y16188D02*
X41610Y17271D01*
X41787Y18188D01*
X42024Y19021D01*
X42319Y19938D01*
X42791Y21188D01*
X40430D01*
G01X39093Y40163D02*
Y45163D01*
X40273D01*
X40746Y44913D01*
X41100Y44580D01*
X41395Y44080D01*
X41631Y43496D01*
X41691Y42663D01*
X41631Y41830D01*
X41395Y41246D01*
X41100Y40746D01*
X40746Y40413D01*
X40273Y40163D01*
X39093D01*
G01X43324Y44330D02*
X43679Y44830D01*
X44092Y45080D01*
X44565Y45163D01*
X45155Y44997D01*
X45568Y44580D01*
X45686Y44080D01*
X45627Y43580D01*
X45391Y43163D01*
X44210Y42330D01*
X43679Y41747D01*
X43324Y40913D01*
X43206Y40163D01*
X45686D01*
G01X28430Y73018D02*
Y69081D01*
X33942D01*
Y73018D01*
G01X32937Y49445D02*
Y54445D01*
X34413D01*
X34885Y54195D01*
X35181Y53862D01*
X35299Y53195D01*
X35181Y52529D01*
X34826Y52112D01*
X34413Y51862D01*
X32937D01*
G01X34413D02*
X35299Y49445D01*
G01X37051Y53612D02*
X37405Y54112D01*
X37819Y54362D01*
X38291Y54445D01*
X38881Y54279D01*
X39294Y53862D01*
X39413Y53362D01*
X39354Y52862D01*
X39117Y52445D01*
X37937Y51612D01*
X37405Y51029D01*
X37051Y50195D01*
X36933Y49445D01*
X39413D01*
G01X44719Y52698D02*
X40782D01*
Y47187D01*
X44719D01*
G01X22307Y58201D02*
X26244D01*
Y52689D01*
X22307D01*
G01X37705Y73929D02*
Y68023D01*
X45540D01*
X46288Y68771D01*
Y74322D01*
G01X24847Y70013D02*
X24493Y70263D01*
X24079Y70430D01*
X23607D01*
X23075Y70180D01*
X22662Y69763D01*
X22367Y69263D01*
X22131Y68430D01*
X22072Y67680D01*
X22190Y66930D01*
X22367Y66430D01*
X22721Y65930D01*
X23135Y65596D01*
X23548Y65430D01*
X23961D01*
X24374Y65596D01*
X24729Y65846D01*
X25024Y66180D01*
G01X26481Y67513D02*
X26894Y68096D01*
X27248Y68430D01*
X27721Y68596D01*
X28134Y68430D01*
X28429Y68096D01*
X28665Y67596D01*
X28724Y67013D01*
X28665Y66513D01*
X28429Y66013D01*
X28075Y65596D01*
X27662Y65430D01*
X27189Y65596D01*
X26776Y66096D01*
X26540Y66846D01*
X26481Y67680D01*
X26599Y68763D01*
X26776Y69346D01*
X27071Y69930D01*
X27484Y70346D01*
X27898Y70430D01*
X28311Y70263D01*
X28606Y69846D01*
G01X40916Y54833D02*
X46822D01*
Y62667D01*
X46074Y63415D01*
X40523D01*
G01X33830Y54833D02*
X27924D01*
G01D02*
Y63495D01*
X33830D01*
G01X30393Y90271D02*
X30039Y90521D01*
X29626Y90688D01*
X29154D01*
X28622Y90438D01*
X28209Y90021D01*
X27913Y89521D01*
X27677Y88688D01*
X27618Y87938D01*
X27736Y87188D01*
X27913Y86688D01*
X28268Y86188D01*
X28681Y85854D01*
X29094Y85688D01*
X29507D01*
X29921Y85854D01*
X30275Y86104D01*
X30570Y86438D01*
G01X32027Y89854D02*
X32381Y90354D01*
X32795Y90604D01*
X33267Y90688D01*
X33857Y90521D01*
X34271Y90104D01*
X34389Y89605D01*
X34330Y89104D01*
X34094Y88688D01*
X32913Y87854D01*
X32381Y87271D01*
X32027Y86438D01*
X31909Y85688D01*
X34389D01*
G01X28430Y76168D02*
Y80105D01*
X33942D01*
Y76168D01*
G01X42797Y92604D02*
X42443Y92854D01*
X42030Y93021D01*
X41557D01*
X41026Y92771D01*
X40613Y92354D01*
X40317Y91854D01*
X40081Y91021D01*
X40022Y90271D01*
X40140Y89521D01*
X40317Y89021D01*
X40672Y88521D01*
X41085Y88187D01*
X41498Y88021D01*
X41911D01*
X42325Y88187D01*
X42679Y88437D01*
X42974Y88771D01*
G01X44254Y89021D02*
X44608Y88437D01*
X45080Y88104D01*
X45612Y88021D01*
X46084Y88104D01*
X46557Y88521D01*
X46852Y89021D01*
X46911Y89521D01*
X46793Y90104D01*
X46380Y90521D01*
X45966Y90687D01*
X45435D01*
G01X45966D02*
X46320Y90937D01*
X46616Y91354D01*
X46734Y91854D01*
X46616Y92354D01*
X46320Y92771D01*
X45789Y93021D01*
X45258Y92937D01*
X44726Y92604D01*
G01X37705Y81015D02*
Y86920D01*
G01D02*
X46367D01*
Y81015D01*
G01X60941Y-70667D02*
X60587Y-70417D01*
X60174Y-70250D01*
X59702D01*
X59170Y-70500D01*
X58757Y-70917D01*
X58461Y-71417D01*
X58225Y-72250D01*
X58166Y-73000D01*
X58284Y-73750D01*
X58461Y-74250D01*
X58816Y-74750D01*
X59229Y-75083D01*
X59642Y-75250D01*
X60056D01*
X60469Y-75083D01*
X60823Y-74833D01*
X61119Y-74500D01*
G01X62575Y-71083D02*
X62930Y-70583D01*
X63343Y-70333D01*
X63815Y-70250D01*
X64406Y-70417D01*
X64819Y-70833D01*
X64937Y-71333D01*
X64878Y-71833D01*
X64642Y-72250D01*
X63461Y-73083D01*
X62930Y-73667D01*
X62575Y-74500D01*
X62457Y-75250D01*
X64937D01*
G01X67752Y-70250D02*
X67279Y-70417D01*
X66925Y-70833D01*
X66689Y-71333D01*
X66512Y-72000D01*
X66453Y-72750D01*
X66512Y-73500D01*
X66689Y-74167D01*
X66925Y-74667D01*
X67279Y-75083D01*
X67752Y-75250D01*
X68224Y-75083D01*
X68578Y-74667D01*
X68815Y-74167D01*
X68992Y-73500D01*
X69051Y-72750D01*
X68992Y-72000D01*
X68815Y-71333D01*
X68578Y-70833D01*
X68224Y-70417D01*
X67752Y-70250D01*
G01X65951Y-59432D02*
X69888D01*
Y-64944D01*
X65951D01*
G01X62802Y-59432D02*
X58865D01*
Y-64944D01*
X62802D01*
G01X46023Y-51761D02*
Y-47824D01*
X51535D01*
Y-51761D01*
G01X46023Y-54911D02*
Y-58848D01*
X51535D01*
Y-54911D01*
G01X66711Y-35805D02*
Y-30805D01*
X68187D01*
X68659Y-31055D01*
X68955Y-31388D01*
X69073Y-32055D01*
X68955Y-32721D01*
X68600Y-33138D01*
X68187Y-33388D01*
X66711D01*
G01X68187D02*
X69073Y-35805D01*
G01X70648Y-34805D02*
X71002Y-35388D01*
X71474Y-35721D01*
X72006Y-35805D01*
X72478Y-35721D01*
X72950Y-35305D01*
X73246Y-34805D01*
X73305Y-34305D01*
X73187Y-33722D01*
X72773Y-33305D01*
X72360Y-33138D01*
X71828D01*
G01X72360D02*
X72714Y-32888D01*
X73009Y-32472D01*
X73128Y-31971D01*
X73009Y-31471D01*
X72714Y-31055D01*
X72183Y-30805D01*
X71652Y-30888D01*
X71120Y-31221D01*
G01X75883Y-35805D02*
X76001Y-34722D01*
X76178Y-33805D01*
X76415Y-32971D01*
X76710Y-32055D01*
X77182Y-30805D01*
X74820D01*
G01X56840Y-38797D02*
X52903D01*
Y-33285D01*
X56840D01*
G01X59989Y-38797D02*
X63926D01*
Y-33285D01*
X59989D01*
G01X46430Y-32024D02*
Y-27024D01*
X47906D01*
X48378Y-27274D01*
X48674Y-27607D01*
X48792Y-28274D01*
X48674Y-28940D01*
X48319Y-29357D01*
X47906Y-29607D01*
X46430D01*
G01X47906D02*
X48792Y-32024D01*
G01X51547D02*
X51665Y-30941D01*
X51843Y-30024D01*
X52079Y-29190D01*
X52374Y-28274D01*
X52846Y-27024D01*
X50485D01*
G01X44669Y17107D02*
Y21044D01*
X50181D01*
Y17107D01*
G01X44669Y13957D02*
Y10020D01*
X50181D01*
Y13957D01*
G01X69081Y8802D02*
X65144D01*
Y14314D01*
X69081D01*
G01X67730Y21029D02*
X67376Y21279D01*
X66962Y21446D01*
X66490D01*
X65958Y21196D01*
X65545Y20779D01*
X65250Y20279D01*
X65014Y19446D01*
X64955Y18696D01*
X65073Y17946D01*
X65250Y17446D01*
X65604Y16946D01*
X66018Y16612D01*
X66431Y16446D01*
X66844D01*
X67257Y16612D01*
X67612Y16862D01*
X67907Y17196D01*
G01X70485Y16446D02*
Y21446D01*
X69777Y20446D01*
G01Y16446D02*
X71194D01*
G01X73419Y18529D02*
X73832Y19112D01*
X74186Y19446D01*
X74659Y19612D01*
X75072Y19446D01*
X75367Y19112D01*
X75603Y18612D01*
X75662Y18029D01*
X75603Y17529D01*
X75367Y17029D01*
X75013Y16612D01*
X74600Y16446D01*
X74127Y16612D01*
X73714Y17112D01*
X73478Y17862D01*
X73419Y18696D01*
X73537Y19779D01*
X73714Y20363D01*
X74009Y20946D01*
X74422Y21362D01*
X74835Y21446D01*
X75249Y21279D01*
X75544Y20862D01*
G01X58957Y14181D02*
X62894D01*
Y8669D01*
X58957D01*
G01X55808Y14181D02*
X51871D01*
Y8669D01*
X55808D01*
G01X55741Y15739D02*
X51804D01*
Y21251D01*
X55741D01*
G01X58891Y15739D02*
X62828D01*
Y21251D01*
X58891D01*
G01X67628Y45328D02*
X71565D01*
Y39817D01*
X67628D01*
G01X64478Y45328D02*
X60541D01*
Y39817D01*
X64478D01*
G01X57687Y23149D02*
Y28149D01*
X59163D01*
X59636Y27899D01*
X59931Y27565D01*
X60049Y26899D01*
X59931Y26232D01*
X59577Y25815D01*
X59163Y25565D01*
X57687D01*
G01X59163D02*
X60049Y23149D01*
G01X61919Y23732D02*
X62333Y23315D01*
X62805Y23149D01*
X63277Y23315D01*
X63691Y23815D01*
X63986Y24565D01*
X64104Y25315D01*
Y26232D01*
X63986Y26982D01*
X63691Y27649D01*
X63336Y27982D01*
X62923Y28149D01*
X62450Y27982D01*
X62096Y27649D01*
X61860Y27149D01*
X61742Y26482D01*
X61860Y25899D01*
X62156Y25315D01*
X62510Y24982D01*
X62923Y24899D01*
X63395Y25065D01*
X63750Y25482D01*
X64104Y26232D01*
G01X54022Y45328D02*
X57959D01*
Y39817D01*
X47762D01*
X46935Y40643D01*
Y45328D01*
X50872D01*
G01X47869Y52698D02*
X51806D01*
Y47187D01*
X47869D01*
G01X81222Y-49096D02*
X80868Y-48846D01*
X80455Y-48680D01*
X79983D01*
X79451Y-48930D01*
X79038Y-49346D01*
X78743Y-49846D01*
X78506Y-50680D01*
X78447Y-51430D01*
X78565Y-52180D01*
X78743Y-52680D01*
X79097Y-53180D01*
X79510Y-53513D01*
X79923Y-53680D01*
X80337D01*
X80750Y-53513D01*
X81104Y-53263D01*
X81400Y-52930D01*
G01X82856Y-49513D02*
X83211Y-49013D01*
X83624Y-48763D01*
X84096Y-48680D01*
X84687Y-48846D01*
X85100Y-49263D01*
X85218Y-49763D01*
X85159Y-50263D01*
X84923Y-50680D01*
X83742Y-51513D01*
X83211Y-52096D01*
X82856Y-52930D01*
X82738Y-53680D01*
X85218D01*
G01X88033D02*
Y-48680D01*
X87324Y-49680D01*
G01Y-53680D02*
X88741D01*
G01X71557Y-43275D02*
Y-39338D01*
X77069D01*
Y-43275D01*
G01X71557Y-46425D02*
Y-50362D01*
X77069D01*
Y-46425D01*
G01X80277Y13553D02*
X79923Y13803D01*
X79509Y13969D01*
X79037D01*
X78506Y13719D01*
X78093Y13303D01*
X77797Y12803D01*
X77561Y11969D01*
X77502Y11219D01*
X77620Y10469D01*
X77797Y9969D01*
X78152Y9469D01*
X78565Y9136D01*
X78978Y8969D01*
X79391D01*
X79805Y9136D01*
X80159Y9386D01*
X80454Y9719D01*
G01X83033Y8969D02*
Y13969D01*
X82324Y12969D01*
G01Y8969D02*
X83741D01*
G01X85789Y9719D02*
X86143Y9302D01*
X86556Y9053D01*
X87087Y8969D01*
X87619Y9136D01*
X88032Y9469D01*
X88328Y10052D01*
X88387Y10719D01*
X88269Y11386D01*
X87973Y11803D01*
X87560Y12136D01*
X87147Y12219D01*
X86733Y12136D01*
X86202Y11803D01*
X86379Y13969D01*
X87973D01*
G01X72230Y8802D02*
X76167D01*
Y14314D01*
X72230D01*
G01X75648Y43171D02*
Y48171D01*
X77124D01*
X77596Y47921D01*
X77892Y47588D01*
X78010Y46921D01*
X77892Y46255D01*
X77537Y45838D01*
X77124Y45588D01*
X75648D01*
G01X77124D02*
X78010Y43171D01*
G01X79585Y43921D02*
X79939Y43504D01*
X80352Y43255D01*
X80883Y43171D01*
X81415Y43338D01*
X81828Y43671D01*
X82124Y44254D01*
X82183Y44921D01*
X82065Y45588D01*
X81769Y46005D01*
X81356Y46338D01*
X80943Y46421D01*
X80530Y46338D01*
X79998Y46005D01*
X80175Y48171D01*
X81769D01*
G01X148498Y-149267D02*
X145714Y-152051D01*
X149611Y-155948D01*
X152395Y-153165D01*
G01X161414Y-173993D02*
Y-168993D01*
X162890D01*
X163362Y-169243D01*
X163657Y-169576D01*
X163776Y-170243D01*
X163657Y-170909D01*
X163303Y-171326D01*
X162890Y-171576D01*
X161414D01*
G01X162890D02*
X163776Y-173993D01*
G01X165350Y-172993D02*
X165705Y-173576D01*
X166177Y-173909D01*
X166709Y-173993D01*
X167181Y-173909D01*
X167653Y-173493D01*
X167948Y-172993D01*
X168007Y-172493D01*
X167889Y-171910D01*
X167476Y-171493D01*
X167063Y-171326D01*
X166531D01*
G01X167063D02*
X167417Y-171076D01*
X167712Y-170660D01*
X167830Y-170159D01*
X167712Y-169659D01*
X167417Y-169243D01*
X166885Y-168993D01*
X166354Y-169076D01*
X165823Y-169409D01*
G01X170704Y-168993D02*
X170231Y-169159D01*
X169878Y-169576D01*
X169641Y-170076D01*
X169464Y-170743D01*
X169405Y-171493D01*
X169464Y-172243D01*
X169641Y-172910D01*
X169878Y-173410D01*
X170231Y-173826D01*
X170704Y-173993D01*
X171176Y-173826D01*
X171531Y-173410D01*
X171767Y-172910D01*
X171944Y-172243D01*
X172003Y-171493D01*
X171944Y-170743D01*
X171767Y-170076D01*
X171531Y-169576D01*
X171176Y-169159D01*
X170704Y-168993D01*
G01X177410Y-165504D02*
X174626Y-168287D01*
X178524Y-172185D01*
X181307Y-169401D01*
G01X150414Y-139875D02*
Y-134875D01*
X151890D01*
X152362Y-135125D01*
X152657Y-135459D01*
X152776Y-136125D01*
X152657Y-136792D01*
X152303Y-137209D01*
X151890Y-137459D01*
X150414D01*
G01X151890D02*
X152776Y-139875D01*
G01X154350Y-138875D02*
X154705Y-139459D01*
X155177Y-139792D01*
X155709Y-139875D01*
X156181Y-139792D01*
X156653Y-139375D01*
X156948Y-138875D01*
X157007Y-138375D01*
X156889Y-137792D01*
X156476Y-137375D01*
X156063Y-137209D01*
X155531D01*
G01X156063D02*
X156417Y-136959D01*
X156712Y-136542D01*
X156830Y-136042D01*
X156712Y-135542D01*
X156417Y-135125D01*
X155885Y-134875D01*
X155354Y-134959D01*
X154823Y-135292D01*
G01X158582Y-135709D02*
X158937Y-135209D01*
X159350Y-134959D01*
X159822Y-134875D01*
X160413Y-135042D01*
X160826Y-135459D01*
X160944Y-135958D01*
X160885Y-136459D01*
X160649Y-136875D01*
X159468Y-137709D01*
X158937Y-138292D01*
X158582Y-139125D01*
X158464Y-139875D01*
X160944D01*
G01X150725Y-147040D02*
X153509Y-144256D01*
X157406Y-148154D01*
X154622Y-150937D01*
G01X166624Y-153454D02*
Y-148454D01*
X167804D01*
X168277Y-148704D01*
X168631Y-149037D01*
X168926Y-149537D01*
X169163Y-150120D01*
X169222Y-150954D01*
X169163Y-151787D01*
X168926Y-152370D01*
X168631Y-152870D01*
X168277Y-153204D01*
X167804Y-153454D01*
X166624D01*
G01X170678Y-152704D02*
X171033Y-153120D01*
X171446Y-153370D01*
X171977Y-153454D01*
X172509Y-153287D01*
X172922Y-152954D01*
X173217Y-152370D01*
X173276Y-151704D01*
X173158Y-151037D01*
X172863Y-150620D01*
X172450Y-150287D01*
X172037Y-150204D01*
X171623Y-150287D01*
X171092Y-150620D01*
X171269Y-148454D01*
X172863D01*
G01X160048Y-160739D02*
X157264Y-163523D01*
X153367Y-159626D01*
X160577Y-152416D01*
X161746D01*
X165059Y-155728D01*
X162275Y-158512D01*
G01X154368Y147414D02*
Y152414D01*
X155844D01*
X156317Y152164D01*
X156612Y151830D01*
X156730Y151164D01*
X156612Y150497D01*
X156257Y150080D01*
X155844Y149830D01*
X154368D01*
G01X155844D02*
X156730Y147414D01*
G01X158482Y151580D02*
X158836Y152080D01*
X159250Y152330D01*
X159722Y152414D01*
X160312Y152247D01*
X160726Y151830D01*
X160844Y151331D01*
X160785Y150830D01*
X160548Y150414D01*
X159368Y149580D01*
X158836Y148997D01*
X158482Y148164D01*
X158364Y147414D01*
X160844D01*
G01X163540D02*
X163658Y148497D01*
X163835Y149414D01*
X164072Y150247D01*
X164367Y151164D01*
X164839Y152414D01*
X162478D01*
G01X168634Y156609D02*
Y161609D01*
X170110D01*
X170582Y161359D01*
X170878Y161026D01*
X170996Y160359D01*
X170878Y159693D01*
X170523Y159276D01*
X170110Y159026D01*
X168634D01*
G01X170110D02*
X170996Y156609D01*
G01X172748Y160776D02*
X173102Y161276D01*
X173515Y161526D01*
X173988Y161609D01*
X174578Y161443D01*
X174991Y161026D01*
X175109Y160526D01*
X175050Y160026D01*
X174814Y159609D01*
X173633Y158776D01*
X173102Y158193D01*
X172748Y157359D01*
X172630Y156609D01*
X175109D01*
G01X176625Y157359D02*
X176980Y156942D01*
X177393Y156693D01*
X177924Y156609D01*
X178456Y156776D01*
X178869Y157109D01*
X179164Y157692D01*
X179223Y158359D01*
X179105Y159026D01*
X178810Y159443D01*
X178396Y159776D01*
X177983Y159859D01*
X177570Y159776D01*
X177039Y159443D01*
X177216Y161609D01*
X178810D01*
G01X158709Y159992D02*
X155926Y162776D01*
X159823Y166673D01*
X162607Y163889D01*
G01X160937Y157765D02*
X163720Y154981D01*
X167618Y158878D01*
X164834Y161662D01*
G01X154164Y172765D02*
Y177765D01*
X155344D01*
X155817Y177515D01*
X156171Y177182D01*
X156467Y176682D01*
X156703Y176098D01*
X156762Y175265D01*
X156703Y174432D01*
X156467Y173848D01*
X156171Y173348D01*
X155817Y173015D01*
X155344Y172765D01*
X154164D01*
G01X160226D02*
Y177765D01*
X158041Y174182D01*
X160994D01*
G01X171802Y168867D02*
X174586Y166083D01*
X170689Y162185D01*
X163479Y169396D01*
Y170565D01*
X166791Y173878D01*
X169575Y171094D01*
G01X167725Y181291D02*
X164941Y184075D01*
X168839Y187972D01*
X171622Y185188D01*
G01X169952Y179064D02*
X172736Y176280D01*
X176633Y180177D01*
X173850Y182961D01*
G01X179637Y-163276D02*
X182421Y-160493D01*
X186319Y-164390D01*
X183535Y-167174D01*
G54D14*
G01X79224Y87265D02*
Y85474D01*
X79331Y85098D01*
X79544Y84849D01*
X79811Y84765D01*
X80077Y84849D01*
X80291Y85098D01*
X80397Y85474D01*
Y87265D01*
G01X81411Y84765D02*
Y87265D01*
X81091Y86765D01*
G01Y84765D02*
X81731D01*
G54D15*
G01X-213273Y-189807D02*
X-213107Y-190107D01*
X-212907Y-190307D01*
X-212673Y-190407D01*
X-212407Y-190307D01*
X-212207Y-190107D01*
X-212007Y-189807D01*
X-211940Y-189407D01*
Y-187407D01*
G01X-210673Y-190407D02*
X-210607Y-189757D01*
X-210507Y-189207D01*
X-210373Y-188707D01*
X-210207Y-188157D01*
X-209940Y-187407D01*
X-211273D01*
G01X-202274Y222351D02*
X-202107Y222051D01*
X-201907Y221851D01*
X-201674Y221751D01*
X-201407Y221851D01*
X-201207Y222051D01*
X-201007Y222351D01*
X-200941Y222751D01*
Y224751D01*
G01X-199207Y221751D02*
Y224751D01*
X-200441Y222601D01*
X-198774D01*
G01X-85054Y60014D02*
X-84887Y59714D01*
X-84687Y59514D01*
X-84454Y59414D01*
X-84187Y59514D01*
X-83987Y59714D01*
X-83787Y60014D01*
X-83721Y60414D01*
Y62414D01*
G01X-82387Y59414D02*
X-82154Y59464D01*
X-81887Y59614D01*
X-81721Y59864D01*
X-81654Y60214D01*
X-81721Y60564D01*
X-81921Y60864D01*
X-82221Y61014D01*
X-82554D01*
X-82754Y61114D01*
X-82921Y61364D01*
X-82987Y61714D01*
X-82887Y62064D01*
X-82654Y62314D01*
X-82387Y62414D01*
X-82121Y62314D01*
X-81887Y62064D01*
X-81787Y61714D01*
X-81854Y61364D01*
X-82021Y61114D01*
X-82221Y61014D01*
X-82554D01*
X-82854Y60864D01*
X-83054Y60564D01*
X-83121Y60214D01*
X-83054Y59864D01*
X-82887Y59614D01*
X-82621Y59464D01*
X-82387Y59414D01*
G01X-72422Y82100D02*
X-72256Y81800D01*
X-72056Y81600D01*
X-71822Y81500D01*
X-71556Y81600D01*
X-71356Y81800D01*
X-71156Y82100D01*
X-71089Y82500D01*
Y84500D01*
G01X-69756Y81500D02*
Y84500D01*
X-70156Y83900D01*
G01Y81500D02*
X-69356D01*
G01X-23780Y-78002D02*
X-23614Y-78302D01*
X-23414Y-78502D01*
X-23180Y-78602D01*
X-22914Y-78502D01*
X-22714Y-78302D01*
X-22514Y-78002D01*
X-22447Y-77602D01*
Y-75602D01*
G01X-21747Y-76102D02*
X-21547Y-75802D01*
X-21314Y-75652D01*
X-21047Y-75602D01*
X-20714Y-75702D01*
X-20480Y-75952D01*
X-20414Y-76252D01*
X-20447Y-76552D01*
X-20580Y-76802D01*
X-21247Y-77302D01*
X-21547Y-77652D01*
X-21747Y-78152D01*
X-21814Y-78602D01*
X-20414D01*
G01X-29453Y61641D02*
Y58641D01*
X-28120D01*
G01X-26787D02*
Y61641D01*
X-27187Y61041D01*
G01Y58641D02*
X-26387D01*
G01X-5716Y69985D02*
Y72985D01*
X-5049D01*
X-4782Y72835D01*
X-4582Y72635D01*
X-4416Y72335D01*
X-4282Y71985D01*
X-4249Y71485D01*
X-4282Y70985D01*
X-4416Y70635D01*
X-4582Y70335D01*
X-4782Y70135D01*
X-5049Y69985D01*
X-5716D01*
G01X-2982D02*
Y72985D01*
X-3382Y72385D01*
G01Y69985D02*
X-2582D01*
G01X26277Y-13367D02*
Y-15159D01*
X26384Y-15534D01*
X26597Y-15783D01*
X26864Y-15867D01*
X27130Y-15783D01*
X27344Y-15534D01*
X27450Y-15159D01*
Y-13367D01*
G01X28477Y-15367D02*
X28637Y-15659D01*
X28850Y-15825D01*
X29091Y-15867D01*
X29304Y-15825D01*
X29517Y-15617D01*
X29650Y-15367D01*
X29677Y-15117D01*
X29624Y-14825D01*
X29437Y-14617D01*
X29250Y-14533D01*
X29011D01*
G01X29250D02*
X29411Y-14409D01*
X29544Y-14200D01*
X29597Y-13950D01*
X29544Y-13700D01*
X29411Y-13492D01*
X29170Y-13367D01*
X28930Y-13409D01*
X28691Y-13575D01*
G01X38503Y1922D02*
Y3272D01*
X37836Y4922D01*
G01X39169D02*
X38503Y3272D01*
G01X40503Y1922D02*
Y4922D01*
X40103Y4322D01*
G01Y1922D02*
X40903D01*
G01X64530Y29735D02*
X64796Y29485D01*
X65096Y29335D01*
X65363D01*
X65630Y29485D01*
X65830Y29735D01*
X65930Y30085D01*
X65863Y30435D01*
X65696Y30735D01*
X65396Y30935D01*
X64996Y31035D01*
X64763Y31235D01*
X64663Y31585D01*
X64730Y31935D01*
X64896Y32185D01*
X65130Y32335D01*
X65363D01*
X65596Y32235D01*
X65796Y31985D01*
G01X66230Y32335D02*
X66696Y29335D01*
X67230Y32335D01*
X67763Y29335D01*
X68230Y32335D01*
G01X69230Y29335D02*
Y32335D01*
X68830Y31735D01*
G01Y29335D02*
X69630D01*
G01X53898Y62520D02*
X49409D01*
G01D02*
Y77008D01*
G01X75750Y77000D02*
X49500D01*
G01X71378Y62520D02*
X75787D01*
G01D02*
Y77008D01*
G01X90603Y115273D02*
Y118273D01*
X91436D01*
X91703Y118123D01*
X91869Y117923D01*
X91936Y117523D01*
X91869Y117123D01*
X91669Y116873D01*
X91436Y116723D01*
X90603D01*
G01X91436D02*
X91936Y115273D01*
G01X92536Y115873D02*
X92736Y115523D01*
X93003Y115323D01*
X93303Y115273D01*
X93569Y115323D01*
X93836Y115573D01*
X94003Y115873D01*
X94036Y116173D01*
X93969Y116523D01*
X93736Y116773D01*
X93503Y116873D01*
X93203D01*
G01X93503D02*
X93703Y117023D01*
X93869Y117273D01*
X93936Y117573D01*
X93869Y117873D01*
X93703Y118123D01*
X93403Y118273D01*
X93103Y118223D01*
X92803Y118023D01*
G01X208594Y-190065D02*
X208761Y-190365D01*
X208961Y-190565D01*
X209194Y-190665D01*
X209461Y-190565D01*
X209661Y-190365D01*
X209861Y-190065D01*
X209927Y-189665D01*
Y-187665D01*
G01X210627Y-189415D02*
X210861Y-189065D01*
X211061Y-188865D01*
X211327Y-188765D01*
X211561Y-188865D01*
X211727Y-189065D01*
X211861Y-189365D01*
X211894Y-189715D01*
X211861Y-190015D01*
X211727Y-190315D01*
X211527Y-190565D01*
X211294Y-190665D01*
X211027Y-190565D01*
X210794Y-190265D01*
X210661Y-189815D01*
X210627Y-189315D01*
X210694Y-188665D01*
X210794Y-188315D01*
X210961Y-187965D01*
X211194Y-187715D01*
X211427Y-187665D01*
X211661Y-187765D01*
X211827Y-188015D01*
G01X206704Y220374D02*
X206870Y220074D01*
X207070Y219874D01*
X207304Y219774D01*
X207570Y219874D01*
X207770Y220074D01*
X207970Y220374D01*
X208037Y220774D01*
Y222774D01*
G01X208637Y220224D02*
X208837Y219974D01*
X209070Y219824D01*
X209370Y219774D01*
X209670Y219874D01*
X209904Y220074D01*
X210070Y220424D01*
X210104Y220824D01*
X210037Y221224D01*
X209870Y221474D01*
X209637Y221674D01*
X209404Y221724D01*
X209170Y221674D01*
X208870Y221474D01*
X208970Y222774D01*
X209870D01*
G54D16*
G01X-16311Y-14142D02*
X-24511D01*
Y-5942D01*
G01Y27658D02*
Y35858D01*
X-16311D01*
G01X25489Y-5942D02*
Y-9142D01*
X20489Y-14142D01*
X17289D01*
G01X25489Y27658D02*
Y35858D01*
X17289D01*
M02*
