G04 ================== begin FILE IDENTIFICATION RECORD ==================*
G04 Layout Name:  E:/workspace/flyer/pcb/pcb/flyer.brd*
G04 Film Name:    soldermask_top*
G04 File Format:  Gerber RS274X*
G04 File Origin:  Cadence Allegro 16.5-P002*
G04 Origin Date:  Fri May 27 15:33:46 2016*
G04 *
G04 Layer:  VIA CLASS/SOLDERMASK_TOP*
G04 Layer:  PIN/SOLDERMASK_TOP*
G04 Layer:  PACKAGE GEOMETRY/SOLDERMASK_TOP*
G04 Layer:  BOARD GEOMETRY/OUTLINE*
G04 Layer:  BOARD GEOMETRY/SOLDERMASK_TOP*
G04 *
G04 Offset:    (0.0000 0.0000)*
G04 Mirror:    No*
G04 Mode:      Positive*
G04 Rotation:  0*
G04 FullContactRelief:  No*
G04 UndefLineWidth:     0.0000*
G04 ================== end FILE IDENTIFICATION RECORD ====================*
%FSLAX25Y25*MOIN*%
%IR0*IPPOS*OFA0.00000B0.00000*MIA0B0*SFA1.00000B1.00000*%
%ADD10C,.393701*%
%ADD18R,.03937X.037799*%
%AMMACRO15*
21,1,.037799,.03937,0.0,0.0,45.*%
%ADD15MACRO15*%
%ADD20R,.037799X.03937*%
%ADD21R,.016X.064*%
%ADD22R,.064X.016*%
%ADD24R,.062988X.0315*%
%ADD28R,.07087X.055118*%
%ADD29R,.055118X.07087*%
%ADD17C,.043307*%
%AMMACRO14*
21,1,.037799,.03937,0.0,0.0,135.*%
%ADD14MACRO14*%
%AMMACRO35*
21,1,.068898,.129921,0.0,0.0,45.*%
%ADD35MACRO35*%
%ADD32R,.076772X.047244*%
%ADD31C,.055118*%
%ADD16C,.062992*%
%ADD23R,.048X.06*%
%AMMACRO11*
21,1,.106299,.106299,0.0,0.0,45.*%
%ADD11MACRO11*%
%ADD27R,.063X.063*%
%ADD19R,.106299X.106299*%
%ADD12C,.044*%
%ADD25R,.01X.021*%
%ADD26R,.021X.01*%
%AMMACRO13*
21,1,.065,.065,0.0,0.0,45.*%
%ADD13MACRO13*%
%ADD34R,.04724X.090551*%
%ADD33R,.141728X.090551*%
%ADD30R,.023X.017*%
%LPD*%
G75*
G54D10*
X-232283Y-232283D03*
Y232283D03*
X232283Y-232283D03*
Y232283D03*
G54D11*
X-213583Y203622D03*
X-209586Y-200847D03*
X-199843Y-210591D03*
X-203839Y213366D03*
X203957Y-211240D03*
X203740Y213701D03*
X213701Y-201496D03*
X213484Y203957D03*
G54D20*
X-33629Y65379D03*
X-39613D03*
X-11522Y-59653D03*
X-17506D03*
X-11522Y-52778D03*
X-17506D03*
X-11565Y-45731D03*
X-17549D03*
X17740Y55445D03*
X10718Y55479D03*
X4734D03*
X28645Y-50838D03*
X34630D03*
X40199Y-30261D03*
X34215D03*
X34248Y-23458D03*
X40232D03*
X43302Y49943D03*
X23724Y55445D03*
X67369Y-62188D03*
X61384D03*
X55422Y-36041D03*
X61407D03*
X67663Y11558D03*
X60375Y11425D03*
X54391D03*
X54324Y18495D03*
X60308D03*
X69045Y42572D03*
X63061D03*
X55439D03*
X49455D03*
X49286Y49943D03*
X73648Y11558D03*
G54D30*
X61424Y-45222D03*
Y-47781D03*
Y-50341D03*
Y-52900D03*
X55125Y-45222D03*
Y-47781D03*
Y-50341D03*
Y-52900D03*
G54D12*
X-191170Y171951D03*
X-177558Y-173663D03*
X-182013Y-171044D03*
X-186551Y-173667D03*
X-178235Y184172D03*
X-175457Y188627D03*
X-178495Y193057D03*
X-157426Y-175643D03*
X-107044Y93048D03*
X-95873Y81876D03*
X-85671Y82187D03*
X-94089Y101200D03*
X-81693Y-88485D03*
X-81202Y-82835D03*
X-70975Y-72543D03*
X-71715Y-78611D03*
X-73498Y-37504D03*
X-60727Y-40907D03*
X-61786Y-20192D03*
X-59849Y-11448D03*
X-68096Y5831D03*
X-63765Y70289D03*
Y81828D03*
X-72874Y78541D03*
X-40400Y-38531D03*
X-34771Y-38773D03*
X-55769Y-46198D03*
X-40400Y-20079D03*
X-34771Y-20119D03*
X-49334Y-7659D03*
X-55850Y-28843D03*
X-46633Y7980D03*
X-41306Y8152D03*
X-57226Y41625D03*
X-52456Y24394D03*
X-47536Y24072D03*
X-49835Y95185D03*
X-38062Y89294D03*
X-35014Y83991D03*
X-22396Y-38126D03*
X-28411Y-38319D03*
X-22439Y-20293D03*
X-28411Y-20122D03*
X-15702Y-3933D03*
X-16019Y8773D03*
X-15632Y1331D03*
X-10383Y27832D03*
X-8563Y42742D03*
X-22860Y44303D03*
X-28296Y69823D03*
X-25761Y80136D03*
X-32572Y84300D03*
X18209Y-79853D03*
X2096Y-78744D03*
X10346Y-79243D03*
X696Y-32589D03*
Y-44549D03*
X8409Y-43110D03*
X8393Y-32763D03*
X18529Y-39844D03*
X15226Y-5323D03*
X16330Y2470D03*
X17431Y19762D03*
X17001Y14853D03*
X-3546Y27699D03*
X14913Y25781D03*
X-380Y50928D03*
X197Y57051D03*
X-5953Y78846D03*
X-2899Y76542D03*
X25385Y-79635D03*
X41425Y-41067D03*
X30754Y-58296D03*
X25034Y-32763D03*
Y-39733D03*
X26698Y-46015D03*
X24050Y-20174D03*
Y-26510D03*
X45251Y-23458D03*
X31796Y-14649D03*
X46104Y9129D03*
X36573Y45507D03*
X45943Y31355D03*
X38767Y38574D03*
X41345Y28476D03*
X34298Y35480D03*
X20064Y36437D03*
X26268Y49109D03*
X27180Y62646D03*
X31467Y63932D03*
X25810Y77585D03*
X31186Y82926D03*
X35446Y83378D03*
X70834Y-66189D03*
X49564Y-36041D03*
X66426Y-52323D03*
X55125Y-56418D03*
X66908Y6915D03*
X62081Y6844D03*
X54181Y22196D03*
X52332Y31167D03*
X72485Y41314D03*
X71496Y75149D03*
X95134Y-102029D03*
X73227Y-62188D03*
X79572Y-39524D03*
X84596Y28032D03*
X81394Y23263D03*
X82844Y40225D03*
X84862Y54111D03*
X78759Y54645D03*
X95534Y77856D03*
X81794Y92863D03*
X76462Y82008D03*
X100786Y-115552D03*
X106081Y-103868D03*
Y-88399D03*
X119678Y107470D03*
X124881Y120509D03*
X115343Y110971D03*
X117478Y99799D03*
X105048Y116388D03*
X108085Y114638D03*
X101940Y118460D03*
X135820Y113406D03*
X127349Y128880D03*
X177847Y-182190D03*
X175859Y-187092D03*
X171922Y187528D03*
X178144Y-191378D03*
X179337Y-160901D03*
X189690Y176834D03*
X194107Y179276D03*
X185319Y179348D03*
G54D21*
X-14285Y-11792D03*
X-12316D03*
X-10346D03*
X-8376D03*
Y33508D03*
X-10346D03*
X-12316D03*
X-14285D03*
X-6406Y-11792D03*
X-4436D03*
X-2466D03*
X-496D03*
X1474D03*
X3444D03*
X5415D03*
X7384D03*
X9354D03*
X11324D03*
X13294D03*
X15264D03*
Y33508D03*
X13294D03*
X11324D03*
X9354D03*
X7384D03*
X5415D03*
X3444D03*
X1474D03*
X-496D03*
X-2466D03*
X-4436D03*
X-6406D03*
G54D13*
X-193504Y192524D03*
X-189606Y181946D03*
X-185910Y-188700D03*
X-182013Y-178122D03*
X-175331Y-184803D03*
X-182925Y188627D03*
X193189Y-190989D03*
X182610Y-187092D03*
X189291Y-180410D03*
X193587Y194291D03*
X189690Y183712D03*
X183009Y190394D03*
G54D31*
X54380Y-981D03*
X73592D03*
G54D22*
X-22161Y17753D03*
Y15783D03*
Y13813D03*
Y11843D03*
Y9873D03*
Y7903D03*
Y5933D03*
Y3963D03*
Y1993D03*
Y23D03*
Y-1947D03*
Y-3917D03*
Y25633D03*
Y23663D03*
Y21693D03*
Y19723D03*
X23139Y-3917D03*
Y-1947D03*
Y23D03*
Y1993D03*
Y3963D03*
Y5933D03*
Y7903D03*
Y9873D03*
Y11843D03*
Y13813D03*
Y15783D03*
Y17753D03*
Y19723D03*
Y21693D03*
Y23663D03*
Y25633D03*
G54D23*
X-13537Y64493D03*
X-21411D03*
G54D32*
X52332Y35903D03*
X82844D03*
G54D14*
X-164658Y-174413D03*
X-160426Y-178644D03*
X-143002Y-151144D03*
X-147234Y-146913D03*
X-156761Y-156073D03*
X-152530Y-160305D03*
X159656Y162943D03*
X163887Y158711D03*
X170856Y165916D03*
X166624Y170147D03*
X168672Y184242D03*
X172903Y180010D03*
G54D33*
X62500Y57992D03*
G54D24*
X-11176Y75106D03*
Y78846D03*
Y82587D03*
X-21413D03*
Y75106D03*
G54D15*
X-186780Y169918D03*
X-182548Y174149D03*
X-166527Y164892D03*
X-151081Y166502D03*
X-155312Y162271D03*
X-162296Y169124D03*
X149444Y-152218D03*
X178357Y-168454D03*
X153676Y-147987D03*
X157097Y-159793D03*
X161328Y-155561D03*
X182588Y-164223D03*
G54D34*
X71496Y82008D03*
X62500D03*
X53504D03*
G54D25*
X11133Y-46485D03*
X12707D03*
X14282D03*
X15857D03*
X17432D03*
Y-58296D03*
X15857D03*
X14282D03*
X12707D03*
X11133D03*
X19007Y-46485D03*
Y-58296D03*
G54D16*
X-137795Y-137795D03*
Y137795D03*
X-58792Y-81008D03*
X-65480Y26579D03*
X-75480D03*
X-65480Y36579D03*
X-75480D03*
X-65480Y46579D03*
X-75480D03*
X-65480Y56579D03*
X-75480D03*
X-48792Y-81008D03*
X-38792D03*
X-28792D03*
X137795Y-137795D03*
Y137795D03*
G54D26*
X9164Y-56328D03*
Y-54753D03*
Y-53178D03*
Y-51604D03*
Y-50029D03*
Y-48454D03*
X20975D03*
Y-50029D03*
Y-51604D03*
Y-53178D03*
Y-54753D03*
Y-56328D03*
G54D35*
X81578Y92847D03*
X99618Y110887D03*
G54D17*
X-90672Y-39669D03*
Y-8173D03*
G54D27*
X-2789Y64493D03*
X9022D03*
G54D18*
X-68161Y-40923D03*
Y-46907D03*
X-78635Y-37475D03*
Y-43459D03*
X-60759Y-46198D03*
Y-52182D03*
X-78796Y-20192D03*
Y-14207D03*
X-69877Y-11404D03*
X-59546Y-2424D03*
Y3560D03*
X-69877Y-5420D03*
X-84484Y40614D03*
X-84550Y32525D03*
Y26541D03*
X-84484Y46598D03*
X-39597Y81076D03*
Y75092D03*
X-32572Y81087D03*
Y75102D03*
X2096Y-73258D03*
Y-67274D03*
X18209Y-73602D03*
Y-67618D03*
X10346Y-73473D03*
Y-67489D03*
X8993Y82483D03*
Y76499D03*
X1602Y76542D03*
Y82526D03*
X18618D03*
Y76542D03*
X25385Y-73258D03*
Y-67274D03*
X31186Y71601D03*
Y77585D03*
X48779Y-50344D03*
Y-56328D03*
X47425Y18524D03*
Y12540D03*
X74313Y-41858D03*
Y-47842D03*
G54D19*
X-63765Y75076D03*
X-49985D03*
G54D28*
X42036Y71566D03*
Y83378D03*
G54D29*
X31467Y59164D03*
X43279D03*
M02*
