G04 ================== begin FILE IDENTIFICATION RECORD ==================*
G04 Layout Name:  E:/workspace/flyer/pcb/pcb/flyer.brd*
G04 Film Name:    bottom*
G04 File Format:  Gerber RS274X*
G04 File Origin:  Cadence Allegro 16.5-P002*
G04 Origin Date:  Fri May 27 15:33:46 2016*
G04 *
G04 Layer:  VIA CLASS/BOTTOM*
G04 Layer:  PIN/BOTTOM*
G04 Layer:  ETCH/BOTTOM*
G04 Layer:  BOARD GEOMETRY/OUTLINE*
G04 *
G04 Offset:    (0.0000 0.0000)*
G04 Mirror:    No*
G04 Mode:      Positive*
G04 Rotation:  0*
G04 FullContactRelief:  No*
G04 UndefLineWidth:     0.1000*
G04 ================== end FILE IDENTIFICATION RECORD ====================*
%FSLAX25Y25*MOIN*%
%IR0*IPPOS*OFA0.00000B0.00000*MIA0B0*SFA1.00000B1.00000*%
%ADD16R,.07874X.027559*%
%ADD11C,.024*%
%ADD14R,.086614X.047244*%
%ADD15R,.055118X.062992*%
%ADD13C,.03937*%
%ADD19C,.047244*%
%ADD12C,.055118*%
%ADD10C,.354331*%
%ADD17R,.0315X.029921*%
%ADD18R,.029921X.0315*%
%ADD20C,.01*%
%ADD21C,.03*%
%ADD22C,.003937*%
%ADD27C,.055386*%
%ADD29C,.065134*%
%ADD30C,.06326*%
%ADD25C,.071134*%
%ADD26R,.09663X.05726*%
%ADD24C,.370346*%
%ADD28R,.065134X.073008*%
%ADD23O,.046016X.200705*%
G75*
%LPD*%
G75*
G36*
G01X-216694Y-247873D02*
G02X-247873Y-216694I-15589J15589D01*
G01X-144822Y-113643D01*
G03Y113643I-113643J113643D01*
G01X-247873Y216694D01*
G02X-216694Y247873I15589J15589D01*
G01X-113643Y144822D01*
G03X113643I113643J113643D01*
G01X216694Y247873D01*
G02X247873Y216694I15589J-15589D01*
G01X144822Y113643D01*
G03Y-113643I113643J-113643D01*
G01X247873Y-216694D01*
G02X216694Y-247873I-15589J-15589D01*
G01X113643Y-144822D01*
G03X-113643I-113643J-113643D01*
G01X-216694Y-247873D01*
G37*
%LPC*%
G75*
G36*
G01X123167Y97498D02*
X117478D01*
G02Y102100I0J2301D01*
G01X121260D01*
X134193Y115033D01*
G02X137446Y111779I1627J-1627D01*
G01X123167Y97498D01*
G37*
G36*
G01X84095Y92549D02*
X97161Y79483D01*
G02X93907Y76229I-1627J-1627D01*
G01X79493Y90643D01*
Y92863D01*
G02X84095I2301J0D01*
G01Y92549D01*
G37*
G36*
G01X-42991Y91595D02*
X-38062D01*
G02Y86994I0J-2301D01*
G01X-44897D01*
X-51461Y93559D01*
G02X-48208Y96812I1627J1627D01*
G01X-42991Y91595D01*
G37*
G36*
G01X115413Y112971D02*
X115500Y112968D01*
X122884Y120352D01*
X122881Y120439D01*
G02X124811Y118509I2000J70D01*
G01X124724Y118513D01*
X117340Y111128D01*
X117343Y111041D01*
G02X115413Y112971I-2000J-70D01*
G37*
G36*
G01X119748Y109469D02*
X119835Y109466D01*
X129516Y119147D01*
Y124872D01*
X127506Y126883D01*
X127419Y126880D01*
G02X129348Y128809I-70J2000D01*
G01X129345Y128722D01*
X132118Y125950D01*
Y118069D01*
X121675Y107627D01*
X121678Y107540D01*
G02X119748Y109469I-2000J-70D01*
G37*
G36*
G01X-86972Y83707D02*
Y92243D01*
X-93931Y99204D01*
X-94019Y99200D01*
G02X-92089Y101130I-70J2000D01*
G01X-92092Y101043D01*
X-84370Y93321D01*
Y83707D01*
G02X-86972I-1301J-1520D01*
G37*
G36*
G01X-105045Y92978D02*
X-105048Y92891D01*
X-96030Y83872D01*
X-95943Y83876D01*
G02X-97872Y81946I70J-2000D01*
G01X-97869Y82033D01*
X-106887Y91051D01*
X-106974Y91048D01*
G02X-105045Y92978I-70J2000D01*
G37*
G36*
G01X-25831Y78136D02*
X-25918Y78139D01*
X-26996Y77062D01*
Y71343D01*
G02X-29597I-1301J-1520D01*
G01Y78139D01*
X-27758Y79979D01*
X-27761Y80066D01*
G02X-25831Y78136I2000J70D01*
G37*
G36*
G01X-448Y48928D02*
X-535Y48931D01*
X-6567Y42899D01*
X-6564Y42812D01*
G02X-8493Y44741I-2000J-70D01*
G01X-8406Y44738D01*
X-2422Y50723D01*
Y50725D01*
X-2376Y50770D01*
X-2379Y50857D01*
G02X-448Y48928I2000J70D01*
G37*
G36*
G01X43945Y31463D02*
X43950Y31552D01*
X38924Y36578D01*
X38837Y36574D01*
G02X40767Y38504I-70J2000D01*
G01X40764Y38417D01*
X45826Y33354D01*
X45911Y33356D01*
G02X43945Y31463I32J-2001D01*
G37*
G36*
G01X39346Y28593D02*
X34456Y33484D01*
X34369Y33481D01*
G02X36298Y35410I-70J2000D01*
G01X36295Y35323D01*
X41149Y30470D01*
X41238Y30474D01*
G02X39345Y28508I108J-1998D01*
G01X39346Y28593D01*
G37*
G36*
G01X53633Y24585D02*
X54024Y24193D01*
X54111Y24196D01*
G02X52181Y22267I70J-2000D01*
G01X52185Y22354D01*
X51031Y23507D01*
Y29647D01*
G02X53633I1301J1520D01*
G01Y24585D01*
G37*
G36*
G01X-43305Y8222D02*
X-43302Y8309D01*
X-48837Y13844D01*
Y22552D01*
G02X-46235I1301J1520D01*
G01Y14922D01*
X-41462Y10148D01*
X-41376Y10152D01*
G02X-43305Y8222I70J-2000D01*
G37*
G36*
G01X-51155Y22874D02*
Y14341D01*
X-46791Y9976D01*
X-46704Y9980D01*
G02X-48633Y8050I70J-2000D01*
G01X-48630Y8137D01*
X-53757Y13263D01*
Y22874D01*
G02X-51155I1301J1520D01*
G37*
G36*
G01X25351Y-21694D02*
Y-24990D01*
G02X22750I-1301J-1520D01*
G01Y-21694D01*
G02X25351I1301J1520D01*
G37*
G36*
G01X-21138Y-35044D02*
X-21095Y-35087D01*
Y-36606D01*
G02X-23761Y-36662I-1301J-1520D01*
G01X-23697Y-36603D01*
Y-36165D01*
X-23740Y-36122D01*
Y-21813D01*
G02X-21138I1301J1520D01*
G01Y-35044D01*
G37*
G36*
G01X-27111Y-21642D02*
Y-36799D01*
G02X-29712I-1301J-1520D01*
G01Y-21642D01*
G02X-27111I1301J1520D01*
G37*
G36*
G01X-39099Y-21599D02*
Y-37011D01*
G02X-41701I-1301J-1520D01*
G01Y-21599D01*
G02X-39099I1301J1520D01*
G37*
G36*
G01X-33470Y-21639D02*
Y-37253D01*
G02X-36072I-1301J-1520D01*
G01Y-21639D01*
G02X-33470I1301J1520D01*
G37*
G36*
G01X23733Y-38213D02*
Y-34283D01*
G02X26335I1301J1520D01*
G01Y-38213D01*
G02X23733I-1301J-1520D01*
G37*
G36*
G01X7045Y-41646D02*
X7109Y-41587D01*
Y-41149D01*
X7092Y-41132D01*
Y-34283D01*
G02X9694I1301J1520D01*
G01Y-40054D01*
X9710Y-40071D01*
Y-41590D01*
G02X7045Y-41646I-1301J-1520D01*
G37*
G36*
G01X1997Y-43029D02*
G02X-604I-1301J-1520D01*
G01Y-34109D01*
G02X1997I1301J1520D01*
G01Y-43029D01*
G37*
G36*
G01X39875Y-59597D02*
X32274D01*
G02Y-56996I-1520J1301D01*
G01X38797D01*
X40124Y-55668D01*
Y-42587D01*
G02X42726I1301J1520D01*
G01Y-56746D01*
X39875Y-59597D01*
G37*
G36*
G01X-81189Y-80834D02*
X-81106Y-80834D01*
X-72972Y-72700D01*
X-72975Y-72613D01*
G02X-71045Y-74543I2000J70D01*
G01X-71132Y-74540D01*
X-79211Y-82619D01*
X-79205Y-82709D01*
G02X-81189Y-80834I-1997J-126D01*
G37*
G36*
G01X-81533Y-86491D02*
X-81441Y-86498D01*
X-73711Y-78768D01*
X-73715Y-78681D01*
G02X-71785Y-80611I2000J70D01*
G01X-71872Y-80608D01*
X-79691Y-88427D01*
X-79692Y-88509D01*
G02X-81533Y-86491I-2001J24D01*
G37*
G36*
G01X38093Y44207D02*
G02X35351Y47092I-1520J1301D01*
G03X35106Y47808I-244J317D01*
G01X27788D01*
G02Y50410I-1520J1301D01*
G01X72685D01*
X76763Y54488D01*
X76760Y54575D01*
G02X78689Y52645I2000J70D01*
G01X78602Y52648D01*
X73763Y47808D01*
X38039D01*
G03X37795Y47092I0J-400D01*
G02X38093Y46808I-1223J-1584D01*
G01X75719D01*
X82866Y53954D01*
X82863Y54041D01*
G02X84792Y52112I2000J70D01*
G01X84705Y52115D01*
X76797Y44207D01*
X38093D01*
G37*
G36*
G01X-63580Y39586D02*
G02X-67380I-1900J-3007D01*
G03X-67593Y40324I-214J338D01*
G01X-71064D01*
X-74057Y43317D01*
X-74179Y43269D01*
G02X-72169Y45278I-1301J3310D01*
G01X-72217Y45156D01*
X-69986Y42926D01*
X-67731D01*
G03X-67504Y43654I0J400D01*
G02X-63456I2024J2925D01*
G03X-63228Y42926I228J-329D01*
G01X-58746D01*
G02Y40324I1520J-1301D01*
G01X-63366D01*
G03X-63580Y39586I0J-400D01*
G37*
G36*
G01X15069Y-3327D02*
X15156Y-3324D01*
G02X13226Y-5253I70J-2000D01*
G01X13230Y-5166D01*
X12992Y-4929D01*
G03X12651Y-5070I-141J-141D01*
G01Y-5557D01*
X8057D01*
Y-5152D01*
X6367D01*
Y-5257D01*
X2373D01*
Y-1106D01*
X6367D01*
Y-1212D01*
X8053D01*
Y-71D01*
X-6035D01*
Y-683D01*
X-6632Y-1280D01*
G03X-6621Y-1857I283J-283D01*
G01X-2475D01*
Y-6009D01*
X-6469D01*
Y-5902D01*
X-8159D01*
Y-6309D01*
X-12753D01*
Y-5233D01*
X-14181D01*
G02Y-2632I-1520J1301D01*
G01X-12753D01*
Y-1557D01*
X-12249D01*
Y-389D01*
X-10637Y1223D01*
Y1408D01*
X-12974Y3745D01*
Y7472D01*
X-14498D01*
G02Y10074I-1520J1301D01*
G01X-12970D01*
Y10949D01*
X-8376D01*
Y10543D01*
X-6686D01*
Y10649D01*
X-2692D01*
Y6498D01*
X-6686D01*
Y6604D01*
X-8372D01*
Y5652D01*
X-7252Y4531D01*
X9375D01*
Y7530D01*
X7688D01*
Y7424D01*
X3694D01*
Y11575D01*
X7688D01*
Y11469D01*
X9277D01*
Y17792D01*
X7965D01*
Y17686D01*
X3971D01*
Y21838D01*
X7965D01*
Y21731D01*
X9277D01*
Y23481D01*
X535D01*
X-770Y22176D01*
Y20757D01*
X-1176D01*
Y19067D01*
X-1070D01*
Y15073D01*
X-5221D01*
Y19067D01*
X-5115D01*
Y20753D01*
X-8413D01*
Y19067D01*
X-8307D01*
Y15073D01*
X-12458D01*
Y19067D01*
X-12352D01*
Y20757D01*
X-12758D01*
Y25351D01*
X-11683D01*
Y26312D01*
G02X-9082I1301J1520D01*
G01Y25355D01*
X-4847D01*
Y26179D01*
G02X-1617Y28229I1301J1520D01*
G01X-1576Y28082D01*
X14913D01*
G02X16291Y23939I0J-2301D01*
G01X14249Y21897D01*
Y21063D01*
X15911D01*
G02Y18461I1520J-1301D01*
G01X14249D01*
Y17386D01*
X13879D01*
Y11875D01*
X13972D01*
Y10800D01*
X14591D01*
X17720Y7671D01*
Y4520D01*
X17631Y4431D01*
Y3993D01*
X17695Y3934D01*
G02X14711Y1296I-1364J-1463D01*
G03X14026Y1234I-324J-235D01*
G02X13998Y1178I-2077J989D01*
G01X13976Y1135D01*
Y1000D01*
X12655Y-322D01*
Y-1881D01*
X13624D01*
X15069Y-3327D01*
G37*
G36*
G01X-49227Y-55328D02*
X-55740D01*
Y-48198D01*
G02X-54688Y-44514I-29J2001D01*
G03X-54072Y-44178I216J336D01*
G01Y-43135D01*
X-56773D01*
X-57743Y-42165D01*
X-57945D01*
X-57988Y-42208D01*
X-59207D01*
G02X-62138Y-39489I-1520J1300D01*
G03X-62420Y-38805I-282J284D01*
G01X-71978D01*
G02Y-36203I-1520J1301D01*
G01X-54072D01*
Y-35325D01*
X-53772D01*
Y-31021D01*
X-54072D01*
Y-30808D01*
G03X-54701Y-30480I-400J0D01*
G02X-57319Y-27484I-1149J1638D01*
G03X-57613Y-26813I-294J272D01*
G01X-64917D01*
X-70440Y-21290D01*
Y4921D01*
X-77780Y12261D01*
Y23867D01*
G02X-73179I2301J2712D01*
G01Y14168D01*
X-66470Y7458D01*
G02X-65835Y5407I-1627J-1627D01*
G01X-65839Y5389D01*
Y-19383D01*
X-64451Y-20771D01*
G03X-63771Y-20439I283J283D01*
G02X-60266Y-18891I1985J247D01*
G01X-55107D01*
X-55096Y-18880D01*
X-54072D01*
Y-17151D01*
X-55985D01*
X-59692Y-13444D01*
X-59779Y-13447D01*
G02X-57850Y-11518I-70J2000D01*
G01X-57853Y-11605D01*
X-54907Y-14550D01*
X-54072D01*
Y-9341D01*
X-51364D01*
G03X-51026Y-8728I0J400D01*
G02X-47642I1692J1068D01*
G03X-47304Y-9341I338J-213D01*
G01X-44596D01*
Y-31021D01*
X-44896D01*
Y-35325D01*
X-44596D01*
Y-48344D01*
X-49227D01*
Y-55328D01*
G37*
G36*
G01X100629Y-113555D02*
X100716Y-113552D01*
G02X98787Y-115481I70J-2000D01*
G01X98790Y-115394D01*
X90198Y-106803D01*
Y12620D01*
X81551Y21267D01*
X81464Y21264D01*
G02X83394Y23193I-70J2000D01*
G01X83391Y23106D01*
X92799Y13698D01*
Y-100607D01*
G03X93522Y-100844I400J0D01*
G02X93833Y-100509I1612J-1185D01*
G01Y16955D01*
X84753Y26036D01*
X84666Y26033D01*
G02X86595Y27962I-70J2000D01*
G01X86592Y27875D01*
X96435Y18033D01*
Y-100509D01*
G02X93522Y-103213I-1301J-1520D01*
G03X92799Y-103450I-322J-237D01*
G01Y-105725D01*
X100629Y-113555D01*
G37*
G54D27*
X-90672Y-39669D03*
Y-8173D03*
G54D29*
X-65480Y56579D03*
X-38792Y-81008D03*
G54D30*
X73592Y-981D03*
X54380D03*
G54D25*
X-137795Y-137795D03*
Y137795D03*
X-75480Y36579D03*
Y56579D03*
X-58792Y-81008D03*
X-48792D03*
X-65480Y26579D03*
X-28792Y-81008D03*
X137795Y-137795D03*
Y137795D03*
G54D26*
X-91460Y-51677D03*
Y9346D03*
G54D24*
X-232283Y-232283D03*
Y232283D03*
X232283Y-232283D03*
Y232283D03*
G54D28*
X-52483Y3638D03*
G54D23*
X106081Y-96134D03*
%LPD*%
G75*
G54D10*
X-232283Y-232283D03*
Y232283D03*
X232283Y-232283D03*
Y232283D03*
G54D20*
G01X-91460Y-54740D02*
Y-51677D01*
G01D02*
Y-48614D01*
G01X-96491Y-51677D02*
X-91460D01*
G01D02*
X-86428D01*
G01X-91460Y6283D02*
Y9346D01*
G01D02*
Y12409D01*
G01X-96491Y9346D02*
X-91460D01*
G01D02*
X-86428D01*
G01X-95873Y81876D02*
X-107044Y93048D01*
G01X-85671Y82187D02*
Y92782D01*
X-94089Y101200D01*
G01X-71715Y-78611D02*
X-81589Y-88485D01*
X-81693D01*
G01X-70975Y-72543D02*
X-81202Y-82770D01*
Y-82835D01*
G01X-49334Y-37504D02*
X-73498D01*
G01X-60727Y-40907D02*
X-58527D01*
X-58484Y-40865D01*
X-57204D01*
X-56234Y-41835D01*
X-49334D01*
G01X-61786Y-20192D02*
X-54582D01*
X-54571Y-20181D01*
X-49334D01*
G01X-57226Y41625D02*
X-70525D01*
X-75480Y46579D01*
G01X-65480Y53122D02*
Y56579D01*
G01D02*
Y60036D01*
G01X-68936Y56579D02*
X-65480D01*
G01D02*
X-62023D01*
G01X-38792Y-84465D02*
Y-81008D01*
G01D02*
Y-77552D01*
G01X-42248Y-81008D02*
X-38792D01*
G01D02*
X-35335D01*
G01X-40400Y-20079D02*
Y-38531D01*
G01X-34771Y-20119D02*
Y-38773D01*
G01X-55769Y-46198D02*
X-49367D01*
X-49334Y-46165D01*
G01X-52483Y-55528D02*
Y-51677D01*
G01X-55940D02*
X-52483D01*
G01D02*
X-49027D01*
G01X-49334Y-11520D02*
Y-7659D01*
G01X-55850Y-28843D02*
X-49334D01*
G01Y-15850D02*
X-55446D01*
X-59849Y-11448D01*
G01X-53972Y-33173D02*
X-49334D01*
G01D02*
X-44696D01*
G01X-52456Y24394D02*
Y13802D01*
X-46633Y7980D01*
G01X-47536Y24072D02*
Y14383D01*
X-41306Y8152D01*
G01X-52483Y-213D02*
Y3638D01*
G01D02*
Y7488D01*
G01X-55940Y3638D02*
X-52483D01*
G01D02*
X-49027D01*
G01X-22439Y-20293D02*
Y-35583D01*
X-22396Y-35626D01*
Y-38126D01*
G01X-28411Y-20122D02*
Y-38319D01*
G01X-10456Y-3933D02*
X-15702D01*
G01X-16019Y8773D02*
X-10873D01*
X-10673Y8573D01*
G01X-10383Y14873D02*
Y17070D01*
G01X-12659D02*
X-10383D01*
G01D02*
X-8107D01*
G01X-10383Y23054D02*
Y27832D01*
G01X-380Y50928D02*
X-1121Y50186D01*
Y50184D01*
X-8563Y42742D01*
G01X-28296Y69823D02*
Y77600D01*
X-25761Y80136D01*
G01X696Y-44549D02*
Y-32589D01*
G01X8393Y-32763D02*
Y-40593D01*
X8409Y-40610D01*
Y-43110D01*
G01X10354Y-3182D02*
X13085D01*
X15226Y-5323D01*
G01X16330Y2470D02*
Y4970D01*
X16419Y5059D01*
Y7132D01*
X14052Y9499D01*
X11676D01*
G01X5968Y17486D02*
Y19762D01*
G01X-4472Y-6209D02*
Y-3933D01*
G01D02*
Y-1657D01*
G01Y-3933D02*
X-2275D01*
G01X-4689Y6297D02*
Y8573D01*
G01D02*
Y10849D01*
G01Y8573D02*
X-2492D01*
G01X-3146Y14873D02*
Y17070D01*
G01X-5422D02*
X-3146D01*
G01D02*
X-870D01*
G01X5691Y7223D02*
Y9499D01*
G01D02*
Y11775D01*
G01X3494Y9499D02*
X5691D01*
G01X4370Y-5458D02*
Y-3182D01*
G01D02*
Y-906D01*
G01X2173Y-3182D02*
X4370D01*
G01X-3546Y27699D02*
Y23454D01*
X-3146Y23054D01*
G01X11952Y19762D02*
X17431D01*
G01X5968D02*
Y22038D01*
G01X3771Y19762D02*
X5968D01*
G01X41425Y-41067D02*
Y-56207D01*
X39336Y-58296D01*
X30754D01*
G01X25034Y-39733D02*
Y-32763D01*
G01X24050Y-26510D02*
Y-20174D01*
G01X38767Y38574D02*
X45943Y31398D01*
Y31355D01*
G01X34298Y35480D02*
X41302Y28476D01*
X41345D01*
G01X36573Y45507D02*
X76258D01*
X84862Y54111D01*
G01X26268Y49109D02*
X73224D01*
X78759Y54645D01*
G01X52332Y31167D02*
Y24046D01*
X54181Y22196D01*
G01X95134Y-102029D02*
Y17494D01*
X84596Y28032D01*
G01X100786Y-115552D02*
X91498Y-106264D01*
Y13159D01*
X81394Y23263D01*
G01X127349Y128880D02*
X130817Y125411D01*
Y118608D01*
X119678Y107470D01*
G01X115343Y110971D02*
X124881Y120509D01*
G54D11*
X-191170Y171951D03*
X-177558Y-173663D03*
X-182013Y-171044D03*
X-186551Y-173667D03*
X-178235Y184172D03*
X-175457Y188627D03*
X-178495Y193057D03*
X-157426Y-175643D03*
X-107044Y93048D03*
X-95873Y81876D03*
X-85671Y82187D03*
X-94089Y101200D03*
X-81693Y-88485D03*
X-81202Y-82835D03*
X-70975Y-72543D03*
X-71715Y-78611D03*
X-73498Y-37504D03*
X-60727Y-40907D03*
X-61786Y-20192D03*
X-59849Y-11448D03*
X-68096Y5831D03*
X-63765Y70289D03*
Y81828D03*
X-72874Y78541D03*
X-40400Y-38531D03*
X-34771Y-38773D03*
X-55769Y-46198D03*
X-40400Y-20079D03*
X-34771Y-20119D03*
X-49334Y-7659D03*
X-55850Y-28843D03*
X-46633Y7980D03*
X-41306Y8152D03*
X-57226Y41625D03*
X-52456Y24394D03*
X-47536Y24072D03*
X-49835Y95185D03*
X-38062Y89294D03*
X-35014Y83991D03*
X-22396Y-38126D03*
X-28411Y-38319D03*
X-22439Y-20293D03*
X-28411Y-20122D03*
X-15702Y-3933D03*
X-16019Y8773D03*
X-15632Y1331D03*
X-10383Y27832D03*
X-8563Y42742D03*
X-22860Y44303D03*
X-28296Y69823D03*
X-25761Y80136D03*
X-32572Y84300D03*
X18209Y-79853D03*
X2096Y-78744D03*
X10346Y-79243D03*
X696Y-32589D03*
Y-44549D03*
X8409Y-43110D03*
X8393Y-32763D03*
X18529Y-39844D03*
X15226Y-5323D03*
X16330Y2470D03*
X17431Y19762D03*
X17001Y14853D03*
X-3546Y27699D03*
X14913Y25781D03*
X-380Y50928D03*
X197Y57051D03*
X-5953Y78846D03*
X-2899Y76542D03*
X25385Y-79635D03*
X41425Y-41067D03*
X30754Y-58296D03*
X25034Y-32763D03*
Y-39733D03*
X26698Y-46015D03*
X24050Y-20174D03*
Y-26510D03*
X45251Y-23458D03*
X31796Y-14649D03*
X46104Y9129D03*
X36573Y45507D03*
X45943Y31355D03*
X38767Y38574D03*
X41345Y28476D03*
X34298Y35480D03*
X20064Y36437D03*
X26268Y49109D03*
X27180Y62646D03*
X31467Y63932D03*
X25810Y77585D03*
X31186Y82926D03*
X35446Y83378D03*
X70834Y-66189D03*
X49564Y-36041D03*
X66426Y-52323D03*
X55125Y-56418D03*
X66908Y6915D03*
X62081Y6844D03*
X54181Y22196D03*
X52332Y31167D03*
X72485Y41314D03*
X71496Y75149D03*
X95134Y-102029D03*
X73227Y-62188D03*
X79572Y-39524D03*
X84596Y28032D03*
X81394Y23263D03*
X82844Y40225D03*
X84862Y54111D03*
X78759Y54645D03*
X95534Y77856D03*
X81794Y92863D03*
X76462Y82008D03*
X100786Y-115552D03*
X106081Y-103868D03*
Y-88399D03*
X119678Y107470D03*
X124881Y120509D03*
X115343Y110971D03*
X117478Y99799D03*
X105048Y116388D03*
X108085Y114638D03*
X101940Y118460D03*
X135820Y113406D03*
X127349Y128880D03*
X177847Y-182190D03*
X175859Y-187092D03*
X171922Y187528D03*
X178144Y-191378D03*
X179337Y-160901D03*
X189690Y176834D03*
X194107Y179276D03*
X185319Y179348D03*
G54D21*
G01X-68096Y5831D02*
X-68139Y5789D01*
Y-20337D01*
X-63964Y-24512D01*
X-49334D01*
G01X-75480Y26579D02*
Y13215D01*
X-68096Y5831D01*
G01X-38062Y89294D02*
X-43944D01*
X-49835Y95185D01*
G01X-8336Y2361D02*
X-8205Y2230D01*
X11952D01*
X11061Y1339D01*
G01X-8336Y2361D02*
X-10673Y4698D01*
Y8573D01*
G01X-10456Y-3933D02*
X-9948Y-3424D01*
Y-1342D01*
X-8336Y270D01*
Y2361D01*
G01X-3146Y23054D02*
X-10383D01*
G01X11061Y1339D02*
X10354Y631D01*
Y-3182D01*
G01X11676Y9499D02*
Y1953D01*
X11061Y1339D01*
G01X11578Y20136D02*
Y9597D01*
X11676Y9499D01*
G01X11952Y19762D02*
X11578Y20136D01*
G01X14880Y25781D02*
X-418D01*
X-3146Y23054D01*
G01X14880Y25781D02*
X14913D01*
G01X11578Y20136D02*
Y22480D01*
X14880Y25781D01*
G01X95534Y77856D02*
X81794Y91596D01*
Y92863D01*
G01X106081Y-88399D02*
Y-103868D01*
G01X117478Y99799D02*
X122213D01*
X135820Y113406D01*
G54D12*
X-137795Y-137795D03*
Y137795D03*
X-58792Y-81008D03*
X-65480Y26579D03*
X-75480D03*
X-65480Y36579D03*
X-75480D03*
X-65480Y46579D03*
X-75480D03*
X-65480Y56579D03*
X-75480D03*
X-48792Y-81008D03*
X-38792D03*
X-28792D03*
X137795Y-137795D03*
Y137795D03*
G54D22*
G01X112530Y-145936D02*
X215580Y-248987D01*
G03X248987Y-215580I16703J16703D01*
G01X145936Y-112530D01*
G02Y112530I112529J112530D01*
G01X248987Y215580D01*
G03X215580Y248987I-16703J16703D01*
G01X112530Y145936D01*
G02X-112530I-112530J112529D01*
G01X-215580Y248987D01*
G03X-248987Y215580I-16703J-16703D01*
G01X-145936Y112530D01*
G02Y-112530I-112529J-112530D01*
G01X-248987Y-215580D01*
G03X-215580Y-248987I16703J-16703D01*
G01X-112530Y-145936D01*
G02X112530I112530J-112529D01*
G54D13*
X-90672Y-39669D03*
Y-8173D03*
G54D14*
X-91460Y-51677D03*
Y9346D03*
G54D15*
X-52483Y-51677D03*
Y3638D03*
G54D16*
X-49334Y-46165D03*
Y-41835D03*
Y-37504D03*
Y-33173D03*
Y-28843D03*
Y-24512D03*
Y-20181D03*
Y-15850D03*
Y-11520D03*
G54D17*
X-10383Y17070D03*
Y23054D03*
X-3146Y17070D03*
Y23054D03*
G54D18*
X-10673Y8573D03*
X-10456Y-3933D03*
X5691Y9499D03*
X11676D03*
X5968Y19762D03*
X11952D03*
X4370Y-3182D03*
X10354D03*
X-4689Y8573D03*
X-4472Y-3933D03*
G54D19*
X54380Y-981D03*
X73592D03*
M02*
