G04 ================== begin FILE IDENTIFICATION RECORD ==================*
G04 Layout Name:  E:/workspace/flyer/pcb/pcb/flyer.brd*
G04 Film Name:    silkscreen_bottom*
G04 File Format:  Gerber RS274X*
G04 File Origin:  Cadence Allegro 16.5-P002*
G04 Origin Date:  Fri May 27 15:33:46 2016*
G04 *
G04 Layer:  REF DES/SILKSCREEN_BOTTOM*
G04 Layer:  PACKAGE GEOMETRY/SILKSCREEN_BOTTOM*
G04 Layer:  BOARD GEOMETRY/OUTLINE*
G04 Layer:  BOARD GEOMETRY/SILKSCREEN_BOTTOM*
G04 *
G04 Offset:    (0.0000 0.0000)*
G04 Mirror:    No*
G04 Mode:      Positive*
G04 Rotation:  0*
G04 FullContactRelief:  No*
G04 UndefLineWidth:     0.0000*
G04 ================== end FILE IDENTIFICATION RECORD ====================*
%FSLAX25Y25*MOIN*%
%IR0*IPPOS*OFA0.00000B0.00000*MIA0B0*SFA1.00000B1.00000*%
%ADD10C,.003937*%
%ADD11C,.007874*%
%ADD12C,.005909*%
G75*
%LPD*%
G75*
G54D10*
G01X-49334Y-55063D02*
X-49373Y-55102D01*
G54D11*
G01D02*
X-97169D01*
Y11551D01*
X-96814Y11906D01*
X-54294D01*
X-49334Y6945D01*
Y-55063D01*
G54D12*
G01X-9959Y-12802D02*
X-10313Y-13052D01*
X-10726Y-13219D01*
X-11198D01*
X-11730Y-12969D01*
X-12143Y-12552D01*
X-12439Y-12052D01*
X-12675Y-11219D01*
X-12734Y-10469D01*
X-12616Y-9719D01*
X-12439Y-9219D01*
X-12084Y-8719D01*
X-11671Y-8385D01*
X-11258Y-8219D01*
X-10844D01*
X-10431Y-8385D01*
X-10077Y-8635D01*
X-9781Y-8969D01*
G01X-7203Y-8219D02*
Y-13219D01*
X-7911Y-12219D01*
G01Y-8219D02*
X-6494D01*
G01X-2440D02*
Y-13219D01*
X-4624Y-9635D01*
X-1672D01*
G01X-13139Y18487D02*
Y14550D01*
X-7627D01*
Y18487D01*
G01X-22677Y11518D02*
X-23031Y11268D01*
X-23445Y11102D01*
X-23917D01*
X-24449Y11352D01*
X-24862Y11768D01*
X-25157Y12268D01*
X-25393Y13102D01*
X-25452Y13852D01*
X-25334Y14602D01*
X-25157Y15102D01*
X-24803Y15602D01*
X-24389Y15935D01*
X-23976Y16102D01*
X-23563D01*
X-23150Y15935D01*
X-22795Y15685D01*
X-22500Y15352D01*
G01X-19922Y16102D02*
Y11102D01*
X-20630Y12102D01*
G01Y16102D02*
X-19213D01*
G01X-17166Y15102D02*
X-16811Y15685D01*
X-16339Y16018D01*
X-15807Y16102D01*
X-15335Y16018D01*
X-14863Y15602D01*
X-14568Y15102D01*
X-14509Y14602D01*
X-14627Y14019D01*
X-15040Y13602D01*
X-15454Y13435D01*
X-15985D01*
G01X-15454D02*
X-15099Y13185D01*
X-14804Y12769D01*
X-14686Y12268D01*
X-14804Y11768D01*
X-15099Y11352D01*
X-15631Y11102D01*
X-16162Y11185D01*
X-16693Y11518D01*
G01X-9256Y5817D02*
X-13193D01*
Y11329D01*
X-9256D01*
G01X-9039Y-6689D02*
X-12976D01*
Y-1177D01*
X-9039D01*
G01X-18466Y27846D02*
X-18820Y27596D01*
X-19233Y27430D01*
X-19706D01*
X-20237Y27680D01*
X-20650Y28096D01*
X-20946Y28596D01*
X-21182Y29430D01*
X-21241Y30180D01*
X-21123Y30930D01*
X-20946Y31430D01*
X-20591Y31930D01*
X-20178Y32263D01*
X-19765Y32430D01*
X-19352D01*
X-18938Y32263D01*
X-18584Y32013D01*
X-18289Y31680D01*
G01X-15710Y32430D02*
X-15297Y32346D01*
X-14824Y32097D01*
X-14529Y31680D01*
X-14411Y31096D01*
X-14529Y30513D01*
X-14883Y30013D01*
X-15415Y29763D01*
X-16005D01*
X-16359Y29596D01*
X-16655Y29180D01*
X-16773Y28596D01*
X-16596Y28013D01*
X-16183Y27596D01*
X-15710Y27430D01*
X-15238Y27596D01*
X-14824Y28013D01*
X-14647Y28596D01*
X-14765Y29180D01*
X-15061Y29596D01*
X-15415Y29763D01*
X-16005D01*
X-16537Y30013D01*
X-16891Y30513D01*
X-17009Y31096D01*
X-16891Y31680D01*
X-16596Y32097D01*
X-16123Y32346D01*
X-15710Y32430D01*
G01X-13139Y21637D02*
Y25574D01*
X-7627D01*
Y21637D01*
G01X10283Y-8190D02*
X10638Y-7940D01*
X11051Y-7774D01*
X11523D01*
X12055Y-8024D01*
X12468Y-8440D01*
X12763Y-8940D01*
X13000Y-9774D01*
X13059Y-10524D01*
X12941Y-11274D01*
X12763Y-11774D01*
X12409Y-12274D01*
X11996Y-12607D01*
X11583Y-12774D01*
X11169D01*
X10756Y-12607D01*
X10402Y-12357D01*
X10106Y-12024D01*
G01X7528Y-12774D02*
Y-7774D01*
X8236Y-8774D01*
G01Y-12774D02*
X6819D01*
G01X4595Y-8607D02*
X4241Y-8107D01*
X3827Y-7857D01*
X3355Y-7774D01*
X2765Y-7940D01*
X2351Y-8357D01*
X2233Y-8857D01*
X2292Y-9357D01*
X2528Y-9774D01*
X3709Y-10607D01*
X4241Y-11190D01*
X4595Y-12024D01*
X4713Y-12774D01*
X2233D01*
G01X20768Y11576D02*
X21122Y11826D01*
X21535Y11992D01*
X22007D01*
X22539Y11742D01*
X22952Y11326D01*
X23248Y10826D01*
X23484Y9992D01*
X23543Y9242D01*
X23425Y8492D01*
X23248Y7992D01*
X22893Y7492D01*
X22480Y7159D01*
X22067Y6992D01*
X21654D01*
X21240Y7159D01*
X20886Y7409D01*
X20591Y7742D01*
G01X19016Y7575D02*
X18602Y7159D01*
X18130Y6992D01*
X17658Y7159D01*
X17244Y7659D01*
X16949Y8409D01*
X16831Y9159D01*
Y10076D01*
X16949Y10826D01*
X17244Y11492D01*
X17599Y11826D01*
X18012Y11992D01*
X18485Y11826D01*
X18839Y11492D01*
X19075Y10992D01*
X19193Y10325D01*
X19075Y9742D01*
X18780Y9159D01*
X18425Y8825D01*
X18012Y8742D01*
X17540Y8909D01*
X17185Y9326D01*
X16831Y10076D01*
G01X7109Y12255D02*
X3172D01*
Y6743D01*
X7109D01*
G01X10259Y12255D02*
X14196D01*
Y6743D01*
X10259D01*
G01X24292Y22576D02*
X24646Y22826D01*
X25059Y22993D01*
X25531D01*
X26063Y22743D01*
X26476Y22326D01*
X26772Y21826D01*
X27008Y20993D01*
X27067Y20243D01*
X26949Y19493D01*
X26772Y18993D01*
X26417Y18493D01*
X26004Y18159D01*
X25591Y17993D01*
X25178D01*
X24764Y18159D01*
X24410Y18409D01*
X24115Y18743D01*
G01X21536Y17993D02*
Y22993D01*
X22244Y21993D01*
G01Y17993D02*
X20828D01*
G01X17481Y22993D02*
X17954Y22826D01*
X18308Y22409D01*
X18544Y21909D01*
X18721Y21243D01*
X18780Y20493D01*
X18721Y19743D01*
X18544Y19076D01*
X18308Y18576D01*
X17954Y18159D01*
X17481Y17993D01*
X17009Y18159D01*
X16655Y18576D01*
X16419Y19076D01*
X16241Y19743D01*
X16182Y20493D01*
X16241Y21243D01*
X16419Y21909D01*
X16655Y22409D01*
X17009Y22826D01*
X17481Y22993D01*
G01X7385Y22518D02*
X3448D01*
Y17006D01*
X7385D01*
G01X10535Y22518D02*
X14472D01*
Y17006D01*
X10535D01*
G01X-5902Y18487D02*
Y14550D01*
X-390D01*
Y18487D01*
G01X5787Y-426D02*
X1850D01*
Y-5938D01*
X5787D01*
G01X8937Y-426D02*
X12873D01*
Y-5938D01*
X8937D01*
G01X-6106Y5817D02*
X-2169D01*
Y11329D01*
X-6106D01*
G01X-5889Y-6689D02*
X-1952D01*
Y-1177D01*
X-5889D01*
G01X7019Y30912D02*
X7373Y31162D01*
X7786Y31328D01*
X8258D01*
X8790Y31078D01*
X9203Y30662D01*
X9498Y30162D01*
X9735Y29328D01*
X9794Y28578D01*
X9676Y27828D01*
X9498Y27328D01*
X9144Y26828D01*
X8731Y26495D01*
X8318Y26328D01*
X7904D01*
X7491Y26495D01*
X7137Y26745D01*
X6841Y27078D01*
G01X4263Y26328D02*
Y31328D01*
X4971Y30328D01*
G01Y26328D02*
X3554D01*
G01X208D02*
Y31328D01*
X917Y30328D01*
G01Y26328D02*
X-500D01*
G01X-5902Y21637D02*
Y25574D01*
X-390D01*
Y21637D01*
M02*
