G04 ================== begin FILE IDENTIFICATION RECORD ==================*
G04 Layout Name:  E:/workspace/flyer/pcb/pcb/flyer.brd*
G04 Film Name:    top*
G04 File Format:  Gerber RS274X*
G04 File Origin:  Cadence Allegro 16.5-P002*
G04 Origin Date:  Fri May 27 15:33:46 2016*
G04 *
G04 Layer:  VIA CLASS/TOP*
G04 Layer:  PIN/TOP*
G04 Layer:  ETCH/TOP*
G04 Layer:  BOARD GEOMETRY/OUTLINE*
G04 *
G04 Offset:    (0.0000 0.0000)*
G04 Mirror:    No*
G04 Mode:      Positive*
G04 Rotation:  0*
G04 FullContactRelief:  No*
G04 UndefLineWidth:     0.0000*
G04 ================== end FILE IDENTIFICATION RECORD ====================*
%FSLAX25Y25*MOIN*%
%IR0*IPPOS*OFA0.00000B0.00000*MIA0B0*SFA1.00000B1.00000*%
%ADD28R,.062988X.04724*%
%ADD29R,.04724X.062988*%
%AMMACRO14*
21,1,.029921,.0315,0.0,0.0,135.*%
%ADD14MACRO14*%
%ADD21R,.012X.06*%
%ADD22R,.06X.012*%
%ADD12C,.024*%
%ADD24R,.055118X.023618*%
%ADD32R,.068898X.03937*%
%ADD17C,.03937*%
%AMMACRO35*
21,1,.064961,.125984,0.0,0.0,45.*%
%ADD35MACRO35*%
%ADD31C,.047244*%
%ADD16C,.055118*%
%ADD10C,.354331*%
%ADD18R,.0315X.029921*%
%AMMACRO15*
21,1,.029921,.0315,0.0,0.0,45.*%
%ADD15MACRO15*%
%AMMACRO11*
21,1,.098425,.098425,0.0,0.0,45.*%
%ADD11MACRO11*%
%ADD20R,.029921X.0315*%
%ADD19R,.098425X.098425*%
%ADD25R,.008X.018*%
%ADD26R,.018X.008*%
%AMMACRO13*
21,1,.06,.06,0.0,0.0,45.*%
%ADD13MACRO13*%
%ADD34R,.043311X.08661*%
%ADD23R,.043X.055*%
%ADD30R,.02X.014*%
%ADD33R,.137799X.08661*%
%ADD27R,.059X.059*%
%ADD36C,.015748*%
%ADD37C,.008*%
%ADD38C,.031496*%
%ADD39C,.01*%
%ADD40C,.02*%
%ADD41C,.03*%
%ADD42C,.051181*%
%ADD43C,.049213*%
%ADD44C,.05*%
G75*
%LPD*%
G75*
G54D10*
X-232283Y-232283D03*
Y232283D03*
X232283Y-232283D03*
Y232283D03*
G54D20*
X-33629Y65379D03*
X-39613D03*
X-11522Y-59653D03*
X-17506D03*
X-11522Y-52778D03*
X-17506D03*
X-11565Y-45731D03*
X-17549D03*
X17740Y55445D03*
X10718Y55479D03*
X4734D03*
X28645Y-50838D03*
X34630D03*
X40199Y-30261D03*
X34215D03*
X34248Y-23458D03*
X40232D03*
X43302Y49943D03*
X23724Y55445D03*
X67369Y-62188D03*
X61384D03*
X55422Y-36041D03*
X61407D03*
X67663Y11558D03*
X60375Y11425D03*
X54391D03*
X54324Y18495D03*
X60308D03*
X69045Y42572D03*
X63061D03*
X55439D03*
X49455D03*
X49286Y49943D03*
X73648Y11558D03*
G54D11*
X-213583Y203622D03*
X-209586Y-200847D03*
X-199843Y-210591D03*
X-203839Y213366D03*
X203957Y-211240D03*
X203740Y213701D03*
X213701Y-201496D03*
X213484Y203957D03*
G54D30*
X61424Y-45222D03*
Y-47781D03*
Y-50341D03*
Y-52900D03*
X55125Y-45222D03*
Y-47781D03*
Y-50341D03*
Y-52900D03*
G54D12*
X-191170Y171951D03*
X-177558Y-173663D03*
X-182013Y-171044D03*
X-186551Y-173667D03*
X-178235Y184172D03*
X-175457Y188627D03*
X-178495Y193057D03*
X-157426Y-175643D03*
X-107044Y93048D03*
X-95873Y81876D03*
X-85671Y82187D03*
X-94089Y101200D03*
X-81693Y-88485D03*
X-81202Y-82835D03*
X-70975Y-72543D03*
X-71715Y-78611D03*
X-73498Y-37504D03*
X-60727Y-40907D03*
X-61786Y-20192D03*
X-59849Y-11448D03*
X-68096Y5831D03*
X-63765Y70289D03*
Y81828D03*
X-72874Y78541D03*
X-40400Y-38531D03*
X-34771Y-38773D03*
X-55769Y-46198D03*
X-40400Y-20079D03*
X-34771Y-20119D03*
X-49334Y-7659D03*
X-55850Y-28843D03*
X-46633Y7980D03*
X-41306Y8152D03*
X-57226Y41625D03*
X-52456Y24394D03*
X-47536Y24072D03*
X-49835Y95185D03*
X-38062Y89294D03*
X-35014Y83991D03*
X-22396Y-38126D03*
X-28411Y-38319D03*
X-22439Y-20293D03*
X-28411Y-20122D03*
X-15702Y-3933D03*
X-16019Y8773D03*
X-15632Y1331D03*
X-10383Y27832D03*
X-8563Y42742D03*
X-22860Y44303D03*
X-28296Y69823D03*
X-25761Y80136D03*
X-32572Y84300D03*
X18209Y-79853D03*
X2096Y-78744D03*
X10346Y-79243D03*
X696Y-32589D03*
Y-44549D03*
X8409Y-43110D03*
X8393Y-32763D03*
X18529Y-39844D03*
X15226Y-5323D03*
X16330Y2470D03*
X17431Y19762D03*
X17001Y14853D03*
X-3546Y27699D03*
X14913Y25781D03*
X-380Y50928D03*
X197Y57051D03*
X-5953Y78846D03*
X-2899Y76542D03*
X25385Y-79635D03*
X41425Y-41067D03*
X30754Y-58296D03*
X25034Y-32763D03*
Y-39733D03*
X26698Y-46015D03*
X24050Y-20174D03*
Y-26510D03*
X45251Y-23458D03*
X31796Y-14649D03*
X46104Y9129D03*
X36573Y45507D03*
X45943Y31355D03*
X38767Y38574D03*
X41345Y28476D03*
X34298Y35480D03*
X20064Y36437D03*
X26268Y49109D03*
X27180Y62646D03*
X31467Y63932D03*
X25810Y77585D03*
X31186Y82926D03*
X35446Y83378D03*
X70834Y-66189D03*
X49564Y-36041D03*
X66426Y-52323D03*
X55125Y-56418D03*
X66908Y6915D03*
X62081Y6844D03*
X54181Y22196D03*
X52332Y31167D03*
X72485Y41314D03*
X71496Y75149D03*
X95134Y-102029D03*
X73227Y-62188D03*
X79572Y-39524D03*
X84596Y28032D03*
X81394Y23263D03*
X82844Y40225D03*
X84862Y54111D03*
X78759Y54645D03*
X95534Y77856D03*
X81794Y92863D03*
X76462Y82008D03*
X100786Y-115552D03*
X106081Y-103868D03*
Y-88399D03*
X119678Y107470D03*
X124881Y120509D03*
X115343Y110971D03*
X117478Y99799D03*
X105048Y116388D03*
X108085Y114638D03*
X101940Y118460D03*
X135820Y113406D03*
X127349Y128880D03*
X177847Y-182190D03*
X175859Y-187092D03*
X171922Y187528D03*
X178144Y-191378D03*
X179337Y-160901D03*
X189690Y176834D03*
X194107Y179276D03*
X185319Y179348D03*
G54D21*
X-14285Y-11792D03*
X-12316D03*
X-10346D03*
X-8376D03*
Y33508D03*
X-10346D03*
X-12316D03*
X-14285D03*
X-6406Y-11792D03*
X-4436D03*
X-2466D03*
X-496D03*
X1474D03*
X3444D03*
X5415D03*
X7384D03*
X9354D03*
X11324D03*
X13294D03*
X15264D03*
Y33508D03*
X13294D03*
X11324D03*
X9354D03*
X7384D03*
X5415D03*
X3444D03*
X1474D03*
X-496D03*
X-2466D03*
X-4436D03*
X-6406D03*
G54D40*
G01X-69042Y-61678D02*
X-68011D01*
G01X-79011D02*
X-69042D01*
G01X61424Y-52900D02*
X61425D01*
Y-58773D01*
X61384Y-58813D01*
Y-62188D01*
G01X61424Y-47781D02*
X70878D01*
X70938Y-47842D01*
X74313D01*
G54D13*
X-193504Y192524D03*
X-189606Y181946D03*
X-185910Y-188700D03*
X-182013Y-178122D03*
X-175331Y-184803D03*
X-182925Y188627D03*
X193189Y-190989D03*
X182610Y-187092D03*
X189291Y-180410D03*
X193587Y194291D03*
X189690Y183712D03*
X183009Y190394D03*
G54D31*
X54380Y-981D03*
X73592D03*
G54D22*
X-22161Y17753D03*
Y15783D03*
Y13813D03*
Y11843D03*
Y9873D03*
Y7903D03*
Y5933D03*
Y3963D03*
Y1993D03*
Y23D03*
Y-1947D03*
Y-3917D03*
Y25633D03*
Y23663D03*
Y21693D03*
Y19723D03*
X23139Y-3917D03*
Y-1947D03*
Y23D03*
Y1993D03*
Y3963D03*
Y5933D03*
Y7903D03*
Y9873D03*
Y11843D03*
Y13813D03*
Y15783D03*
Y17753D03*
Y19723D03*
Y21693D03*
Y23663D03*
Y25633D03*
G54D41*
G01X-49835Y95185D02*
X-100194D01*
X-105842Y100833D01*
X-114064D01*
X-163787Y150556D01*
Y162152D01*
X-166527Y164892D01*
G01X-156761Y-156073D02*
X-154233Y-153545D01*
X-153867D01*
X-147234Y-146913D01*
G01X-68776Y-88756D02*
X-141794Y-161773D01*
X-151061D01*
X-152530Y-160305D01*
G01X-87426Y26541D02*
X-89378D01*
X-95854Y20065D01*
Y-61678D01*
G01X-79011D02*
X-95854D01*
G01D02*
X-68776Y-88756D01*
G01X-87426Y26541D02*
X-84550D01*
G01X-68776Y-88756D02*
X-28755D01*
G01X-75480Y26579D02*
X-80637D01*
X-80676Y26541D01*
X-84550D01*
G01X-38062Y89294D02*
X78026D01*
X81578Y92847D01*
G01X-39597Y75092D02*
X-49969D01*
G01X-39597D02*
X-32583D01*
X-32572Y75102D01*
G01X-28755Y-88756D02*
X-4631D01*
G01X-28792Y-81008D02*
Y-88719D01*
X-28755Y-88756D01*
G01X-17506Y-59653D02*
Y-52778D01*
G01Y-59653D02*
X-17490Y-59669D01*
Y-63810D01*
X-28792Y-75112D01*
Y-81008D01*
G01X-17506Y-52778D02*
Y-45774D01*
X-17549Y-45731D01*
G01X-21413Y75106D02*
Y64495D01*
X-21411Y64493D01*
G01X-13537D02*
X-2789D01*
G01X-13537D02*
Y69565D01*
X-11176Y71926D01*
Y75106D01*
G01X-32572Y75102D02*
X-21417D01*
X-21413Y75106D01*
G01X-4631Y-88756D02*
X42057D01*
G01X-4631Y-70739D02*
Y-88756D01*
G01X2096Y-67274D02*
X2038Y-67215D01*
X-1108D01*
X-4631Y-70739D01*
G01X14913Y25781D02*
X19756Y30624D01*
X37586D01*
X49455Y42494D01*
Y42572D01*
G01X31186Y71601D02*
X27611D01*
X27574Y71564D01*
X26030D01*
X18959Y64493D01*
X9022D01*
G01X34630Y-50838D02*
X38474D01*
X42143Y-54507D01*
Y-88670D01*
X42057Y-88756D01*
G01D02*
X48932D01*
G01X40199Y-30261D02*
X88864D01*
X89198Y-30595D01*
G01X43279Y59164D02*
Y53541D01*
X43302Y53518D01*
Y49943D01*
G01X43279Y59164D02*
X48345D01*
X49517Y57992D01*
X62500D01*
G01X53504Y82008D02*
X53548Y81963D01*
Y75828D01*
X49286Y71566D01*
X42036D01*
G01X31186Y71601D02*
X36852D01*
X36887Y71566D01*
X42036D01*
G01X48779Y-56328D02*
Y-88602D01*
X48932Y-88756D01*
G01D02*
X61465D01*
G01D02*
X84729D01*
X89198Y-84287D01*
G01X61384Y-62188D02*
Y-88675D01*
X61465Y-88756D01*
G01X60308Y18495D02*
X88755D01*
X89198Y18052D01*
G01X55439Y42572D02*
X63061D01*
G01X49286Y49943D02*
Y46316D01*
X49455Y46148D01*
Y42572D01*
G01X89198Y50276D02*
X88864Y49943D01*
X49286D01*
G01X106081Y-88399D02*
X101969Y-84287D01*
X89198D01*
G01D02*
Y-47622D01*
G01X74313Y-47842D02*
X88977D01*
X89198Y-47622D01*
G01Y-30595D02*
Y-47622D01*
G01Y18052D02*
Y-30595D01*
G01Y50276D02*
Y18052D01*
G01X95534Y77856D02*
X89198Y71520D01*
Y50276D01*
G01X95534Y77856D02*
X117478Y99799D01*
G01X81578Y92847D02*
Y92678D01*
G01X106081Y-103868D02*
X110550Y-108337D01*
X126552D01*
X163785Y-145569D01*
Y-153110D01*
X161333Y-155561D01*
X161328D01*
G01X149444Y-152218D02*
X151972Y-154746D01*
X152050D01*
X157097Y-159793D01*
G01X166624Y170147D02*
X170178Y173701D01*
X179105D01*
X186110Y166696D01*
Y163696D01*
X135820Y113406D01*
G01X170856Y165916D02*
X168328Y163388D01*
Y163152D01*
X163887Y158711D01*
G54D23*
X-13537Y64493D03*
X-21411D03*
G54D32*
X52332Y35903D03*
X82844D03*
G54D14*
X-164658Y-174413D03*
X-160426Y-178644D03*
X-143002Y-151144D03*
X-147234Y-146913D03*
X-156761Y-156073D03*
X-152530Y-160305D03*
X159656Y162943D03*
X163887Y158711D03*
X170856Y165916D03*
X166624Y170147D03*
X168672Y184242D03*
X172903Y180010D03*
G54D42*
G01X-63765Y75076D02*
Y70289D01*
G01Y75076D02*
X-69409D01*
X-72874Y78541D01*
G01X-63765Y75076D02*
Y81828D01*
G54D33*
X62500Y57992D03*
G54D15*
X-186780Y169918D03*
X-182548Y174149D03*
X-166527Y164892D03*
X-151081Y166502D03*
X-155312Y162271D03*
X-162296Y169124D03*
X149444Y-152218D03*
X178357Y-168454D03*
X153676Y-147987D03*
X157097Y-159793D03*
X161328Y-155561D03*
X182588Y-164223D03*
G54D24*
X-11176Y75106D03*
Y78846D03*
Y82587D03*
X-21413D03*
Y75106D03*
G54D43*
G01X189690Y183693D02*
Y176834D01*
G01Y183712D02*
X189683D01*
X185319Y179348D01*
G01X189690Y183693D02*
X194107Y179276D01*
G01X189690Y183712D02*
Y183693D01*
G54D34*
X71496Y82008D03*
X62500D03*
X53504D03*
G54D25*
X11133Y-46485D03*
X12707D03*
X14282D03*
X15857D03*
X17432D03*
Y-58296D03*
X15857D03*
X14282D03*
X12707D03*
X11133D03*
X19007Y-46485D03*
Y-58296D03*
G54D16*
X-137795Y-137795D03*
Y137795D03*
X-58792Y-81008D03*
X-65480Y26579D03*
X-75480D03*
X-65480Y36579D03*
X-75480D03*
X-65480Y46579D03*
X-75480D03*
X-65480Y56579D03*
X-75480D03*
X-48792Y-81008D03*
X-38792D03*
X-28792D03*
X137795Y-137795D03*
Y137795D03*
G54D44*
G01X-49985Y87666D02*
X-115166D01*
X-217500Y190000D01*
Y199705D01*
X-213583Y203622D01*
G01X-199843Y-210591D02*
Y-212657D01*
X-196307Y-216193D01*
X-188693D01*
X-67500Y-95000D01*
X120005D01*
X121252Y-93752D01*
G01X-185910Y-188700D02*
X-192456Y-195246D01*
X-203985D01*
X-209586Y-200847D01*
G01X-193504Y192524D02*
X-198537Y197558D01*
Y208117D01*
X-203786Y213366D01*
X-203839D01*
G01X-182013Y-178122D02*
X-186468Y-173667D01*
X-186551D01*
G01X-182013Y-178122D02*
Y-171044D01*
G01Y-178122D02*
X-177558Y-173667D01*
Y-173663D01*
G01X-182925Y188627D02*
X-178495Y193057D01*
G01X-182925Y188627D02*
X-175457D01*
G01X-182925D02*
X-178470Y184172D01*
X-178235D01*
G01X-49985Y75076D02*
Y87666D01*
G01X-49969Y75092D02*
X-49985Y75076D01*
G01Y87666D02*
X-42651Y95000D01*
X67500D01*
X104544Y132044D01*
G01X62500Y57992D02*
Y82008D01*
G01X71496D02*
Y75149D01*
G01Y82008D02*
X76462D01*
G01X121252Y-93752D02*
X95000Y-67500D01*
Y67320D01*
X99998Y72318D01*
Y72391D01*
X126724Y99117D01*
Y109602D01*
X104544Y131781D01*
Y132044D01*
G01X121252Y-93752D02*
X217500Y-190000D01*
Y-197500D01*
X213701Y-201299D01*
Y-201496D01*
G01X104544Y132044D02*
X190000Y217500D01*
X200000D01*
X203740Y213760D01*
Y213701D01*
G01X182431Y-187092D02*
X178144Y-191378D01*
G01X182431Y-187092D02*
X175859D01*
G01X182610D02*
Y-186952D01*
X177847Y-182190D01*
G01X193189Y-190989D02*
X198356Y-196156D01*
Y-205639D01*
X203957Y-211240D01*
G01X182610Y-187092D02*
X182431D01*
G01X213484Y203957D02*
X207859Y198332D01*
X197648D01*
X193607Y194291D01*
X193587D01*
G54D26*
X9164Y-56328D03*
Y-54753D03*
Y-53178D03*
Y-51604D03*
Y-50029D03*
Y-48454D03*
X20975D03*
Y-50029D03*
Y-51604D03*
Y-53178D03*
Y-54753D03*
Y-56328D03*
G54D35*
X81578Y92847D03*
X99618Y110887D03*
G54D17*
G01X-35014Y83991D02*
X-37765D01*
X-39597Y82158D01*
Y81076D01*
G01X-32572Y81087D02*
Y84300D01*
G01X1602Y76542D02*
X-2899D01*
G01X31467Y59164D02*
Y63932D01*
G01Y59164D02*
X30663D01*
X27180Y62646D01*
G01X31186Y77585D02*
Y82926D01*
G01Y77585D02*
X25810D01*
G01X42036Y83378D02*
X35446D01*
G01X31186Y82926D02*
X34994D01*
X35446Y83378D01*
G01X67369Y-62188D02*
X73227D01*
G01X67369D02*
Y-62723D01*
X70834Y-66189D01*
G01X99618Y110887D02*
X104333D01*
X108085Y114638D01*
G01X99618Y110958D02*
Y116138D01*
X101940Y118460D01*
G01X99618Y110958D02*
X105048Y116388D01*
G01X99618Y110887D02*
Y110958D01*
X-90672Y-39669D03*
Y-8173D03*
G54D36*
G01X61424Y-50341D02*
X64444D01*
X66426Y-52323D01*
G01X55125Y-52900D02*
Y-56418D01*
G54D27*
X-2789Y64493D03*
X9022D03*
G54D18*
X-68161Y-40923D03*
Y-46907D03*
X-78635Y-37475D03*
Y-43459D03*
X-60759Y-46198D03*
Y-52182D03*
X-78796Y-20192D03*
Y-14207D03*
X-69877Y-11404D03*
X-59546Y-2424D03*
Y3560D03*
X-69877Y-5420D03*
X-84484Y40614D03*
X-84550Y32525D03*
Y26541D03*
X-84484Y46598D03*
X-39597Y81076D03*
Y75092D03*
X-32572Y81087D03*
Y75102D03*
X2096Y-73258D03*
Y-67274D03*
X18209Y-73602D03*
Y-67618D03*
X10346Y-73473D03*
Y-67489D03*
X8993Y82483D03*
Y76499D03*
X1602Y76542D03*
Y82526D03*
X18618D03*
Y76542D03*
X25385Y-73258D03*
Y-67274D03*
X31186Y71601D03*
Y77585D03*
X48779Y-50344D03*
Y-56328D03*
X47425Y18524D03*
Y12540D03*
X74313Y-41858D03*
Y-47842D03*
G54D37*
G01X-11522Y-52778D02*
X-7489D01*
X-1000Y-46289D01*
Y-46246D01*
X696Y-44549D01*
G01X8409Y-43110D02*
X8399Y-43120D01*
X7110D01*
X-9422Y-59653D01*
G01X14282Y-46485D02*
Y-44385D01*
X14275Y-44378D01*
Y-40145D01*
X12255Y-38126D01*
X-979D01*
X-8585Y-45731D01*
X-11565D01*
G01X2096Y-67274D02*
Y-64578D01*
X2118Y-64556D01*
Y-63606D01*
X5341Y-60383D01*
X11764D01*
X12707Y-59441D01*
Y-58296D01*
G01X18209Y-67618D02*
Y-63005D01*
X15857Y-60652D01*
Y-58296D01*
G01X696Y-44549D02*
X2394Y-42852D01*
X2437D01*
X5531Y-39758D01*
X11181D01*
X12707Y-41285D01*
Y-46485D01*
G01X11133D02*
X11138Y-46480D01*
Y-44442D01*
X9806Y-43110D01*
X8409D01*
G01X25385Y-67274D02*
Y-64578D01*
X25382Y-64575D01*
Y-62446D01*
X23620Y-60684D01*
X18532D01*
X17432Y-59584D01*
Y-58296D01*
G54D19*
X-63765Y75076D03*
X-49985D03*
G54D28*
X42036Y71566D03*
Y83378D03*
G54D38*
G01X-11176Y78846D02*
X-5953D01*
G54D29*
X31467Y59164D03*
X43279D03*
G54D39*
G01X-175331Y-184803D02*
X-172291Y-181763D01*
X-172008D01*
X-164658Y-174413D01*
G01X-182548Y174149D02*
X-180516Y172116D01*
Y160231D01*
X-113332Y93048D01*
X-107044D01*
G01X-189606Y181946D02*
X-186566Y178905D01*
Y178166D01*
X-182548Y174149D01*
G01X-186780Y169918D02*
X-188813Y171951D01*
X-191170D01*
G01X-81202Y-82835D02*
X-129735Y-131368D01*
X-141573D01*
X-162625Y-152420D01*
Y-172380D01*
X-164658Y-174413D01*
G01X-160426Y-178644D02*
X-157426Y-175643D01*
G01X-81693Y-88485D02*
X-126943Y-133735D01*
Y-135084D01*
X-140969Y-149110D01*
Y-149111D01*
X-143002Y-151144D01*
G01X-94089Y101200D02*
Y109511D01*
X-149047Y164470D01*
X-149048D01*
X-151081Y166502D01*
G01X-155312Y162271D02*
X-157345Y164304D01*
X-157476D01*
X-162296Y169124D01*
G01X-22161Y13813D02*
X-76182D01*
X-86723Y3272D01*
Y-33517D01*
X-82765Y-37475D01*
X-78635D01*
G01X-84484Y40614D02*
X-87059D01*
X-90140Y37533D01*
Y29255D01*
X-87426Y26541D01*
G01X-2466Y33508D02*
Y44250D01*
X-9852Y51636D01*
X-47962D01*
X-59727Y63401D01*
X-77398D01*
X-95873Y81876D01*
G01X-70975Y-72543D02*
X-40400Y-41968D01*
Y-38531D01*
G01X-71715Y-78611D02*
X-34771Y-41667D01*
Y-38773D01*
G01X-69042Y-61678D02*
X-68161Y-60796D01*
Y-46907D01*
G01X-68011Y-61678D02*
X-65266D01*
X-60759Y-57171D01*
Y-52182D01*
G01X-78635Y-43459D02*
Y-61302D01*
X-79011Y-61678D01*
G01X-60759Y-46198D02*
X-55769D01*
G01X-73498Y-37504D02*
X-76031D01*
X-76059Y-37475D01*
X-78635D01*
G01X-60727Y-40907D02*
X-71770Y-29865D01*
X-78473D01*
X-84299Y-24039D01*
Y2774D01*
X-75230Y11843D01*
X-22161D01*
G01X-68161Y-40923D02*
X-68145Y-40907D01*
X-60727D01*
G01X-4436Y-11792D02*
Y-27317D01*
X-9852Y-32733D01*
X-59374D01*
X-61786Y-30321D01*
Y-20192D01*
G01X-78796D02*
X-61786D01*
G01X-59849Y-11448D02*
X-66958D01*
X-67002Y-11404D01*
X-69877D01*
G01X-78796Y-14207D02*
Y-4868D01*
X-68096Y5831D01*
G01X-69877Y-5420D02*
Y-2624D01*
X-69300Y-2046D01*
Y-1903D01*
X-68096Y-700D01*
Y5831D01*
G01D02*
X-65825Y3560D01*
X-59546D01*
G01X-65480Y26579D02*
Y20574D01*
X-60689Y15783D01*
X-22161D01*
G01X-84550Y32525D02*
X-79533D01*
X-75480Y36579D01*
G01X-84484Y46598D02*
X-79255D01*
X-79235Y46579D01*
X-75480D01*
G01X-496Y33508D02*
Y45760D01*
X-8821Y54085D01*
X-45624D01*
X-57870Y66332D01*
X-69815D01*
X-85671Y82187D01*
G01X-22161Y17753D02*
X-26161D01*
X-26222Y17691D01*
X-55635D01*
X-60255Y22310D01*
Y49166D01*
X-62854Y51765D01*
X-70666D01*
X-75480Y56579D01*
G01X-22396Y-38126D02*
Y-42486D01*
X-48846Y-68937D01*
Y-69063D01*
X-48792Y-69118D01*
Y-81008D01*
G01X-58792D02*
Y-72348D01*
X-28411Y-41968D01*
Y-38319D01*
G01X-55769Y-46198D02*
X-53269D01*
X-42103Y-35032D01*
X-8517D01*
X-2466Y-28981D01*
Y-11792D01*
G01X-40400Y-20079D02*
Y-10798D01*
X-46633Y-4564D01*
Y7980D01*
G01X-34771Y-20119D02*
Y-9251D01*
X-41306Y-2716D01*
Y8152D01*
G01X-49334Y-7659D02*
Y-10159D01*
X-49190Y-10303D01*
Y-17479D01*
X-42960Y-23709D01*
X-29521D01*
X-29511Y-23720D01*
X-12019D01*
X-10346Y-22047D01*
Y-11792D01*
G01X-55850Y-28843D02*
X-10559D01*
X-6406Y-24689D01*
Y-11792D01*
G01X-59849Y-11448D02*
X-45524Y-25772D01*
X-32647D01*
X-32604Y-25729D01*
X-10293D01*
X-8376Y-23812D01*
Y-11792D01*
G01X-59546Y-2424D02*
X-54690D01*
X-54679Y-2434D01*
X-54559D01*
X-49334Y-7659D01*
G01X-57226Y41625D02*
Y23793D01*
X-53156Y19723D01*
X-22161D01*
G01X-4436Y33508D02*
Y43653D01*
X-10196Y49413D01*
X-46387D01*
X-52456Y43343D01*
Y24394D01*
G01X-8376Y33508D02*
Y37011D01*
X-18961Y47597D01*
X-43367D01*
X-43443Y47673D01*
X-47536Y43580D01*
Y24072D01*
G01X-39613Y65379D02*
Y72280D01*
X-39597Y72296D01*
Y75092D01*
G01X-9422Y-59653D02*
X-11522D01*
G01X-14285Y-11792D02*
Y-15892D01*
X-14407Y-16014D01*
Y-16233D01*
X-18467Y-20293D01*
X-22439D01*
G01X-28411Y-20122D02*
Y-1928D01*
X-26461Y23D01*
X-22161D01*
G01X-15702Y-3933D02*
X-22145D01*
X-22161Y-3917D01*
G01X-16019Y8773D02*
Y27182D01*
X-14285Y28915D01*
Y33508D01*
G01X-15632Y1331D02*
X-18910Y-1947D01*
X-22161D01*
G01X-10383Y27832D02*
Y33471D01*
X-10346Y33508D01*
G01X-6406D02*
Y40584D01*
X-8563Y42742D01*
G01X-22860Y44303D02*
X-18811D01*
X-12316Y37808D01*
Y33508D01*
G01X-33629Y65379D02*
Y66993D01*
X-30798Y69823D01*
X-28296D01*
G01X-25761Y80136D02*
X-23864D01*
X-21413Y82587D01*
G01X-11176D02*
X-1033D01*
X-973Y82526D01*
X1602D01*
G01X-4631Y-70739D02*
Y-58750D01*
X5665Y-48454D01*
X9164D01*
G01X10346Y-67489D02*
Y-64573D01*
X14282Y-60637D01*
Y-58296D01*
G01X2096Y-73258D02*
Y-78744D01*
G01X10346Y-73473D02*
Y-79243D01*
G01X18209Y-73602D02*
Y-79853D01*
G01X55125Y-45222D02*
X53685D01*
X52430Y-43968D01*
X34489D01*
X26852Y-36331D01*
X4439D01*
X696Y-32589D01*
G01X17432Y-46485D02*
Y-40941D01*
X18529Y-39844D01*
G01X9354Y-11792D02*
Y-16092D01*
X13436Y-20174D01*
X24050D01*
G01X3444Y-11792D02*
Y-29841D01*
X696Y-32589D01*
G01X25034Y-32763D02*
X8393D01*
G01X5415Y-11792D02*
Y-29784D01*
X8393Y-32763D01*
G01X34248Y-23458D02*
X11607D01*
X11593Y-23473D01*
X7384Y-19265D01*
Y-11792D01*
G01X15226Y-5323D02*
Y-11754D01*
X15264Y-11792D01*
G01X31796Y-14649D02*
X29846Y-16600D01*
X15084D01*
X14377Y-15892D01*
X14208D01*
X13294Y-14978D01*
Y-11792D01*
G01X16330Y2470D02*
Y-1408D01*
X18839Y-3917D01*
X23139D01*
G01X17001Y14853D02*
X19901Y17753D01*
X23139D01*
G01X36573Y45507D02*
X8226D01*
X3444Y40726D01*
Y33508D01*
G01X38767Y38574D02*
X34728Y42613D01*
X8324D01*
X5415Y39704D01*
Y33508D01*
G01X34298Y35480D02*
X29422Y40357D01*
X9119D01*
X7384Y38623D01*
Y33508D01*
G01X26268Y49109D02*
X25434Y48275D01*
X7259D01*
X1474Y42491D01*
Y33508D01*
G01X-3546Y27699D02*
X9815D01*
X11324Y29208D01*
Y33508D01*
G01X17431Y19762D02*
X23100D01*
X23139Y19723D01*
G01X20064Y36437D02*
X18053Y38448D01*
X14002D01*
X13294Y37741D01*
Y33508D01*
G01X10718Y55479D02*
X14911D01*
X14944Y55445D01*
X17740D01*
G01X-380Y50928D02*
X9042D01*
X10718Y52604D01*
Y55479D01*
G01X4734D02*
X1769D01*
X197Y57051D01*
G01X8993Y76499D02*
Y68472D01*
X9022Y68443D01*
Y64493D01*
G01X8993Y82483D02*
X15700D01*
X15743Y82526D01*
X18618D01*
G01X1602D02*
X6075D01*
X6118Y82483D01*
X8993D01*
G01Y76499D02*
X16000D01*
X16043Y76542D01*
X18618D01*
G01X25385Y-73258D02*
Y-79635D01*
G01X24050Y-26510D02*
X32454Y-34914D01*
X35272D01*
X41425Y-41067D01*
G01X19007Y-58296D02*
X30754D01*
G01X55125Y-47781D02*
X53031D01*
X51056Y-45806D01*
X31107D01*
X25034Y-39733D01*
G01X34630Y-50838D02*
Y-53713D01*
X33402Y-54940D01*
X27502D01*
X26114Y-56328D01*
X20975D01*
G01X28645Y-50838D02*
Y-47963D01*
X26698Y-46015D01*
G01X20975Y-48454D02*
X24259D01*
X26698Y-46015D01*
G01X34248Y-23458D02*
Y-27353D01*
X34215Y-27386D01*
Y-30261D01*
G01X40232Y-23458D02*
X45251D01*
G01X73592Y-981D02*
X68873Y-5700D01*
X48095D01*
X38432Y3963D01*
X23139D01*
G01X54380Y-981D02*
X47445D01*
X40531Y5933D01*
X23139D01*
G01Y7903D02*
X27439D01*
X27470Y7873D01*
X34739D01*
X45390Y18524D01*
X47425D01*
G01X81394Y23263D02*
X78993Y25665D01*
X44157D01*
X41345Y28476D01*
G01X23724Y55445D02*
X27135D01*
X30604Y51977D01*
X36306D01*
X45710Y42572D01*
X49455D01*
G01X61407Y-36041D02*
Y-43205D01*
X61425Y-43222D01*
Y-45222D01*
X61424D01*
G01X48779Y-50344D02*
X52822Y-50344D01*
X52825Y-50341D01*
X55125D01*
G01X55422Y-36041D02*
X49564D01*
G01X54391Y11425D02*
Y2392D01*
X54380Y2381D01*
Y-981D01*
G01X54324Y18495D02*
X50330D01*
X50300Y18524D01*
X47425D01*
G01X54181Y22196D02*
Y18638D01*
X54324Y18495D01*
G01X67663Y11558D02*
Y7670D01*
X66908Y6915D01*
G01X60375Y11425D02*
Y8550D01*
X62081Y6844D01*
G01X47425Y12540D02*
Y10450D01*
X46104Y9129D01*
G01X84596Y28032D02*
X49266D01*
X45943Y31355D01*
G01X52332Y35903D02*
Y31167D01*
G01X69045Y42572D02*
X71226D01*
X72485Y41314D01*
G01X178357Y-168454D02*
X175817Y-170994D01*
X149559D01*
X95134Y-116569D01*
Y-102029D01*
G01X74313Y-41858D02*
X77237D01*
X79572Y-39524D01*
G01X73648Y11558D02*
Y2437D01*
X73592Y2381D01*
Y-981D01*
G01X82844Y35903D02*
Y40225D01*
G01X84862Y54111D02*
Y72654D01*
X119678Y107470D01*
G01X78759Y54645D02*
Y74388D01*
X115343Y110971D01*
G01X100786Y-115552D02*
X126866D01*
X151643Y-140328D01*
Y-145954D01*
X153676Y-147987D01*
G01X124881Y120509D02*
X135305D01*
X150226Y135430D01*
Y153513D01*
X159656Y162943D01*
G01X127349Y128880D02*
Y137417D01*
X167684Y177753D01*
X170645D01*
X172903Y180010D01*
G01X183009Y190394D02*
X179968Y187353D01*
Y187075D01*
X172903Y180010D01*
G01X168672Y184242D02*
X170705Y186275D01*
Y186311D01*
X171922Y187528D01*
G01X178357Y-168454D02*
X180390Y-170487D01*
Y-171509D01*
X189291Y-180410D01*
G01X182588Y-164223D02*
X180555Y-162190D01*
Y-162119D01*
X179337Y-160901D01*
M02*
