G04 ================== begin FILE IDENTIFICATION RECORD ==================*
G04 Layout Name:  E:/workspace/flyer/pcb/pcb/v3.0/flyer.brd*
G04 Film Name:    BOTTOM*
G04 File Format:  Gerber RS274X*
G04 File Origin:  Cadence Allegro 16.5-P002*
G04 Origin Date:  Thu Jun 23 16:53:32 2016*
G04 *
G04 Layer:  VIA CLASS/BOTTOM*
G04 Layer:  PIN/BOTTOM*
G04 Layer:  ETCH/BOTTOM*
G04 Layer:  BOARD GEOMETRY/OUTLINE*
G04 *
G04 Offset:    (0.00 0.00)*
G04 Mirror:    No*
G04 Mode:      Positive*
G04 Rotation:  0*
G04 FullContactRelief:  No*
G04 UndefLineWidth:     10.00*
G04 ================== end FILE IDENTIFICATION RECORD ====================*
%FSLAX35Y35*MOIN*%
%IR0*IPPOS*OFA0.00000B0.00000*MIA0B0*SFA1.00000B1.00000*%
%AMMACRO13*
21,1,.038,.031,0.0,0.0,135.*%
%ADD13MACRO13*%
%ADD17C,.034*%
%ADD14C,.056*%
%ADD12C,.02362*%
%ADD15R,.031X.038*%
%AMMACRO11*
21,1,.038,.031,0.0,0.0,45.*%
%ADD11MACRO11*%
%ADD16R,.038X.031*%
%ADD10C,.345*%
%ADD18C,.01*%
%ADD19C,.02*%
%ADD20C,.08004*%
%ADD21C,.05804*%
G75*
%LPD*%
G75*
G36*
G01X-176960Y-158714D02*
G02X-177238Y-158031I4J400D01*
G01X-110927Y-91720D01*
G03Y91720I-91720J91720D01*
G01X-177238Y158031D01*
G02X-176960Y158714I282J283D01*
G03X-158714Y176960I-205J18451D01*
G02X-158031Y177238I400J-4D01*
G01X-91720Y110927D01*
G03X91720I91720J91720D01*
G01X158031Y177238D01*
G02X158714Y176960I283J-282D01*
G03X176960Y158714I18451J205D01*
G02X177238Y158031I-4J-400D01*
G01X110927Y91720D01*
G03Y-91720I91720J-91720D01*
G01X177238Y-158031D01*
G02X176960Y-158714I-282J-283D01*
G03X158714Y-176960I205J-18451D01*
G02X158031Y-177238I-400J4D01*
G01X91720Y-110927D01*
G03X-91720I-91720J-91720D01*
G01X-158031Y-177238D01*
G02X-158714Y-176960I-283J282D01*
G03X-176960Y-158714I-18451J-205D01*
G37*
%LPC*%
G75*
G36*
G01X-57902Y-50250D02*
G02X-54899I1502J1850D01*
G01Y-62750D01*
G02X-57902I-1502J-1850D01*
G01Y-50250D01*
G37*
G36*
G01X126702Y-127650D02*
G02X123699I-1502J-1850D01*
G01Y-124558D01*
G03X123016Y-124275I-400J0D01*
G01X118953Y-128339D01*
X115061Y-124447D01*
X116193Y-123316D01*
X115542Y-122665D01*
Y-122575D01*
X110229Y-117262D01*
X109098Y-118394D01*
X105206Y-114502D01*
X114047Y-105661D01*
X117939Y-109553D01*
X117534Y-109957D01*
G03X117678Y-110615I283J-283D01*
G02X114615Y-113678I-828J-2235D01*
G03X113957Y-113534I-375J-139D01*
G01X112352Y-115139D01*
X118361Y-121148D01*
X123902Y-115606D01*
X127794Y-119498D01*
X126702Y-120590D01*
Y-127650D01*
G37*
G36*
G01X-119128Y-128652D02*
X-119122Y-128742D01*
G02X-121342Y-126522I-2378J-158D01*
G01X-121252Y-126528D01*
X-120157Y-125434D01*
X-125739Y-119853D01*
X-121847Y-115961D01*
X-120716Y-117093D01*
X-120222Y-116598D01*
X-112612D01*
X-109752Y-113739D01*
X-112084Y-111407D01*
X-112528Y-111852D01*
X-112522Y-111942D01*
G02X-114742Y-109722I-2378J-158D01*
G01X-114652Y-109728D01*
X-114207Y-109284D01*
X-115339Y-108153D01*
X-111447Y-104261D01*
X-102606Y-113102D01*
X-106498Y-116994D01*
X-107629Y-115862D01*
X-111368Y-119601D01*
X-117242D01*
G03X-117525Y-120284I0J-400D01*
G01X-113006Y-124802D01*
X-116898Y-128694D01*
X-118029Y-127562D01*
X-118680Y-128214D01*
X-118690D01*
X-119128Y-128652D01*
G37*
G36*
G01X118394Y110398D02*
X114502Y106506D01*
X105661Y115347D01*
X109553Y119239D01*
X109981Y118810D01*
G03X110643Y118964I283J283D01*
G02X113664Y115943I2257J-764D01*
G03X113510Y115281I129J-379D01*
G01X115139Y113652D01*
X117598Y116112D01*
Y124410D01*
X116461Y125547D01*
X120353Y129439D01*
X125257Y124534D01*
G03X125922Y124700I283J283D01*
G02X128900Y121722I2278J-700D01*
G03X128734Y121057I117J-382D01*
G01X129194Y120598D01*
X125302Y116706D01*
X121284Y120725D01*
G03X120602Y120442I-282J-283D01*
G01Y114868D01*
X117262Y111529D01*
X118394Y110398D01*
G37*
G36*
G01X-109961Y118047D02*
X-118802Y109206D01*
X-122694Y113098D01*
X-121562Y114229D01*
X-122944Y115611D01*
Y121399D01*
G03X-123627Y121682I-400J0D01*
G01X-128302Y117006D01*
X-132194Y120898D01*
X-131062Y122029D01*
X-131861Y122827D01*
X-131951Y122822D01*
G02X-129723Y125034I-149J2378D01*
G01X-129729Y124943D01*
X-128939Y124152D01*
X-123353Y129739D01*
X-119445Y125832D01*
G03X-119241Y125290I360J-174D01*
G02X-119126Y125216I-156J-369D01*
G03X-118502Y125322I271J294D01*
G02X-114830Y122407I2102J-1122D01*
G01X-114898Y122347D01*
Y121858D01*
G03X-114216Y121575I400J0D01*
G01X-113853Y121939D01*
X-109961Y118047D01*
G37*
G36*
G01X58242Y-54978D02*
X58152Y-54972D01*
X55322Y-57802D01*
X51950D01*
G02Y-54798I-1850J1502D01*
G01X54078D01*
X56028Y-52848D01*
X56022Y-52758D01*
G02X58242Y-54978I2378J158D01*
G37*
G36*
G01X-13232Y-41304D02*
Y-39750D01*
G02X-10161Y-39693I1502J1850D01*
G01X-10230Y-39753D01*
Y-40060D01*
X-9391Y-40898D01*
X-2881D01*
G02Y-43902I1850J-1502D01*
G01X-10635D01*
X-13232Y-41304D01*
G37*
G36*
G01X7150Y-33102D02*
X-2419D01*
G02Y-30098I-1850J1502D01*
G01X7150D01*
G02Y-33102I1850J-1502D01*
G37*
G36*
G01X-19448Y-13586D02*
Y-14002D01*
X-24952D01*
Y-1498D01*
X-19448D01*
Y-8142D01*
G03X-18965Y-8533I400J0D01*
G02Y-13195I496J-2331D01*
G03X-19448Y-13586I-83J-391D01*
G37*
G36*
G01X2522Y-10742D02*
X2528Y-10652D01*
X-2922Y-5202D01*
X-3848D01*
Y-6802D01*
X-9352D01*
Y1098D01*
X-10548D01*
Y-6827D01*
G03X-10692Y-7485I139J-375D01*
G01X-9748Y-8428D01*
X-9658Y-8422D01*
G02X-11878Y-10642I158J-2378D01*
G01X-11872Y-10552D01*
X-14802Y-7622D01*
Y-6802D01*
X-16052D01*
Y5702D01*
X-10548D01*
Y4102D01*
X-9352D01*
Y5702D01*
X-3848D01*
Y-2198D01*
X-1678D01*
X4652Y-8528D01*
X4742Y-8522D01*
G02X5455Y-8583I156J-2378D01*
G03X5948Y-8194I93J389D01*
G01Y-1498D01*
X11452D01*
Y-14002D01*
X5948D01*
Y-13606D01*
G03X5455Y-13217I-400J0D01*
G02X2522Y-10742I-555J2317D01*
G37*
G36*
G01X10802Y5252D02*
Y-252D01*
X-1702D01*
Y5252D01*
X5898D01*
Y6305D01*
X5869Y6354D01*
G02X5583Y8155I2031J1246D01*
G03X5194Y8648I-389J93D01*
G01X-1602D01*
Y14152D01*
X10902D01*
Y8648D01*
X10606D01*
G03X10217Y8155I0J-400D01*
G02X9931Y6354I-2317J-555D01*
G01X9902Y6305D01*
Y5252D01*
X10802D01*
G37*
G36*
G01X-18448Y12502D02*
Y-2D01*
X-23952D01*
Y12502D01*
X-23886D01*
G03X-23495Y12985I0J400D01*
G02X-18833I2331J496D01*
G03X-18448Y12502I391J-83D01*
G37*
G36*
G01X-9048Y19602D02*
Y7098D01*
X-14552D01*
Y15529D01*
X-14764Y15741D01*
X-14877Y15708D01*
G02X-13767Y19602I-654J2292D01*
G01X-9048D01*
G37*
G36*
G01X-1698Y15856D02*
X-1802Y15875D01*
X-2248Y15429D01*
Y7498D01*
X-7752D01*
Y20002D01*
X-2828D01*
G02X-1698Y15856I1559J-1802D01*
G37*
G36*
G01X31923Y13226D02*
X28323D01*
G02Y16228I-1850J1501D01*
G01X31923D01*
G02Y13226I1850J-1501D01*
G37*
G36*
G01X-30888Y25598D02*
X-37790D01*
G02Y28602I-3710J1502D01*
G01X-30888D01*
G02Y25598I1850J-1502D01*
G37*
G36*
G01X26300Y47052D02*
X31072D01*
X33752Y44372D01*
X33842Y44378D01*
G02X31622Y42158I158J-2378D01*
G01X31628Y42248D01*
X29828Y44048D01*
X26300D01*
G02Y47052I-1850J1502D01*
G37*
G36*
G01X66258Y47578D02*
X66348Y47572D01*
X73939Y55163D01*
X73929Y55257D01*
G02X76230Y53118I2371J243D01*
G01X76144Y53121D01*
X68472Y45448D01*
X68478Y45358D01*
G02X66258Y47578I-2378J-158D01*
G37*
G36*
G01X-48522Y44698D02*
X-64852Y61028D01*
X-64942Y61022D01*
G02X-62722Y63242I-158J2378D01*
G01X-62728Y63152D01*
X-47278Y47702D01*
X-34850D01*
G02Y44698I1850J-1502D01*
G01X-48522D01*
G37*
G54D20*
X78740Y78740D03*
Y-78740D03*
X-51500Y27100D03*
Y37100D03*
X-41500D03*
X-53600Y-4200D03*
X-51500Y7100D03*
X-41500D03*
X-51500Y17100D03*
X-41500D03*
X-47500Y-38400D03*
Y-58400D03*
Y-48400D03*
X-78740Y78740D03*
Y-78740D03*
X-53600Y-24200D03*
Y-14200D03*
X-63600Y-49400D03*
Y-39400D03*
Y-29400D03*
Y-19400D03*
G54D21*
X45100Y8900D03*
Y-10300D03*
%LPD*%
G75*
G54D10*
X-177165Y-177165D03*
Y177165D03*
X177165Y-177165D03*
Y177165D03*
G54D11*
X-128055Y121145D03*
X-123600Y125600D03*
X-118555Y113345D03*
X-114100Y117800D03*
X123655Y-119745D03*
X119200Y-124200D03*
X109345Y-114255D03*
X113800Y-109800D03*
G54D12*
X-132100Y125200D03*
X-121500Y-128900D03*
X-114900Y-112100D03*
X-116400Y124200D03*
X-92500Y-93100D03*
X-94700Y-91300D03*
X-97500Y-91200D03*
X-99900Y-93100D03*
X-90100Y-83300D03*
X-92952Y77952D03*
X-96600Y102735D03*
X-94770Y95470D03*
X-93200Y97900D03*
X-94600Y100700D03*
X-65100Y63400D03*
X-56400Y-64600D03*
Y-48400D03*
X-48882Y60900D03*
X-48986Y57539D03*
X-24100Y-58200D03*
X-24000Y35800D03*
X-29038Y27100D03*
X-33000Y46200D03*
X-33200Y51850D03*
X-25700Y47200D03*
X-2700Y-65300D03*
X-11300Y-62300D03*
X-4269Y-31600D03*
X-11731Y-37900D03*
X-18469Y-10864D03*
X-18800Y-3600D03*
X-2100Y-10800D03*
X-9500D03*
X-15531Y18000D03*
X-1269Y18200D03*
X-21164Y13481D03*
X-6081Y55300D03*
Y58800D03*
X-8969Y57176D03*
X-2200Y43500D03*
X9300Y-57481D03*
X9000Y-31600D03*
X-1031Y-42400D03*
X4900Y-10900D03*
X7900Y7600D03*
X6395Y37705D03*
X5700Y53100D03*
X5870Y58500D03*
X5900Y56100D03*
X20600Y-66900D03*
X23269Y-68149D03*
X38300Y-68100D03*
X33773Y14727D03*
X26473D03*
X26400Y9200D03*
X40682Y25100D03*
X34000Y42000D03*
X24450Y45550D03*
X28400Y50300D03*
X31500Y51500D03*
X41911Y-66111D03*
X50100Y-56300D03*
X58400Y-52600D03*
X48100Y-38319D03*
X61000Y-2300D03*
X60931Y1058D03*
X60700Y30619D03*
X54360Y60000D03*
X53195Y56845D03*
X51017Y61067D03*
X76300Y55500D03*
X66100Y45200D03*
X87639Y-94339D03*
X91470Y-97870D03*
X89112Y-100267D03*
X90600Y-103700D03*
X93053Y-106000D03*
X95700Y92366D03*
X98100Y90700D03*
X101200Y90100D03*
X103000Y92400D03*
X93789Y83889D03*
X125200Y-129500D03*
X116850Y-112850D03*
X112900Y118200D03*
X128200Y124000D03*
G54D13*
X-117145Y-124555D03*
X-121600Y-120100D03*
X-106745Y-112855D03*
X-111200Y-108400D03*
X125055Y120845D03*
X120600Y125300D03*
X114255Y110645D03*
X109800Y115100D03*
G54D14*
X-78740Y-78740D03*
X-63600Y-49400D03*
Y-29400D03*
Y-39400D03*
Y-19400D03*
X-78740Y78740D03*
X-47500Y-48400D03*
Y-58400D03*
Y-38400D03*
X-53600Y-24200D03*
Y-14200D03*
Y-4200D03*
X-41500Y17100D03*
X-51500D03*
X-41500Y7100D03*
X-51500D03*
X-41500Y37100D03*
X-51500D03*
X-41500Y27100D03*
X-51500D03*
X78740Y-78740D03*
Y78740D03*
G54D15*
X-22200Y-4600D03*
Y-10900D03*
X-13300Y-3700D03*
X-6600D03*
X-11800Y10200D03*
Y16500D03*
X-5000Y10600D03*
Y16900D03*
X-21200Y3100D03*
Y9400D03*
X-13300Y2600D03*
X-6600D03*
X8700Y-4600D03*
Y-10900D03*
G54D16*
X1400Y2500D03*
X7700D03*
X1500Y11400D03*
X7800D03*
G54D17*
X45100Y-10300D03*
Y8900D03*
G54D18*
G01X-132100Y125200D02*
Y125190D01*
X-128055Y121145D01*
G01X-117145Y-124555D02*
X-119302Y-126712D01*
X-119312D01*
X-121500Y-128900D01*
G01X-111200Y-108400D02*
X-114900Y-112100D01*
G01X-106745Y-112855D02*
X-111990Y-118100D01*
X-119600D01*
X-121600Y-120100D01*
G01X-116400Y124200D02*
Y120100D01*
X-114100Y117800D01*
G01X-118555Y113345D02*
X-121443Y116233D01*
Y123443D01*
X-123600Y125600D01*
G01X-33000Y46200D02*
X-47900D01*
X-65100Y63400D01*
G01X-56400Y-48400D02*
Y-64600D01*
G01X-41500Y27100D02*
X-29038D01*
G01X-4269Y-31600D02*
X9000D01*
G01X-11731Y-37900D02*
Y-40682D01*
X-10013Y-42400D01*
X-1031D01*
G01X-22200Y-10900D02*
X-22164Y-10864D01*
X-18469D01*
G01X-6600Y-3700D02*
X-2300D01*
X4900Y-10900D01*
G01X-13300Y-3700D02*
Y-7000D01*
X-9500Y-10800D01*
G01X-11800Y16500D02*
X-13400D01*
X-14900Y18000D01*
X-15531D01*
G01X-1269Y18200D02*
X-1600D01*
X-2800Y17000D01*
X-4900D01*
X-5000Y16900D01*
G01X-21164Y13481D02*
Y9436D01*
X-21200Y9400D01*
G01X-6600Y2600D02*
X-13300D01*
G01X8700Y-10900D02*
X4900D01*
G01X26473Y14727D02*
X33773D01*
G01X24450Y45550D02*
X30450D01*
X34000Y42000D01*
G01X50100Y-56300D02*
X54700D01*
X58400Y-52600D01*
G01X66100Y45200D02*
X76300Y55400D01*
Y55500D01*
G01X125200Y-129500D02*
Y-121290D01*
X123655Y-119745D01*
G01X119200Y-124200D02*
X117043Y-122043D01*
Y-121953D01*
X109345Y-114255D01*
G01X113800Y-109800D02*
X116850Y-112850D01*
G01X114255Y110645D02*
X119100Y115490D01*
Y123800D01*
X120600Y125300D01*
G01X109800Y115100D02*
X112900Y118200D01*
G01X125055Y120845D02*
X127212Y123002D01*
Y123012D01*
X128200Y124000D01*
G01X157519Y-178398D02*
G03X178398Y-157519I19646J1233D01*
G01X111763Y-90884D01*
G02Y90884I90884J90884D01*
G01X178398Y157519D01*
G03X157519Y178398I-1233J19646D01*
G01X90884Y111763D01*
G02X-90884I-90884J90884D01*
G01X-157519Y178398D01*
G03X-178398Y157519I-19646J-1233D01*
G01X-111763Y90884D01*
G02Y-90884I-90884J-90884D01*
G01X-178398Y-157519D01*
G03X-157519Y-178398I1233J-19646D01*
G01X-90884Y-111763D01*
G02X90884I90884J-90884D01*
G01X157519Y-178398D01*
G54D19*
G01X-67802Y-29400D02*
X-63600D01*
G01X-53600Y-28402D02*
Y-24200D01*
G01D02*
Y-19998D01*
G01X-57802Y-24200D02*
X-53600D01*
G01D02*
X-49398D01*
G01X-47500Y-42602D02*
Y-38400D01*
G01D02*
Y-34198D01*
G01X-51702Y-38400D02*
X-47500D01*
G01D02*
X-43298D01*
G01X-63600Y-33602D02*
Y-29400D01*
G01D02*
Y-25198D01*
G01Y-29400D02*
X-59398D01*
G01X-45702Y7100D02*
X-41500D01*
G01X-25152Y-4600D02*
X-22200D01*
G01X-41500Y2898D02*
Y7100D01*
G01D02*
Y11302D01*
G01Y7100D02*
X-37298D01*
G01X-24152Y3100D02*
X-21200D01*
G01X-22200Y-4600D02*
Y-1298D01*
G01Y-4600D02*
X-19248D01*
G01X-11800Y6898D02*
Y10200D01*
G01X-14752D02*
X-11800D01*
G01D02*
X-8848D01*
G01X-5000Y7298D02*
Y10600D01*
G01X-7952D02*
X-5000D01*
G01D02*
X-2048D01*
G01X-21200Y-202D02*
Y3100D01*
G01D02*
X-18248D01*
G01X-1902Y2500D02*
X1400D01*
G01X-1802Y11400D02*
X1500D01*
G01X8700Y-4600D02*
Y-1298D01*
G01X5748Y-4600D02*
X8700D01*
G01D02*
X11652D01*
G01X7800Y11400D02*
X7900Y11300D01*
Y7600D01*
G01X7700Y2500D02*
X7900Y2700D01*
Y7600D01*
G01X1400Y-452D02*
Y2500D01*
G01D02*
Y5452D01*
G01X1500Y8448D02*
Y11400D01*
G01D02*
Y14352D01*
M02*
