G04 ================== begin FILE IDENTIFICATION RECORD ==================*
G04 Layout Name:  E:/workspace/flyer/pcb/pcb/v3.0/flyer.brd*
G04 Film Name:    TOP*
G04 File Format:  Gerber RS274X*
G04 File Origin:  Cadence Allegro 16.5-P002*
G04 Origin Date:  Thu Jun 23 14:05:09 2016*
G04 *
G04 Layer:  VIA CLASS/TOP*
G04 Layer:  PIN/TOP*
G04 Layer:  ETCH/TOP*
G04 Layer:  BOARD GEOMETRY/OUTLINE*
G04 *
G04 Offset:    (0.00 0.00)*
G04 Mirror:    No*
G04 Mode:      Positive*
G04 Rotation:  0*
G04 FullContactRelief:  No*
G04 UndefLineWidth:     0.00*
G04 ================== end FILE IDENTIFICATION RECORD ====================*
%FSLAX35Y35*MOIN*%
%IR0*IPPOS*OFA0.00000B0.00000*MIA0B0*SFA1.00000B1.00000*%
%AMMACRO18*
21,1,.031,.035,0.0,0.0,135.*%
%ADD18MACRO18*%
%ADD29R,.008X.02*%
%AMMACRO11*
21,1,.038,.031,0.0,0.0,135.*%
%ADD11MACRO11*%
%ADD28R,.02X.008*%
%AMMACRO15*
21,1,.08,.08,0.0,0.0,135.*%
%ADD15MACRO15*%
%ADD31C,.034*%
%AMMACRO12*
21,1,.036,.048,0.0,0.0,135.*%
%ADD12MACRO12*%
%ADD20C,.056*%
%ADD16C,.02362*%
%AMMACRO19*
21,1,.031,.035,0.0,0.0,45.*%
%ADD19MACRO19*%
%ADD25R,.031X.035*%
%ADD26R,.012X.048*%
%ADD22R,.031X.038*%
%AMMACRO14*
21,1,.038,.031,0.0,0.0,45.*%
%ADD14MACRO14*%
%ADD27R,.08X.08*%
%ADD24R,.048X.012*%
%ADD23R,.028X.014*%
%ADD21R,.038X.031*%
%AMMACRO17*
21,1,.08,.08,0.0,0.0,45.*%
%ADD17MACRO17*%
%ADD30R,.06X.048*%
%AMMACRO13*
21,1,.036,.048,0.0,0.0,45.*%
%ADD13MACRO13*%
%ADD10C,.345*%
%ADD32C,.01*%
%ADD33C,.02*%
%ADD34C,.03*%
%ADD35C,.04*%
%ADD36C,.05*%
%ADD37C,.06*%
%ADD38C,.015*%
%ADD39C,.08*%
%ADD40C,.007*%
G75*
%LPD*%
G75*
G54D10*
X-177165Y-177165D03*
Y177165D03*
X177165Y-177165D03*
Y177165D03*
G54D20*
X-78740Y-78740D03*
X-63600Y-49400D03*
Y-29400D03*
Y-39400D03*
Y-19400D03*
X-78740Y78740D03*
X-47500Y-48400D03*
Y-58400D03*
Y-38400D03*
X-53600Y-24200D03*
Y-14200D03*
Y-4200D03*
X-41500Y17100D03*
X-51500D03*
X-41500Y7100D03*
X-51500D03*
X-41500Y37100D03*
X-51500D03*
X-41500Y27100D03*
X-51500D03*
X78740Y-78740D03*
Y78740D03*
G54D11*
X-155745Y-155355D03*
X-160200Y-150900D03*
X-87055Y-86345D03*
X-82600Y-90800D03*
X91055Y81345D03*
X86600Y85800D03*
X158355Y157445D03*
X153900Y161900D03*
G54D30*
X30400Y35200D03*
X60700D03*
G54D21*
X-66100Y17100D03*
X-66200Y27000D03*
X-66100Y32900D03*
X-59800Y17100D03*
X-59900Y27000D03*
X-59800Y32900D03*
X-44900Y58700D03*
X-45100Y52450D03*
X-38600Y58700D03*
X-38800Y52450D03*
X-13300Y43500D03*
X-7000D03*
X34000Y-30100D03*
X40300D03*
X30400Y22900D03*
X36700D03*
X28400Y53200D03*
X22100D03*
X55170Y64310D03*
X61470D03*
G54D12*
X-151296Y-141904D03*
X-142104Y-151096D03*
X144404Y152496D03*
X153596Y143304D03*
G54D40*
G01X20500Y-40800D02*
X24309D01*
G01X26700Y-34600D02*
X27853Y-35753D01*
Y-38831D01*
G01X24400Y-35600D02*
X26278Y-37478D01*
Y-38831D01*
G01X34152Y-50643D02*
X35902D01*
X36259Y-51000D01*
X39000D01*
G01X27100Y-53000D02*
X27853Y-52247D01*
Y-50643D01*
G01X36120Y-48674D02*
X39774D01*
G01X35400Y-53400D02*
X33700D01*
X32577Y-52277D01*
Y-50643D01*
G01X28400Y-54700D02*
X29428Y-53672D01*
Y-50643D01*
G01X32200Y-54900D02*
X31002Y-53702D01*
Y-50643D01*
G01X31250Y-35450D02*
X29428Y-37272D01*
Y-38831D01*
G01X36120Y-40800D02*
X39300D01*
G01X35300Y-35400D02*
X34556D01*
X32577Y-37379D01*
Y-38831D01*
G54D13*
X-154696Y143504D03*
X-145504Y152696D03*
X141804Y-151196D03*
X150996Y-142004D03*
G54D22*
X-53600Y55500D03*
Y49200D03*
X-38700Y-43500D03*
X-33400Y-52200D03*
Y-58500D03*
X-38700Y-37200D03*
X-7500Y-61200D03*
Y-54900D03*
X-1300Y-61200D03*
Y-54900D03*
X-8000Y-31600D03*
Y-37900D03*
X-12700Y57190D03*
Y50890D03*
X8400Y-53400D03*
Y-47100D03*
X2700Y-34700D03*
Y-41000D03*
X14500Y53200D03*
Y59500D03*
X33300Y-68100D03*
X27000D03*
X33300Y-61800D03*
X20600Y-63000D03*
Y-56700D03*
X27000Y-61800D03*
X39300Y-62900D03*
Y-56600D03*
X48100Y-42400D03*
Y-48700D03*
X57200Y-4000D03*
Y-10300D03*
Y2600D03*
Y8900D03*
X48900Y57060D03*
Y50760D03*
X61450Y57060D03*
Y50760D03*
G54D31*
X45100Y-10300D03*
Y8900D03*
G54D32*
G01X-114900Y-112100D02*
X-128398D01*
X-128399Y-112099D01*
G01X-138500Y122200D02*
X-135100D01*
X-132100Y125200D01*
G01X-121500Y-128900D02*
Y-137800D01*
G01X-116400Y124600D02*
Y124200D01*
G01X-112499Y127099D02*
X-113501D01*
X-116400Y124200D01*
G01X-91100Y-99100D02*
X-88802Y-96802D01*
X-88602D01*
X-82600Y-90800D01*
G01X-87055Y-86345D02*
X-90100Y-83300D01*
G01X-96333Y-93867D02*
X-99133D01*
X-99900Y-93100D01*
G01X-96333Y-92933D02*
Y-92367D01*
X-97500Y-91200D01*
G01X-96333Y-93867D02*
Y-92933D01*
G01Y-93867D02*
X-93267D01*
X-92500Y-93100D01*
G01X-88600Y87000D02*
X-86400Y84800D01*
Y77900D01*
X-71900Y63400D01*
X-65100D01*
G01X-93055Y82545D02*
Y78055D01*
X-92952Y77952D01*
G01X-88600Y87000D02*
X-90757Y89157D01*
X-97357D01*
X-102000Y93800D01*
G01X-94600Y100700D02*
X-95200D01*
X-96767Y99133D01*
Y99033D01*
G01D02*
X-94333D01*
G01X-96767D02*
X-98363Y100629D01*
Y102033D01*
X-97661Y102735D01*
X-96600D01*
G01X-94333Y99033D02*
X-94770Y98596D01*
Y97036D01*
X-96767Y99033D01*
G01X-94770Y95470D02*
Y96330D01*
G01D02*
X-93200Y97900D01*
G01X-56400Y-64600D02*
X-82600Y-90800D01*
G01X-66100Y17100D02*
Y23850D01*
X-66200Y23950D01*
Y27000D01*
G01X-66100Y32900D02*
Y27100D01*
X-66200Y27000D01*
G01X-49300Y44500D02*
X-49600Y44800D01*
X-60700D01*
X-66100Y39400D01*
Y32900D01*
G01X-56400Y-48400D02*
Y-38700D01*
X-49400Y-31700D01*
X-19300D01*
X-9353Y-21753D01*
Y-18738D01*
G01X-47500Y-48400D02*
X-42600Y-43500D01*
X-38700D01*
G01X-63600Y-39400D02*
X-53800Y-29600D01*
X-28126D01*
X-21164Y-22638D01*
Y-18738D01*
G01X-63600Y-19400D02*
X-63300Y-19100D01*
X-44082D01*
X-31909Y-6927D01*
X-29038D01*
G01X-53600Y-4200D02*
X-38085D01*
X-32938Y947D01*
X-29038D01*
G01X-53600Y-14200D02*
X-45087D01*
X-31908Y-1021D01*
X-29038D01*
G01X-51500Y7100D02*
X-46300Y12300D01*
X-36700D01*
X-33221Y8821D01*
X-29038D01*
G01Y4884D02*
X-32938D01*
X-36172Y1650D01*
X-56350D01*
X-59800Y5100D01*
Y17100D01*
G01D02*
X-51500D01*
G01X-59900Y27000D02*
X-55900D01*
X-55800Y27100D01*
X-51500D01*
G01X-59800Y32900D02*
X-56400D01*
X-55692Y32192D01*
X-46592D01*
X-41500Y27100D01*
G01X-53600Y49200D02*
X-47400D01*
X-45100Y51500D01*
Y52450D01*
G01X-53600Y55500D02*
X-51025D01*
X-48986Y57539D01*
G01X-46500Y58700D02*
X-47500Y57700D01*
X-48820D01*
X-48981Y57539D01*
X-48986D01*
G01X-46500Y58700D02*
X-48700Y60900D01*
X-48882D01*
G01X-44900Y58700D02*
X-46500D01*
G01X-8000Y-31600D02*
X-11800D01*
X-24100Y-43900D01*
Y-47123D01*
G01X2700Y-34700D02*
X-800D01*
X-3400Y-37300D01*
Y-40200D01*
X-7100Y-43900D01*
X-19400D01*
X-20650Y-45150D01*
Y-48050D01*
X-22282Y-49682D01*
X-24100D01*
G01X-33400Y-52200D02*
X-27041D01*
X-27000Y-52241D01*
X-24100D01*
G01Y-54800D02*
X-22400D01*
X-19750Y-52150D01*
X-17689D01*
X-17598Y-52241D01*
G01X-24100Y-54800D02*
Y-58200D01*
G01X490Y-18738D02*
X500Y-18748D01*
Y-22500D01*
X-4400Y-27400D01*
X-10600D01*
X-20400Y-37200D01*
X-38700D01*
G01X-29038Y-10864D02*
X-18469D01*
G01X-29038Y-8895D02*
X-24095D01*
X-18800Y-3600D01*
G01X-41500Y37100D02*
X-33300Y28900D01*
Y12100D01*
X-31990Y10790D01*
X-29038D01*
G01Y18664D02*
Y27100D01*
G01X-24000Y35800D02*
X-19195Y30995D01*
Y26538D01*
G01X-33000Y46200D02*
X-30100Y43300D01*
X-24400D01*
X-15258Y34158D01*
Y26538D01*
G01X-38800Y58500D02*
X-38600Y58700D01*
G01X-28800Y50500D02*
Y50300D01*
X-25700Y47200D01*
G01X-28800Y50500D02*
X-31850D01*
X-33200Y51850D01*
G01X-1300Y-61200D02*
Y-63900D01*
X-2700Y-65300D01*
G01X-17598Y-47123D02*
X5327D01*
X5350Y-47100D01*
X8400D01*
G01X-7500Y-61200D02*
X-10550D01*
X-11300Y-61950D01*
Y-62300D01*
G01X-8000Y-31600D02*
X-4400D01*
G01D02*
X2458Y-24742D01*
Y-18738D01*
G01X-4400Y-31600D02*
X-4269D01*
G01X-8000Y-37900D02*
X-11731D01*
G01X-2100Y-10800D02*
X582D01*
X4182Y-14400D01*
X5100D01*
X6395Y-15695D01*
Y-18738D01*
G01X-7384D02*
Y-12916D01*
X-9500Y-10800D01*
G01X-15531Y18000D02*
Y20831D01*
X-17227Y22527D01*
Y26538D01*
G01X-21164D02*
Y13481D01*
G01X-13290Y26538D02*
Y40440D01*
X-13300Y40450D01*
Y43500D01*
G01X-7000D02*
X-2200D01*
G01X5870Y58500D02*
X5439D01*
X2039Y55100D01*
G01X13100Y-71936D02*
X13200Y-71836D01*
Y-44100D01*
X10100Y-41000D01*
X2700D01*
G01X15700Y-71936D02*
X15800Y-71836D01*
Y-58500D01*
G01D02*
X17600Y-56700D01*
X20600D01*
G01X15800Y-58500D02*
X15750Y-58450D01*
Y-45450D01*
X20400Y-40800D01*
X20500D01*
G01X8400Y-53400D02*
Y-55400D01*
X9300Y-56300D01*
Y-57481D01*
G01X9000Y-31600D02*
X23700D01*
X26700Y-34600D01*
G01X2700Y-34700D02*
Y-30100D01*
X4427Y-28373D01*
Y-18738D01*
G01X2700Y-34700D02*
X23500D01*
X24400Y-35600D01*
G01X-1031Y-42400D02*
X1300D01*
X2700Y-41000D01*
G01X58400Y-52600D02*
Y-35800D01*
X31495Y-8895D01*
X16238D01*
G01X8700Y-10900D02*
X16202D01*
X16238Y-10864D01*
G01X8364Y-18738D02*
Y-14364D01*
X4900Y-10900D01*
G01X45100Y-10300D02*
X42600D01*
X35290Y-2990D01*
X16238D01*
G01Y14727D02*
X26473D01*
G01X16238Y12758D02*
X13058D01*
X7900Y7600D01*
G01X4427Y26538D02*
Y22638D01*
X3686Y21897D01*
X3597D01*
X1797Y20097D01*
X628D01*
X-1269Y18200D01*
G01X16238Y-1021D02*
X35179D01*
X45100Y8900D01*
G01X30400Y22900D02*
Y6000D01*
X25347Y947D01*
X16238D01*
G01X26400Y9200D02*
X23718D01*
X22128Y10790D01*
X16238D01*
G01X24450Y45550D02*
X8364Y29464D01*
Y26538D01*
G01X6395D02*
Y37705D01*
G01X5870Y58500D02*
Y59330D01*
G01X20600Y-63000D02*
Y-66900D01*
G01X27000Y-68100D02*
X23318D01*
X23269Y-68149D01*
G01X33300Y-68100D02*
X38300D01*
G01X39000Y-51000D02*
X39700Y-51700D01*
X41500D01*
X46100Y-56300D01*
X50100D01*
G01X20600Y-56700D02*
X23400D01*
X27100Y-53000D01*
G01X39300Y-56600D02*
Y-54000D01*
X38700Y-53400D01*
X35400D01*
G01X27000Y-61800D02*
Y-56100D01*
X28400Y-54700D01*
G01X33300Y-61800D02*
Y-56000D01*
X32200Y-54900D01*
G01X39300Y-62900D02*
Y-63250D01*
X41911Y-65861D01*
Y-66111D01*
G01X40300Y-30100D02*
Y-25550D01*
X40200Y-25450D01*
G01X34000Y-30100D02*
X33900Y-30200D01*
Y-32800D01*
X31250Y-35450D01*
G01X48100Y-38319D02*
X45181Y-35400D01*
X35300D01*
G01X89500Y-87200D02*
X87343Y-85043D01*
Y-78643D01*
X66700Y-58000D01*
Y10500D01*
X62473Y14727D01*
X33773D01*
G01X30400Y22900D02*
Y35200D01*
G01X40682Y25100D02*
X39800D01*
X38700Y24000D01*
X38100D01*
X37000Y22900D01*
X36700D01*
G01X34000Y42000D02*
X62900D01*
X66100Y45200D01*
G01X28400Y53200D02*
Y50300D01*
G01X48100Y-38319D02*
Y-42400D01*
G01X45100Y-10300D02*
X57200D01*
G01X61000Y-2300D02*
X59300D01*
X57600Y-4000D01*
X57200D01*
G01X60931Y1058D02*
Y-2231D01*
X61000Y-2300D01*
G01X45100Y8900D02*
X57200D01*
G01X60931Y1058D02*
X60142D01*
X58600Y2600D01*
X57200D01*
G01X60700Y35200D02*
Y30619D01*
G01X48900Y50760D02*
X61450D01*
G01X55170Y64310D02*
Y60810D01*
X54360Y60000D01*
G01X48900Y57060D02*
X52980D01*
X53195Y56845D01*
G01X51017Y61067D02*
Y60647D01*
X48900Y58530D01*
Y57060D01*
G01X61450D02*
Y61240D01*
X61470Y61260D01*
Y64310D01*
G01X76300Y55500D02*
Y68000D01*
X83400Y75100D01*
Y82600D01*
X86600Y85800D01*
G01X98600Y-96300D02*
X89500Y-87200D01*
G01X85045Y-91655D02*
X86700Y-93310D01*
Y-93400D01*
X87639Y-94339D01*
G01X93367Y-101533D02*
X93333D01*
G01D02*
X92767D01*
G01X93333D02*
X92500Y-100700D01*
Y-98900D01*
X91470Y-97870D01*
G01X92767Y-101533D02*
X90600Y-103700D01*
G01X92767Y-101533D02*
X91229D01*
X89963Y-100267D01*
X89112D01*
G01X93053Y-104208D02*
Y-104080D01*
X93367Y-103766D01*
Y-101533D01*
G01X91055Y81345D02*
X93599Y83889D01*
X93789D01*
G01X86600Y85800D02*
X86353Y86047D01*
Y91153D01*
X94200Y99000D01*
G01X99433Y92033D02*
Y91867D01*
G01Y92033D02*
X98100Y90700D01*
G01X99433Y93767D02*
Y92033D01*
G01Y93767D02*
X100800Y92400D01*
X103000D01*
G01X96900Y92366D02*
X98301Y93767D01*
X99433D01*
G01X119349Y-135649D02*
Y-135351D01*
X125200Y-129500D01*
G01X116850Y-112850D02*
X129148D01*
X129149Y-112849D01*
G01X112900Y118200D02*
Y129200D01*
G01X128200Y124000D02*
X140300D01*
G54D23*
X-24100Y-47123D03*
Y-49682D03*
Y-52241D03*
Y-54800D03*
X-17600D03*
X-17598Y-52241D03*
Y-49682D03*
Y-47123D03*
G54D14*
X-158355Y156745D03*
X-153900Y161200D03*
X-93055Y82545D03*
X-88600Y87000D03*
X85045Y-91655D03*
X89500Y-87200D03*
X156645Y-156455D03*
X161100Y-152000D03*
G54D33*
G01X-47500Y-58400D02*
X-54600D01*
X-63600Y-49400D01*
G01X-33400Y-58500D02*
X-36950D01*
X-37050Y-58400D01*
X-47500D01*
G01X-51500Y37100D02*
Y42300D01*
X-49300Y44500D01*
G01D02*
X-39400D01*
X-38800Y45100D01*
Y52450D01*
G01X4400Y-71936D02*
X-24964D01*
X-33400Y-63500D01*
Y-58500D01*
G01X-25100Y58400D02*
X-20500D01*
X-16500Y54400D01*
Y52800D01*
X-14590Y50890D01*
X-12700D01*
G01X-38600Y58700D02*
Y52650D01*
X-38800Y52450D01*
G01X-38600Y58700D02*
X-33900D01*
X-29600Y54400D01*
X-25100D01*
X-21400Y50700D01*
Y50500D01*
G01X-1300Y-54900D02*
X-7500D01*
G01D02*
X-11050D01*
X-11150Y-54800D01*
X-17600D01*
G01X-12105Y-4500D02*
Y4422D01*
X-21164Y13481D01*
G01X-18469Y-10864D02*
X-12105Y-4500D01*
G01D02*
X4900D01*
G01X14500Y53200D02*
Y52850D01*
X9950Y48300D01*
X-6560D01*
X-9150Y50890D01*
X-12700D01*
G01X-2381Y55100D02*
X-2390D01*
X-5890Y58600D01*
Y58609D01*
G01X-12700Y57190D02*
X-8983D01*
X-8969Y57176D01*
G01X4400Y-71936D02*
X13100D01*
G01X-1300Y-54900D02*
X2250D01*
X4500Y-57150D01*
Y-71836D01*
X4400Y-71936D01*
G01X13100D02*
X15700D01*
G01X54400Y-48700D02*
Y-62900D01*
X45364Y-71936D01*
X15700D01*
G01X4900Y-10900D02*
Y-4500D01*
G01D02*
X7900Y-1500D01*
Y7600D01*
G01X4900Y-10900D02*
X8700D01*
G01X40200Y-25450D02*
X23250D01*
X8700Y-10900D01*
G01X7900Y18200D02*
X16900Y27200D01*
Y31100D01*
X32000Y46200D01*
X44690D01*
X48900Y50410D01*
Y50760D01*
G01X7900Y7600D02*
Y18200D01*
G01D02*
X-1269D01*
G01X14500Y53200D02*
X22100D01*
G01X39774Y-48674D02*
X39800Y-48700D01*
X48100D01*
G01X40200Y-25450D02*
X43750D01*
X54400Y-36100D01*
Y-48700D01*
G01X39300Y-40800D02*
X46500D01*
X48100Y-42400D01*
G01X38600Y58700D02*
X24740D01*
X22100Y56060D01*
Y53200D01*
G01X34900Y50800D02*
X30800D01*
X28400Y53200D01*
G01X31500Y51500D02*
X29600D01*
X28400Y50300D01*
G01X48100Y-48700D02*
X54400D01*
G01X42300Y50800D02*
X48860D01*
X48900Y50760D01*
G54D24*
X-29038Y-10864D03*
Y-8895D03*
Y-6927D03*
Y-4958D03*
Y-2990D03*
Y-1021D03*
Y947D03*
Y2916D03*
Y4884D03*
Y6853D03*
Y8821D03*
Y10790D03*
Y12758D03*
Y14727D03*
Y16695D03*
Y18664D03*
X16238Y-2990D03*
Y-4958D03*
Y-6927D03*
Y-8895D03*
Y-10864D03*
Y18664D03*
Y16695D03*
Y14727D03*
Y12758D03*
Y10790D03*
Y8821D03*
Y6853D03*
Y4884D03*
Y2916D03*
Y947D03*
Y-1021D03*
G54D15*
X-131415Y-139685D03*
X-139900Y-131200D03*
X141685Y133115D03*
X133200Y141600D03*
G54D34*
G01X-94333Y99033D02*
X-93200Y97900D01*
G01X-96600Y101300D02*
X-94333Y99033D01*
G01X-6081Y55300D02*
X-7069D01*
X-8945Y57176D01*
X-8969D01*
G01X-5890Y58609D02*
X-6081Y58800D01*
G01X-2381Y55100D02*
X-5890Y58609D01*
G01X100Y55100D02*
X-2381D01*
G01X-8969Y57176D02*
X-8800Y57345D01*
Y57369D01*
X-7369Y58800D01*
X-6081D01*
G01X5900Y56100D02*
Y58470D01*
X5870Y58500D01*
G01X5900Y56100D02*
Y53300D01*
X5700Y53100D01*
G54D25*
X-25100Y58400D03*
X-28800Y50500D03*
X-21400D03*
X38600Y58700D03*
X34900Y50800D03*
X42300D03*
G54D16*
X-132100Y125200D03*
X-121500Y-128900D03*
X-114900Y-112100D03*
X-116400Y124200D03*
X-92500Y-93100D03*
X-94700Y-91300D03*
X-97500Y-91200D03*
X-99900Y-93100D03*
X-90100Y-83300D03*
X-92952Y77952D03*
X-96600Y102735D03*
X-94770Y95470D03*
X-93200Y97900D03*
X-94600Y100700D03*
X-65100Y63400D03*
X-56400Y-64600D03*
Y-48400D03*
X-48882Y60900D03*
X-48986Y57539D03*
X-24100Y-58200D03*
X-24000Y35800D03*
X-29038Y27100D03*
X-33000Y46200D03*
X-33200Y51850D03*
X-25700Y47200D03*
X-2700Y-65300D03*
X-11300Y-62300D03*
X-4269Y-31600D03*
X-11731Y-37900D03*
X-18469Y-10864D03*
X-18800Y-3600D03*
X-2100Y-10800D03*
X-9500D03*
X-15531Y18000D03*
X-1269Y18200D03*
X-21164Y13481D03*
X-6081Y55300D03*
Y58800D03*
X-8969Y57176D03*
X-2200Y43500D03*
X9300Y-57481D03*
X9000Y-31600D03*
X-1031Y-42400D03*
X4900Y-10900D03*
X7900Y7600D03*
X6395Y37705D03*
X5700Y53100D03*
X5870Y58500D03*
X5900Y56100D03*
X20600Y-66900D03*
X23269Y-68149D03*
X38300Y-68100D03*
X33773Y14727D03*
X26473D03*
X26400Y9200D03*
X40682Y25100D03*
X34000Y42000D03*
X24450Y45550D03*
X28400Y50300D03*
X31500Y51500D03*
X41911Y-66111D03*
X50100Y-56300D03*
X58400Y-52600D03*
X48100Y-38319D03*
X61000Y-2300D03*
X60931Y1058D03*
X60700Y30619D03*
X54360Y60000D03*
X53195Y56845D03*
X51017Y61067D03*
X76300Y55500D03*
X66100Y45200D03*
X87639Y-94339D03*
X91470Y-97870D03*
X89112Y-100267D03*
X90600Y-103700D03*
X93053Y-106000D03*
X95700Y92366D03*
X98100Y90700D03*
X101200Y90100D03*
X103000Y92400D03*
X93789Y83889D03*
X125200Y-129500D03*
X116850Y-112850D03*
X112900Y118200D03*
X128200Y124000D03*
G54D35*
G01X-151296Y-141904D02*
Y-141996D01*
X-160200Y-150900D01*
G01X-142104Y-151096D02*
X-149008Y-158000D01*
X-153100D01*
X-155745Y-155355D01*
G01X-139900Y-131200D02*
X-140592D01*
X-151296Y-141904D01*
G01X-158355Y156745D02*
X-161600Y153500D01*
Y150400D01*
X-154704Y143504D01*
X-154696D01*
G01X-143285Y134715D02*
X-145907D01*
X-154696Y143504D01*
G01X-145504Y152696D02*
Y152804D01*
X-153900Y161200D01*
G01X-142104Y-151096D02*
Y-150374D01*
X-131415Y-139685D01*
G01X-128399Y-112099D02*
X-139900Y-123600D01*
Y-131200D01*
G01X-131415Y-139685D02*
X-123385D01*
X-121500Y-137800D01*
G01X-128399Y-112099D02*
X-70936Y-54636D01*
Y49164D01*
X-53000Y67100D01*
X-52500D01*
G01X-104970Y102002D02*
X-107618Y104650D01*
X-120950D01*
X-138500Y122200D01*
G01D02*
Y129900D01*
X-143285Y134685D01*
Y134715D01*
G01X-134800Y143200D02*
X-136008D01*
X-145504Y152696D01*
G01X-134800Y143200D02*
X-128600D01*
X-112499Y127099D01*
G01X-121500Y-137800D02*
X-96700Y-113000D01*
Y-104700D01*
X-99302Y-102098D01*
Y-102070D01*
G01X-52500Y67100D02*
X-112499Y127099D01*
G01X14500Y59500D02*
Y67100D01*
G01X129149Y-112849D02*
X70936Y-54636D01*
Y81750D01*
X68193Y84493D01*
G01D02*
X112900Y129200D01*
G01X119349Y-135649D02*
X98800Y-115100D01*
Y-107300D01*
X101570Y-104530D01*
Y-104502D01*
G01X102402Y101970D02*
X102430D01*
X105500Y98900D01*
X115200D01*
X140300Y124000D01*
G01X130315Y-138485D02*
X122185D01*
X119349Y-135649D01*
G01X133200Y141600D02*
X125300D01*
X112900Y129200D01*
G01X130315Y-138485D02*
X135500Y-143670D01*
Y-144800D01*
X141804Y-151104D01*
Y-151196D01*
G01D02*
X149908Y-159300D01*
X153800D01*
X156645Y-156455D01*
G01X138800Y-130000D02*
X138992D01*
X150996Y-142004D01*
G01X129149Y-112849D02*
X138800Y-122500D01*
Y-130000D01*
G01X140300Y124000D02*
X141685Y125385D01*
Y133115D01*
G01D02*
X146635Y138065D01*
X148357D01*
X153596Y143304D01*
G01X133200Y141600D02*
X133508D01*
X144404Y152496D01*
G01D02*
X144496D01*
X153900Y161900D01*
G01X150996Y-142004D02*
X151104D01*
X161100Y-152000D01*
G01X153596Y143304D02*
X153704D01*
X161000Y150600D01*
Y154800D01*
X158355Y157445D01*
G54D17*
X-143285Y134715D03*
X-134800Y143200D03*
X130315Y-138485D03*
X138800Y-130000D03*
G54D26*
X-3447Y-18738D03*
X-5416D03*
X-7384D03*
X-9353D03*
X-11321D03*
X-13290D03*
X-15258D03*
X-17227D03*
X-19195D03*
X-21164D03*
Y26538D03*
X-19195D03*
X-17227D03*
X-15258D03*
X-13290D03*
X-11321D03*
X-9353D03*
X-7384D03*
X-5416D03*
X-3447D03*
X8364Y-18738D03*
X6395D03*
X4427D03*
X2458D03*
X490D03*
X-1479D03*
Y26538D03*
X490D03*
X2458D03*
X4427D03*
X6395D03*
X8364D03*
G54D36*
G01X-96333Y-92933D02*
X-94700Y-91300D01*
G01X-99900Y-93100D02*
X-96500D01*
X-96333Y-92933D01*
G01X-94770Y96330D02*
X-96600Y98160D01*
Y101300D01*
G01X93053Y-106000D02*
Y-104208D01*
G01D02*
X89112Y-100267D01*
G01X99433Y91867D02*
X101200Y90100D01*
G01X96900Y92366D02*
X98934D01*
X99433Y91867D01*
G01X95700Y92366D02*
X96900D01*
G54D27*
X100Y55100D03*
Y67100D03*
G54D18*
X-99302Y-102070D03*
X-96333Y-93867D03*
X-91100Y-99100D03*
X102402Y101970D03*
X99433Y93767D03*
X94200Y99000D03*
G54D37*
G01X2039Y55100D02*
X100D01*
G54D19*
X-104970Y102002D03*
X-96767Y99033D03*
X-102000Y93800D03*
X101570Y-104502D03*
X93367Y-101533D03*
X98600Y-96300D03*
G54D28*
X36120Y-45524D03*
Y-47099D03*
Y-48674D03*
X24309D03*
Y-47099D03*
Y-45524D03*
X36120Y-40800D03*
Y-42375D03*
Y-43950D03*
X24309D03*
Y-42375D03*
Y-40800D03*
G54D38*
G01X-1300Y-54900D02*
Y-51250D01*
X-2868Y-49682D01*
X-17598D01*
G54D29*
X34152Y-50643D03*
X32577D03*
X31002D03*
X29428D03*
X27853D03*
X26278D03*
Y-38831D03*
X27853D03*
X29428D03*
X31002D03*
X32577D03*
X34152D03*
G54D39*
G01X100Y67100D02*
X-52500D01*
G01X14500D02*
X100D01*
G01X14500D02*
X43370D01*
X56970Y80700D01*
X64400D01*
X68193Y84493D01*
M02*
